ISO-10303-21;
HEADER;
FILE_DESCRIPTION (( 'STEP AP214' ),
    '1' );
FILE_NAME ('frame.STEP',
    '2026-05-27T18:54:09',
    ( '' ),
    ( '' ),
    'SwSTEP 2.0',
    'SolidWorks 2025',
    '' );
FILE_SCHEMA (( 'AUTOMOTIVE_DESIGN' ));
ENDSEC;

DATA;
#1 = CARTESIAN_POINT ( 'NONE',  ( 2.500000000000000000, 50.00000000000000000, 0.000000000000000000 ) ) ;
#2 = VECTOR ( 'NONE', #579, 1000.000000000000000 ) ;
#3 = SHAPE_DEFINITION_REPRESENTATION ( #736, #990 ) ;
#4 = ORIENTED_EDGE ( 'NONE', *, *, #102, .F. ) ;
#5 = LINE ( 'NONE', #320, #452 ) ;
#6 = ORIENTED_EDGE ( 'NONE', *, *, #903, .T. ) ;
#7 = DIRECTION ( 'NONE',  ( 0.000000000000000000, -0.000000000000000000, 1.000000000000000000 ) ) ;
#8 = AXIS2_PLACEMENT_3D ( 'NONE', #908, #987, #209 ) ;
#9 = ORIENTED_EDGE ( 'NONE', *, *, #213, .T. ) ;
#10 = DIRECTION ( 'NONE',  ( 1.000000000000000000, -0.000000000000000000, -0.000000000000000000 ) ) ;
#11 = VERTEX_POINT ( 'NONE', #173 ) ;
#12 = CARTESIAN_POINT ( 'NONE',  ( 2.500000000000000000, 31.09999999999968168, 25.89999999999992397 ) ) ;
#13 = VECTOR ( 'NONE', #30, 1000.000000000000000 ) ;
#14 = ORIENTED_EDGE ( 'NONE', *, *, #861, .F. ) ;
#15 = LINE ( 'NONE', #414, #707 ) ;
#16 = ADVANCED_FACE ( 'NONE', ( #253 ), #811, .F. ) ;
#17 = ORIENTED_EDGE ( 'NONE', *, *, #468, .T. ) ;
#18 = ADVANCED_FACE ( 'NONE', ( #575 ), #733, .F. ) ;
#19 = EDGE_CURVE ( 'NONE', #327, #133, #802, .T. ) ;
#20 = CARTESIAN_POINT ( 'NONE',  ( 0.000000000000000000, 15.00000000000000888, 90.00000000000002842 ) ) ;
#21 = VERTEX_POINT ( 'NONE', #724 ) ;
#22 = VERTEX_POINT ( 'NONE', #556 ) ;
#23 = PRODUCT_DEFINITION ( 'UNKNOWN', '', #196, #438 ) ;
#24 = CARTESIAN_POINT ( 'NONE',  ( 2.500000000000000000, 28.89999999999970370, 38.09999999999990905 ) ) ;
#25 = EDGE_CURVE ( 'NONE', #810, #518, #867, .T. ) ;
#26 = ORIENTED_EDGE ( 'NONE', *, *, #726, .F. ) ;
#27 = VECTOR ( 'NONE', #635, 1000.000000000000000 ) ;
#28 = VECTOR ( 'NONE', #673, 1000.000000000000000 ) ;
#29 = DIRECTION ( 'NONE',  ( 0.000000000000000000, 0.000000000000000000, -1.000000000000000000 ) ) ;
#30 = DIRECTION ( 'NONE',  ( 0.000000000000000000, 0.000000000000000000, -1.000000000000000000 ) ) ;
#31 = ORIENTED_EDGE ( 'NONE', *, *, #260, .F. ) ;
#32 = CARTESIAN_POINT ( 'NONE',  ( 2.500000000000000000, -28.89999999999970370, 38.09999999999990195 ) ) ;
#33 = PLANE ( 'NONE',  #1000 ) ;
#34 = ORIENTED_EDGE ( 'NONE', *, *, #39, .F. ) ;
#35 = DIRECTION ( 'NONE',  ( 1.000000000000000000, -0.000000000000000000, -0.000000000000000000 ) ) ;
#36 = AXIS2_PLACEMENT_3D ( 'NONE', #410, #718, #826 ) ;
#37 = FACE_OUTER_BOUND ( 'NONE', #139, .T. ) ;
#38 = CARTESIAN_POINT ( 'NONE',  ( 2.500000000000000000, 25.00000000000000711, 90.00000000000002842 ) ) ;
#39 = EDGE_CURVE ( 'NONE', #419, #767, #880, .T. ) ;
#40 = VERTEX_POINT ( 'NONE', #790 ) ;
#41 = CARTESIAN_POINT ( 'NONE',  ( 0.000000000000000000, 18.15000000000000924, 137.0000000000000000 ) ) ;
#42 = VECTOR ( 'NONE', #887, 1000.000000000000000 ) ;
#43 = AXIS2_PLACEMENT_3D ( 'NONE', #527, #79, #612 ) ;
#44 = LINE ( 'NONE', #359, #547 ) ;
#45 = LINE ( 'NONE', #128, #771 ) ;
#46 = VERTEX_POINT ( 'NONE', #178 ) ;
#47 = CARTESIAN_POINT ( 'NONE',  ( 2.500000000000000000, -28.89999999999970370, 25.89999999999993108 ) ) ;
#48 = DIRECTION ( 'NONE',  ( -1.000000000000000000, -0.000000000000000000, -0.000000000000000000 ) ) ;
#49 = FACE_OUTER_BOUND ( 'NONE', #788, .T. ) ;
#50 = ORIENTED_EDGE ( 'NONE', *, *, #131, .F. ) ;
#51 = VECTOR ( 'NONE', #85, 1000.000000000000000 ) ;
#52 = CARTESIAN_POINT ( 'NONE',  ( 2.500000000000000000, 28.89999999999970370, 38.09999999999990905 ) ) ;
#53 = AXIS2_PLACEMENT_3D ( 'NONE', #901, #448, #753 ) ;
#54 = PRESENTATION_STYLE_ASSIGNMENT (( #432 ) ) ;
#55 = DIRECTION ( 'NONE',  ( 0.000000000000000000, -0.000000000000000000, 1.000000000000000000 ) ) ;
#56 = EDGE_LOOP ( 'NONE', ( #422, #464, #299, #9 ) ) ;
#57 = VECTOR ( 'NONE', #600, 1000.000000000000000 ) ;
#58 = AXIS2_PLACEMENT_3D ( 'NONE', #465, #943, #708 ) ;
#59 = ORIENTED_EDGE ( 'NONE', *, *, #285, .F. ) ;
#60 = FACE_OUTER_BOUND ( 'NONE', #179, .T. ) ;
#61 = CARTESIAN_POINT ( 'NONE',  ( 2.500000000000000000, -24.99999999999999289, 90.00000000000002842 ) ) ;
#62 = ADVANCED_FACE ( 'NONE', ( #496 ), #86, .F. ) ;
#63 =( GEOMETRIC_REPRESENTATION_CONTEXT ( 3 ) GLOBAL_UNCERTAINTY_ASSIGNED_CONTEXT ( ( #510 ) ) GLOBAL_UNIT_ASSIGNED_CONTEXT ( ( #118, #370, #592 ) ) REPRESENTATION_CONTEXT ( 'NONE', 'WORKASPACE' ) );
#64 = VERTEX_POINT ( 'NONE', #421 ) ;
#65 = LINE ( 'NONE', #868, #687 ) ;
#66 = CARTESIAN_POINT ( 'NONE',  ( 2.500000000000000000, 15.00000000000000888, 92.50000000000002842 ) ) ;
#67 = ORIENTED_EDGE ( 'NONE', *, *, #794, .T. ) ;
#68 = PLANE ( 'NONE',  #1018 ) ;
#69 = ADVANCED_FACE ( 'NONE', ( #728 ), #91, .F. ) ;
#70 = VERTEX_POINT ( 'NONE', #966 ) ;
#71 = CARTESIAN_POINT ( 'NONE',  ( 2.500000000000000000, -14.99999999999999289, 87.50000000000002842 ) ) ;
#72 = EDGE_CURVE ( 'NONE', #988, #703, #190, .T. ) ;
#73 = CARTESIAN_POINT ( 'NONE',  ( 2.500000000000000000, -28.89999999999970370, 25.89999999999993108 ) ) ;
#74 = CARTESIAN_POINT ( 'NONE',  ( 2.500000000000000000, 28.89999999999970370, 25.89999999999992397 ) ) ;
#75 = EDGE_CURVE ( 'NONE', #627, #11, #127, .T. ) ;
#76 = VERTEX_POINT ( 'NONE', #225 ) ;
#77 = DIRECTION ( 'NONE',  ( -1.000000000000000000, 0.000000000000000000, 0.000000000000000000 ) ) ;
#78 = VECTOR ( 'NONE', #212, 1000.000000000000000 ) ;
#79 = DIRECTION ( 'NONE',  ( -1.000000000000000000, -0.000000000000000000, 0.000000000000000000 ) ) ;
#80 = DIRECTION ( 'NONE',  ( -0.000000000000000000, -1.000000000000000000, -0.000000000000000000 ) ) ;
#81 = VERTEX_POINT ( 'NONE', #660 ) ;
#82 = DIRECTION ( 'NONE',  ( 0.000000000000000000, 0.000000000000000000, -1.000000000000000000 ) ) ;
#83 =( LENGTH_UNIT ( ) NAMED_UNIT ( * ) SI_UNIT ( .MILLI., .METRE. ) );
#84 = ORIENTED_EDGE ( 'NONE', *, *, #494, .F. ) ;
#85 = DIRECTION ( 'NONE',  ( -0.000000000000000000, 1.000000000000000000, -0.000000000000000000 ) ) ;
#86 = CYLINDRICAL_SURFACE ( 'NONE', #484, 2.000000000000001776 ) ;
#87 = DIRECTION ( 'NONE',  ( 0.000000000000000000, 1.000000000000000000, 0.000000000000000000 ) ) ;
#88 = VECTOR ( 'NONE', #431, 1000.000000000000000 ) ;
#89 = ORIENTED_EDGE ( 'NONE', *, *, #589, .T. ) ;
#90 = CARTESIAN_POINT ( 'NONE',  ( 0.000000000000000000, -18.14999999999998792, 135.0000000000000000 ) ) ;
#91 = PLANE ( 'NONE',  #36 ) ;
#92 = FACE_OUTER_BOUND ( 'NONE', #217, .T. ) ;
#93 = VECTOR ( 'NONE', #446, 1000.000000000000000 ) ;
#94 = EDGE_LOOP ( 'NONE', ( #158, #694, #59, #594 ) ) ;
#95 = FACE_OUTER_BOUND ( 'NONE', #331, .T. ) ;
#96 = EDGE_CURVE ( 'NONE', #684, #429, #581, .T. ) ;
#97 = ADVANCED_FACE ( 'NONE', ( #889 ), #591, .F. ) ;
#98 = CARTESIAN_POINT ( 'NONE',  ( 0.000000000000000000, 31.09999999999968168, 25.89999999999992397 ) ) ;
#99 = DIRECTION ( 'NONE',  ( -0.000000000000000000, -1.000000000000000000, -0.000000000000000000 ) ) ;
#100 = CIRCLE ( 'NONE', #462, 2.500000000000002220 ) ;
#101 = ORIENTED_EDGE ( 'NONE', *, *, #860, .T. ) ;
#102 = EDGE_CURVE ( 'NONE', #119, #46, #681, .T. ) ;
#103 = VECTOR ( 'NONE', #1006, 1000.000000000000000 ) ;
#104 = DIRECTION ( 'NONE',  ( 0.000000000000000000, 0.000000000000000000, -1.000000000000000000 ) ) ;
#105 = LINE ( 'NONE', #812, #281 ) ;
#106 = VERTEX_POINT ( 'NONE', #982 ) ;
#107 = ORIENTED_EDGE ( 'NONE', *, *, #125, .F. ) ;
#108 = LINE ( 'NONE', #885, #991 ) ;
#109 = EDGE_LOOP ( 'NONE', ( #662, #769, #878, #623 ) ) ;
#110 = AXIS2_PLACEMENT_3D ( 'NONE', #165, #557, #1003 ) ;
#111 = DIRECTION ( 'NONE',  ( 0.000000000000000000, -1.000000000000000000, -1.577021341797111809E-15 ) ) ;
#112 = FACE_BOUND ( 'NONE', #137, .T. ) ;
#113 = FACE_OUTER_BOUND ( 'NONE', #915, .T. ) ;
#114 = ORIENTED_EDGE ( 'NONE', *, *, #860, .F. ) ;
#115 = DIRECTION ( 'NONE',  ( -1.000000000000000000, 0.000000000000000000, -0.000000000000000000 ) ) ;
#116 = CARTESIAN_POINT ( 'NONE',  ( 2.500000000000000000, 31.09999999999968168, 25.89999999999992397 ) ) ;
#117 = EDGE_CURVE ( 'NONE', #70, #598, #774, .T. ) ;
#118 =( LENGTH_UNIT ( ) NAMED_UNIT ( * ) SI_UNIT ( .MILLI., .METRE. ) );
#119 = VERTEX_POINT ( 'NONE', #846 ) ;
#120 = CARTESIAN_POINT ( 'NONE',  ( 2.500000000000000000, -31.09999999999968168, 38.09999999999990905 ) ) ;
#121 = LINE ( 'NONE', #822, #854 ) ;
#122 = DIRECTION ( 'NONE',  ( 0.000000000000000000, -1.000000000000000000, -4.625929269271487886E-16 ) ) ;
#123 = EDGE_LOOP ( 'NONE', ( #855, #215, #454, #101 ) ) ;
#124 = DIRECTION ( 'NONE',  ( -0.000000000000000000, -0.000000000000000000, 1.000000000000000000 ) ) ;
#125 = EDGE_CURVE ( 'NONE', #613, #336, #343, .T. ) ;
#126 = AXIS2_PLACEMENT_3D ( 'NONE', #377, #151, #155 ) ;
#127 = LINE ( 'NONE', #268, #2 ) ;
#128 = CARTESIAN_POINT ( 'NONE',  ( 0.000000000000000000, 0.000000000000000000, 0.000000000000000000 ) ) ;
#129 = ORIENTED_EDGE ( 'NONE', *, *, #907, .F. ) ;
#130 = LINE ( 'NONE', #52, #716 ) ;
#131 = EDGE_CURVE ( 'NONE', #64, #400, #351, .T. ) ;
#132 = DIRECTION ( 'NONE',  ( 1.000000000000000000, -0.000000000000000000, -0.000000000000000000 ) ) ;
#133 = VERTEX_POINT ( 'NONE', #816 ) ;
#134 = AXIS2_PLACEMENT_3D ( 'NONE', #90, #10, #946 ) ;
#135 = PLANE ( 'NONE',  #175 ) ;
#136 = VECTOR ( 'NONE', #569, 1000.000000000000000 ) ;
#137 = EDGE_LOOP ( 'NONE', ( #528, #858 ) ) ;
#138 = DIRECTION ( 'NONE',  ( 1.000000000000000000, 0.000000000000000000, 0.000000000000000000 ) ) ;
#139 = EDGE_LOOP ( 'NONE', ( #168, #14, #84, #706, #526, #931, #869, #499 ) ) ;
#140 = AXIS2_PLACEMENT_3D ( 'NONE', #834, #737, #514 ) ;
#141 = ORIENTED_EDGE ( 'NONE', *, *, #652, .F. ) ;
#142 =( GEOMETRIC_REPRESENTATION_CONTEXT ( 3 ) GLOBAL_UNCERTAINTY_ASSIGNED_CONTEXT ( ( #588 ) ) GLOBAL_UNIT_ASSIGNED_CONTEXT ( ( #83, #418, #713 ) ) REPRESENTATION_CONTEXT ( 'NONE', 'WORKASPACE' ) );
#143 = PLANE ( 'NONE',  #603 ) ;
#144 = CARTESIAN_POINT ( 'NONE',  ( 0.000000000000000000, -18.14999999999998792, 133.0000000000000000 ) ) ;
#145 = DIRECTION ( 'NONE',  ( -1.000000000000000000, -0.000000000000000000, -0.000000000000000000 ) ) ;
#146 = VECTOR ( 'NONE', #648, 1000.000000000000000 ) ;
#147 = ADVANCED_FACE ( 'NONE', ( #830, #112, #538, #738, #976, #669, #37 ), #33, .F. ) ;
#148 = EDGE_LOOP ( 'NONE', ( #842, #478, #693, #497 ) ) ;
#149 = FACE_OUTER_BOUND ( 'NONE', #643, .T. ) ;
#150 = APPLICATION_CONTEXT ( 'automotive_design' ) ;
#151 = DIRECTION ( 'NONE',  ( -0.000000000000000000, 0.000000000000000000, 1.000000000000000000 ) ) ;
#152 = LINE ( 'NONE', #633, #184 ) ;
#153 = EDGE_LOOP ( 'NONE', ( #181, #199, #141, #632 ) ) ;
#154 = DIRECTION ( 'NONE',  ( -0.000000000000000000, 3.154042683594224013E-15, 1.000000000000000000 ) ) ;
#155 = DIRECTION ( 'NONE',  ( 1.000000000000000000, 0.000000000000000000, 0.000000000000000000 ) ) ;
#156 = ORIENTED_EDGE ( 'NONE', *, *, #501, .T. ) ;
#157 = FACE_OUTER_BOUND ( 'NONE', #153, .T. ) ;
#158 = ORIENTED_EDGE ( 'NONE', *, *, #257, .T. ) ;
#159 = AXIS2_PLACEMENT_3D ( 'NONE', #781, #77, #939 ) ;
#160 = DIRECTION ( 'NONE',  ( 0.000000000000000000, -1.000000000000000000, 0.000000000000000000 ) ) ;
#161 = EDGE_LOOP ( 'NONE', ( #280, #731, #362, #938 ) ) ;
#162 = DIRECTION ( 'NONE',  ( -1.000000000000000000, -0.000000000000000000, -0.000000000000000000 ) ) ;
#163 = EDGE_CURVE ( 'NONE', #262, #403, #273, .T. ) ;
#164 = CARTESIAN_POINT ( 'NONE',  ( 2.500000000000000000, 50.00000000000000000, 0.000000000000000000 ) ) ;
#165 = CARTESIAN_POINT ( 'NONE',  ( 0.000000000000000000, -24.99999999999999289, 90.00000000000002842 ) ) ;
#166 = ORIENTED_EDGE ( 'NONE', *, *, #599, .F. ) ;
#167 = CARTESIAN_POINT ( 'NONE',  ( 0.000000000000000000, 31.09999999999968168, 38.09999999999990905 ) ) ;
#168 = ORIENTED_EDGE ( 'NONE', *, *, #910, .F. ) ;
#169 = PLANE ( 'NONE',  #722 ) ;
#170 = ORIENTED_EDGE ( 'NONE', *, *, #726, .T. ) ;
#171 = CARTESIAN_POINT ( 'NONE',  ( 2.500000000000000000, -50.00000000000000711, 50.00000000000000000 ) ) ;
#172 = EDGE_CURVE ( 'NONE', #513, #751, #121, .T. ) ;
#173 = CARTESIAN_POINT ( 'NONE',  ( 0.000000000000000000, 50.00000000000000000, 50.00000000000000711 ) ) ;
#174 = DIRECTION ( 'NONE',  ( -1.000000000000000000, -0.000000000000000000, 0.000000000000000000 ) ) ;
#175 = AXIS2_PLACEMENT_3D ( 'NONE', #536, #460, #55 ) ;
#176 = ORIENTED_EDGE ( 'NONE', *, *, #207, .T. ) ;
#177 = EDGE_CURVE ( 'NONE', #336, #133, #596, .T. ) ;
#178 = CARTESIAN_POINT ( 'NONE',  ( 0.000000000000000000, -34.99999999999999289, 150.0000000000000284 ) ) ;
#179 = EDGE_LOOP ( 'NONE', ( #1014, #114, #973, #487 ) ) ;
#180 = DIRECTION ( 'NONE',  ( -1.000000000000000000, -0.000000000000000000, -0.000000000000000000 ) ) ;
#181 = ORIENTED_EDGE ( 'NONE', *, *, #806, .T. ) ;
#182 = ADVANCED_FACE ( 'NONE', ( #436 ), #747, .F. ) ;
#183 = APPLICATION_CONTEXT ( 'automotive_design' ) ;
#184 = VECTOR ( 'NONE', #246, 1000.000000000000000 ) ;
#185 = VERTEX_POINT ( 'NONE', #441 ) ;
#186 = CARTESIAN_POINT ( 'NONE',  ( 2.500000000000000000, -18.14999999999998792, 137.0000000000000000 ) ) ;
#187 = ORIENTED_EDGE ( 'NONE', *, *, #495, .T. ) ;
#188 = AXIS2_PLACEMENT_3D ( 'NONE', #971, #197, #895 ) ;
#189 = CARTESIAN_POINT ( 'NONE',  ( 2.500000000000000000, -50.00000000000000711, 50.00000000000000000 ) ) ;
#190 = LINE ( 'NONE', #584, #271 ) ;
#191 = DIRECTION ( 'NONE',  ( 1.000000000000000000, 0.000000000000000000, 0.000000000000000000 ) ) ;
#192 = CIRCLE ( 'NONE', #8, 2.500000000000002220 ) ;
#193 = ORIENTED_EDGE ( 'NONE', *, *, #902, .F. ) ;
#194 = AXIS2_PLACEMENT_3D ( 'NONE', #313, #844, #82 ) ;
#195 = CARTESIAN_POINT ( 'NONE',  ( 2.500000000000000000, -31.09999999999968168, 25.89999999999992752 ) ) ;
#196 = PRODUCT_DEFINITION_FORMATION_WITH_SPECIFIED_SOURCE ( 'ANY', '', #342, .NOT_KNOWN. ) ;
#197 = DIRECTION ( 'NONE',  ( 1.000000000000000000, 0.000000000000000000, 0.000000000000000000 ) ) ;
#198 = SURFACE_SIDE_STYLE ('',( #977 ) ) ;
#199 = ORIENTED_EDGE ( 'NONE', *, *, #1009, .F. ) ;
#200 = CARTESIAN_POINT ( 'NONE',  ( 2.500000000000000000, 35.00000000000001421, 150.0000000000000284 ) ) ;
#201 = DIRECTION ( 'NONE',  ( -1.000000000000000000, -0.000000000000000000, -0.000000000000000000 ) ) ;
#202 = DIRECTION ( 'NONE',  ( 0.000000000000000000, 1.000000000000000000, 0.000000000000000000 ) ) ;
#203 = ORIENTED_EDGE ( 'NONE', *, *, #768, .F. ) ;
#204 = EDGE_CURVE ( 'NONE', #629, #513, #44, .T. ) ;
#205 = ADVANCED_FACE ( 'NONE', ( #674 ), #906, .F. ) ;
#206 = CARTESIAN_POINT ( 'NONE',  ( 0.000000000000000000, 25.00000000000000711, 87.50000000000002842 ) ) ;
#207 = EDGE_CURVE ( 'NONE', #394, #40, #936, .T. ) ;
#208 = CARTESIAN_POINT ( 'NONE',  ( 0.000000000000000000, 28.89999999999970370, 38.09999999999990905 ) ) ;
#209 = DIRECTION ( 'NONE',  ( 0.000000000000000000, 0.000000000000000000, -1.000000000000000000 ) ) ;
#210 = ORIENTED_EDGE ( 'NONE', *, *, #354, .T. ) ;
#211 = PRODUCT_RELATED_PRODUCT_CATEGORY ( 'part', '', ( #342 ) ) ;
#212 = DIRECTION ( 'NONE',  ( 0.000000000000000000, 0.000000000000000000, 1.000000000000000000 ) ) ;
#213 = EDGE_CURVE ( 'NONE', #947, #703, #481, .T. ) ;
#214 = VECTOR ( 'NONE', #841, 1000.000000000000000 ) ;
#215 = ORIENTED_EDGE ( 'NONE', *, *, #213, .F. ) ;
#216 = CARTESIAN_POINT ( 'NONE',  ( 2.500000000000000000, 35.00000000000001421, 50.00000000000000711 ) ) ;
#217 = EDGE_LOOP ( 'NONE', ( #493, #34, #317, #873 ) ) ;
#218 = DIRECTION ( 'NONE',  ( -1.000000000000000000, -0.000000000000000000, -0.000000000000000000 ) ) ;
#219 = ORIENTED_EDGE ( 'NONE', *, *, #285, .T. ) ;
#220 = AXIS2_PLACEMENT_3D ( 'NONE', #650, #29, #634 ) ;
#221 = ORIENTED_EDGE ( 'NONE', *, *, #647, .F. ) ;
#222 = DIRECTION ( 'NONE',  ( -0.000000000000000000, 1.000000000000000000, -3.154042683594223618E-15 ) ) ;
#223 = DIRECTION ( 'NONE',  ( 0.000000000000000000, 0.000000000000000000, 1.000000000000000000 ) ) ;
#224 = ORIENTED_EDGE ( 'NONE', *, *, #729, .F. ) ;
#225 = CARTESIAN_POINT ( 'NONE',  ( 2.500000000000000000, -14.99999999999999289, 87.50000000000002842 ) ) ;
#226 = EDGE_CURVE ( 'NONE', #836, #270, #238, .T. ) ;
#227 = VECTOR ( 'NONE', #111, 1000.000000000000000 ) ;
#228 = ORIENTED_EDGE ( 'NONE', *, *, #1007, .T. ) ;
#229 = DIRECTION ( 'NONE',  ( 0.000000000000000000, 1.000000000000000000, -2.081668171172168513E-16 ) ) ;
#230 = DIRECTION ( 'NONE',  ( -0.000000000000000000, 0.000000000000000000, 1.000000000000000000 ) ) ;
#231 = DIRECTION ( 'NONE',  ( 0.000000000000000000, -0.000000000000000000, -1.000000000000000000 ) ) ;
#232 = STYLED_ITEM ( 'NONE', ( #54 ), #656 ) ;
#233 = EDGE_LOOP ( 'NONE', ( #773, #587, #247, #886 ) ) ;
#234 = PLANE ( 'NONE',  #58 ) ;
#235 = PLANE ( 'NONE',  #621 ) ;
#236 = AXIS2_PLACEMENT_3D ( 'NONE', #930, #628, #231 ) ;
#237 = ORIENTED_EDGE ( 'NONE', *, *, #308, .T. ) ;
#238 = LINE ( 'NONE', #488, #838 ) ;
#239 = ORIENTED_EDGE ( 'NONE', *, *, #599, .T. ) ;
#240 = CARTESIAN_POINT ( 'NONE',  ( 0.000000000000000000, 15.00000000000000888, 92.50000000000002842 ) ) ;
#241 = LINE ( 'NONE', #311, #937 ) ;
#242 = ORIENTED_EDGE ( 'NONE', *, *, #411, .T. ) ;
#243 = VECTOR ( 'NONE', #617, 1000.000000000000000 ) ;
#244 = FACE_OUTER_BOUND ( 'NONE', #294, .T. ) ;
#245 = ORIENTED_EDGE ( 'NONE', *, *, #903, .F. ) ;
#246 = DIRECTION ( 'NONE',  ( -0.000000000000000000, -1.000000000000000000, -0.000000000000000000 ) ) ;
#247 = ORIENTED_EDGE ( 'NONE', *, *, #117, .F. ) ;
#248 = ADVANCED_FACE ( 'NONE', ( #391 ), #408, .F. ) ;
#249 = LINE ( 'NONE', #264, #146 ) ;
#250 = APPLICATION_PROTOCOL_DEFINITION ( 'draft international standard', 'automotive_design', 1998, #183 ) ;
#251 = ORIENTED_EDGE ( 'NONE', *, *, #817, .T. ) ;
#252 = DIRECTION ( 'NONE',  ( -1.000000000000000000, -0.000000000000000000, -0.000000000000000000 ) ) ;
#253 = FACE_OUTER_BOUND ( 'NONE', #785, .T. ) ;
#254 = EDGE_CURVE ( 'NONE', #767, #11, #490, .T. ) ;
#255 = CARTESIAN_POINT ( 'NONE',  ( 2.500000000000000000, -35.00000000000001421, 50.00000000000000711 ) ) ;
#256 = ORIENTED_EDGE ( 'NONE', *, *, #25, .F. ) ;
#257 = EDGE_CURVE ( 'NONE', #598, #327, #399, .T. ) ;
#258 = EDGE_LOOP ( 'NONE', ( #67, #833, #475, #792 ) ) ;
#259 = DIRECTION ( 'NONE',  ( 0.000000000000000000, -1.000000000000000000, 0.000000000000000000 ) ) ;
#260 = EDGE_CURVE ( 'NONE', #935, #819, #241, .T. ) ;
#261 = VECTOR ( 'NONE', #772, 1000.000000000000000 ) ;
#262 = VERTEX_POINT ( 'NONE', #554 ) ;
#263 = ORIENTED_EDGE ( 'NONE', *, *, #385, .F. ) ;
#264 = CARTESIAN_POINT ( 'NONE',  ( 2.500000000000000000, -24.99999999999999289, 87.50000000000002842 ) ) ;
#265 = EDGE_LOOP ( 'NONE', ( #978, #469, #509, #924 ) ) ;
#266 = DIRECTION ( 'NONE',  ( 0.000000000000000000, 0.000000000000000000, -1.000000000000000000 ) ) ;
#267 = VECTOR ( 'NONE', #783, 1000.000000000000000 ) ;
#268 = CARTESIAN_POINT ( 'NONE',  ( 2.500000000000000000, 50.00000000000000000, 50.00000000000000711 ) ) ;
#269 = CARTESIAN_POINT ( 'NONE',  ( 2.500000000000000000, 0.000000000000000000, 0.000000000000000000 ) ) ;
#270 = VERTEX_POINT ( 'NONE', #644 ) ;
#271 = VECTOR ( 'NONE', #520, 1000.000000000000000 ) ;
#272 = CARTESIAN_POINT ( 'NONE',  ( 0.000000000000000000, -50.00000000000000711, 50.00000000000000000 ) ) ;
#273 = LINE ( 'NONE', #364, #985 ) ;
#274 = DIRECTION ( 'NONE',  ( -1.000000000000000000, -0.000000000000000000, -0.000000000000000000 ) ) ;
#275 = VECTOR ( 'NONE', #124, 1000.000000000000000 ) ;
#276 = ORIENTED_EDGE ( 'NONE', *, *, #825, .F. ) ;
#277 = LINE ( 'NONE', #41, #893 ) ;
#278 = DIRECTION ( 'NONE',  ( -1.000000000000000000, -0.000000000000000000, -0.000000000000000000 ) ) ;
#279 = EDGE_CURVE ( 'NONE', #40, #689, #316, .T. ) ;
#280 = ORIENTED_EDGE ( 'NONE', *, *, #172, .T. ) ;
#281 = VECTOR ( 'NONE', #730, 1000.000000000000000 ) ;
#282 = LINE ( 'NONE', #777, #914 ) ;
#283 = DIRECTION ( 'NONE',  ( -0.000000000000000000, -0.000000000000000000, -1.000000000000000000 ) ) ;
#284 = DIRECTION ( 'NONE',  ( 0.000000000000000000, 0.000000000000000000, -1.000000000000000000 ) ) ;
#285 = EDGE_CURVE ( 'NONE', #546, #613, #778, .T. ) ;
#286 = VERTEX_POINT ( 'NONE', #563 ) ;
#287 = CARTESIAN_POINT ( 'NONE',  ( 0.000000000000000000, 35.00000000000001421, 50.00000000000000711 ) ) ;
#288 = ORIENTED_EDGE ( 'NONE', *, *, #163, .F. ) ;
#289 = FACE_OUTER_BOUND ( 'NONE', #123, .T. ) ;
#290 = AXIS2_PLACEMENT_3D ( 'NONE', #719, #492, #712 ) ;
#291 = EDGE_LOOP ( 'NONE', ( #839, #573, #107, #582 ) ) ;
#292 = CARTESIAN_POINT ( 'NONE',  ( 2.500000000000000000, 35.00000000000001421, 50.00000000000000711 ) ) ;
#293 = CARTESIAN_POINT ( 'NONE',  ( 0.000000000000000000, -28.89999999999970370, 38.09999999999990195 ) ) ;
#294 = EDGE_LOOP ( 'NONE', ( #567, #203, #276, #955 ) ) ;
#295 = FACE_OUTER_BOUND ( 'NONE', #258, .T. ) ;
#296 = ADVANCED_FACE ( 'NONE', ( #157 ), #952, .F. ) ;
#297 = DIRECTION ( 'NONE',  ( 0.000000000000000000, 1.000000000000000000, 4.625929269271487886E-16 ) ) ;
#298 = CARTESIAN_POINT ( 'NONE',  ( 2.500000000000000000, 15.00000000000000888, 90.00000000000002842 ) ) ;
#299 = ORIENTED_EDGE ( 'NONE', *, *, #800, .F. ) ;
#300 = LINE ( 'NONE', #770, #243 ) ;
#301 = CARTESIAN_POINT ( 'NONE',  ( 2.500000000000000000, -31.09999999999968168, 38.09999999999990905 ) ) ;
#302 = ORIENTED_EDGE ( 'NONE', *, *, #928, .F. ) ;
#303 = DIRECTION ( 'NONE',  ( 0.000000000000000000, 0.000000000000000000, -1.000000000000000000 ) ) ;
#304 = AXIS2_PLACEMENT_3D ( 'NONE', #371, #916, #934 ) ;
#305 = ORIENTED_EDGE ( 'NONE', *, *, #279, .F. ) ;
#306 = ADVANCED_FACE ( 'NONE', ( #698 ), #68, .F. ) ;
#307 = LINE ( 'NONE', #71, #864 ) ;
#308 = EDGE_CURVE ( 'NONE', #336, #653, #152, .T. ) ;
#309 = CARTESIAN_POINT ( 'NONE',  ( 0.000000000000000000, -24.99999999999999289, 87.50000000000002842 ) ) ;
#310 = ORIENTED_EDGE ( 'NONE', *, *, #468, .F. ) ;
#311 = CARTESIAN_POINT ( 'NONE',  ( 2.500000000000000000, 35.00000000000001421, 50.00000000000000711 ) ) ;
#312 = ORIENTED_EDGE ( 'NONE', *, *, #177, .T. ) ;
#313 = CARTESIAN_POINT ( 'NONE',  ( 0.000000000000000000, 18.15000000000000924, 135.0000000000000000 ) ) ;
#314 = ADVANCED_FACE ( 'NONE', ( #637 ), #870, .F. ) ;
#315 = AXIS2_PLACEMENT_3D ( 'NONE', #859, #162, #559 ) ;
#316 = LINE ( 'NONE', #710, #680 ) ;
#317 = ORIENTED_EDGE ( 'NONE', *, *, #516, .F. ) ;
#318 = LINE ( 'NONE', #401, #732 ) ;
#319 = EDGE_LOOP ( 'NONE', ( #828, #450 ) ) ;
#320 = CARTESIAN_POINT ( 'NONE',  ( 2.500000000000000000, -34.99999999999999289, 150.0000000000000284 ) ) ;
#321 = CIRCLE ( 'NONE', #535, 2.000000000000001776 ) ;
#322 = DIRECTION ( 'NONE',  ( -1.000000000000000000, -0.000000000000000000, -0.000000000000000000 ) ) ;
#323 = DIRECTION ( 'NONE',  ( -1.000000000000000000, -0.000000000000000000, -0.000000000000000000 ) ) ;
#324 = APPLICATION_PROTOCOL_DEFINITION ( 'draft international standard', 'automotive_design', 1998, #150 ) ;
#325 = EDGE_LOOP ( 'NONE', ( #678, #288, #847, #239 ) ) ;
#326 = CARTESIAN_POINT ( 'NONE',  ( 0.000000000000000000, -14.99999999999999289, 87.50000000000002842 ) ) ;
#327 = VERTEX_POINT ( 'NONE', #702 ) ;
#328 = VECTOR ( 'NONE', #804, 1000.000000000000000 ) ;
#329 = CARTESIAN_POINT ( 'NONE',  ( 2.500000000000000000, -31.09999999999968168, 38.09999999999990905 ) ) ;
#330 = ADVANCED_FACE ( 'NONE', ( #1013 ), #866, .F. ) ;
#331 = EDGE_LOOP ( 'NONE', ( #522, #390, #386, #372 ) ) ;
#332 = DIRECTION ( 'NONE',  ( 0.000000000000000000, -2.081668171172168513E-16, -1.000000000000000000 ) ) ;
#333 = VERTEX_POINT ( 'NONE', #793 ) ;
#334 = LINE ( 'NONE', #651, #13 ) ;
#335 = CARTESIAN_POINT ( 'NONE',  ( 0.000000000000000000, 0.000000000000000000, 0.000000000000000000 ) ) ;
#336 = VERTEX_POINT ( 'NONE', #789 ) ;
#337 = VERTEX_POINT ( 'NONE', #404 ) ;
#338 = DIRECTION ( 'NONE',  ( -0.000000000000000000, 1.000000000000000000, -0.000000000000000000 ) ) ;
#339 = AXIS2_PLACEMENT_3D ( 'NONE', #1, #695, #920 ) ;
#340 = AXIS2_PLACEMENT_3D ( 'NONE', #590, #980, #115 ) ;
#341 = ORIENTED_EDGE ( 'NONE', *, *, #897, .T. ) ;
#342 = PRODUCT ( 'frame', 'frame', '', ( #397 ) ) ;
#343 = LINE ( 'NONE', #742, #795 ) ;
#344 = VERTEX_POINT ( 'NONE', #326 ) ;
#345 = CARTESIAN_POINT ( 'NONE',  ( 2.500000000000000000, 15.00000000000000888, 92.50000000000002842 ) ) ;
#346 = ORIENTED_EDGE ( 'NONE', *, *, #910, .T. ) ;
#347 = DIRECTION ( 'NONE',  ( 0.000000000000000000, 0.000000000000000000, -1.000000000000000000 ) ) ;
#348 = CARTESIAN_POINT ( 'NONE',  ( 0.000000000000000000, 18.15000000000000924, 135.0000000000000000 ) ) ;
#349 = CYLINDRICAL_SURFACE ( 'NONE', #670, 2.500000000000002220 ) ;
#350 = ORIENTED_EDGE ( 'NONE', *, *, #902, .T. ) ;
#351 = CIRCLE ( 'NONE', #188, 2.000000000000001776 ) ;
#352 = FACE_OUTER_BOUND ( 'NONE', #657, .T. ) ;
#353 = CARTESIAN_POINT ( 'NONE',  ( 2.500000000000000000, -34.99999999999999289, 150.0000000000000284 ) ) ;
#354 = EDGE_CURVE ( 'NONE', #119, #629, #5, .T. ) ;
#355 = FACE_BOUND ( 'NONE', #553, .T. ) ;
#356 = AXIS2_PLACEMENT_3D ( 'NONE', #829, #745, #757 ) ;
#357 = ORIENTED_EDGE ( 'NONE', *, *, #624, .T. ) ;
#358 = DIRECTION ( 'NONE',  ( -0.000000000000000000, 1.000000000000000000, -3.154042683594223618E-15 ) ) ;
#359 = CARTESIAN_POINT ( 'NONE',  ( 2.500000000000000000, -35.00000000000001421, 50.00000000000000711 ) ) ;
#360 = EDGE_CURVE ( 'NONE', #106, #270, #15, .T. ) ;
#361 = CARTESIAN_POINT ( 'NONE',  ( 2.500000000000000000, 0.000000000000000000, 0.000000000000000000 ) ) ;
#362 = ORIENTED_EDGE ( 'NONE', *, *, #677, .F. ) ;
#363 = CARTESIAN_POINT ( 'NONE',  ( 0.000000000000000000, -31.09999999999968168, 25.89999999999992752 ) ) ;
#364 = CARTESIAN_POINT ( 'NONE',  ( 2.500000000000000000, -24.99999999999999289, 92.50000000000002842 ) ) ;
#365 = VECTOR ( 'NONE', #852, 1000.000000000000000 ) ;
#366 = CARTESIAN_POINT ( 'NONE',  ( 0.000000000000000000, -28.89999999999970370, 25.89999999999993108 ) ) ;
#367 = ADVANCED_FACE ( 'NONE', ( #95 ), #721, .F. ) ;
#368 = EDGE_LOOP ( 'NONE', ( #560, #654, #170, #780 ) ) ;
#369 = CARTESIAN_POINT ( 'NONE',  ( 0.000000000000000000, -18.14999999999998792, 135.0000000000000000 ) ) ;
#370 =( NAMED_UNIT ( * ) PLANE_ANGLE_UNIT ( ) SI_UNIT ( $, .RADIAN. ) );
#371 = CARTESIAN_POINT ( 'NONE',  ( 2.500000000000000000, -18.14999999999998792, 135.0000000000000000 ) ) ;
#372 = ORIENTED_EDGE ( 'NONE', *, *, #39, .T. ) ;
#373 = CIRCLE ( 'NONE', #944, 2.000000000000001776 ) ;
#374 = ORIENTED_EDGE ( 'NONE', *, *, #572, .F. ) ;
#375 = ORIENTED_EDGE ( 'NONE', *, *, #96, .F. ) ;
#376 = CARTESIAN_POINT ( 'NONE',  ( 2.500000000000000000, 25.00000000000000711, 87.50000000000002842 ) ) ;
#377 = CARTESIAN_POINT ( 'NONE',  ( 2.500000000000000000, 25.00000000000000711, 92.50000000000002842 ) ) ;
#378 = EDGE_LOOP ( 'NONE', ( #640, #798, #380, #543 ) ) ;
#379 = VECTOR ( 'NONE', #658, 1000.000000000000000 ) ;
#380 = ORIENTED_EDGE ( 'NONE', *, *, #933, .F. ) ;
#381 = DIRECTION ( 'NONE',  ( 0.000000000000000000, 0.000000000000000000, -1.000000000000000000 ) ) ;
#382 = CARTESIAN_POINT ( 'NONE',  ( 2.500000000000000000, -14.99999999999999289, 92.50000000000002842 ) ) ;
#383 = DIRECTION ( 'NONE',  ( 0.000000000000000000, 0.000000000000000000, 1.000000000000000000 ) ) ;
#384 = EDGE_CURVE ( 'NONE', #1019, #851, #912, .T. ) ;
#385 = EDGE_CURVE ( 'NONE', #951, #403, #815, .T. ) ;
#386 = ORIENTED_EDGE ( 'NONE', *, *, #605, .F. ) ;
#387 = EDGE_CURVE ( 'NONE', #703, #810, #700, .T. ) ;
#388 = CARTESIAN_POINT ( 'NONE',  ( 0.000000000000000000, -18.14999999999998792, 135.0000000000000000 ) ) ;
#389 = CARTESIAN_POINT ( 'NONE',  ( 0.000000000000000000, 25.00000000000000711, 92.50000000000002842 ) ) ;
#390 = ORIENTED_EDGE ( 'NONE', *, *, #75, .F. ) ;
#391 = FACE_OUTER_BOUND ( 'NONE', #959, .T. ) ;
#392 = ADVANCED_FACE ( 'NONE', ( #60 ), #856, .F. ) ;
#393 = VECTOR ( 'NONE', #457, 1000.000000000000000 ) ;
#394 = VERTEX_POINT ( 'NONE', #470 ) ;
#395 = ADVANCED_FACE ( 'NONE', ( #244 ), #234, .F. ) ;
#396 = DIRECTION ( 'NONE',  ( 1.000000000000000000, 0.000000000000000000, 0.000000000000000000 ) ) ;
#397 = PRODUCT_CONTEXT ( 'NONE', #150, 'mechanical' ) ;
#398 = VERTEX_POINT ( 'NONE', #787 ) ;
#399 = LINE ( 'NONE', #167, #500 ) ;
#400 = VERTEX_POINT ( 'NONE', #704 ) ;
#401 = CARTESIAN_POINT ( 'NONE',  ( 2.500000000000000000, 25.00000000000000711, 87.50000000000002842 ) ) ;
#402 = VECTOR ( 'NONE', #201, 1000.000000000000000 ) ;
#403 = VERTEX_POINT ( 'NONE', #1016 ) ;
#404 = CARTESIAN_POINT ( 'NONE',  ( 0.000000000000000000, -14.99999999999999289, 92.50000000000002842 ) ) ;
#405 = EDGE_LOOP ( 'NONE', ( #953, #636, #659, #156 ) ) ;
#406 = CARTESIAN_POINT ( 'NONE',  ( 0.000000000000000000, 28.89999999999970370, 38.09999999999990905 ) ) ;
#407 = ORIENTED_EDGE ( 'NONE', *, *, #541, .F. ) ;
#408 = PLANE ( 'NONE',  #236 ) ;
#409 = VECTOR ( 'NONE', #274, 1000.000000000000000 ) ;
#410 = CARTESIAN_POINT ( 'NONE',  ( 2.500000000000000000, -28.89999999999970370, 25.89999999999993108 ) ) ;
#411 = EDGE_CURVE ( 'NONE', #76, #344, #307, .T. ) ;
#412 = CARTESIAN_POINT ( 'NONE',  ( 2.500000000000000000, 50.00000000000000000, 50.00000000000000711 ) ) ;
#413 = EDGE_LOOP ( 'NONE', ( #909, #245, #1005, #940 ) ) ;
#414 = CARTESIAN_POINT ( 'NONE',  ( 2.500000000000000000, 15.00000000000000888, 87.50000000000002842 ) ) ;
#415 = ORIENTED_EDGE ( 'NONE', *, *, #825, .T. ) ;
#416 = VECTOR ( 'NONE', #323, 1000.000000000000000 ) ;
#417 = CARTESIAN_POINT ( 'NONE',  ( 0.000000000000000000, -35.00000000000001421, 50.00000000000000711 ) ) ;
#418 =( NAMED_UNIT ( * ) PLANE_ANGLE_UNIT ( ) SI_UNIT ( $, .RADIAN. ) );
#419 = VERTEX_POINT ( 'NONE', #611 ) ;
#420 = AXIS2_PLACEMENT_3D ( 'NONE', #298, #278, #515 ) ;
#421 = CARTESIAN_POINT ( 'NONE',  ( 0.000000000000000000, 18.15000000000000924, 137.0000000000000000 ) ) ;
#422 = ORIENTED_EDGE ( 'NONE', *, *, #387, .T. ) ;
#423 = CARTESIAN_POINT ( 'NONE',  ( 0.000000000000000000, 25.00000000000000711, 92.50000000000002842 ) ) ;
#424 = VERTEX_POINT ( 'NONE', #240 ) ;
#425 = CARTESIAN_POINT ( 'NONE',  ( 2.500000000000000000, -50.00000000000000711, 50.00000000000000000 ) ) ;
#426 = CARTESIAN_POINT ( 'NONE',  ( 2.500000000000000000, -24.99999999999999289, 87.50000000000002842 ) ) ;
#427 = EDGE_CURVE ( 'NONE', #865, #810, #65, .T. ) ;
#428 = AXIS2_PLACEMENT_3D ( 'NONE', #691, #154, #848 ) ;
#429 = VERTEX_POINT ( 'NONE', #376 ) ;
#430 = LINE ( 'NONE', #905, #275 ) ;
#431 = DIRECTION ( 'NONE',  ( -0.000000000000000000, -0.000000000000000000, 1.000000000000000000 ) ) ;
#432 = SURFACE_STYLE_USAGE ( .BOTH. , #198 ) ;
#433 = ORIENTED_EDGE ( 'NONE', *, *, #435, .F. ) ;
#434 = LINE ( 'NONE', #200, #879 ) ;
#435 = EDGE_CURVE ( 'NONE', #518, #988, #776, .T. ) ;
#436 = FACE_OUTER_BOUND ( 'NONE', #148, .T. ) ;
#437 = ORIENTED_EDGE ( 'NONE', *, *, #308, .F. ) ;
#438 = PRODUCT_DEFINITION_CONTEXT ( 'detailed design', #183, 'design' ) ;
#439 = LINE ( 'NONE', #752, #843 ) ;
#440 = ADVANCED_FACE ( 'NONE', ( #149 ), #997, .F. ) ;
#441 = CARTESIAN_POINT ( 'NONE',  ( 2.500000000000000000, -24.99999999999999289, 87.50000000000002842 ) ) ;
#442 = FACE_BOUND ( 'NONE', #109, .T. ) ;
#443 = EDGE_CURVE ( 'NONE', #429, #836, #318, .T. ) ;
#444 = ORIENTED_EDGE ( 'NONE', *, *, #25, .T. ) ;
#445 = VECTOR ( 'NONE', #782, 1000.000000000000000 ) ;
#446 = DIRECTION ( 'NONE',  ( -0.000000000000000000, 1.000000000000000000, -0.000000000000000000 ) ) ;
#447 = ADVANCED_FACE ( 'NONE', ( #295 ), #143, .F. ) ;
#448 = DIRECTION ( 'NONE',  ( -1.000000000000000000, -0.000000000000000000, 0.000000000000000000 ) ) ;
#449 = DIRECTION ( 'NONE',  ( 1.000000000000000000, 0.000000000000000000, 0.000000000000000000 ) ) ;
#450 = ORIENTED_EDGE ( 'NONE', *, *, #853, .T. ) ;
#451 = LINE ( 'NONE', #741, #93 ) ;
#452 = VECTOR ( 'NONE', #332, 1000.000000000000000 ) ;
#453 = DIRECTION ( 'NONE',  ( -1.000000000000000000, -0.000000000000000000, -0.000000000000000000 ) ) ;
#454 = ORIENTED_EDGE ( 'NONE', *, *, #616, .F. ) ;
#455 = DIRECTION ( 'NONE',  ( -1.000000000000000000, 0.000000000000000000, 0.000000000000000000 ) ) ;
#456 = ORIENTED_EDGE ( 'NONE', *, *, #482, .F. ) ;
#457 = DIRECTION ( 'NONE',  ( 1.000000000000000000, -0.000000000000000000, -0.000000000000000000 ) ) ;
#458 = ORIENTED_EDGE ( 'NONE', *, *, #696, .F. ) ;
#459 = DIRECTION ( 'NONE',  ( 0.000000000000000000, 2.081668171172168513E-16, 1.000000000000000000 ) ) ;
#460 = DIRECTION ( 'NONE',  ( -0.000000000000000000, 1.000000000000000000, 0.000000000000000000 ) ) ;
#461 = DIRECTION ( 'NONE',  ( 1.000000000000000000, -0.000000000000000000, -0.000000000000000000 ) ) ;
#462 = AXIS2_PLACEMENT_3D ( 'NONE', #20, #174, #561 ) ;
#463 = EDGE_CURVE ( 'NONE', #653, #70, #300, .T. ) ;
#464 = ORIENTED_EDGE ( 'NONE', *, *, #427, .F. ) ;
#465 = CARTESIAN_POINT ( 'NONE',  ( 2.500000000000000000, 28.89999999999970370, 38.09999999999990905 ) ) ;
#466 = LINE ( 'NONE', #857, #445 ) ;
#467 = DIRECTION ( 'NONE',  ( 0.000000000000000000, -0.000000000000000000, -1.000000000000000000 ) ) ;
#468 = EDGE_CURVE ( 'NONE', #286, #22, #373, .T. ) ;
#469 = ORIENTED_EDGE ( 'NONE', *, *, #572, .T. ) ;
#470 = CARTESIAN_POINT ( 'NONE',  ( 2.500000000000000000, -50.00000000000000711, 50.00000000000000000 ) ) ;
#471 = CARTESIAN_POINT ( 'NONE',  ( 2.500000000000000000, 50.00000000000000000, 50.00000000000000711 ) ) ;
#472 = CARTESIAN_POINT ( 'NONE',  ( 2.500000000000000000, -14.99999999999999289, 92.50000000000002842 ) ) ;
#473 = CIRCLE ( 'NONE', #159, 2.500000000000002220 ) ;
#474 = AXIS2_PLACEMENT_3D ( 'NONE', #369, #899, #347 ) ;
#475 = ORIENTED_EDGE ( 'NONE', *, *, #354, .F. ) ;
#476 = LINE ( 'NONE', #580, #894 ) ;
#477 = DIRECTION ( 'NONE',  ( -0.000000000000000000, 1.000000000000000000, -0.000000000000000000 ) ) ;
#478 = ORIENTED_EDGE ( 'NONE', *, *, #1007, .F. ) ;
#479 = LINE ( 'NONE', #426, #416 ) ;
#480 = ORIENTED_EDGE ( 'NONE', *, *, #463, .F. ) ;
#481 = LINE ( 'NONE', #941, #103 ) ;
#482 = EDGE_CURVE ( 'NONE', #337, #344, #473, .T. ) ;
#483 = DIRECTION ( 'NONE',  ( 1.000000000000000000, -0.000000000000000000, -0.000000000000000000 ) ) ;
#484 = AXIS2_PLACEMENT_3D ( 'NONE', #808, #483, #104 ) ;
#485 = CARTESIAN_POINT ( 'NONE',  ( 2.500000000000000000, 31.09999999999968168, 38.09999999999990905 ) ) ;
#486 = DIRECTION ( 'NONE',  ( 0.000000000000000000, 0.000000000000000000, 1.000000000000000000 ) ) ;
#487 = ORIENTED_EDGE ( 'NONE', *, *, #928, .T. ) ;
#488 = CARTESIAN_POINT ( 'NONE',  ( 0.000000000000000000, 15.00000000000000888, 87.50000000000002842 ) ) ;
#489 = AXIS2_PLACEMENT_3D ( 'NONE', #507, #449, #913 ) ;
#490 = LINE ( 'NONE', #550, #365 ) ;
#491 = VECTOR ( 'NONE', #929, 1000.000000000000000 ) ;
#492 = DIRECTION ( 'NONE',  ( 1.000000000000000000, 0.000000000000000000, 0.000000000000000000 ) ) ;
#493 = ORIENTED_EDGE ( 'NONE', *, *, #675, .T. ) ;
#494 = EDGE_CURVE ( 'NONE', #11, #81, #552, .T. ) ;
#495 = EDGE_CURVE ( 'NONE', #344, #951, #476, .T. ) ;
#496 = FACE_OUTER_BOUND ( 'NONE', #1008, .T. ) ;
#497 = ORIENTED_EDGE ( 'NONE', *, *, #360, .T. ) ;
#498 = LINE ( 'NONE', #606, #593 ) ;
#499 = ORIENTED_EDGE ( 'NONE', *, *, #794, .F. ) ;
#500 = VECTOR ( 'NONE', #477, 1000.000000000000000 ) ;
#501 = EDGE_CURVE ( 'NONE', #22, #286, #765, .T. ) ;
#502 = ORIENTED_EDGE ( 'NONE', *, *, #568, .T. ) ;
#503 = CARTESIAN_POINT ( 'NONE',  ( 0.000000000000000000, 18.15000000000000924, 133.0000000000000000 ) ) ;
#504 = ORIENTED_EDGE ( 'NONE', *, *, #387, .F. ) ;
#505 = CARTESIAN_POINT ( 'NONE',  ( 2.500000000000000000, 35.00000000000001421, 150.0000000000000284 ) ) ;
#506 = DIRECTION ( 'NONE',  ( 0.000000000000000000, 0.000000000000000000, -1.000000000000000000 ) ) ;
#507 = CARTESIAN_POINT ( 'NONE',  ( 2.500000000000000000, -18.14999999999998792, 135.0000000000000000 ) ) ;
#508 = VECTOR ( 'NONE', #222, 1000.000000000000000 ) ;
#509 = ORIENTED_EDGE ( 'NONE', *, *, #1015, .T. ) ;
#510 = UNCERTAINTY_MEASURE_WITH_UNIT (LENGTH_MEASURE( 1.000000000000000082E-05 ), #118, 'distance_accuracy_value', 'NONE');
#511 = FACE_OUTER_BOUND ( 'NONE', #699, .T. ) ;
#512 = DIRECTION ( 'NONE',  ( 1.000000000000000000, 0.000000000000000000, 0.000000000000000000 ) ) ;
#513 = VERTEX_POINT ( 'NONE', #417 ) ;
#514 = DIRECTION ( 'NONE',  ( -1.000000000000000000, 0.000000000000000000, -0.000000000000000000 ) ) ;
#515 = DIRECTION ( 'NONE',  ( 0.000000000000000000, 0.000000000000000000, 1.000000000000000000 ) ) ;
#516 = EDGE_CURVE ( 'NONE', #40, #419, #108, .T. ) ;
#517 = FACE_BOUND ( 'NONE', #796, .T. ) ;
#518 = VERTEX_POINT ( 'NONE', #809 ) ;
#519 = LINE ( 'NONE', #189, #42 ) ;
#520 = DIRECTION ( 'NONE',  ( 0.000000000000000000, 0.000000000000000000, -1.000000000000000000 ) ) ;
#521 = PLANE ( 'NONE',  #925 ) ;
#522 = ORIENTED_EDGE ( 'NONE', *, *, #254, .T. ) ;
#523 = CIRCLE ( 'NONE', #993, 2.500000000000002220 ) ;
#524 = CARTESIAN_POINT ( 'NONE',  ( 2.500000000000000000, -28.89999999999970370, 38.09999999999990195 ) ) ;
#525 = LINE ( 'NONE', #835, #585 ) ;
#526 = ORIENTED_EDGE ( 'NONE', *, *, #675, .F. ) ;
#527 = CARTESIAN_POINT ( 'NONE',  ( 0.000000000000000000, 25.00000000000000711, 90.00000000000002842 ) ) ;
#528 = ORIENTED_EDGE ( 'NONE', *, *, #803, .T. ) ;
#529 = LINE ( 'NONE', #382, #214 ) ;
#530 = ORIENTED_EDGE ( 'NONE', *, *, #677, .T. ) ;
#531 = VECTOR ( 'NONE', #48, 1000.000000000000000 ) ;
#532 = ORIENTED_EDGE ( 'NONE', *, *, #723, .T. ) ;
#533 = DIRECTION ( 'NONE',  ( -1.000000000000000000, -0.000000000000000000, -0.000000000000000000 ) ) ;
#534 = ADVANCED_FACE ( 'NONE', ( #954 ), #169, .F. ) ;
#535 = AXIS2_PLACEMENT_3D ( 'NONE', #974, #595, #266 ) ;
#536 = CARTESIAN_POINT ( 'NONE',  ( 2.500000000000000000, -28.89999999999970370, 38.09999999999990195 ) ) ;
#537 = ORIENTED_EDGE ( 'NONE', *, *, #207, .F. ) ;
#538 = FACE_BOUND ( 'NONE', #413, .T. ) ;
#539 = ORIENTED_EDGE ( 'NONE', *, *, #568, .F. ) ;
#540 = CARTESIAN_POINT ( 'NONE',  ( 0.000000000000000000, -28.89999999999970370, 25.89999999999993108 ) ) ;
#541 = EDGE_CURVE ( 'NONE', #865, #898, #890, .T. ) ;
#542 = CARTESIAN_POINT ( 'NONE',  ( 0.000000000000000000, -18.14999999999998792, 133.0000000000000000 ) ) ;
#543 = ORIENTED_EDGE ( 'NONE', *, *, #1009, .T. ) ;
#544 = DIRECTION ( 'NONE',  ( -0.000000000000000000, 0.000000000000000000, 1.000000000000000000 ) ) ;
#545 = VECTOR ( 'NONE', #180, 1000.000000000000000 ) ;
#546 = VERTEX_POINT ( 'NONE', #24 ) ;
#547 = VECTOR ( 'NONE', #614, 1000.000000000000000 ) ;
#548 = DIRECTION ( 'NONE',  ( 0.000000000000000000, 0.000000000000000000, -1.000000000000000000 ) ) ;
#549 = DIRECTION ( 'NONE',  ( 0.000000000000000000, 0.000000000000000000, 1.000000000000000000 ) ) ;
#550 = CARTESIAN_POINT ( 'NONE',  ( 0.000000000000000000, 50.00000000000000000, 0.000000000000000000 ) ) ;
#551 = ORIENTED_EDGE ( 'NONE', *, *, #501, .F. ) ;
#552 = LINE ( 'NONE', #863, #639 ) ;
#553 = EDGE_LOOP ( 'NONE', ( #720, #26 ) ) ;
#554 = CARTESIAN_POINT ( 'NONE',  ( 2.500000000000000000, -24.99999999999999289, 92.50000000000002842 ) ) ;
#555 = AXIS2_PLACEMENT_3D ( 'NONE', #388, #396, #381 ) ;
#556 = CARTESIAN_POINT ( 'NONE',  ( 2.500000000000000000, 18.15000000000000924, 133.0000000000000000 ) ) ;
#557 = DIRECTION ( 'NONE',  ( -1.000000000000000000, -0.000000000000000000, 0.000000000000000000 ) ) ;
#558 = EDGE_LOOP ( 'NONE', ( #735, #456, #862, #263 ) ) ;
#559 = DIRECTION ( 'NONE',  ( 0.000000000000000000, 0.000000000000000000, 1.000000000000000000 ) ) ;
#560 = ORIENTED_EDGE ( 'NONE', *, *, #853, .F. ) ;
#561 = DIRECTION ( 'NONE',  ( 0.000000000000000000, 0.000000000000000000, -1.000000000000000000 ) ) ;
#562 = ORIENTED_EDGE ( 'NONE', *, *, #360, .F. ) ;
#563 = CARTESIAN_POINT ( 'NONE',  ( 2.500000000000000000, 18.15000000000000924, 137.0000000000000000 ) ) ;
#564 = DIRECTION ( 'NONE',  ( 0.000000000000000000, -1.387778780781445676E-16, 1.000000000000000000 ) ) ;
#565 = CARTESIAN_POINT ( 'NONE',  ( 2.500000000000000000, 25.00000000000000711, 92.50000000000002842 ) ) ;
#566 = EDGE_CURVE ( 'NONE', #424, #984, #642, .T. ) ;
#567 = ORIENTED_EDGE ( 'NONE', *, *, #117, .T. ) ;
#568 = EDGE_CURVE ( 'NONE', #615, #684, #948, .T. ) ;
#569 = DIRECTION ( 'NONE',  ( -0.000000000000000000, -0.000000000000000000, 1.000000000000000000 ) ) ;
#570 = AXIS2_PLACEMENT_3D ( 'NONE', #626, #230, #138 ) ;
#571 = LINE ( 'NONE', #881, #545 ) ;
#572 = EDGE_CURVE ( 'NONE', #76, #185, #249, .T. ) ;
#573 = ORIENTED_EDGE ( 'NONE', *, *, #177, .F. ) ;
#574 = EDGE_CURVE ( 'NONE', #400, #22, #962, .T. ) ;
#575 = FACE_OUTER_BOUND ( 'NONE', #760, .T. ) ;
#576 = DIRECTION ( 'NONE',  ( 0.000000000000000000, 1.000000000000000000, 0.000000000000000000 ) ) ;
#577 = VERTEX_POINT ( 'NONE', #186 ) ;
#578 = CARTESIAN_POINT ( 'NONE',  ( 0.000000000000000000, 50.00000000000000000, 0.000000000000000000 ) ) ;
#579 = DIRECTION ( 'NONE',  ( -1.000000000000000000, -0.000000000000000000, -0.000000000000000000 ) ) ;
#580 = CARTESIAN_POINT ( 'NONE',  ( 0.000000000000000000, -24.99999999999999289, 87.50000000000002842 ) ) ;
#581 = CIRCLE ( 'NONE', #53, 2.500000000000002220 ) ;
#582 = ORIENTED_EDGE ( 'NONE', *, *, #746, .T. ) ;
#583 = LINE ( 'NONE', #47, #227 ) ;
#584 = CARTESIAN_POINT ( 'NONE',  ( 0.000000000000000000, -28.89999999999970370, 38.09999999999990195 ) ) ;
#585 = VECTOR ( 'NONE', #453, 1000.000000000000000 ) ;
#586 = CARTESIAN_POINT ( 'NONE',  ( 2.500000000000000000, -35.00000000000001421, 50.00000000000000711 ) ) ;
#587 = ORIENTED_EDGE ( 'NONE', *, *, #257, .F. ) ;
#588 = UNCERTAINTY_MEASURE_WITH_UNIT (LENGTH_MEASURE( 1.000000000000000082E-05 ), #83, 'distance_accuracy_value', 'NONE');
#589 = EDGE_CURVE ( 'NONE', #133, #70, #105, .T. ) ;
#590 = CARTESIAN_POINT ( 'NONE',  ( 2.500000000000000000, 15.00000000000000888, 87.50000000000002842 ) ) ;
#591 = CYLINDRICAL_SURFACE ( 'NONE', #840, 2.000000000000001776 ) ;
#592 =( NAMED_UNIT ( * ) SI_UNIT ( $, .STERADIAN. ) SOLID_ANGLE_UNIT ( ) );
#593 = VECTOR ( 'NONE', #896, 1000.000000000000000 ) ;
#594 = ORIENTED_EDGE ( 'NONE', *, *, #768, .T. ) ;
#595 = DIRECTION ( 'NONE',  ( 1.000000000000000000, 0.000000000000000000, 0.000000000000000000 ) ) ;
#596 = LINE ( 'NONE', #116, #402 ) ;
#597 = FACE_BOUND ( 'NONE', #891, .T. ) ;
#598 = VERTEX_POINT ( 'NONE', #406 ) ;
#599 = EDGE_CURVE ( 'NONE', #185, #951, #479, .T. ) ;
#600 = DIRECTION ( 'NONE',  ( 0.000000000000000000, 1.387778780781445676E-16, -1.000000000000000000 ) ) ;
#601 = LINE ( 'NONE', #818, #763 ) ;
#602 = ORIENTED_EDGE ( 'NONE', *, *, #647, .T. ) ;
#603 = AXIS2_PLACEMENT_3D ( 'NONE', #631, #229, #459 ) ;
#604 = LINE ( 'NONE', #144, #393 ) ;
#605 = EDGE_CURVE ( 'NONE', #419, #627, #734, .T. ) ;
#606 = CARTESIAN_POINT ( 'NONE',  ( 2.500000000000000000, -14.99999999999999289, 92.50000000000002842 ) ) ;
#607 = FACE_OUTER_BOUND ( 'NONE', #325, .T. ) ;
#608 = ORIENTED_EDGE ( 'NONE', *, *, #754, .T. ) ;
#609 = EDGE_LOOP ( 'NONE', ( #823, #740, #31, #963 ) ) ;
#610 = EDGE_CURVE ( 'NONE', #270, #424, #100, .T. ) ;
#611 = CARTESIAN_POINT ( 'NONE',  ( 2.500000000000000000, 50.00000000000000000, 0.000000000000000000 ) ) ;
#612 = DIRECTION ( 'NONE',  ( 0.000000000000000000, 0.000000000000000000, -1.000000000000000000 ) ) ;
#613 = VERTEX_POINT ( 'NONE', #485 ) ;
#614 = DIRECTION ( 'NONE',  ( -1.000000000000000000, -0.000000000000000000, -0.000000000000000000 ) ) ;
#615 = VERTEX_POINT ( 'NONE', #345 ) ;
#616 = EDGE_CURVE ( 'NONE', #398, #947, #334, .T. ) ;
#617 = DIRECTION ( 'NONE',  ( -1.000000000000000000, -0.000000000000000000, -0.000000000000000000 ) ) ;
#618 = CIRCLE ( 'NONE', #474, 2.000000000000001776 ) ;
#619 = DIRECTION ( 'NONE',  ( 0.000000000000000000, 0.000000000000000000, -1.000000000000000000 ) ) ;
#620 = DIRECTION ( 'NONE',  ( -1.000000000000000000, 0.000000000000000000, -0.000000000000000000 ) ) ;
#621 = AXIS2_PLACEMENT_3D ( 'NONE', #989, #761, #297 ) ;
#622 = ADVANCED_FACE ( 'NONE', ( #92 ), #967, .F. ) ;
#623 = ORIENTED_EDGE ( 'NONE', *, *, #850, .T. ) ;
#624 = EDGE_CURVE ( 'NONE', #819, #119, #791, .T. ) ;
#625 = DIRECTION ( 'NONE',  ( -1.000000000000000000, -0.000000000000000000, -0.000000000000000000 ) ) ;
#626 = CARTESIAN_POINT ( 'NONE',  ( 2.500000000000000000, 31.09999999999968168, 38.09999999999990905 ) ) ;
#627 = VERTEX_POINT ( 'NONE', #412 ) ;
#628 = DIRECTION ( 'NONE',  ( 0.000000000000000000, -1.000000000000000000, 0.000000000000000000 ) ) ;
#629 = VERTEX_POINT ( 'NONE', #255 ) ;
#630 = AXIS2_PLACEMENT_3D ( 'NONE', #472, #544, #874 ) ;
#631 = CARTESIAN_POINT ( 'NONE',  ( 2.500000000000000000, -34.99999999999999289, 150.0000000000000284 ) ) ;
#632 = ORIENTED_EDGE ( 'NONE', *, *, #163, .T. ) ;
#633 = CARTESIAN_POINT ( 'NONE',  ( 2.500000000000000000, 28.89999999999970370, 25.89999999999992397 ) ) ;
#634 = DIRECTION ( 'NONE',  ( -1.000000000000000000, 0.000000000000000000, -0.000000000000000000 ) ) ;
#635 = DIRECTION ( 'NONE',  ( 0.000000000000000000, -1.000000000000000000, -1.577021341797111809E-15 ) ) ;
#636 = ORIENTED_EDGE ( 'NONE', *, *, #803, .F. ) ;
#637 = FACE_OUTER_BOUND ( 'NONE', #609, .T. ) ;
#638 = CIRCLE ( 'NONE', #489, 2.000000000000001776 ) ;
#639 = VECTOR ( 'NONE', #160, 1000.000000000000000 ) ;
#640 = ORIENTED_EDGE ( 'NONE', *, *, #482, .T. ) ;
#641 = AXIS2_PLACEMENT_3D ( 'NONE', #335, #486, #882 ) ;
#642 = LINE ( 'NONE', #423, #849 ) ;
#643 = EDGE_LOOP ( 'NONE', ( #50, #251, #17, #917 ) ) ;
#644 = CARTESIAN_POINT ( 'NONE',  ( 0.000000000000000000, 15.00000000000000888, 87.50000000000002842 ) ) ;
#645 = VECTOR ( 'NONE', #725, 1000.000000000000000 ) ;
#646 = EDGE_LOOP ( 'NONE', ( #775, #350, #532, #502 ) ) ;
#647 = EDGE_CURVE ( 'NONE', #684, #984, #571, .T. ) ;
#648 = DIRECTION ( 'NONE',  ( -0.000000000000000000, -1.000000000000000000, -0.000000000000000000 ) ) ;
#649 = ORIENTED_EDGE ( 'NONE', *, *, #605, .T. ) ;
#650 = CARTESIAN_POINT ( 'NONE',  ( 2.500000000000000000, 35.00000000000001421, 150.0000000000000284 ) ) ;
#651 = CARTESIAN_POINT ( 'NONE',  ( 2.500000000000000000, -28.89999999999970370, 38.09999999999990195 ) ) ;
#652 = EDGE_CURVE ( 'NONE', #262, #333, #498, .T. ) ;
#653 = VERTEX_POINT ( 'NONE', #686 ) ;
#654 = ORIENTED_EDGE ( 'NONE', *, *, #729, .T. ) ;
#655 = CIRCLE ( 'NONE', #43, 2.500000000000002220 ) ;
#656 = MANIFOLD_SOLID_BREP ( 'Cut-Extrude3', #888 ) ;
#657 = EDGE_LOOP ( 'NONE', ( #871, #458, #129, #968 ) ) ;
#658 = DIRECTION ( 'NONE',  ( -0.000000000000000000, 1.000000000000000000, -0.000000000000000000 ) ) ;
#659 = ORIENTED_EDGE ( 'NONE', *, *, #574, .T. ) ;
#660 = CARTESIAN_POINT ( 'NONE',  ( 0.000000000000000000, 35.00000000000001421, 50.00000000000000711 ) ) ;
#661 = CARTESIAN_POINT ( 'NONE',  ( 2.500000000000000000, 50.00000000000000000, 0.000000000000000000 ) ) ;
#662 = ORIENTED_EDGE ( 'NONE', *, *, #616, .T. ) ;
#663 = LINE ( 'NONE', #524, #28 ) ;
#664 = DIRECTION ( 'NONE',  ( 0.000000000000000000, 0.000000000000000000, -1.000000000000000000 ) ) ;
#665 = DIRECTION ( 'NONE',  ( 0.000000000000000000, 0.000000000000000000, 1.000000000000000000 ) ) ;
#666 = VECTOR ( 'NONE', #942, 1000.000000000000000 ) ;
#667 = ORIENTED_EDGE ( 'NONE', *, *, #907, .T. ) ;
#668 = PLANE ( 'NONE',  #356 ) ;
#669 = FACE_BOUND ( 'NONE', #996, .T. ) ;
#670 = AXIS2_PLACEMENT_3D ( 'NONE', #38, #992, #665 ) ;
#671 = FACE_BOUND ( 'NONE', #646, .T. ) ;
#672 = ORIENTED_EDGE ( 'NONE', *, *, #443, .F. ) ;
#673 = DIRECTION ( 'NONE',  ( -1.000000000000000000, -0.000000000000000000, -0.000000000000000000 ) ) ;
#674 = FACE_OUTER_BOUND ( 'NONE', #378, .T. ) ;
#675 = EDGE_CURVE ( 'NONE', #689, #767, #45, .T. ) ;
#676 = AXIS2_PLACEMENT_3D ( 'NONE', #269, #872, #957 ) ;
#677 = EDGE_CURVE ( 'NONE', #629, #394, #743, .T. ) ;
#678 = ORIENTED_EDGE ( 'NONE', *, *, #385, .T. ) ;
#679 = LINE ( 'NONE', #32, #975 ) ;
#680 = VECTOR ( 'NONE', #252, 1000.000000000000000 ) ;
#681 = LINE ( 'NONE', #353, #531 ) ;
#682 = FACE_BOUND ( 'NONE', #265, .T. ) ;
#683 = ADVANCED_FACE ( 'NONE', ( #49 ), #349, .F. ) ;
#684 = VERTEX_POINT ( 'NONE', #983 ) ;
#685 = FACE_OUTER_BOUND ( 'NONE', #161, .T. ) ;
#686 = CARTESIAN_POINT ( 'NONE',  ( 2.500000000000000000, 28.89999999999970370, 25.89999999999992397 ) ) ;
#687 = VECTOR ( 'NONE', #1010, 1000.000000000000000 ) ;
#688 = PLANE ( 'NONE',  #570 ) ;
#689 = VERTEX_POINT ( 'NONE', #739 ) ;
#690 = VERTEX_POINT ( 'NONE', #755 ) ;
#691 = CARTESIAN_POINT ( 'NONE',  ( 2.500000000000000000, -28.89999999999970370, 38.09999999999990195 ) ) ;
#692 = DIRECTION ( 'NONE',  ( -0.000000000000000000, -1.000000000000000000, -0.000000000000000000 ) ) ;
#693 = ORIENTED_EDGE ( 'NONE', *, *, #723, .F. ) ;
#694 = ORIENTED_EDGE ( 'NONE', *, *, #746, .F. ) ;
#695 = DIRECTION ( 'NONE',  ( 0.000000000000000000, -1.000000000000000000, 0.000000000000000000 ) ) ;
#696 = EDGE_CURVE ( 'NONE', #935, #81, #759, .T. ) ;
#697 = CARTESIAN_POINT ( 'NONE',  ( 2.500000000000000000, -24.99999999999999289, 90.00000000000002842 ) ) ;
#698 = FACE_OUTER_BOUND ( 'NONE', #714, .T. ) ;
#699 = EDGE_LOOP ( 'NONE', ( #727, #562, #193, #919 ) ) ;
#700 = LINE ( 'NONE', #540, #27 ) ;
#701 = LINE ( 'NONE', #301, #491 ) ;
#702 = CARTESIAN_POINT ( 'NONE',  ( 0.000000000000000000, 31.09999999999968168, 38.09999999999990905 ) ) ;
#703 = VERTEX_POINT ( 'NONE', #366 ) ;
#704 = CARTESIAN_POINT ( 'NONE',  ( 0.000000000000000000, 18.15000000000000924, 133.0000000000000000 ) ) ;
#705 = CARTESIAN_POINT ( 'NONE',  ( 2.500000000000000000, 35.00000000000001421, 50.00000000000000711 ) ) ;
#706 = ORIENTED_EDGE ( 'NONE', *, *, #254, .F. ) ;
#707 = VECTOR ( 'NONE', #799, 1000.000000000000000 ) ;
#708 = DIRECTION ( 'NONE',  ( 0.000000000000000000, -0.000000000000000000, -1.000000000000000000 ) ) ;
#709 = ORIENTED_EDGE ( 'NONE', *, *, #260, .T. ) ;
#710 = CARTESIAN_POINT ( 'NONE',  ( 2.500000000000000000, -50.00000000000000000, 0.000000000000000000 ) ) ;
#711 = DIRECTION ( 'NONE',  ( -0.000000000000000000, 1.000000000000000000, 1.387778780781445676E-16 ) ) ;
#712 = DIRECTION ( 'NONE',  ( 0.000000000000000000, 0.000000000000000000, -1.000000000000000000 ) ) ;
#713 =( NAMED_UNIT ( * ) SI_UNIT ( $, .STERADIAN. ) SOLID_ANGLE_UNIT ( ) );
#714 = EDGE_LOOP ( 'NONE', ( #89, #480, #437, #312 ) ) ;
#715 = CARTESIAN_POINT ( 'NONE',  ( 2.500000000000000000, 31.09999999999968168, 38.09999999999990905 ) ) ;
#716 = VECTOR ( 'NONE', #814, 1000.000000000000000 ) ;
#717 = ADVANCED_FACE ( 'NONE', ( #355, #517, #671, #682, #597, #442, #749 ), #521, .T. ) ;
#718 = DIRECTION ( 'NONE',  ( 0.000000000000000000, 1.577021341797112006E-15, -1.000000000000000000 ) ) ;
#719 = CARTESIAN_POINT ( 'NONE',  ( 2.500000000000000000, 18.15000000000000924, 135.0000000000000000 ) ) ;
#720 = ORIENTED_EDGE ( 'NONE', *, *, #979, .F. ) ;
#721 = PLANE ( 'NONE',  #339 ) ;
#722 = AXIS2_PLACEMENT_3D ( 'NONE', #12, #87, #7 ) ;
#723 = EDGE_CURVE ( 'NONE', #106, #615, #192, .T. ) ;
#724 = CARTESIAN_POINT ( 'NONE',  ( 0.000000000000000000, 35.00000000000001421, 150.0000000000000284 ) ) ;
#725 = DIRECTION ( 'NONE',  ( 0.000000000000000000, 0.000000000000000000, 1.000000000000000000 ) ) ;
#726 = EDGE_CURVE ( 'NONE', #577, #690, #638, .T. ) ;
#727 = ORIENTED_EDGE ( 'NONE', *, *, #226, .T. ) ;
#728 = FACE_OUTER_BOUND ( 'NONE', #56, .T. ) ;
#729 = EDGE_CURVE ( 'NONE', #851, #577, #601, .T. ) ;
#730 = DIRECTION ( 'NONE',  ( -0.000000000000000000, -1.000000000000000000, -0.000000000000000000 ) ) ;
#731 = ORIENTED_EDGE ( 'NONE', *, *, #779, .F. ) ;
#732 = VECTOR ( 'NONE', #533, 1000.000000000000000 ) ;
#733 = PLANE ( 'NONE',  #220 ) ;
#734 = LINE ( 'NONE', #661, #645 ) ;
#735 = ORIENTED_EDGE ( 'NONE', *, *, #495, .F. ) ;
#736 = PRODUCT_DEFINITION_SHAPE ( 'NONE', 'NONE',  #23 ) ;
#737 = DIRECTION ( 'NONE',  ( 0.000000000000000000, 0.000000000000000000, -1.000000000000000000 ) ) ;
#738 = FACE_BOUND ( 'NONE', #558, .T. ) ;
#739 = CARTESIAN_POINT ( 'NONE',  ( 0.000000000000000000, -50.00000000000000000, 0.000000000000000000 ) ) ;
#740 = ORIENTED_EDGE ( 'NONE', *, *, #897, .F. ) ;
#741 = CARTESIAN_POINT ( 'NONE',  ( 0.000000000000000000, -14.99999999999999289, 92.50000000000002842 ) ) ;
#742 = CARTESIAN_POINT ( 'NONE',  ( 2.500000000000000000, 31.09999999999968168, 25.89999999999992397 ) ) ;
#743 = LINE ( 'NONE', #586, #801 ) ;
#744 = ORIENTED_EDGE ( 'NONE', *, *, #950, .T. ) ;
#745 = DIRECTION ( 'NONE',  ( 0.000000000000000000, 0.000000000000000000, -1.000000000000000000 ) ) ;
#746 = EDGE_CURVE ( 'NONE', #613, #327, #525, .T. ) ;
#747 = CYLINDRICAL_SURFACE ( 'NONE', #420, 2.500000000000002220 ) ;
#748 = ADVANCED_FACE ( 'NONE', ( #113 ), #972, .F. ) ;
#749 = FACE_OUTER_BOUND ( 'NONE', #762, .T. ) ;
#750 = VECTOR ( 'NONE', #922, 1000.000000000000000 ) ;
#751 = VERTEX_POINT ( 'NONE', #965 ) ;
#752 = CARTESIAN_POINT ( 'NONE',  ( 0.000000000000000000, -34.99999999999999289, 150.0000000000000284 ) ) ;
#753 = DIRECTION ( 'NONE',  ( 0.000000000000000000, 0.000000000000000000, -1.000000000000000000 ) ) ;
#754 = EDGE_CURVE ( 'NONE', #751, #689, #911, .T. ) ;
#755 = CARTESIAN_POINT ( 'NONE',  ( 2.500000000000000000, -18.14999999999998792, 133.0000000000000000 ) ) ;
#756 = ORIENTED_EDGE ( 'NONE', *, *, #72, .F. ) ;
#757 = DIRECTION ( 'NONE',  ( -1.000000000000000000, 0.000000000000000000, -0.000000000000000000 ) ) ;
#758 = AXIS2_PLACEMENT_3D ( 'NONE', #705, #1017, #467 ) ;
#759 = LINE ( 'NONE', #292, #409 ) ;
#760 = EDGE_LOOP ( 'NONE', ( #346, #4, #1001, #341 ) ) ;
#761 = DIRECTION ( 'NONE',  ( 0.000000000000000000, 4.625929269271487886E-16, -1.000000000000000000 ) ) ;
#762 = EDGE_LOOP ( 'NONE', ( #357, #210, #530, #176, #961, #649, #667, #709 ) ) ;
#763 = VECTOR ( 'NONE', #132, 1000.000000000000000 ) ;
#764 = CARTESIAN_POINT ( 'NONE',  ( 0.000000000000000000, -28.89999999999970370, 38.09999999999990195 ) ) ;
#765 = CIRCLE ( 'NONE', #290, 2.000000000000001776 ) ;
#766 = PLANE ( 'NONE',  #126 ) ;
#767 = VERTEX_POINT ( 'NONE', #578 ) ;
#768 = EDGE_CURVE ( 'NONE', #546, #598, #130, .T. ) ;
#769 = ORIENTED_EDGE ( 'NONE', *, *, #800, .T. ) ;
#770 = CARTESIAN_POINT ( 'NONE',  ( 2.500000000000000000, 28.89999999999970370, 25.89999999999992397 ) ) ;
#771 = VECTOR ( 'NONE', #202, 1000.000000000000000 ) ;
#772 = DIRECTION ( 'NONE',  ( -1.000000000000000000, -0.000000000000000000, -0.000000000000000000 ) ) ;
#773 = ORIENTED_EDGE ( 'NONE', *, *, #19, .F. ) ;
#774 = LINE ( 'NONE', #208, #88 ) ;
#775 = ORIENTED_EDGE ( 'NONE', *, *, #96, .T. ) ;
#776 = LINE ( 'NONE', #764, #508 ) ;
#777 = CARTESIAN_POINT ( 'NONE',  ( 2.500000000000000000, 15.00000000000000888, 87.50000000000002842 ) ) ;
#778 = LINE ( 'NONE', #715, #51 ) ;
#779 = EDGE_CURVE ( 'NONE', #394, #751, #519, .T. ) ;
#780 = ORIENTED_EDGE ( 'NONE', *, *, #950, .F. ) ;
#781 = CARTESIAN_POINT ( 'NONE',  ( 0.000000000000000000, -14.99999999999999289, 90.00000000000002842 ) ) ;
#782 = DIRECTION ( 'NONE',  ( 0.000000000000000000, -1.000000000000000000, 0.000000000000000000 ) ) ;
#783 = DIRECTION ( 'NONE',  ( 0.000000000000000000, 1.387778780781445676E-16, -1.000000000000000000 ) ) ;
#784 = AXIS2_PLACEMENT_3D ( 'NONE', #998, #455, #223 ) ;
#785 = EDGE_LOOP ( 'NONE', ( #608, #305, #537, #884 ) ) ;
#786 = ADVANCED_FACE ( 'NONE', ( #352 ), #668, .F. ) ;
#787 = CARTESIAN_POINT ( 'NONE',  ( 2.500000000000000000, -28.89999999999970370, 38.09999999999990195 ) ) ;
#788 = EDGE_LOOP ( 'NONE', ( #6, #672, #375, #602 ) ) ;
#789 = CARTESIAN_POINT ( 'NONE',  ( 2.500000000000000000, 31.09999999999968168, 25.89999999999992397 ) ) ;
#790 = CARTESIAN_POINT ( 'NONE',  ( 2.500000000000000000, -50.00000000000000000, 0.000000000000000000 ) ) ;
#791 = LINE ( 'NONE', #877, #981 ) ;
#792 = ORIENTED_EDGE ( 'NONE', *, *, #102, .T. ) ;
#793 = CARTESIAN_POINT ( 'NONE',  ( 2.500000000000000000, -14.99999999999999289, 92.50000000000002842 ) ) ;
#794 = EDGE_CURVE ( 'NONE', #46, #513, #439, .T. ) ;
#795 = VECTOR ( 'NONE', #283, 1000.000000000000000 ) ;
#796 = EDGE_LOOP ( 'NONE', ( #551, #310 ) ) ;
#797 = DIRECTION ( 'NONE',  ( 1.000000000000000000, -0.000000000000000000, -0.000000000000000000 ) ) ;
#798 = ORIENTED_EDGE ( 'NONE', *, *, #411, .F. ) ;
#799 = DIRECTION ( 'NONE',  ( -1.000000000000000000, -0.000000000000000000, -0.000000000000000000 ) ) ;
#800 = EDGE_CURVE ( 'NONE', #947, #865, #583, .T. ) ;
#801 = VECTOR ( 'NONE', #122, 1000.000000000000000 ) ;
#802 = LINE ( 'NONE', #98, #666 ) ;
#803 = EDGE_CURVE ( 'NONE', #400, #64, #321, .T. ) ;
#804 = DIRECTION ( 'NONE',  ( -0.000000000000000000, -0.000000000000000000, 1.000000000000000000 ) ) ;
#805 = EDGE_LOOP ( 'NONE', ( #876, #221, #539, #228 ) ) ;
#806 = EDGE_CURVE ( 'NONE', #403, #337, #451, .T. ) ;
#807 = PRESENTATION_LAYER_ASSIGNMENT (  '', '', ( #232 ) ) ;
#808 = CARTESIAN_POINT ( 'NONE',  ( 0.000000000000000000, -18.14999999999998792, 135.0000000000000000 ) ) ;
#809 = CARTESIAN_POINT ( 'NONE',  ( 0.000000000000000000, -31.09999999999968168, 38.09999999999990905 ) ) ;
#810 = VERTEX_POINT ( 'NONE', #363 ) ;
#811 = PLANE ( 'NONE',  #921 ) ;
#812 = CARTESIAN_POINT ( 'NONE',  ( 0.000000000000000000, 28.89999999999970370, 25.89999999999992397 ) ) ;
#813 = ORIENTED_EDGE ( 'NONE', *, *, #979, .T. ) ;
#814 = DIRECTION ( 'NONE',  ( -1.000000000000000000, -0.000000000000000000, -0.000000000000000000 ) ) ;
#815 = CIRCLE ( 'NONE', #110, 2.500000000000002220 ) ;
#816 = CARTESIAN_POINT ( 'NONE',  ( 0.000000000000000000, 31.09999999999968168, 25.89999999999992397 ) ) ;
#817 = EDGE_CURVE ( 'NONE', #64, #286, #277, .T. ) ;
#818 = CARTESIAN_POINT ( 'NONE',  ( 0.000000000000000000, -18.14999999999998792, 137.0000000000000000 ) ) ;
#819 = VERTEX_POINT ( 'NONE', #505 ) ;
#820 = PLANE ( 'NONE',  #340 ) ;
#821 = COLOUR_RGB ( '',0.7921568627450980005, 0.8196078431372548767, 0.9333333333333333481 ) ;
#822 = CARTESIAN_POINT ( 'NONE',  ( 0.000000000000000000, -35.00000000000001421, 50.00000000000000711 ) ) ;
#823 = ORIENTED_EDGE ( 'NONE', *, *, #861, .T. ) ;
#824 = DIRECTION ( 'NONE',  ( -1.000000000000000000, -0.000000000000000000, -0.000000000000000000 ) ) ;
#825 = EDGE_CURVE ( 'NONE', #653, #546, #430, .T. ) ;
#826 = DIRECTION ( 'NONE',  ( 0.000000000000000000, 1.000000000000000000, 1.577021341797112006E-15 ) ) ;
#827 = FILL_AREA_STYLE ('',( #831 ) ) ;
#828 = ORIENTED_EDGE ( 'NONE', *, *, #384, .T. ) ;
#829 = CARTESIAN_POINT ( 'NONE',  ( 2.500000000000000000, 50.00000000000000000, 50.00000000000000711 ) ) ;
#830 = FACE_BOUND ( 'NONE', #319, .T. ) ;
#831 = FILL_AREA_STYLE_COLOUR ( '', #821 ) ;
#832 = CIRCLE ( 'NONE', #784, 2.500000000000002220 ) ;
#833 = ORIENTED_EDGE ( 'NONE', *, *, #204, .F. ) ;
#834 = CARTESIAN_POINT ( 'NONE',  ( 2.500000000000000000, -24.99999999999999289, 87.50000000000002842 ) ) ;
#835 = CARTESIAN_POINT ( 'NONE',  ( 2.500000000000000000, 31.09999999999968168, 38.09999999999990905 ) ) ;
#836 = VERTEX_POINT ( 'NONE', #206 ) ;
#837 = LINE ( 'NONE', #471, #750 ) ;
#838 = VECTOR ( 'NONE', #80, 1000.000000000000000 ) ;
#839 = ORIENTED_EDGE ( 'NONE', *, *, #19, .T. ) ;
#840 = AXIS2_PLACEMENT_3D ( 'NONE', #348, #461, #506 ) ;
#841 = DIRECTION ( 'NONE',  ( -1.000000000000000000, -0.000000000000000000, -0.000000000000000000 ) ) ;
#842 = ORIENTED_EDGE ( 'NONE', *, *, #610, .T. ) ;
#843 = VECTOR ( 'NONE', #892, 1000.000000000000000 ) ;
#844 = DIRECTION ( 'NONE',  ( 1.000000000000000000, -0.000000000000000000, -0.000000000000000000 ) ) ;
#845 = LINE ( 'NONE', #66, #261 ) ;
#846 = CARTESIAN_POINT ( 'NONE',  ( 2.500000000000000000, -34.99999999999999289, 150.0000000000000284 ) ) ;
#847 = ORIENTED_EDGE ( 'NONE', *, *, #1015, .F. ) ;
#848 = DIRECTION ( 'NONE',  ( 0.000000000000000000, -1.000000000000000000, 3.154042683594224013E-15 ) ) ;
#849 = VECTOR ( 'NONE', #338, 1000.000000000000000 ) ;
#850 = EDGE_CURVE ( 'NONE', #898, #398, #679, .T. ) ;
#851 = VERTEX_POINT ( 'NONE', #986 ) ;
#852 = DIRECTION ( 'NONE',  ( 0.000000000000000000, 0.000000000000000000, 1.000000000000000000 ) ) ;
#853 = EDGE_CURVE ( 'NONE', #851, #1019, #618, .T. ) ;
#854 = VECTOR ( 'NONE', #999, 1000.000000000000000 ) ;
#855 = ORIENTED_EDGE ( 'NONE', *, *, #72, .T. ) ;
#856 = PLANE ( 'NONE',  #428 ) ;
#857 = CARTESIAN_POINT ( 'NONE',  ( 0.000000000000000000, 35.00000000000001421, 150.0000000000000284 ) ) ;
#858 = ORIENTED_EDGE ( 'NONE', *, *, #131, .T. ) ;
#859 = CARTESIAN_POINT ( 'NONE',  ( 2.500000000000000000, -14.99999999999999289, 90.00000000000002842 ) ) ;
#860 = EDGE_CURVE ( 'NONE', #398, #988, #663, .T. ) ;
#861 = EDGE_CURVE ( 'NONE', #81, #21, #969, .T. ) ;
#862 = ORIENTED_EDGE ( 'NONE', *, *, #806, .F. ) ;
#863 = CARTESIAN_POINT ( 'NONE',  ( 0.000000000000000000, 50.00000000000000000, 50.00000000000000711 ) ) ;
#864 = VECTOR ( 'NONE', #625, 1000.000000000000000 ) ;
#865 = VERTEX_POINT ( 'NONE', #195 ) ;
#866 = CYLINDRICAL_SURFACE ( 'NONE', #134, 2.000000000000001776 ) ;
#867 = LINE ( 'NONE', #956, #136 ) ;
#868 = CARTESIAN_POINT ( 'NONE',  ( 2.500000000000000000, -31.09999999999968168, 25.89999999999992752 ) ) ;
#869 = ORIENTED_EDGE ( 'NONE', *, *, #172, .F. ) ;
#870 = PLANE ( 'NONE',  #758 ) ;
#871 = ORIENTED_EDGE ( 'NONE', *, *, #494, .T. ) ;
#872 = DIRECTION ( 'NONE',  ( 0.000000000000000000, 0.000000000000000000, 1.000000000000000000 ) ) ;
#873 = ORIENTED_EDGE ( 'NONE', *, *, #279, .T. ) ;
#874 = DIRECTION ( 'NONE',  ( 1.000000000000000000, 0.000000000000000000, 0.000000000000000000 ) ) ;
#875 = ADVANCED_FACE ( 'NONE', ( #511 ), #820, .F. ) ;
#876 = ORIENTED_EDGE ( 'NONE', *, *, #566, .T. ) ;
#877 = CARTESIAN_POINT ( 'NONE',  ( 2.500000000000000000, 35.00000000000001421, 150.0000000000000284 ) ) ;
#878 = ORIENTED_EDGE ( 'NONE', *, *, #541, .T. ) ;
#879 = VECTOR ( 'NONE', #824, 1000.000000000000000 ) ;
#880 = LINE ( 'NONE', #164, #970 ) ;
#881 = CARTESIAN_POINT ( 'NONE',  ( 2.500000000000000000, 25.00000000000000711, 92.50000000000002842 ) ) ;
#882 = DIRECTION ( 'NONE',  ( 1.000000000000000000, 0.000000000000000000, 0.000000000000000000 ) ) ;
#883 = ORIENTED_EDGE ( 'NONE', *, *, #384, .F. ) ;
#884 = ORIENTED_EDGE ( 'NONE', *, *, #779, .T. ) ;
#885 = CARTESIAN_POINT ( 'NONE',  ( 2.500000000000000000, -50.00000000000000000, 0.000000000000000000 ) ) ;
#886 = ORIENTED_EDGE ( 'NONE', *, *, #589, .F. ) ;
#887 = DIRECTION ( 'NONE',  ( -1.000000000000000000, -0.000000000000000000, -0.000000000000000000 ) ) ;
#888 = CLOSED_SHELL ( 'NONE', ( #330, #440, #18, #447, #958, #16, #622, #367, #786, #314, #717, #147, #964, #392, #248, #69, #994, #395, #306, #534, #205, #296, #1002, #748, #683, #927, #182, #875, #97, #62 ) ) ;
#889 = FACE_OUTER_BOUND ( 'NONE', #405, .T. ) ;
#890 = LINE ( 'NONE', #329, #328 ) ;
#891 = EDGE_LOOP ( 'NONE', ( #219, #945, #237, #415 ) ) ;
#892 = DIRECTION ( 'NONE',  ( 0.000000000000000000, -2.081668171172168513E-16, -1.000000000000000000 ) ) ;
#893 = VECTOR ( 'NONE', #35, 1000.000000000000000 ) ;
#894 = VECTOR ( 'NONE', #99, 1000.000000000000000 ) ;
#895 = DIRECTION ( 'NONE',  ( 0.000000000000000000, 0.000000000000000000, -1.000000000000000000 ) ) ;
#896 = DIRECTION ( 'NONE',  ( -0.000000000000000000, 1.000000000000000000, -0.000000000000000000 ) ) ;
#897 = EDGE_CURVE ( 'NONE', #819, #21, #434, .T. ) ;
#898 = VERTEX_POINT ( 'NONE', #120 ) ;
#899 = DIRECTION ( 'NONE',  ( 1.000000000000000000, 0.000000000000000000, 0.000000000000000000 ) ) ;
#900 = VECTOR ( 'NONE', #797, 1000.000000000000000 ) ;
#901 = CARTESIAN_POINT ( 'NONE',  ( 2.500000000000000000, 25.00000000000000711, 90.00000000000002842 ) ) ;
#902 = EDGE_CURVE ( 'NONE', #429, #106, #282, .T. ) ;
#903 = EDGE_CURVE ( 'NONE', #984, #836, #655, .T. ) ;
#904 = ORIENTED_EDGE ( 'NONE', *, *, #427, .T. ) ;
#905 = CARTESIAN_POINT ( 'NONE',  ( 2.500000000000000000, 28.89999999999970370, 38.09999999999990905 ) ) ;
#906 = CYLINDRICAL_SURFACE ( 'NONE', #315, 2.500000000000002220 ) ;
#907 = EDGE_CURVE ( 'NONE', #627, #935, #837, .T. ) ;
#908 = CARTESIAN_POINT ( 'NONE',  ( 2.500000000000000000, 15.00000000000000888, 90.00000000000002842 ) ) ;
#909 = ORIENTED_EDGE ( 'NONE', *, *, #226, .F. ) ;
#910 = EDGE_CURVE ( 'NONE', #21, #46, #466, .T. ) ;
#911 = LINE ( 'NONE', #272, #57 ) ;
#912 = CIRCLE ( 'NONE', #555, 2.000000000000001776 ) ;
#913 = DIRECTION ( 'NONE',  ( 0.000000000000000000, 0.000000000000000000, -1.000000000000000000 ) ) ;
#914 = VECTOR ( 'NONE', #692, 1000.000000000000000 ) ;
#915 = EDGE_LOOP ( 'NONE', ( #187, #166, #374, #242 ) ) ;
#916 = DIRECTION ( 'NONE',  ( 1.000000000000000000, 0.000000000000000000, 0.000000000000000000 ) ) ;
#917 = ORIENTED_EDGE ( 'NONE', *, *, #574, .F. ) ;
#918 = CYLINDRICAL_SURFACE ( 'NONE', #960, 2.500000000000002220 ) ;
#919 = ORIENTED_EDGE ( 'NONE', *, *, #443, .T. ) ;
#920 = DIRECTION ( 'NONE',  ( 0.000000000000000000, -0.000000000000000000, -1.000000000000000000 ) ) ;
#921 = AXIS2_PLACEMENT_3D ( 'NONE', #425, #711, #564 ) ;
#922 = DIRECTION ( 'NONE',  ( 0.000000000000000000, -1.000000000000000000, 0.000000000000000000 ) ) ;
#923 = CARTESIAN_POINT ( 'NONE',  ( 0.000000000000000000, 0.000000000000000000, 0.000000000000000000 ) ) ;
#924 = ORIENTED_EDGE ( 'NONE', *, *, #652, .T. ) ;
#925 = AXIS2_PLACEMENT_3D ( 'NONE', #361, #191, #284 ) ;
#926 = CARTESIAN_POINT ( 'NONE',  ( 2.500000000000000000, 18.15000000000000924, 135.0000000000000000 ) ) ;
#927 = ADVANCED_FACE ( 'NONE', ( #995 ), #766, .F. ) ;
#928 = EDGE_CURVE ( 'NONE', #898, #518, #701, .T. ) ;
#929 = DIRECTION ( 'NONE',  ( -1.000000000000000000, -0.000000000000000000, -0.000000000000000000 ) ) ;
#930 = CARTESIAN_POINT ( 'NONE',  ( 2.500000000000000000, -31.09999999999968168, 38.09999999999990905 ) ) ;
#931 = ORIENTED_EDGE ( 'NONE', *, *, #754, .F. ) ;
#932 = DIRECTION ( 'NONE',  ( 1.000000000000000000, 0.000000000000000000, 0.000000000000000000 ) ) ;
#933 = EDGE_CURVE ( 'NONE', #333, #76, #832, .T. ) ;
#934 = DIRECTION ( 'NONE',  ( 0.000000000000000000, 0.000000000000000000, -1.000000000000000000 ) ) ;
#935 = VERTEX_POINT ( 'NONE', #216 ) ;
#936 = LINE ( 'NONE', #171, #267 ) ;
#937 = VECTOR ( 'NONE', #383, 1000.000000000000000 ) ;
#938 = ORIENTED_EDGE ( 'NONE', *, *, #204, .T. ) ;
#939 = DIRECTION ( 'NONE',  ( 0.000000000000000000, 0.000000000000000000, 1.000000000000000000 ) ) ;
#940 = ORIENTED_EDGE ( 'NONE', *, *, #610, .F. ) ;
#941 = CARTESIAN_POINT ( 'NONE',  ( 2.500000000000000000, -28.89999999999970370, 25.89999999999993108 ) ) ;
#942 = DIRECTION ( 'NONE',  ( -0.000000000000000000, -0.000000000000000000, -1.000000000000000000 ) ) ;
#943 = DIRECTION ( 'NONE',  ( 0.000000000000000000, -1.000000000000000000, 0.000000000000000000 ) ) ;
#944 = AXIS2_PLACEMENT_3D ( 'NONE', #926, #932, #548 ) ;
#945 = ORIENTED_EDGE ( 'NONE', *, *, #125, .T. ) ;
#946 = DIRECTION ( 'NONE',  ( 0.000000000000000000, 0.000000000000000000, -1.000000000000000000 ) ) ;
#947 = VERTEX_POINT ( 'NONE', #73 ) ;
#948 = LINE ( 'NONE', #565, #379 ) ;
#949 = MECHANICAL_DESIGN_GEOMETRIC_PRESENTATION_REPRESENTATION (  '', ( #232 ), #63 ) ;
#950 = EDGE_CURVE ( 'NONE', #1019, #690, #604, .T. ) ;
#951 = VERTEX_POINT ( 'NONE', #309 ) ;
#952 = PLANE ( 'NONE',  #630 ) ;
#953 = ORIENTED_EDGE ( 'NONE', *, *, #817, .F. ) ;
#954 = FACE_OUTER_BOUND ( 'NONE', #291, .T. ) ;
#955 = ORIENTED_EDGE ( 'NONE', *, *, #463, .T. ) ;
#956 = CARTESIAN_POINT ( 'NONE',  ( 0.000000000000000000, -31.09999999999968168, 38.09999999999990905 ) ) ;
#957 = DIRECTION ( 'NONE',  ( 1.000000000000000000, 0.000000000000000000, -0.000000000000000000 ) ) ;
#958 = ADVANCED_FACE ( 'NONE', ( #685 ), #235, .F. ) ;
#959 = EDGE_LOOP ( 'NONE', ( #444, #302, #407, #904 ) ) ;
#960 = AXIS2_PLACEMENT_3D ( 'NONE', #61, #218, #549 ) ;
#961 = ORIENTED_EDGE ( 'NONE', *, *, #516, .T. ) ;
#962 = LINE ( 'NONE', #503, #900 ) ;
#963 = ORIENTED_EDGE ( 'NONE', *, *, #696, .T. ) ;
#964 = ADVANCED_FACE ( 'NONE', ( #289 ), #135, .F. ) ;
#965 = CARTESIAN_POINT ( 'NONE',  ( 0.000000000000000000, -50.00000000000000711, 50.00000000000000000 ) ) ;
#966 = CARTESIAN_POINT ( 'NONE',  ( 0.000000000000000000, 28.89999999999970370, 25.89999999999992397 ) ) ;
#967 = PLANE ( 'NONE',  #676 ) ;
#968 = ORIENTED_EDGE ( 'NONE', *, *, #75, .T. ) ;
#969 = LINE ( 'NONE', #287, #78 ) ;
#970 = VECTOR ( 'NONE', #322, 1000.000000000000000 ) ;
#971 = CARTESIAN_POINT ( 'NONE',  ( 0.000000000000000000, 18.15000000000000924, 135.0000000000000000 ) ) ;
#972 = PLANE ( 'NONE',  #140 ) ;
#973 = ORIENTED_EDGE ( 'NONE', *, *, #850, .F. ) ;
#974 = CARTESIAN_POINT ( 'NONE',  ( 0.000000000000000000, 18.15000000000000924, 135.0000000000000000 ) ) ;
#975 = VECTOR ( 'NONE', #358, 1000.000000000000000 ) ;
#976 = FACE_BOUND ( 'NONE', #233, .T. ) ;
#977 = SURFACE_STYLE_FILL_AREA ( #827 ) ;
#978 = ORIENTED_EDGE ( 'NONE', *, *, #933, .T. ) ;
#979 = EDGE_CURVE ( 'NONE', #690, #577, #1011, .T. ) ;
#980 = DIRECTION ( 'NONE',  ( 0.000000000000000000, 0.000000000000000000, -1.000000000000000000 ) ) ;
#981 = VECTOR ( 'NONE', #259, 1000.000000000000000 ) ;
#982 = CARTESIAN_POINT ( 'NONE',  ( 2.500000000000000000, 15.00000000000000888, 87.50000000000002842 ) ) ;
#983 = CARTESIAN_POINT ( 'NONE',  ( 2.500000000000000000, 25.00000000000000711, 92.50000000000002842 ) ) ;
#984 = VERTEX_POINT ( 'NONE', #389 ) ;
#985 = VECTOR ( 'NONE', #145, 1000.000000000000000 ) ;
#986 = CARTESIAN_POINT ( 'NONE',  ( 0.000000000000000000, -18.14999999999998792, 137.0000000000000000 ) ) ;
#987 = DIRECTION ( 'NONE',  ( -1.000000000000000000, -0.000000000000000000, 0.000000000000000000 ) ) ;
#988 = VERTEX_POINT ( 'NONE', #293 ) ;
#989 = CARTESIAN_POINT ( 'NONE',  ( 2.500000000000000000, -35.00000000000001421, 50.00000000000000711 ) ) ;
#990 = ADVANCED_BREP_SHAPE_REPRESENTATION ( 'frame', ( #656, #641 ), #142 ) ;
#991 = VECTOR ( 'NONE', #576, 1000.000000000000000 ) ;
#992 = DIRECTION ( 'NONE',  ( -1.000000000000000000, -0.000000000000000000, -0.000000000000000000 ) ) ;
#993 = AXIS2_PLACEMENT_3D ( 'NONE', #697, #1004, #619 ) ;
#994 = ADVANCED_FACE ( 'NONE', ( #1012 ), #688, .F. ) ;
#995 = FACE_OUTER_BOUND ( 'NONE', #805, .T. ) ;
#996 = EDGE_LOOP ( 'NONE', ( #504, #756, #433, #256 ) ) ;
#997 = CYLINDRICAL_SURFACE ( 'NONE', #194, 2.000000000000001776 ) ;
#998 = CARTESIAN_POINT ( 'NONE',  ( 2.500000000000000000, -14.99999999999999289, 90.00000000000002842 ) ) ;
#999 = DIRECTION ( 'NONE',  ( 0.000000000000000000, -1.000000000000000000, -4.625929269271487886E-16 ) ) ;
#1000 = AXIS2_PLACEMENT_3D ( 'NONE', #923, #512, #664 ) ;
#1001 = ORIENTED_EDGE ( 'NONE', *, *, #624, .F. ) ;
#1002 = ADVANCED_FACE ( 'NONE', ( #607 ), #918, .F. ) ;
#1003 = DIRECTION ( 'NONE',  ( 0.000000000000000000, 0.000000000000000000, -1.000000000000000000 ) ) ;
#1004 = DIRECTION ( 'NONE',  ( -1.000000000000000000, -0.000000000000000000, 0.000000000000000000 ) ) ;
#1005 = ORIENTED_EDGE ( 'NONE', *, *, #566, .F. ) ;
#1006 = DIRECTION ( 'NONE',  ( -1.000000000000000000, -0.000000000000000000, -0.000000000000000000 ) ) ;
#1007 = EDGE_CURVE ( 'NONE', #615, #424, #845, .T. ) ;
#1008 = EDGE_LOOP ( 'NONE', ( #224, #883, #744, #813 ) ) ;
#1009 = EDGE_CURVE ( 'NONE', #333, #337, #529, .T. ) ;
#1010 = DIRECTION ( 'NONE',  ( -1.000000000000000000, -0.000000000000000000, -0.000000000000000000 ) ) ;
#1011 = CIRCLE ( 'NONE', #304, 2.000000000000001776 ) ;
#1012 = FACE_OUTER_BOUND ( 'NONE', #94, .T. ) ;
#1013 = FACE_OUTER_BOUND ( 'NONE', #368, .T. ) ;
#1014 = ORIENTED_EDGE ( 'NONE', *, *, #435, .T. ) ;
#1015 = EDGE_CURVE ( 'NONE', #185, #262, #523, .T. ) ;
#1016 = CARTESIAN_POINT ( 'NONE',  ( 0.000000000000000000, -24.99999999999999289, 92.50000000000002842 ) ) ;
#1017 = DIRECTION ( 'NONE',  ( 0.000000000000000000, -1.000000000000000000, 0.000000000000000000 ) ) ;
#1018 = AXIS2_PLACEMENT_3D ( 'NONE', #74, #303, #620 ) ;
#1019 = VERTEX_POINT ( 'NONE', #542 ) ;
ENDSEC;
END-ISO-10303-21;
