ISO-10303-21;
HEADER;
FILE_DESCRIPTION (( 'STEP AP214' ),
    '1' );
FILE_NAME ('body.STEP',
    '2026-08-23T15:42:34',
    ( '' ),
    ( '' ),
    'SwSTEP 2.0',
    'SolidWorks 2025',
    '' );
FILE_SCHEMA (( 'AUTOMOTIVE_DESIGN' ));
ENDSEC;

DATA;
#1 = DIRECTION ( 'NONE',  ( -0.000000000000000000, -0.000000000000000000, 1.000000000000000000 ) ) ;
#2 = ORIENTED_EDGE ( 'NONE', *, *, #417, .F. ) ;
#3 = EDGE_CURVE ( 'NONE', #387, #256, #795, .T. ) ;
#4 = DIRECTION ( 'NONE',  ( 1.000000000000000000, 0.000000000000000000, 0.000000000000000000 ) ) ;
#5 = DIRECTION ( 'NONE',  ( -3.414809992080327544E-16, 0.000000000000000000, 1.000000000000000000 ) ) ;
#6 = AXIS2_PLACEMENT_3D ( 'NONE', #484, #1350, #385 ) ;
#7 = ORIENTED_EDGE ( 'NONE', *, *, #700, .T. ) ;
#8 = FACE_BOUND ( 'NONE', #1364, .T. ) ;
#9 = VERTEX_POINT ( 'NONE', #557 ) ;
#10 = ADVANCED_FACE ( 'NONE', ( #160 ), #445, .F. ) ;
#11 = ORIENTED_EDGE ( 'NONE', *, *, #190, .F. ) ;
#12 = CARTESIAN_POINT ( 'NONE',  ( 0.000000000000000000, -0.2999999999999999889, 2.539999999999999591 ) ) ;
#13 = ORIENTED_EDGE ( 'NONE', *, *, #581, .F. ) ;
#14 = LINE ( 'NONE', #23, #225 ) ;
#15 = AXIS2_PLACEMENT_3D ( 'NONE', #737, #1041, #1333 ) ;
#16 = VECTOR ( 'NONE', #81, 39.37007874015748143 ) ;
#17 = ORIENTED_EDGE ( 'NONE', *, *, #105, .F. ) ;
#18 = PRODUCT_DEFINITION ( 'UNKNOWN', '', #1285, #64 ) ;
#19 = CARTESIAN_POINT ( 'NONE',  ( -1.205000000000000071, 1.270000000000000018, 0.000000000000000000 ) ) ;
#20 = EDGE_CURVE ( 'NONE', #758, #266, #773, .T. ) ;
#21 = ORIENTED_EDGE ( 'NONE', *, *, #689, .F. ) ;
#22 = CARTESIAN_POINT ( 'NONE',  ( -1.495000000000000107, 1.660000000000000142, 0.000000000000000000 ) ) ;
#23 = CARTESIAN_POINT ( 'NONE',  ( -1.750000000000000222, 2.100000000000000089, 2.999999999999999556 ) ) ;
#24 = APPLICATION_CONTEXT ( 'automotive_design' ) ;
#25 = ORIENTED_EDGE ( 'NONE', *, *, #1171, .F. ) ;
#26 = LINE ( 'NONE', #749, #60 ) ;
#27 = ORIENTED_EDGE ( 'NONE', *, *, #423, .T. ) ;
#28 = CARTESIAN_POINT ( 'NONE',  ( -0.2000000000000000389, 0.2999999999999999889, 0.000000000000000000 ) ) ;
#29 = EDGE_CURVE ( 'NONE', #604, #112, #138, .T. ) ;
#30 = DIRECTION ( 'NONE',  ( -1.000000000000000000, -0.000000000000000000, -0.000000000000000000 ) ) ;
#31 = PLANE ( 'NONE',  #592 ) ;
#32 = DIRECTION ( 'NONE',  ( -0.000000000000000000, 1.000000000000000000, -0.000000000000000000 ) ) ;
#33 = VECTOR ( 'NONE', #602, 39.37007874015748143 ) ;
#34 = VERTEX_POINT ( 'NONE', #996 ) ;
#35 = CARTESIAN_POINT ( 'NONE',  ( -1.750000000000000222, 0.6750000000000000444, 1.699999999999999289 ) ) ;
#36 = DIRECTION ( 'NONE',  ( -0.000000000000000000, -1.000000000000000000, -0.000000000000000000 ) ) ;
#37 = VECTOR ( 'NONE', #911, 39.37007874015748143 ) ;
#38 = DIRECTION ( 'NONE',  ( 1.000000000000000000, 0.000000000000000000, 0.000000000000000000 ) ) ;
#39 = AXIS2_PLACEMENT_3D ( 'NONE', #1315, #871, #1093 ) ;
#40 =( NAMED_UNIT ( * ) SI_UNIT ( $, .STERADIAN. ) SOLID_ANGLE_UNIT ( ) );
#41 = ORIENTED_EDGE ( 'NONE', *, *, #1249, .F. ) ;
#42 = ORIENTED_EDGE ( 'NONE', *, *, #1033, .F. ) ;
#43 = CARTESIAN_POINT ( 'NONE',  ( 0.000000000000000000, 0.000000000000000000, 0.000000000000000000 ) ) ;
#44 = ORIENTED_EDGE ( 'NONE', *, *, #933, .F. ) ;
#45 = PLANE ( 'NONE',  #135 ) ;
#46 = ADVANCED_FACE ( 'NONE', ( #1190 ), #243, .F. ) ;
#47 = ORIENTED_EDGE ( 'NONE', *, *, #571, .F. ) ;
#48 = VERTEX_POINT ( 'NONE', #270 ) ;
#49 = CARTESIAN_POINT ( 'NONE',  ( -1.495000000000000107, 1.660000000000000142, 2.499999999999999556 ) ) ;
#50 = CIRCLE ( 'NONE', #6, 0.2249999999999999223 ) ;
#51 = ORIENTED_EDGE ( 'NONE', *, *, #479, .F. ) ;
#52 = DIRECTION ( 'NONE',  ( 1.000000000000000000, -6.829619984160656074E-16, -0.000000000000000000 ) ) ;
#53 = EDGE_CURVE ( 'NONE', #154, #217, #586, .T. ) ;
#54 = DIRECTION ( 'NONE',  ( -1.000000000000000000, -0.000000000000000000, -0.000000000000000000 ) ) ;
#55 = ORIENTED_EDGE ( 'NONE', *, *, #53, .T. ) ;
#56 = ORIENTED_EDGE ( 'NONE', *, *, #588, .T. ) ;
#57 = CARTESIAN_POINT ( 'NONE',  ( -2.500000000000000000, 3.500000000000000000, 3.500000000000000000 ) ) ;
#58 = LINE ( 'NONE', #68, #509 ) ;
#59 = CARTESIAN_POINT ( 'NONE',  ( -1.205000000000000071, 1.270000000000000018, 2.499999999999999556 ) ) ;
#60 = VECTOR ( 'NONE', #446, 39.37007874015748143 ) ;
#61 = CARTESIAN_POINT ( 'NONE',  ( -1.750000000000000222, 2.100000000000000089, 2.499999999999999556 ) ) ;
#62 = EDGE_CURVE ( 'NONE', #870, #1035, #461, .T. ) ;
#63 = ORIENTED_EDGE ( 'NONE', *, *, #965, .T. ) ;
#64 = PRODUCT_DEFINITION_CONTEXT ( 'detailed design', #897, 'design' ) ;
#65 = ORIENTED_EDGE ( 'NONE', *, *, #1066, .F. ) ;
#66 = DIRECTION ( 'NONE',  ( -0.000000000000000000, 1.000000000000000000, -0.000000000000000000 ) ) ;
#67 = EDGE_CURVE ( 'NONE', #48, #876, #1245, .T. ) ;
#68 = CARTESIAN_POINT ( 'NONE',  ( -2.700000000000000178, 3.799999999999999822, 0.000000000000000000 ) ) ;
#69 = LINE ( 'NONE', #910, #317 ) ;
#70 = DIRECTION ( 'NONE',  ( 0.000000000000000000, -1.000000000000000000, 0.000000000000000000 ) ) ;
#71 = ORIENTED_EDGE ( 'NONE', *, *, #1242, .F. ) ;
#72 = PLANE ( 'NONE',  #88 ) ;
#73 = EDGE_CURVE ( 'NONE', #1346, #454, #1121, .T. ) ;
#74 = CARTESIAN_POINT ( 'NONE',  ( 0.000000000000000000, -0.2999999999999999889, 1.039999999999999591 ) ) ;
#75 = VECTOR ( 'NONE', #82, 39.37007874015748143 ) ;
#76 = FACE_OUTER_BOUND ( 'NONE', #336, .T. ) ;
#77 = AXIS2_PLACEMENT_3D ( 'NONE', #717, #823, #1114 ) ;
#78 = ORIENTED_EDGE ( 'NONE', *, *, #908, .F. ) ;
#79 = FACE_OUTER_BOUND ( 'NONE', #1340, .T. ) ;
#80 = EDGE_CURVE ( 'NONE', #154, #9, #1133, .T. ) ;
#81 = DIRECTION ( 'NONE',  ( -1.000000000000000000, -0.000000000000000000, -0.000000000000000000 ) ) ;
#82 = DIRECTION ( 'NONE',  ( -1.000000000000000000, -0.000000000000000000, -0.000000000000000000 ) ) ;
#83 = EDGE_CURVE ( 'NONE', #217, #354, #1250, .T. ) ;
#84 = EDGE_LOOP ( 'NONE', ( #248, #128, #239, #149, #11 ) ) ;
#85 = VECTOR ( 'NONE', #1269, 39.37007874015748143 ) ;
#86 = LINE ( 'NONE', #510, #983 ) ;
#87 = VECTOR ( 'NONE', #264, 39.37007874015748143 ) ;
#88 = AXIS2_PLACEMENT_3D ( 'NONE', #915, #669, #1099 ) ;
#89 = LINE ( 'NONE', #1070, #708 ) ;
#90 = LINE ( 'NONE', #818, #914 ) ;
#91 = EDGE_CURVE ( 'NONE', #358, #189, #1337, .T. ) ;
#92 = FACE_OUTER_BOUND ( 'NONE', #853, .T. ) ;
#93 = FACE_OUTER_BOUND ( 'NONE', #381, .T. ) ;
#94 = LINE ( 'NONE', #594, #383 ) ;
#95 = VECTOR ( 'NONE', #580, 39.37007874015748143 ) ;
#96 = CARTESIAN_POINT ( 'NONE',  ( -0.9499999999999999556, 0.2999999999999999889, 1.699999999999999289 ) ) ;
#97 = EDGE_CURVE ( 'NONE', #652, #1096, #570, .T. ) ;
#98 = LINE ( 'NONE', #400, #33 ) ;
#99 = CARTESIAN_POINT ( 'NONE',  ( -1.350000000000000089, 2.600000000000000089, 3.500000000000000000 ) ) ;
#100 = DIRECTION ( 'NONE',  ( 0.000000000000000000, 0.000000000000000000, -1.000000000000000000 ) ) ;
#101 = ORIENTED_EDGE ( 'NONE', *, *, #1130, .F. ) ;
#102 = DIRECTION ( 'NONE',  ( 0.000000000000000000, 0.000000000000000000, 1.000000000000000000 ) ) ;
#103 = ORIENTED_EDGE ( 'NONE', *, *, #307, .F. ) ;
#104 = VECTOR ( 'NONE', #253, 39.37007874015748143 ) ;
#105 = EDGE_CURVE ( 'NONE', #640, #755, #716, .T. ) ;
#106 = AXIS2_PLACEMENT_3D ( 'NONE', #22, #618, #409 ) ;
#107 = AXIS2_PLACEMENT_3D ( 'NONE', #465, #577, #360 ) ;
#108 = DIRECTION ( 'NONE',  ( 1.000000000000000000, -0.000000000000000000, -0.000000000000000000 ) ) ;
#109 = ORIENTED_EDGE ( 'NONE', *, *, #571, .T. ) ;
#110 = LINE ( 'NONE', #952, #1317 ) ;
#111 = CARTESIAN_POINT ( 'NONE',  ( 0.000000000000000000, 0.000000000000000000, 2.839999999999999858 ) ) ;
#112 = VERTEX_POINT ( 'NONE', #1019 ) ;
#113 = EDGE_CURVE ( 'NONE', #285, #228, #924, .T. ) ;
#114 = CARTESIAN_POINT ( 'NONE',  ( 0.000000000000000000, 0.000000000000000000, 3.500000000000000000 ) ) ;
#115 = EDGE_LOOP ( 'NONE', ( #1160, #628, #17, #1117 ) ) ;
#116 = CARTESIAN_POINT ( 'NONE',  ( -1.106997942395542722, 1.465000000000000080, 0.000000000000000000 ) ) ;
#117 = ORIENTED_EDGE ( 'NONE', *, *, #199, .T. ) ;
#118 = DIRECTION ( 'NONE',  ( -0.000000000000000000, -0.000000000000000000, 1.000000000000000000 ) ) ;
#119 = ORIENTED_EDGE ( 'NONE', *, *, #1183, .T. ) ;
#120 = CARTESIAN_POINT ( 'NONE',  ( -0.9499999999999999556, 1.270000000000000018, 2.499999999999999556 ) ) ;
#121 = VERTEX_POINT ( 'NONE', #729 ) ;
#122 = DIRECTION ( 'NONE',  ( 1.000000000000000000, -0.000000000000000000, -0.000000000000000000 ) ) ;
#123 = AXIS2_PLACEMENT_3D ( 'NONE', #971, #5, #757 ) ;
#124 = CARTESIAN_POINT ( 'NONE',  ( -1.495000000000000107, 1.270000000000000018, 0.000000000000000000 ) ) ;
#125 = ORIENTED_EDGE ( 'NONE', *, *, #933, .T. ) ;
#126 = EDGE_CURVE ( 'NONE', #354, #867, #1330, .T. ) ;
#127 = DIRECTION ( 'NONE',  ( -0.000000000000000000, -0.000000000000000000, 1.000000000000000000 ) ) ;
#128 = ORIENTED_EDGE ( 'NONE', *, *, #658, .F. ) ;
#129 = DIRECTION ( 'NONE',  ( -1.000000000000000000, 0.000000000000000000, -0.000000000000000000 ) ) ;
#130 = VERTEX_POINT ( 'NONE', #191 ) ;
#131 = DIRECTION ( 'NONE',  ( 1.000000000000000000, 0.000000000000000000, 0.000000000000000000 ) ) ;
#132 = LINE ( 'NONE', #768, #1253 ) ;
#133 = EDGE_CURVE ( 'NONE', #358, #48, #497, .T. ) ;
#134 = EDGE_LOOP ( 'NONE', ( #1195, #1211, #508, #1299 ) ) ;
#135 = AXIS2_PLACEMENT_3D ( 'NONE', #1226, #885, #903 ) ;
#136 = LINE ( 'NONE', #779, #485 ) ;
#137 = AXIS2_PLACEMENT_3D ( 'NONE', #124, #314, #970 ) ;
#138 = LINE ( 'NONE', #865, #1214 ) ;
#139 = CARTESIAN_POINT ( 'NONE',  ( 0.000000000000000000, 3.799999999999999822, 3.500000000000000000 ) ) ;
#140 = DIRECTION ( 'NONE',  ( 0.000000000000000000, -0.000000000000000000, 1.000000000000000000 ) ) ;
#141 = VERTEX_POINT ( 'NONE', #74 ) ;
#142 = ORIENTED_EDGE ( 'NONE', *, *, #949, .T. ) ;
#143 = DIRECTION ( 'NONE',  ( -1.000000000000000000, -0.000000000000000000, -0.000000000000000000 ) ) ;
#144 = ADVANCED_FACE ( 'NONE', ( #599, #923 ), #396, .F. ) ;
#145 = EDGE_LOOP ( 'NONE', ( #791, #610, #660, #984 ) ) ;
#146 = FACE_OUTER_BOUND ( 'NONE', #981, .T. ) ;
#147 = CARTESIAN_POINT ( 'NONE',  ( -2.700000000000000178, -0.2999999999999999889, 1.339999999999999636 ) ) ;
#148 = ORIENTED_EDGE ( 'NONE', *, *, #277, .T. ) ;
#149 = ORIENTED_EDGE ( 'NONE', *, *, #113, .F. ) ;
#150 = DIRECTION ( 'NONE',  ( -0.000000000000000000, -1.000000000000000000, -0.000000000000000000 ) ) ;
#151 = EDGE_CURVE ( 'NONE', #478, #870, #611, .T. ) ;
#152 = APPLICATION_PROTOCOL_DEFINITION ( 'draft international standard', 'automotive_design', 1998, #24 ) ;
#153 = EDGE_CURVE ( 'NONE', #525, #683, #803, .T. ) ;
#154 = VERTEX_POINT ( 'NONE', #707 ) ;
#155 = CARTESIAN_POINT ( 'NONE',  ( -0.5499999999999998224, 2.100000000000000089, 3.500000000000000000 ) ) ;
#156 = PLANE ( 'NONE',  #1237 ) ;
#157 = ORIENTED_EDGE ( 'NONE', *, *, #949, .F. ) ;
#158 = ORIENTED_EDGE ( 'NONE', *, *, #162, .T. ) ;
#159 = LINE ( 'NONE', #57, #1034 ) ;
#160 = FACE_OUTER_BOUND ( 'NONE', #1155, .T. ) ;
#161 = DIRECTION ( 'NONE',  ( 0.000000000000000000, 0.000000000000000000, 1.000000000000000000 ) ) ;
#162 = EDGE_CURVE ( 'NONE', #548, #702, #58, .T. ) ;
#163 = FACE_OUTER_BOUND ( 'NONE', #359, .T. ) ;
#164 = EDGE_LOOP ( 'NONE', ( #1270, #1320, #874, #535, #767 ) ) ;
#165 = ORIENTED_EDGE ( 'NONE', *, *, #689, .T. ) ;
#166 = LINE ( 'NONE', #704, #1054 ) ;
#167 = ADVANCED_BREP_SHAPE_REPRESENTATION ( 'body', ( #774, #361 ), #1332 ) ;
#168 = DIRECTION ( 'NONE',  ( 1.000000000000000000, 0.000000000000000000, 0.000000000000000000 ) ) ;
#169 = LINE ( 'NONE', #829, #888 ) ;
#170 = VECTOR ( 'NONE', #52, 39.37007874015748143 ) ;
#171 = CARTESIAN_POINT ( 'NONE',  ( -0.5499999999999998224, 2.100000000000000089, 3.500000000000000000 ) ) ;
#172 = ORIENTED_EDGE ( 'NONE', *, *, #1139, .T. ) ;
#173 = ADVANCED_FACE ( 'NONE', ( #1225 ), #275, .F. ) ;
#174 = UNCERTAINTY_MEASURE_WITH_UNIT (LENGTH_MEASURE( 1.000000000000000082E-05 ), #582, 'distance_accuracy_value', 'NONE');
#175 = EDGE_LOOP ( 'NONE', ( #362, #182, #254, #994 ) ) ;
#176 = DIRECTION ( 'NONE',  ( 1.000000000000000000, 0.000000000000000000, 0.000000000000000000 ) ) ;
#177 = CARTESIAN_POINT ( 'NONE',  ( -2.700000000000000178, -0.2999999999999999889, 1.339999999999999636 ) ) ;
#178 = CARTESIAN_POINT ( 'NONE',  ( -2.700000000000000178, -0.2999999999999999889, 2.839999999999999858 ) ) ;
#179 = ORIENTED_EDGE ( 'NONE', *, *, #760, .T. ) ;
#180 = CARTESIAN_POINT ( 'NONE',  ( 0.000000000000000000, 0.000000000000000000, 3.039999999999999591 ) ) ;
#181 = ADVANCED_FACE ( 'NONE', ( #290 ), #721, .F. ) ;
#182 = ORIENTED_EDGE ( 'NONE', *, *, #1183, .F. ) ;
#183 = CARTESIAN_POINT ( 'NONE',  ( -2.700000000000000178, -0.2999999999999999889, 2.839999999999999858 ) ) ;
#184 = AXIS2_PLACEMENT_3D ( 'NONE', #291, #303, #925 ) ;
#185 = CYLINDRICAL_SURFACE ( 'NONE', #1084, 0.2430020576044572556 ) ;
#186 = DIRECTION ( 'NONE',  ( -0.000000000000000000, -0.000000000000000000, 1.000000000000000000 ) ) ;
#187 = ORIENTED_EDGE ( 'NONE', *, *, #1139, .F. ) ;
#188 = CARTESIAN_POINT ( 'NONE',  ( -2.500000000000000000, 0.2999999999999999889, 0.000000000000000000 ) ) ;
#189 = VERTEX_POINT ( 'NONE', #1031 ) ;
#190 = EDGE_CURVE ( 'NONE', #328, #285, #89, .T. ) ;
#191 = CARTESIAN_POINT ( 'NONE',  ( -0.9499999999999999556, 2.100000000000000089, 2.499999999999999556 ) ) ;
#192 = CYLINDRICAL_SURFACE ( 'NONE', #77, 0.2249999999999999223 ) ;
#193 = ORIENTED_EDGE ( 'NONE', *, *, #105, .T. ) ;
#194 = DIRECTION ( 'NONE',  ( -0.000000000000000000, -0.000000000000000000, 1.000000000000000000 ) ) ;
#195 = VECTOR ( 'NONE', #638, 39.37007874015748143 ) ;
#196 = VECTOR ( 'NONE', #902, 39.37007874015748143 ) ;
#197 = DIRECTION ( 'NONE',  ( 1.000000000000000000, 0.000000000000000000, 3.414809992080327544E-16 ) ) ;
#198 = CARTESIAN_POINT ( 'NONE',  ( -1.350000000000000089, 1.465000000000000080, 0.000000000000000000 ) ) ;
#199 = EDGE_CURVE ( 'NONE', #876, #604, #1196, .T. ) ;
#200 = CARTESIAN_POINT ( 'NONE',  ( 0.000000000000000000, 3.799999999999999822, 0.000000000000000000 ) ) ;
#201 = DIRECTION ( 'NONE',  ( 1.000000000000000000, 0.000000000000000000, 0.000000000000000000 ) ) ;
#202 = PLANE ( 'NONE',  #540 ) ;
#203 = EDGE_CURVE ( 'NONE', #575, #411, #1045, .T. ) ;
#204 = PLANE ( 'NONE',  #437 ) ;
#205 = AXIS2_PLACEMENT_3D ( 'NONE', #1058, #1065, #648 ) ;
#206 = EDGE_CURVE ( 'NONE', #141, #358, #1147, .T. ) ;
#207 = DIRECTION ( 'NONE',  ( 1.000000000000000000, -0.000000000000000000, 3.414809992080327544E-16 ) ) ;
#208 = ORIENTED_EDGE ( 'NONE', *, *, #789, .F. ) ;
#209 = LINE ( 'NONE', #624, #250 ) ;
#210 = LINE ( 'NONE', #630, #547 ) ;
#211 = CARTESIAN_POINT ( 'NONE',  ( -0.2000000000000000389, 0.2999999999999999889, 3.500000000000000000 ) ) ;
#212 = ADVANCED_FACE ( 'NONE', ( #944 ), #979, .F. ) ;
#213 = EDGE_LOOP ( 'NONE', ( #148, #375, #806, #494 ) ) ;
#214 = PRESENTATION_LAYER_ASSIGNMENT (  '', '', ( #964 ) ) ;
#215 = CIRCLE ( 'NONE', #1296, 0.2249999999999999223 ) ;
#216 = LINE ( 'NONE', #114, #520 ) ;
#217 = VERTEX_POINT ( 'NONE', #1178 ) ;
#218 = CARTESIAN_POINT ( 'NONE',  ( -2.700000000000000178, 0.000000000000000000, 3.039999999999999591 ) ) ;
#219 = LINE ( 'NONE', #231, #1271 ) ;
#220 = ORIENTED_EDGE ( 'NONE', *, *, #1339, .T. ) ;
#221 = CARTESIAN_POINT ( 'NONE',  ( 0.000000000000000000, 0.000000000000000000, 0.000000000000000000 ) ) ;
#222 = ORIENTED_EDGE ( 'NONE', *, *, #348, .F. ) ;
#223 = ORIENTED_EDGE ( 'NONE', *, *, #377, .F. ) ;
#224 = LINE ( 'NONE', #318, #921 ) ;
#225 = VECTOR ( 'NONE', #118, 39.37007874015748143 ) ;
#226 = ORIENTED_EDGE ( 'NONE', *, *, #162, .F. ) ;
#227 = CARTESIAN_POINT ( 'NONE',  ( -1.106997942395542722, 1.465000000000000080, 3.500000000000000000 ) ) ;
#228 = VERTEX_POINT ( 'NONE', #227 ) ;
#229 = CARTESIAN_POINT ( 'NONE',  ( -2.700000000000000178, -0.2999999999999999889, 3.039999999999999591 ) ) ;
#230 = ADVANCED_FACE ( 'NONE', ( #647 ), #969, .F. ) ;
#231 = CARTESIAN_POINT ( 'NONE',  ( -1.205000000000000071, 1.660000000000000142, 0.000000000000000000 ) ) ;
#232 = ORIENTED_EDGE ( 'NONE', *, *, #1268, .T. ) ;
#233 = CARTESIAN_POINT ( 'NONE',  ( -1.205000000000000071, 1.270000000000000018, 3.500000000000000000 ) ) ;
#234 = AXIS2_PLACEMENT_3D ( 'NONE', #816, #930, #1113 ) ;
#235 = EDGE_CURVE ( 'NONE', #1035, #867, #517, .T. ) ;
#236 = ORIENTED_EDGE ( 'NONE', *, *, #793, .T. ) ;
#237 = CARTESIAN_POINT ( 'NONE',  ( -2.700000000000000178, -0.1599999999999999756, 2.539999999999999591 ) ) ;
#238 = LINE ( 'NONE', #856, #1294 ) ;
#239 = ORIENTED_EDGE ( 'NONE', *, *, #338, .F. ) ;
#240 = PLANE ( 'NONE',  #632 ) ;
#241 = ORIENTED_EDGE ( 'NONE', *, *, #301, .T. ) ;
#242 =( CONVERSION_BASED_UNIT ( 'INCH', #457 ) LENGTH_UNIT ( ) NAMED_UNIT ( #701 ) );
#243 = PLANE ( 'NONE',  #616 ) ;
#244 = FACE_BOUND ( 'NONE', #339, .T. ) ;
#245 = PRESENTATION_STYLE_ASSIGNMENT (( #373 ) ) ;
#246 = ORIENTED_EDGE ( 'NONE', *, *, #1224, .T. ) ;
#247 = EDGE_CURVE ( 'NONE', #827, #1258, #1077, .T. ) ;
#248 = ORIENTED_EDGE ( 'NONE', *, *, #901, .F. ) ;
#249 = FACE_OUTER_BOUND ( 'NONE', #487, .T. ) ;
#250 = VECTOR ( 'NONE', #859, 39.37007874015748143 ) ;
#251 = ORIENTED_EDGE ( 'NONE', *, *, #736, .F. ) ;
#252 = DIRECTION ( 'NONE',  ( -0.000000000000000000, -0.000000000000000000, 1.000000000000000000 ) ) ;
#253 = DIRECTION ( 'NONE',  ( -0.000000000000000000, -0.000000000000000000, 1.000000000000000000 ) ) ;
#254 = ORIENTED_EDGE ( 'NONE', *, *, #29, .F. ) ;
#255 = VECTOR ( 'NONE', #1024, 39.37007874015748143 ) ;
#256 = VERTEX_POINT ( 'NONE', #1038 ) ;
#257 = CARTESIAN_POINT ( 'NONE',  ( 0.000000000000000000, 0.000000000000000000, 0.000000000000000000 ) ) ;
#258 = ADVANCED_FACE ( 'NONE', ( #759 ), #556, .F. ) ;
#259 =( NAMED_UNIT ( * ) PLANE_ANGLE_UNIT ( ) SI_UNIT ( $, .RADIAN. ) );
#260 = AXIS2_PLACEMENT_3D ( 'NONE', #1341, #627, #1131 ) ;
#261 = ORIENTED_EDGE ( 'NONE', *, *, #598, .T. ) ;
#262 = VECTOR ( 'NONE', #918, 39.37007874015748143 ) ;
#263 = CYLINDRICAL_SURFACE ( 'NONE', #1198, 0.2430020576044572556 ) ;
#264 = DIRECTION ( 'NONE',  ( -0.000000000000000000, 1.000000000000000000, -0.000000000000000000 ) ) ;
#265 = ORIENTED_EDGE ( 'NONE', *, *, #941, .T. ) ;
#266 = VERTEX_POINT ( 'NONE', #562 ) ;
#267 = CARTESIAN_POINT ( 'NONE',  ( -0.9499999999999999556, 1.050000000000000044, 2.499999999999999556 ) ) ;
#268 = ADVANCED_FACE ( 'NONE', ( #862 ), #1256, .F. ) ;
#269 = ADVANCED_FACE ( 'NONE', ( #93 ), #734, .F. ) ;
#270 = CARTESIAN_POINT ( 'NONE',  ( -2.700000000000000178, -0.2999999999999999889, 1.539999999999999591 ) ) ;
#271 = PLANE ( 'NONE',  #864 ) ;
#272 = ORIENTED_EDGE ( 'NONE', *, *, #434, .T. ) ;
#273 = EDGE_LOOP ( 'NONE', ( #1107, #220, #1221, #429 ) ) ;
#274 = LINE ( 'NONE', #473, #710 ) ;
#275 = PLANE ( 'NONE',  #1074 ) ;
#276 = PLANE ( 'NONE',  #184 ) ;
#277 = EDGE_CURVE ( 'NONE', #1035, #848, #1290, .T. ) ;
#278 = CARTESIAN_POINT ( 'NONE',  ( 0.000000000000000000, 0.000000000000000000, 0.000000000000000000 ) ) ;
#279 = EDGE_LOOP ( 'NONE', ( #280, #846, #1247, #583 ) ) ;
#280 = ORIENTED_EDGE ( 'NONE', *, *, #479, .T. ) ;
#281 = CARTESIAN_POINT ( 'NONE',  ( 0.000000000000000000, 0.000000000000000000, 1.339999999999999636 ) ) ;
#282 = EDGE_CURVE ( 'NONE', #380, #1137, #215, .T. ) ;
#283 = DIRECTION ( 'NONE',  ( 0.000000000000000000, 1.000000000000000000, 0.000000000000000000 ) ) ;
#284 = CARTESIAN_POINT ( 'NONE',  ( 0.000000000000000000, 0.000000000000000000, 0.000000000000000000 ) ) ;
#285 = VERTEX_POINT ( 'NONE', #233 ) ;
#286 = CIRCLE ( 'NONE', #123, 0.2249999999999999223 ) ;
#287 = CARTESIAN_POINT ( 'NONE',  ( -2.700000000000000178, 0.000000000000000000, 1.539999999999999591 ) ) ;
#288 = EDGE_LOOP ( 'NONE', ( #1063, #1266, #851, #576 ) ) ;
#289 = DIRECTION ( 'NONE',  ( 1.000000000000000000, 0.000000000000000000, 0.000000000000000000 ) ) ;
#290 = FACE_OUTER_BOUND ( 'NONE', #785, .T. ) ;
#291 = CARTESIAN_POINT ( 'NONE',  ( 0.000000000000000000, 0.000000000000000000, 1.039999999999999591 ) ) ;
#292 = DIRECTION ( 'NONE',  ( -0.000000000000000000, 1.000000000000000000, -0.000000000000000000 ) ) ;
#293 = VERTEX_POINT ( 'NONE', #524 ) ;
#294 = PLANE ( 'NONE',  #1292 ) ;
#295 = ADVANCED_FACE ( 'NONE', ( #772 ), #240, .F. ) ;
#296 = DIRECTION ( 'NONE',  ( -5.463695987328519534E-16, 0.000000000000000000, -1.000000000000000000 ) ) ;
#297 = CARTESIAN_POINT ( 'NONE',  ( -0.2000000000000000389, 3.500000000000000000, 0.000000000000000000 ) ) ;
#298 = VECTOR ( 'NONE', #1134, 39.37007874015748143 ) ;
#299 = ORIENTED_EDGE ( 'NONE', *, *, #315, .T. ) ;
#300 = CARTESIAN_POINT ( 'NONE',  ( 0.000000000000000000, -0.1599999999999999756, 2.539999999999999591 ) ) ;
#301 = EDGE_CURVE ( 'NONE', #1348, #643, #1280, .T. ) ;
#302 = DIRECTION ( 'NONE',  ( -0.000000000000000000, -0.000000000000000000, 1.000000000000000000 ) ) ;
#303 = DIRECTION ( 'NONE',  ( -0.000000000000000000, 0.000000000000000000, 1.000000000000000000 ) ) ;
#304 = VECTOR ( 'NONE', #541, 39.37007874015748143 ) ;
#305 = DIRECTION ( 'NONE',  ( -0.000000000000000000, -0.000000000000000000, -1.000000000000000000 ) ) ;
#306 = VECTOR ( 'NONE', #916, 39.37007874015748143 ) ;
#307 = EDGE_CURVE ( 'NONE', #608, #1059, #136, .T. ) ;
#308 = CARTESIAN_POINT ( 'NONE',  ( -2.700000000000000178, -0.1599999999999999756, 1.039999999999999591 ) ) ;
#309 = CARTESIAN_POINT ( 'NONE',  ( 0.000000000000000000, 3.799999999999999822, 0.000000000000000000 ) ) ;
#310 = EDGE_CURVE ( 'NONE', #1057, #787, #159, .T. ) ;
#311 = DIRECTION ( 'NONE',  ( 0.000000000000000000, 1.000000000000000000, 0.000000000000000000 ) ) ;
#312 = DIRECTION ( 'NONE',  ( 1.000000000000000000, 0.000000000000000000, 0.000000000000000000 ) ) ;
#313 = VERTEX_POINT ( 'NONE', #376 ) ;
#314 = DIRECTION ( 'NONE',  ( 0.000000000000000000, -1.000000000000000000, 0.000000000000000000 ) ) ;
#315 = EDGE_CURVE ( 'NONE', #1137, #380, #345, .T. ) ;
#316 = ORIENTED_EDGE ( 'NONE', *, *, #802, .T. ) ;
#317 = VECTOR ( 'NONE', #1331, 39.37007874015748143 ) ;
#318 = CARTESIAN_POINT ( 'NONE',  ( 0.000000000000000000, -0.2999999999999999889, 2.839999999999999858 ) ) ;
#319 = ORIENTED_EDGE ( 'NONE', *, *, #153, .F. ) ;
#320 = FACE_OUTER_BOUND ( 'NONE', #1098, .T. ) ;
#321 = ORIENTED_EDGE ( 'NONE', *, *, #658, .T. ) ;
#322 = LINE ( 'NONE', #218, #195 ) ;
#323 = EDGE_CURVE ( 'NONE', #848, #1076, #1230, .T. ) ;
#324 = CARTESIAN_POINT ( 'NONE',  ( -2.700000000000000178, 3.799999999999999822, 0.000000000000000000 ) ) ;
#325 = ORIENTED_EDGE ( 'NONE', *, *, #434, .F. ) ;
#326 = AXIS2_PLACEMENT_3D ( 'NONE', #1127, #828, #197 ) ;
#327 = PLANE ( 'NONE',  #205 ) ;
#328 = VERTEX_POINT ( 'NONE', #1328 ) ;
#329 = EDGE_LOOP ( 'NONE', ( #1078, #325, #101, #55, #1187, #754 ) ) ;
#330 = DIRECTION ( 'NONE',  ( 0.000000000000000000, 0.000000000000000000, -1.000000000000000000 ) ) ;
#331 = ORIENTED_EDGE ( 'NONE', *, *, #581, .T. ) ;
#332 = CARTESIAN_POINT ( 'NONE',  ( -2.700000000000000178, 0.000000000000000000, 2.839999999999999858 ) ) ;
#333 = EDGE_CURVE ( 'NONE', #1233, #719, #786, .T. ) ;
#334 = DIRECTION ( 'NONE',  ( 0.000000000000000000, -0.000000000000000000, 1.000000000000000000 ) ) ;
#335 = LINE ( 'NONE', #1277, #747 ) ;
#336 = EDGE_LOOP ( 'NONE', ( #475, #1056, #436, #1235 ) ) ;
#337 = DIRECTION ( 'NONE',  ( 0.000000000000000000, -0.000000000000000000, -1.000000000000000000 ) ) ;
#338 = EDGE_CURVE ( 'NONE', #228, #1311, #1186, .T. ) ;
#339 = EDGE_LOOP ( 'NONE', ( #892, #1129, #703, #884, #712, #1273 ) ) ;
#340 = CARTESIAN_POINT ( 'NONE',  ( -2.700000000000000178, 0.000000000000000000, 0.000000000000000000 ) ) ;
#341 = ORIENTED_EDGE ( 'NONE', *, *, #1203, .T. ) ;
#342 = DIRECTION ( 'NONE',  ( -0.000000000000000000, 1.000000000000000000, -0.000000000000000000 ) ) ;
#343 = AXIS2_PLACEMENT_3D ( 'NONE', #405, #516, #312 ) ;
#344 = VECTOR ( 'NONE', #378, 39.37007874015748143 ) ;
#345 = CIRCLE ( 'NONE', #751, 0.2249999999999999223 ) ;
#346 = DIRECTION ( 'NONE',  ( 1.000000000000000000, 0.000000000000000000, 0.000000000000000000 ) ) ;
#347 = DIRECTION ( 'NONE',  ( 1.000000000000000000, 0.000000000000000000, 0.000000000000000000 ) ) ;
#348 = EDGE_CURVE ( 'NONE', #683, #758, #1222, .T. ) ;
#349 = CARTESIAN_POINT ( 'NONE',  ( -0.9499999999999999556, 1.800000000000000266, 2.499999999999999556 ) ) ;
#350 = EDGE_LOOP ( 'NONE', ( #451, #1172, #777, #662 ) ) ;
#351 = ORIENTED_EDGE ( 'NONE', *, *, #1179, .F. ) ;
#352 = DIRECTION ( 'NONE',  ( 1.000000000000000000, 0.000000000000000000, 0.000000000000000000 ) ) ;
#353 =( NAMED_UNIT ( * ) SI_UNIT ( $, .STERADIAN. ) SOLID_ANGLE_UNIT ( ) );
#354 = VERTEX_POINT ( 'NONE', #1322 ) ;
#355 = CARTESIAN_POINT ( 'NONE',  ( -2.700000000000000178, 0.000000000000000000, 0.000000000000000000 ) ) ;
#356 = ADVANCED_FACE ( 'NONE', ( #677 ), #368, .T. ) ;
#357 = CARTESIAN_POINT ( 'NONE',  ( 0.000000000000000000, 0.000000000000000000, 1.699999999999999289 ) ) ;
#358 = VERTEX_POINT ( 'NONE', #569 ) ;
#359 = EDGE_LOOP ( 'NONE', ( #947, #561, #78, #419 ) ) ;
#360 = DIRECTION ( 'NONE',  ( 1.000000000000000000, 0.000000000000000000, 0.000000000000000000 ) ) ;
#361 = AXIS2_PLACEMENT_3D ( 'NONE', #780, #1207, #1189 ) ;
#362 = ORIENTED_EDGE ( 'NONE', *, *, #1323, .T. ) ;
#363 = CARTESIAN_POINT ( 'NONE',  ( -1.750000000000000222, 0.6750000000000000444, 1.699999999999999289 ) ) ;
#364 = PLANE ( 'NONE',  #1052 ) ;
#365 = VECTOR ( 'NONE', #1252, 39.37007874015748143 ) ;
#366 = ORIENTED_EDGE ( 'NONE', *, *, #1216, .T. ) ;
#367 = EDGE_LOOP ( 'NONE', ( #898, #1313 ) ) ;
#368 = PLANE ( 'NONE',  #1298 ) ;
#369 = VECTOR ( 'NONE', #207, 39.37007874015748143 ) ;
#370 = DIRECTION ( 'NONE',  ( 1.000000000000000000, 0.000000000000000000, -5.463695987328519534E-16 ) ) ;
#371 = DIRECTION ( 'NONE',  ( -5.463695987328519534E-16, 0.000000000000000000, -1.000000000000000000 ) ) ;
#372 = CLOSED_SHELL ( 'NONE', ( #1192, #1126, #295, #230, #869, #173, #356, #1049, #392, #750, #1286, #1275, #972, #1081, #886, #812, #554, #269, #1174, #10, #544, #998, #766, #441, #258, #1025, #1329, #538, #181, #1353, #490, #1312, #408, #268, #1144, #212, #46, #144, #895, #563 ) ) ;
#373 = SURFACE_STYLE_USAGE ( .BOTH. , #790 ) ;
#374 = VERTEX_POINT ( 'NONE', #281 ) ;
#375 = ORIENTED_EDGE ( 'NONE', *, *, #323, .T. ) ;
#376 = CARTESIAN_POINT ( 'NONE',  ( 0.000000000000000000, -0.1599999999999999756, 1.339999999999999636 ) ) ;
#377 = EDGE_CURVE ( 'NONE', #1059, #471, #1118, .T. ) ;
#378 = DIRECTION ( 'NONE',  ( -0.000000000000000000, -0.000000000000000000, -1.000000000000000000 ) ) ;
#379 = LINE ( 'NONE', #468, #769 ) ;
#380 = VERTEX_POINT ( 'NONE', #1215 ) ;
#381 = EDGE_LOOP ( 'NONE', ( #799, #601, #1006, #407 ) ) ;
#382 = DIRECTION ( 'NONE',  ( 0.000000000000000000, 0.000000000000000000, 1.000000000000000000 ) ) ;
#383 = VECTOR ( 'NONE', #1143, 39.37007874015748143 ) ;
#384 = CARTESIAN_POINT ( 'NONE',  ( -1.750000000000000222, 0.2999999999999999889, 3.500000000000000000 ) ) ;
#385 = DIRECTION ( 'NONE',  ( 1.000000000000000000, 0.000000000000000000, 0.000000000000000000 ) ) ;
#386 = PLANE ( 'NONE',  #748 ) ;
#387 = VERTEX_POINT ( 'NONE', #49 ) ;
#388 = LINE ( 'NONE', #495, #460 ) ;
#389 = AXIS2_PLACEMENT_3D ( 'NONE', #1125, #820, #1357 ) ;
#390 = CARTESIAN_POINT ( 'NONE',  ( -1.350000000000000089, 1.465000000000000080, 2.499999999999999556 ) ) ;
#391 = DIRECTION ( 'NONE',  ( 1.000000000000000000, 0.000000000000000000, 0.000000000000000000 ) ) ;
#392 = ADVANCED_FACE ( 'NONE', ( #883 ), #72, .F. ) ;
#393 = ORIENTED_EDGE ( 'NONE', *, *, #1149, .F. ) ;
#394 = AXIS2_PLACEMENT_3D ( 'NONE', #390, #402, #168 ) ;
#395 = DIRECTION ( 'NONE',  ( 1.000000000000000000, 0.000000000000000000, 0.000000000000000000 ) ) ;
#396 = PLANE ( 'NONE',  #326 ) ;
#397 = LINE ( 'NONE', #410, #936 ) ;
#398 = ORIENTED_EDGE ( 'NONE', *, *, #515, .F. ) ;
#399 = EDGE_CURVE ( 'NONE', #293, #9, #995, .T. ) ;
#400 = CARTESIAN_POINT ( 'NONE',  ( -2.700000000000000178, -0.2999999999999999889, 1.539999999999999591 ) ) ;
#401 = ORIENTED_EDGE ( 'NONE', *, *, #989, .F. ) ;
#402 = DIRECTION ( 'NONE',  ( 0.000000000000000000, -0.000000000000000000, 1.000000000000000000 ) ) ;
#403 = CARTESIAN_POINT ( 'NONE',  ( -2.700000000000000178, -0.2999999999999999889, 1.039999999999999591 ) ) ;
#404 = LINE ( 'NONE', #1356, #549 ) ;
#405 = CARTESIAN_POINT ( 'NONE',  ( -1.350000000000000089, 1.465000000000000080, 2.499999999999999556 ) ) ;
#406 = EDGE_CURVE ( 'NONE', #478, #637, #274, .T. ) ;
#407 = ORIENTED_EDGE ( 'NONE', *, *, #603, .T. ) ;
#408 = ADVANCED_FACE ( 'NONE', ( #697 ), #1206, .F. ) ;
#409 = DIRECTION ( 'NONE',  ( 0.000000000000000000, -0.000000000000000000, 1.000000000000000000 ) ) ;
#410 = CARTESIAN_POINT ( 'NONE',  ( 0.000000000000000000, -0.1599999999999999756, 1.039999999999999591 ) ) ;
#411 = VERTEX_POINT ( 'NONE', #1090 ) ;
#412 = PLANE ( 'NONE',  #15 ) ;
#413 = AXIS2_PLACEMENT_3D ( 'NONE', #565, #131, #558 ) ;
#414 = DIRECTION ( 'NONE',  ( 0.000000000000000000, 0.000000000000000000, -1.000000000000000000 ) ) ;
#415 = AXIS2_PLACEMENT_3D ( 'NONE', #308, #1284, #337 ) ;
#416 = EDGE_LOOP ( 'NONE', ( #1168, #236, #537, #47 ) ) ;
#417 = EDGE_CURVE ( 'NONE', #646, #380, #166, .T. ) ;
#418 = LINE ( 'NONE', #761, #1023 ) ;
#419 = ORIENTED_EDGE ( 'NONE', *, *, #1132, .F. ) ;
#420 = CARTESIAN_POINT ( 'NONE',  ( -1.350000000000000089, 2.600000000000000089, 0.000000000000000000 ) ) ;
#421 = VERTEX_POINT ( 'NONE', #267 ) ;
#422 = CARTESIAN_POINT ( 'NONE',  ( -2.700000000000000178, -0.1599999999999999756, 1.339999999999999636 ) ) ;
#423 = EDGE_CURVE ( 'NONE', #1233, #1308, #388, .T. ) ;
#424 = VERTEX_POINT ( 'NONE', #1335 ) ;
#425 = ORIENTED_EDGE ( 'NONE', *, *, #406, .T. ) ;
#426 = CARTESIAN_POINT ( 'NONE',  ( -1.350000000000000089, 1.465000000000000080, 3.500000000000000000 ) ) ;
#427 = VECTOR ( 'NONE', #722, 39.37007874015748143 ) ;
#428 = LINE ( 'NONE', #966, #613 ) ;
#429 = ORIENTED_EDGE ( 'NONE', *, *, #1066, .T. ) ;
#430 = CARTESIAN_POINT ( 'NONE',  ( -1.750000000000000222, 1.050000000000000044, 1.999999999999999334 ) ) ;
#431 = EDGE_LOOP ( 'NONE', ( #1088, #226, #1047, #890 ) ) ;
#432 = ORIENTED_EDGE ( 'NONE', *, *, #282, .T. ) ;
#433 = DIRECTION ( 'NONE',  ( 0.000000000000000000, 0.000000000000000000, 1.000000000000000000 ) ) ;
#434 = EDGE_CURVE ( 'NONE', #719, #726, #814, .T. ) ;
#435 = DIRECTION ( 'NONE',  ( -0.000000000000000000, -0.000000000000000000, 1.000000000000000000 ) ) ;
#436 = ORIENTED_EDGE ( 'NONE', *, *, #338, .T. ) ;
#437 = AXIS2_PLACEMENT_3D ( 'NONE', #625, #70, #711 ) ;
#438 = CARTESIAN_POINT ( 'NONE',  ( -2.500000000000000000, 3.500000000000000000, 0.000000000000000000 ) ) ;
#439 = CARTESIAN_POINT ( 'NONE',  ( -0.9499999999999999556, 0.6750000000000000444, 1.699999999999999289 ) ) ;
#440 = LINE ( 'NONE', #19, #527 ) ;
#441 = ADVANCED_FACE ( 'NONE', ( #249 ), #1106, .F. ) ;
#442 = ORIENTED_EDGE ( 'NONE', *, *, #626, .F. ) ;
#443 = CARTESIAN_POINT ( 'NONE',  ( 0.000000000000000000, -0.2999999999999999889, 1.339999999999999636 ) ) ;
#444 = CARTESIAN_POINT ( 'NONE',  ( 0.000000000000000000, 3.799999999999999822, 0.000000000000000000 ) ) ;
#445 = PLANE ( 'NONE',  #946 ) ;
#446 = DIRECTION ( 'NONE',  ( 1.000000000000000000, -0.000000000000000000, 3.414809992080327544E-16 ) ) ;
#447 = AXIS2_PLACEMENT_3D ( 'NONE', #745, #100, #1154 ) ;
#448 = ORIENTED_EDGE ( 'NONE', *, *, #901, .T. ) ;
#449 = DIRECTION ( 'NONE',  ( 0.000000000000000000, 0.000000000000000000, -1.000000000000000000 ) ) ;
#450 = EDGE_CURVE ( 'NONE', #48, #882, #98, .T. ) ;
#451 = ORIENTED_EDGE ( 'NONE', *, *, #523, .T. ) ;
#452 = CARTESIAN_POINT ( 'NONE',  ( -2.700000000000000178, 3.799999999999999822, 3.500000000000000000 ) ) ;
#453 = CARTESIAN_POINT ( 'NONE',  ( -0.5499999999999998224, 2.100000000000000089, 2.419999999999999929 ) ) ;
#454 = VERTEX_POINT ( 'NONE', #501 ) ;
#455 = ORIENTED_EDGE ( 'NONE', *, *, #1234, .T. ) ;
#456 = DIRECTION ( 'NONE',  ( 0.000000000000000000, 0.000000000000000000, 1.000000000000000000 ) ) ;
#457 = LENGTH_MEASURE_WITH_UNIT ( LENGTH_MEASURE( 0.02539999999999999897 ), #839 );
#458 = VECTOR ( 'NONE', #30, 39.37007874015748143 ) ;
#459 = EDGE_CURVE ( 'NONE', #1346, #1135, #934, .T. ) ;
#460 = VECTOR ( 'NONE', #150, 39.37007874015748143 ) ;
#461 = LINE ( 'NONE', #1349, #16 ) ;
#462 = CARTESIAN_POINT ( 'NONE',  ( -0.2000000000000000389, 3.500000000000000000, 3.500000000000000000 ) ) ;
#463 = ORIENTED_EDGE ( 'NONE', *, *, #989, .T. ) ;
#464 = ORIENTED_EDGE ( 'NONE', *, *, #1149, .T. ) ;
#465 = CARTESIAN_POINT ( 'NONE',  ( 0.000000000000000000, 0.000000000000000000, 2.539999999999999591 ) ) ;
#466 = EDGE_CURVE ( 'NONE', #758, #471, #837, .T. ) ;
#467 = ORIENTED_EDGE ( 'NONE', *, *, #91, .T. ) ;
#468 = CARTESIAN_POINT ( 'NONE',  ( -2.700000000000000178, 0.000000000000000000, 1.339999999999999636 ) ) ;
#469 = FILL_AREA_STYLE ('',( #1318 ) ) ;
#470 = ORIENTED_EDGE ( 'NONE', *, *, #333, .F. ) ;
#471 = VERTEX_POINT ( 'NONE', #180 ) ;
#472 = VECTOR ( 'NONE', #991, 39.37007874015748143 ) ;
#473 = CARTESIAN_POINT ( 'NONE',  ( -2.500000000000000000, 0.2999999999999999889, 3.500000000000000000 ) ) ;
#474 = VECTOR ( 'NONE', #1, 39.37007874015748143 ) ;
#475 = ORIENTED_EDGE ( 'NONE', *, *, #97, .F. ) ;
#476 = CARTESIAN_POINT ( 'NONE',  ( 0.000000000000000000, 3.799999999999999822, 3.500000000000000000 ) ) ;
#477 = CARTESIAN_POINT ( 'NONE',  ( -0.9499999999999999556, 1.800000000000000266, 2.499999999999999556 ) ) ;
#478 = VERTEX_POINT ( 'NONE', #1248 ) ;
#479 = EDGE_CURVE ( 'NONE', #266, #1205, #522, .T. ) ;
#480 = ORIENTED_EDGE ( 'NONE', *, *, #3, .F. ) ;
#481 = DIRECTION ( 'NONE',  ( 0.000000000000000000, -0.000000000000000000, -1.000000000000000000 ) ) ;
#482 = VECTOR ( 'NONE', #292, 39.37007874015748143 ) ;
#483 = CARTESIAN_POINT ( 'NONE',  ( -1.750000000000000222, 1.050000000000000044, 1.999999999999999334 ) ) ;
#484 = CARTESIAN_POINT ( 'NONE',  ( -1.350000000000000089, 2.600000000000000089, 2.419999999999999485 ) ) ;
#485 = VECTOR ( 'NONE', #1002, 39.37007874015748143 ) ;
#486 = CARTESIAN_POINT ( 'NONE',  ( -2.700000000000000178, 0.000000000000000000, 3.039999999999999591 ) ) ;
#487 = EDGE_LOOP ( 'NONE', ( #596, #448, #25, #480 ) ) ;
#488 = ORIENTED_EDGE ( 'NONE', *, *, #713, .T. ) ;
#489 = CARTESIAN_POINT ( 'NONE',  ( -1.750000000000000222, 0.6750000000000000444, 1.699999999999999289 ) ) ;
#490 = ADVANCED_FACE ( 'NONE', ( #1243 ), #940, .F. ) ;
#491 = CARTESIAN_POINT ( 'NONE',  ( 0.000000000000000000, -0.1599999999999999756, 2.539999999999999591 ) ) ;
#492 = DIRECTION ( 'NONE',  ( -1.000000000000000000, -0.000000000000000000, -0.000000000000000000 ) ) ;
#493 = FACE_OUTER_BOUND ( 'NONE', #819, .T. ) ;
#494 = ORIENTED_EDGE ( 'NONE', *, *, #62, .T. ) ;
#495 = CARTESIAN_POINT ( 'NONE',  ( -2.500000000000000000, 0.2999999999999999889, 0.000000000000000000 ) ) ;
#496 = EDGE_CURVE ( 'NONE', #478, #34, #738, .T. ) ;
#497 = LINE ( 'NONE', #1344, #817 ) ;
#498 = CARTESIAN_POINT ( 'NONE',  ( -1.495000000000000107, 1.270000000000000018, 0.000000000000000000 ) ) ;
#499 = EDGE_LOOP ( 'NONE', ( #590, #1167, #1287, #686 ) ) ;
#500 = PRODUCT_DEFINITION_SHAPE ( 'NONE', 'NONE',  #18 ) ;
#501 = CARTESIAN_POINT ( 'NONE',  ( -0.9499999999999999556, 1.050000000000000044, 1.999999999999999334 ) ) ;
#502 = ORIENTED_EDGE ( 'NONE', *, *, #310, .T. ) ;
#503 = DIRECTION ( 'NONE',  ( -1.000000000000000000, -0.000000000000000000, -0.000000000000000000 ) ) ;
#504 = LINE ( 'NONE', #178, #518 ) ;
#505 = EDGE_CURVE ( 'NONE', #9, #1060, #831, .T. ) ;
#506 = VECTOR ( 'NONE', #1080, 39.37007874015748143 ) ;
#507 = CARTESIAN_POINT ( 'NONE',  ( -1.125000000000000222, 2.600000000000000089, 0.000000000000000000 ) ) ;
#508 = ORIENTED_EDGE ( 'NONE', *, *, #965, .F. ) ;
#509 = VECTOR ( 'NONE', #1239, 39.37007874015748143 ) ;
#510 = CARTESIAN_POINT ( 'NONE',  ( 0.000000000000000000, -0.2999999999999999889, 1.339999999999999636 ) ) ;
#511 = ORIENTED_EDGE ( 'NONE', *, *, #1091, .T. ) ;
#512 = DIRECTION ( 'NONE',  ( -0.000000000000000000, 1.000000000000000000, -0.000000000000000000 ) ) ;
#513 = CARTESIAN_POINT ( 'NONE',  ( -2.500000000000000000, 3.500000000000000000, 3.500000000000000000 ) ) ;
#514 = CARTESIAN_POINT ( 'NONE',  ( -2.700000000000000178, 0.000000000000000000, 0.000000000000000000 ) ) ;
#515 = EDGE_CURVE ( 'NONE', #1105, #652, #1180, .T. ) ;
#516 = DIRECTION ( 'NONE',  ( 0.000000000000000000, -0.000000000000000000, 1.000000000000000000 ) ) ;
#517 = LINE ( 'NONE', #974, #681 ) ;
#518 = VECTOR ( 'NONE', #730, 39.37007874015748143 ) ;
#519 = DIRECTION ( 'NONE',  ( -0.000000000000000000, -1.000000000000000000, -0.000000000000000000 ) ) ;
#520 = VECTOR ( 'NONE', #108, 39.37007874015748143 ) ;
#521 = CARTESIAN_POINT ( 'NONE',  ( 0.000000000000000000, 3.799999999999999822, 0.000000000000000000 ) ) ;
#522 = LINE ( 'NONE', #1048, #255 ) ;
#523 = EDGE_CURVE ( 'NONE', #608, #1334, #725, .T. ) ;
#524 = CARTESIAN_POINT ( 'NONE',  ( -2.150000000000000355, 2.100000000000000089, 2.419999999999999485 ) ) ;
#525 = VERTEX_POINT ( 'NONE', #300 ) ;
#526 = EDGE_CURVE ( 'NONE', #525, #968, #1151, .T. ) ;
#527 = VECTOR ( 'NONE', #435, 39.37007874015748143 ) ;
#528 = PLANE ( 'NONE',  #705 ) ;
#529 = VECTOR ( 'NONE', #201, 39.37007874015748143 ) ;
#530 = VECTOR ( 'NONE', #688, 39.37007874015748143 ) ;
#531 = CARTESIAN_POINT ( 'NONE',  ( -2.700000000000000178, -0.1599999999999999756, 2.539999999999999591 ) ) ;
#532 = ORIENTED_EDGE ( 'NONE', *, *, #277, .F. ) ;
#533 = DIRECTION ( 'NONE',  ( -0.000000000000000000, -0.000000000000000000, 1.000000000000000000 ) ) ;
#534 = LINE ( 'NONE', #1176, #506 ) ;
#535 = ORIENTED_EDGE ( 'NONE', *, *, #515, .T. ) ;
#536 = CARTESIAN_POINT ( 'NONE',  ( -2.500000000000000000, 0.2999999999999999889, 0.000000000000000000 ) ) ;
#537 = ORIENTED_EDGE ( 'NONE', *, *, #980, .T. ) ;
#538 = ADVANCED_FACE ( 'NONE', ( #617 ), #294, .F. ) ;
#539 = LINE ( 'NONE', #649, #835 ) ;
#540 = AXIS2_PLACEMENT_3D ( 'NONE', #531, #950, #1257 ) ;
#541 = DIRECTION ( 'NONE',  ( -0.000000000000000000, -0.000000000000000000, 1.000000000000000000 ) ) ;
#542 = ORIENTED_EDGE ( 'NONE', *, *, #832, .F. ) ;
#543 = DIRECTION ( 'NONE',  ( -0.000000000000000000, -0.000000000000000000, 1.000000000000000000 ) ) ;
#544 = ADVANCED_FACE ( 'NONE', ( #79 ), #720, .F. ) ;
#545 = ORIENTED_EDGE ( 'NONE', *, *, #133, .F. ) ;
#546 = CARTESIAN_POINT ( 'NONE',  ( 0.000000000000000000, 3.799999999999999822, 3.500000000000000000 ) ) ;
#547 = VECTOR ( 'NONE', #1067, 39.37007874015748143 ) ;
#548 = VERTEX_POINT ( 'NONE', #622 ) ;
#549 = VECTOR ( 'NONE', #830, 39.37007874015748143 ) ;
#550 = CARTESIAN_POINT ( 'NONE',  ( -2.500000000000000000, 0.2999999999999999889, 0.000000000000000000 ) ) ;
#551 = VECTOR ( 'NONE', #1324, 39.37007874015748143 ) ;
#552 = DIRECTION ( 'NONE',  ( 1.000000000000000000, 0.000000000000000000, -0.000000000000000000 ) ) ;
#553 = CARTESIAN_POINT ( 'NONE',  ( -1.750000000000000222, 0.6750000000000000444, 1.999999999999999334 ) ) ;
#554 = ADVANCED_FACE ( 'NONE', ( #92 ), #528, .F. ) ;
#555 = VERTEX_POINT ( 'NONE', #609 ) ;
#556 = PLANE ( 'NONE',  #106 ) ;
#557 = CARTESIAN_POINT ( 'NONE',  ( -2.150000000000000355, 3.500000000000000000, 2.419999999999999485 ) ) ;
#558 = DIRECTION ( 'NONE',  ( 0.000000000000000000, 0.000000000000000000, -1.000000000000000000 ) ) ;
#559 = DIRECTION ( 'NONE',  ( -1.000000000000000000, 0.000000000000000000, 0.000000000000000000 ) ) ;
#560 = AXIS2_PLACEMENT_3D ( 'NONE', #444, #334, #552 ) ;
#561 = ORIENTED_EDGE ( 'NONE', *, *, #1091, .F. ) ;
#562 = CARTESIAN_POINT ( 'NONE',  ( -2.700000000000000178, -0.2999999999999999889, 3.039999999999999591 ) ) ;
#563 = ADVANCED_FACE ( 'NONE', ( #948 ), #1363, .F. ) ;
#564 = ORIENTED_EDGE ( 'NONE', *, *, #832, .T. ) ;
#565 = CARTESIAN_POINT ( 'NONE',  ( -2.700000000000000178, 3.799999999999999822, 0.000000000000000000 ) ) ;
#566 = LINE ( 'NONE', #349, #1138 ) ;
#567 = ORIENTED_EDGE ( 'NONE', *, *, #496, .F. ) ;
#568 = ORIENTED_EDGE ( 'NONE', *, *, #62, .F. ) ;
#569 = CARTESIAN_POINT ( 'NONE',  ( 0.000000000000000000, -0.2999999999999999889, 1.539999999999999591 ) ) ;
#570 = CIRCLE ( 'NONE', #394, 0.2430020576044572556 ) ;
#571 = EDGE_CURVE ( 'NONE', #313, #374, #86, .T. ) ;
#572 = ORIENTED_EDGE ( 'NONE', *, *, #620, .T. ) ;
#573 = PLANE ( 'NONE',  #413 ) ;
#574 = CARTESIAN_POINT ( 'NONE',  ( 0.000000000000000000, -0.2999999999999999889, 3.039999999999999591 ) ) ;
#575 = VERTEX_POINT ( 'NONE', #553 ) ;
#576 = ORIENTED_EDGE ( 'NONE', *, *, #635, .F. ) ;
#577 = DIRECTION ( 'NONE',  ( -0.000000000000000000, 0.000000000000000000, 1.000000000000000000 ) ) ;
#578 = PRODUCT_CONTEXT ( 'NONE', #24, 'mechanical' ) ;
#579 = DIRECTION ( 'NONE',  ( 0.000000000000000000, 0.000000000000000000, -1.000000000000000000 ) ) ;
#580 = DIRECTION ( 'NONE',  ( -0.000000000000000000, -1.000000000000000000, -0.000000000000000000 ) ) ;
#581 = EDGE_CURVE ( 'NONE', #34, #130, #335, .T. ) ;
#582 =( CONVERSION_BASED_UNIT ( 'INCH', #666 ) LENGTH_UNIT ( ) NAMED_UNIT ( #1153 ) );
#583 = ORIENTED_EDGE ( 'NONE', *, *, #20, .T. ) ;
#584 = ORIENTED_EDGE ( 'NONE', *, *, #423, .F. ) ;
#585 = DIRECTION ( 'NONE',  ( 1.000000000000000000, 0.000000000000000000, 0.000000000000000000 ) ) ;
#586 = LINE ( 'NONE', #1085, #967 ) ;
#587 = CARTESIAN_POINT ( 'NONE',  ( -1.750000000000000222, 0.2999999999999999889, 1.699999999999999289 ) ) ;
#588 = EDGE_CURVE ( 'NONE', #968, #643, #224, .T. ) ;
#589 = ORIENTED_EDGE ( 'NONE', *, *, #641, .F. ) ;
#590 = ORIENTED_EDGE ( 'NONE', *, *, #505, .T. ) ;
#591 = DIRECTION ( 'NONE',  ( 1.000000000000000000, 0.000000000000000000, 0.000000000000000000 ) ) ;
#592 = AXIS2_PLACEMENT_3D ( 'NONE', #363, #872, #797 ) ;
#593 = DIRECTION ( 'NONE',  ( 1.000000000000000000, 0.000000000000000000, 0.000000000000000000 ) ) ;
#594 = CARTESIAN_POINT ( 'NONE',  ( -2.500000000000000000, 0.2999999999999999889, 3.500000000000000000 ) ) ;
#595 = DIRECTION ( 'NONE',  ( 0.000000000000000000, -0.000000000000000000, -1.000000000000000000 ) ) ;
#596 = ORIENTED_EDGE ( 'NONE', *, *, #1179, .T. ) ;
#597 = DIRECTION ( 'NONE',  ( -0.000000000000000000, -0.000000000000000000, 1.000000000000000000 ) ) ;
#598 = EDGE_CURVE ( 'NONE', #1096, #1311, #219, .T. ) ;
#599 = FACE_BOUND ( 'NONE', #739, .T. ) ;
#600 = CARTESIAN_POINT ( 'NONE',  ( -0.9499999999999999556, 1.800000000000000266, 2.499999999999999556 ) ) ;
#601 = ORIENTED_EDGE ( 'NONE', *, *, #1216, .F. ) ;
#602 = DIRECTION ( 'NONE',  ( -0.000000000000000000, 1.000000000000000000, -0.000000000000000000 ) ) ;
#603 = EDGE_CURVE ( 'NONE', #1208, #637, #860, .T. ) ;
#604 = VERTEX_POINT ( 'NONE', #762 ) ;
#605 = VECTOR ( 'NONE', #1051, 39.37007874015748143 ) ;
#606 = DIRECTION ( 'NONE',  ( 0.000000000000000000, -0.000000000000000000, 1.000000000000000000 ) ) ;
#607 = PLANE ( 'NONE',  #1064 ) ;
#608 = VERTEX_POINT ( 'NONE', #546 ) ;
#609 = CARTESIAN_POINT ( 'NONE',  ( -0.2000000000000000389, 3.500000000000000000, 0.000000000000000000 ) ) ;
#610 = ORIENTED_EDGE ( 'NONE', *, *, #1255, .F. ) ;
#611 = LINE ( 'NONE', #1003, #731 ) ;
#612 = LINE ( 'NONE', #1039, #955 ) ;
#613 = VECTOR ( 'NONE', #1068, 39.37007874015748143 ) ;
#614 = LINE ( 'NONE', #514, #37 ) ;
#615 = ORIENTED_EDGE ( 'NONE', *, *, #941, .F. ) ;
#616 = AXIS2_PLACEMENT_3D ( 'NONE', #663, #370, #671 ) ;
#617 = FACE_OUTER_BOUND ( 'NONE', #1158, .T. ) ;
#618 = DIRECTION ( 'NONE',  ( -0.000000000000000000, 1.000000000000000000, 0.000000000000000000 ) ) ;
#619 = LINE ( 'NONE', #297, #427 ) ;
#620 = EDGE_CURVE ( 'NONE', #112, #141, #743, .T. ) ;
#621 = FACE_OUTER_BOUND ( 'NONE', #416, .T. ) ;
#622 = CARTESIAN_POINT ( 'NONE',  ( -2.700000000000000178, 3.799999999999999822, 0.000000000000000000 ) ) ;
#623 = CARTESIAN_POINT ( 'NONE',  ( -0.5499999999999998224, 2.100000000000000089, 2.919999999999999929 ) ) ;
#624 = CARTESIAN_POINT ( 'NONE',  ( 0.000000000000000000, 0.000000000000000000, 0.000000000000000000 ) ) ;
#625 = CARTESIAN_POINT ( 'NONE',  ( 0.000000000000000000, 3.799999999999999822, 0.000000000000000000 ) ) ;
#626 = EDGE_CURVE ( 'NONE', #1076, #870, #1075, .T. ) ;
#627 = DIRECTION ( 'NONE',  ( 0.000000000000000000, -1.000000000000000000, 0.000000000000000000 ) ) ;
#628 = ORIENTED_EDGE ( 'NONE', *, *, #1223, .F. ) ;
#629 = FACE_OUTER_BOUND ( 'NONE', #431, .T. ) ;
#630 = CARTESIAN_POINT ( 'NONE',  ( 0.000000000000000000, 0.000000000000000000, 0.000000000000000000 ) ) ;
#631 = CARTESIAN_POINT ( 'NONE',  ( -0.2000000000000000389, 0.2999999999999999889, 0.000000000000000000 ) ) ;
#632 = AXIS2_PLACEMENT_3D ( 'NONE', #438, #661, #858 ) ;
#633 = VECTOR ( 'NONE', #987, 39.37007874015748143 ) ;
#634 = ORIENTED_EDGE ( 'NONE', *, *, #1165, .T. ) ;
#635 = EDGE_CURVE ( 'NONE', #256, #1105, #977, .T. ) ;
#636 = PLANE ( 'NONE',  #560 ) ;
#637 = VERTEX_POINT ( 'NONE', #211 ) ;
#638 = DIRECTION ( 'NONE',  ( -1.000000000000000000, -0.000000000000000000, -0.000000000000000000 ) ) ;
#639 = CARTESIAN_POINT ( 'NONE',  ( -2.500000000000000000, 3.500000000000000000, 3.500000000000000000 ) ) ;
#640 = VERTEX_POINT ( 'NONE', #1055 ) ;
#641 = EDGE_CURVE ( 'NONE', #646, #424, #286, .T. ) ;
#642 = DIRECTION ( 'NONE',  ( 1.000000000000000000, 0.000000000000000000, 0.000000000000000000 ) ) ;
#643 = VERTEX_POINT ( 'NONE', #111 ) ;
#644 = CARTESIAN_POINT ( 'NONE',  ( -2.150000000000000355, 2.100000000000000089, 2.919999999999999929 ) ) ;
#645 = CARTESIAN_POINT ( 'NONE',  ( -1.106997942395542722, 1.465000000000000080, 2.499999999999999556 ) ) ;
#646 = VERTEX_POINT ( 'NONE', #850 ) ;
#647 = FACE_OUTER_BOUND ( 'NONE', #778, .T. ) ;
#648 = DIRECTION ( 'NONE',  ( 0.000000000000000000, 0.000000000000000000, 1.000000000000000000 ) ) ;
#649 = CARTESIAN_POINT ( 'NONE',  ( -1.750000000000000222, 0.6750000000000000444, 1.699999999999999289 ) ) ;
#650 = EDGE_CURVE ( 'NONE', #548, #1037, #953, .T. ) ;
#651 = DIRECTION ( 'NONE',  ( -0.000000000000000000, -0.000000000000000000, 1.000000000000000000 ) ) ;
#652 = VERTEX_POINT ( 'NONE', #645 ) ;
#653 = AXIS2_PLACEMENT_3D ( 'NONE', #623, #129, #1188 ) ;
#654 = CARTESIAN_POINT ( 'NONE',  ( -2.700000000000000178, -0.1599999999999999756, 1.039999999999999591 ) ) ;
#655 = VECTOR ( 'NONE', #66, 39.37007874015748143 ) ;
#656 = ORIENTED_EDGE ( 'NONE', *, *, #880, .T. ) ;
#657 = CARTESIAN_POINT ( 'NONE',  ( 0.000000000000000000, 0.000000000000000000, 3.500000000000000000 ) ) ;
#658 = EDGE_CURVE ( 'NONE', #1311, #691, #866, .T. ) ;
#659 = CARTESIAN_POINT ( 'NONE',  ( 0.000000000000000000, -0.1599999999999999756, 1.039999999999999591 ) ) ;
#660 = ORIENTED_EDGE ( 'NONE', *, *, #323, .F. ) ;
#661 = DIRECTION ( 'NONE',  ( -0.000000000000000000, 1.000000000000000000, 0.000000000000000000 ) ) ;
#662 = ORIENTED_EDGE ( 'NONE', *, *, #1042, .T. ) ;
#663 = CARTESIAN_POINT ( 'NONE',  ( -2.150000000000000355, 2.100000000000000089, 2.919999999999999929 ) ) ;
#664 = FACE_BOUND ( 'NONE', #329, .T. ) ;
#665 = VECTOR ( 'NONE', #931, 39.37007874015748143 ) ;
#666 = LENGTH_MEASURE_WITH_UNIT ( LENGTH_MEASURE( 0.02539999999999999897 ), #1202 );
#667 = ORIENTED_EDGE ( 'NONE', *, *, #126, .F. ) ;
#668 = ORIENTED_EDGE ( 'NONE', *, *, #505, .F. ) ;
#669 = DIRECTION ( 'NONE',  ( -0.000000000000000000, 0.000000000000000000, 1.000000000000000000 ) ) ;
#670 = EDGE_LOOP ( 'NONE', ( #393, #912, #951, #179 ) ) ;
#671 = DIRECTION ( 'NONE',  ( -5.463695987328519534E-16, 0.000000000000000000, -1.000000000000000000 ) ) ;
#672 = LINE ( 'NONE', #452, #95 ) ;
#673 = VECTOR ( 'NONE', #825, 39.37007874015748143 ) ;
#674 = LINE ( 'NONE', #147, #87 ) ;
#675 = ORIENTED_EDGE ( 'NONE', *, *, #1132, .T. ) ;
#676 = EDGE_LOOP ( 'NONE', ( #783, #103, #978, #957 ) ) ;
#677 = FACE_OUTER_BOUND ( 'NONE', #1220, .T. ) ;
#678 = VECTOR ( 'NONE', #651, 39.37007874015748143 ) ;
#679 = COLOUR_RGB ( '',0.7921568627450980005, 0.8196078431372548767, 0.9333333333333333481 ) ;
#680 = EDGE_CURVE ( 'NONE', #637, #1057, #534, .T. ) ;
#681 = VECTOR ( 'NONE', #456, 39.37007874015748143 ) ;
#682 = AXIS2_PLACEMENT_3D ( 'NONE', #1018, #382, #585 ) ;
#683 = VERTEX_POINT ( 'NONE', #12 ) ;
#684 = DIRECTION ( 'NONE',  ( 1.000000000000000000, -0.000000000000000000, -0.000000000000000000 ) ) ;
#685 = LINE ( 'NONE', #999, #1342 ) ;
#686 = ORIENTED_EDGE ( 'NONE', *, *, #399, .T. ) ;
#687 = ORIENTED_EDGE ( 'NONE', *, *, #1109, .F. ) ;
#688 = DIRECTION ( 'NONE',  ( 0.000000000000000000, 0.000000000000000000, 1.000000000000000000 ) ) ;
#689 = EDGE_CURVE ( 'NONE', #1308, #1208, #428, .T. ) ;
#690 = EDGE_CURVE ( 'NONE', #293, #640, #26, .T. ) ;
#691 = VERTEX_POINT ( 'NONE', #1288 ) ;
#692 = CARTESIAN_POINT ( 'NONE',  ( 0.000000000000000000, -0.1599999999999999756, 2.839999999999999858 ) ) ;
#693 = DIRECTION ( 'NONE',  ( 1.000000000000000000, 0.000000000000000000, 0.000000000000000000 ) ) ;
#694 = ORIENTED_EDGE ( 'NONE', *, *, #620, .F. ) ;
#695 = VECTOR ( 'NONE', #684, 39.37007874015748143 ) ;
#696 = ORIENTED_EDGE ( 'NONE', *, *, #942, .T. ) ;
#697 = FACE_OUTER_BOUND ( 'NONE', #1016, .T. ) ;
#698 = CARTESIAN_POINT ( 'NONE',  ( 0.000000000000000000, -0.2999999999999999889, 0.000000000000000000 ) ) ;
#699 = DIRECTION ( 'NONE',  ( -0.000000000000000000, -0.000000000000000000, 1.000000000000000000 ) ) ;
#700 = EDGE_CURVE ( 'NONE', #1105, #285, #440, .T. ) ;
#701 = DIMENSIONAL_EXPONENTS ( 1.000000000000000000, 0.000000000000000000, 0.000000000000000000, 0.000000000000000000, 0.000000000000000000, 0.000000000000000000, 0.000000000000000000 ) ;
#702 = VERTEX_POINT ( 'NONE', #340 ) ;
#703 = ORIENTED_EDGE ( 'NONE', *, *, #1007, .T. ) ;
#704 = CARTESIAN_POINT ( 'NONE',  ( -1.574999999999999956, 2.600000000000000089, 0.000000000000000000 ) ) ;
#705 = AXIS2_PLACEMENT_3D ( 'NONE', #188, #1043, #102 ) ;
#706 = MECHANICAL_DESIGN_GEOMETRIC_PRESENTATION_REPRESENTATION (  '', ( #964 ), #985 ) ;
#707 = CARTESIAN_POINT ( 'NONE',  ( -2.150000000000000355, 3.500000000000000000, 3.500000000000000000 ) ) ;
#708 = VECTOR ( 'NONE', #122, 39.37007874015748143 ) ;
#709 = LINE ( 'NONE', #403, #75 ) ;
#710 = VECTOR ( 'NONE', #176, 39.37007874015748143 ) ;
#711 = DIRECTION ( 'NONE',  ( 0.000000000000000000, -0.000000000000000000, -1.000000000000000000 ) ) ;
#712 = ORIENTED_EDGE ( 'NONE', *, *, #310, .F. ) ;
#713 = EDGE_CURVE ( 'NONE', #454, #421, #132, .T. ) ;
#714 = CARTESIAN_POINT ( 'NONE',  ( -1.350000000000000089, 1.465000000000000080, 0.000000000000000000 ) ) ;
#715 = ORIENTED_EDGE ( 'NONE', *, *, #113, .T. ) ;
#716 = LINE ( 'NONE', #1231, #1184 ) ;
#717 = CARTESIAN_POINT ( 'NONE',  ( -1.350000000000000089, 2.600000000000000089, 0.000000000000000000 ) ) ;
#718 = LINE ( 'NONE', #507, #855 ) ;
#719 = VERTEX_POINT ( 'NONE', #639 ) ;
#720 = PLANE ( 'NONE',  #260 ) ;
#721 = PLANE ( 'NONE',  #1120 ) ;
#722 = DIRECTION ( 'NONE',  ( -0.000000000000000000, -0.000000000000000000, 1.000000000000000000 ) ) ;
#723 = CARTESIAN_POINT ( 'NONE',  ( -2.700000000000000178, -0.1599999999999999756, 2.539999999999999591 ) ) ;
#724 = ORIENTED_EDGE ( 'NONE', *, *, #466, .T. ) ;
#725 = LINE ( 'NONE', #200, #1050 ) ;
#726 = VERTEX_POINT ( 'NONE', #1185 ) ;
#727 = EDGE_CURVE ( 'NONE', #652, #228, #960, .T. ) ;
#728 = VECTOR ( 'NONE', #194, 39.37007874015748143 ) ;
#729 = CARTESIAN_POINT ( 'NONE',  ( -2.700000000000000178, 0.000000000000000000, 1.339999999999999636 ) ) ;
#730 = DIRECTION ( 'NONE',  ( -0.000000000000000000, 1.000000000000000000, -0.000000000000000000 ) ) ;
#731 = VECTOR ( 'NONE', #1013, 39.37007874015748143 ) ;
#732 = VECTOR ( 'NONE', #1026, 39.37007874015748143 ) ;
#733 = CARTESIAN_POINT ( 'NONE',  ( 0.000000000000000000, -0.2999999999999999889, 3.039999999999999591 ) ) ;
#734 = PLANE ( 'NONE',  #1359 ) ;
#735 = LINE ( 'NONE', #1262, #1199 ) ;
#736 = EDGE_CURVE ( 'NONE', #1096, #387, #238, .T. ) ;
#737 = CARTESIAN_POINT ( 'NONE',  ( -2.700000000000000178, -0.2999999999999999889, 1.339999999999999636 ) ) ;
#738 = LINE ( 'NONE', #1260, #943 ) ;
#739 = EDGE_LOOP ( 'NONE', ( #905, #1213 ) ) ;
#740 = VECTOR ( 'NONE', #642, 39.37007874015748143 ) ;
#741 = PLANE ( 'NONE',  #447 ) ;
#742 = EDGE_CURVE ( 'NONE', #555, #1233, #776, .T. ) ;
#743 = LINE ( 'NONE', #659, #85 ) ;
#744 = ORIENTED_EDGE ( 'NONE', *, *, #784, .T. ) ;
#745 = CARTESIAN_POINT ( 'NONE',  ( -2.700000000000000178, -0.2999999999999999889, 3.039999999999999591 ) ) ;
#746 = ORIENTED_EDGE ( 'NONE', *, *, #450, .T. ) ;
#747 = VECTOR ( 'NONE', #330, 39.37007874015748143 ) ;
#748 = AXIS2_PLACEMENT_3D ( 'NONE', #1123, #841, #1162 ) ;
#749 = CARTESIAN_POINT ( 'NONE',  ( -0.5499999999999998224, 2.100000000000000089, 2.419999999999999929 ) ) ;
#750 = ADVANCED_FACE ( 'NONE', ( #1219, #1103 ), #156, .F. ) ;
#751 = AXIS2_PLACEMENT_3D ( 'NONE', #1112, #809, #591 ) ;
#752 = ORIENTED_EDGE ( 'NONE', *, *, #690, .T. ) ;
#753 = CARTESIAN_POINT ( 'NONE',  ( -2.500000000000000000, 0.2999999999999999889, 0.000000000000000000 ) ) ;
#754 = ORIENTED_EDGE ( 'NONE', *, *, #126, .T. ) ;
#755 = VERTEX_POINT ( 'NONE', #171 ) ;
#756 = LINE ( 'NONE', #1061, #1358 ) ;
#757 = DIRECTION ( 'NONE',  ( 1.000000000000000000, 0.000000000000000000, 0.000000000000000000 ) ) ;
#758 = VERTEX_POINT ( 'NONE', #574 ) ;
#759 = FACE_OUTER_BOUND ( 'NONE', #1000, .T. ) ;
#760 = EDGE_CURVE ( 'NONE', #130, #421, #566, .T. ) ;
#761 = CARTESIAN_POINT ( 'NONE',  ( -2.700000000000000178, -0.2999999999999999889, 2.539999999999999591 ) ) ;
#762 = CARTESIAN_POINT ( 'NONE',  ( -2.700000000000000178, -0.1599999999999999756, 1.039999999999999591 ) ) ;
#763 = VERTEX_POINT ( 'NONE', #486 ) ;
#764 = DIRECTION ( 'NONE',  ( 0.000000000000000000, 0.000000000000000000, 1.000000000000000000 ) ) ;
#765 = APPLICATION_PROTOCOL_DEFINITION ( 'draft international standard', 'automotive_design', 1998, #897 ) ;
#766 = ADVANCED_FACE ( 'NONE', ( #1310 ), #364, .F. ) ;
#767 = ORIENTED_EDGE ( 'NONE', *, *, #97, .T. ) ;
#768 = CARTESIAN_POINT ( 'NONE',  ( -0.9499999999999999556, 1.050000000000000044, 1.999999999999999334 ) ) ;
#769 = VECTOR ( 'NONE', #347, 39.37007874015748143 ) ;
#770 = ORIENTED_EDGE ( 'NONE', *, *, #67, .F. ) ;
#771 = VECTOR ( 'NONE', #342, 39.37007874015748143 ) ;
#772 = FACE_OUTER_BOUND ( 'NONE', #954, .T. ) ;
#773 = LINE ( 'NONE', #975, #458 ) ;
#774 = MANIFOLD_SOLID_BREP ( 'Boss-Extrude11', #372 ) ;
#775 = DIRECTION ( 'NONE',  ( -1.000000000000000000, 0.000000000000000000, 0.000000000000000000 ) ) ;
#776 = LINE ( 'NONE', #1087, #922 ) ;
#777 = ORIENTED_EDGE ( 'NONE', *, *, #650, .T. ) ;
#778 = EDGE_LOOP ( 'NONE', ( #341, #1302, #568, #927, #425, #861, #21, #455 ) ) ;
#779 = CARTESIAN_POINT ( 'NONE',  ( 0.000000000000000000, 3.799999999999999822, 3.500000000000000000 ) ) ;
#780 = CARTESIAN_POINT ( 'NONE',  ( 0.000000000000000000, 0.000000000000000000, 0.000000000000000000 ) ) ;
#781 = ORIENTED_EDGE ( 'NONE', *, *, #926, .F. ) ;
#782 = CARTESIAN_POINT ( 'NONE',  ( -1.205000000000000071, 1.660000000000000142, 2.499999999999999556 ) ) ;
#783 = ORIENTED_EDGE ( 'NONE', *, *, #1291, .T. ) ;
#784 = EDGE_CURVE ( 'NONE', #130, #796, #1210, .T. ) ;
#785 = EDGE_LOOP ( 'NONE', ( #929, #187, #1200, #1028 ) ) ;
#786 = LINE ( 'NONE', #801, #1012 ) ;
#787 = VERTEX_POINT ( 'NONE', #992 ) ;
#788 = CARTESIAN_POINT ( 'NONE',  ( -2.700000000000000178, 0.000000000000000000, 1.539999999999999591 ) ) ;
#789 = EDGE_CURVE ( 'NONE', #604, #800, #1095, .T. ) ;
#790 = SURFACE_SIDE_STYLE ('',( #887 ) ) ;
#791 = ORIENTED_EDGE ( 'NONE', *, *, #203, .T. ) ;
#792 = CARTESIAN_POINT ( 'NONE',  ( 0.000000000000000000, -0.2999999999999999889, 2.839999999999999858 ) ) ;
#793 = EDGE_CURVE ( 'NONE', #800, #121, #674, .T. ) ;
#794 = VECTOR ( 'NONE', #1282, 39.37007874015748143 ) ;
#795 = CIRCLE ( 'NONE', #39, 0.2430020576044572556 ) ;
#796 = VERTEX_POINT ( 'NONE', #61 ) ;
#797 = DIRECTION ( 'NONE',  ( 0.000000000000000000, -0.000000000000000000, -1.000000000000000000 ) ) ;
#798 = CARTESIAN_POINT ( 'NONE',  ( -2.700000000000000178, -0.1599999999999999756, 1.039999999999999591 ) ) ;
#799 = ORIENTED_EDGE ( 'NONE', *, *, #680, .T. ) ;
#800 = VERTEX_POINT ( 'NONE', #904 ) ;
#801 = CARTESIAN_POINT ( 'NONE',  ( -2.500000000000000000, 3.500000000000000000, 0.000000000000000000 ) ) ;
#802 = EDGE_CURVE ( 'NONE', #1258, #968, #685, .T. ) ;
#803 = LINE ( 'NONE', #491, #306 ) ;
#804 = FACE_OUTER_BOUND ( 'NONE', #1244, .T. ) ;
#805 = DIRECTION ( 'NONE',  ( 1.000000000000000000, 0.000000000000000000, -0.000000000000000000 ) ) ;
#806 = ORIENTED_EDGE ( 'NONE', *, *, #626, .T. ) ;
#807 = VECTOR ( 'NONE', #775, 39.37007874015748143 ) ;
#808 = EDGE_LOOP ( 'NONE', ( #1261, #634, #241, #961 ) ) ;
#809 = DIRECTION ( 'NONE',  ( 0.000000000000000000, 0.000000000000000000, 1.000000000000000000 ) ) ;
#810 = CARTESIAN_POINT ( 'NONE',  ( 0.000000000000000000, -0.2999999999999999889, 1.539999999999999591 ) ) ;
#811 = CARTESIAN_POINT ( 'NONE',  ( -1.750000000000000222, 1.050000000000000044, 2.499999999999999556 ) ) ;
#812 = ADVANCED_FACE ( 'NONE', ( #163 ), #1005, .T. ) ;
#813 = ORIENTED_EDGE ( 'NONE', *, *, #459, .F. ) ;
#814 = LINE ( 'NONE', #891, #988 ) ;
#815 = CIRCLE ( 'NONE', #1097, 0.2430020576044572556 ) ;
#816 = CARTESIAN_POINT ( 'NONE',  ( -1.350000000000000089, 1.465000000000000080, 3.500000000000000000 ) ) ;
#817 = VECTOR ( 'NONE', #503, 39.37007874015748143 ) ;
#818 = CARTESIAN_POINT ( 'NONE',  ( -1.495000000000000107, 1.660000000000000142, 0.000000000000000000 ) ) ;
#819 = EDGE_LOOP ( 'NONE', ( #193, #1276, #331, #744, #993, #878, #63, #752 ) ) ;
#820 = DIRECTION ( 'NONE',  ( 0.000000000000000000, 1.000000000000000000, 0.000000000000000000 ) ) ;
#821 = ORIENTED_EDGE ( 'NONE', *, *, #1339, .F. ) ;
#822 = DIRECTION ( 'NONE',  ( -0.000000000000000000, 0.000000000000000000, 1.000000000000000000 ) ) ;
#823 = DIRECTION ( 'NONE',  ( -0.000000000000000000, -0.000000000000000000, 1.000000000000000000 ) ) ;
#824 = ORIENTED_EDGE ( 'NONE', *, *, #727, .F. ) ;
#825 = DIRECTION ( 'NONE',  ( -0.000000000000000000, 1.000000000000000000, -0.000000000000000000 ) ) ;
#826 = EDGE_CURVE ( 'NONE', #640, #1060, #1015, .T. ) ;
#827 = VERTEX_POINT ( 'NONE', #723 ) ;
#828 = DIRECTION ( 'NONE',  ( -3.414809992080327544E-16, 0.000000000000000000, 1.000000000000000000 ) ) ;
#829 = CARTESIAN_POINT ( 'NONE',  ( -1.750000000000000222, 1.050000000000000044, 2.499999999999999556 ) ) ;
#830 = DIRECTION ( 'NONE',  ( -0.000000000000000000, -0.000000000000000000, 1.000000000000000000 ) ) ;
#831 = LINE ( 'NONE', #1352, #369 ) ;
#832 = EDGE_CURVE ( 'NONE', #424, #1137, #718, .T. ) ;
#833 = DIRECTION ( 'NONE',  ( 0.000000000000000000, -1.000000000000000000, 0.000000000000000000 ) ) ;
#834 = DIRECTION ( 'NONE',  ( 1.000000000000000000, 0.000000000000000000, 0.000000000000000000 ) ) ;
#835 = VECTOR ( 'NONE', #533, 39.37007874015748143 ) ;
#836 = LINE ( 'NONE', #1259, #875 ) ;
#837 = LINE ( 'NONE', #733, #673 ) ;
#838 = ORIENTED_EDGE ( 'NONE', *, *, #840, .F. ) ;
#839 =( LENGTH_UNIT ( ) NAMED_UNIT ( * ) SI_UNIT ( $, .METRE. ) );
#840 = EDGE_CURVE ( 'NONE', #882, #1348, #614, .T. ) ;
#841 = DIRECTION ( 'NONE',  ( 0.000000000000000000, 1.000000000000000000, 0.000000000000000000 ) ) ;
#842 = CARTESIAN_POINT ( 'NONE',  ( -1.495000000000000107, 1.660000000000000142, 3.500000000000000000 ) ) ;
#843 = ORIENTED_EDGE ( 'NONE', *, *, #29, .T. ) ;
#844 = VECTOR ( 'NONE', #543, 39.37007874015748143 ) ;
#845 = FACE_OUTER_BOUND ( 'NONE', #288, .T. ) ;
#846 = ORIENTED_EDGE ( 'NONE', *, *, #1268, .F. ) ;
#847 = EDGE_CURVE ( 'NONE', #1334, #1326, #932, .T. ) ;
#848 = VERTEX_POINT ( 'NONE', #1351 ) ;
#849 = DIRECTION ( 'NONE',  ( 0.000000000000000000, 0.000000000000000000, 1.000000000000000000 ) ) ;
#850 = CARTESIAN_POINT ( 'NONE',  ( -1.574999999999999956, 2.600000000000000089, 2.419999999999999485 ) ) ;
#851 = ORIENTED_EDGE ( 'NONE', *, *, #700, .F. ) ;
#852 = ORIENTED_EDGE ( 'NONE', *, *, #466, .F. ) ;
#853 = EDGE_LOOP ( 'NONE', ( #272, #935, #584, #1164 ) ) ;
#854 = VECTOR ( 'NONE', #1263, 39.37007874015748143 ) ;
#855 = VECTOR ( 'NONE', #186, 39.37007874015748143 ) ;
#856 = CARTESIAN_POINT ( 'NONE',  ( -0.9499999999999999556, 1.660000000000000142, 2.499999999999999556 ) ) ;
#857 = ORIENTED_EDGE ( 'NONE', *, *, #1278, .F. ) ;
#858 = DIRECTION ( 'NONE',  ( 0.000000000000000000, -0.000000000000000000, 1.000000000000000000 ) ) ;
#859 = DIRECTION ( 'NONE',  ( -0.000000000000000000, -0.000000000000000000, -1.000000000000000000 ) ) ;
#860 = LINE ( 'NONE', #631, #678 ) ;
#861 = ORIENTED_EDGE ( 'NONE', *, *, #603, .F. ) ;
#862 = FACE_OUTER_BOUND ( 'NONE', #175, .T. ) ;
#863 = EDGE_CURVE ( 'NONE', #1060, #787, #404, .T. ) ;
#864 = AXIS2_PLACEMENT_3D ( 'NONE', #139, #1108, #879 ) ;
#865 = CARTESIAN_POINT ( 'NONE',  ( -2.700000000000000178, -0.1599999999999999756, 1.039999999999999591 ) ) ;
#866 = LINE ( 'NONE', #842, #900 ) ;
#867 = VERTEX_POINT ( 'NONE', #1145 ) ;
#868 = DIRECTION ( 'NONE',  ( 1.000000000000000000, -0.000000000000000000, 0.000000000000000000 ) ) ;
#869 = ADVANCED_FACE ( 'NONE', ( #621 ), #412, .F. ) ;
#870 = VERTEX_POINT ( 'NONE', #96 ) ;
#871 = DIRECTION ( 'NONE',  ( 0.000000000000000000, -0.000000000000000000, 1.000000000000000000 ) ) ;
#872 = DIRECTION ( 'NONE',  ( 0.000000000000000000, -1.000000000000000000, 0.000000000000000000 ) ) ;
#873 =( NAMED_UNIT ( * ) PLANE_ANGLE_UNIT ( ) SI_UNIT ( $, .RADIAN. ) );
#874 = ORIENTED_EDGE ( 'NONE', *, *, #635, .T. ) ;
#875 = VECTOR ( 'NONE', #311, 39.37007874015748143 ) ;
#876 = VERTEX_POINT ( 'NONE', #939 ) ;
#877 = DIRECTION ( 'NONE',  ( 0.000000000000000000, -0.000000000000000000, -1.000000000000000000 ) ) ;
#878 = ORIENTED_EDGE ( 'NONE', *, *, #83, .F. ) ;
#879 = DIRECTION ( 'NONE',  ( -1.000000000000000000, 0.000000000000000000, -0.000000000000000000 ) ) ;
#880 = EDGE_CURVE ( 'NONE', #1208, #555, #836, .T. ) ;
#881 = ORIENTED_EDGE ( 'NONE', *, *, #526, .F. ) ;
#882 = VERTEX_POINT ( 'NONE', #287 ) ;
#883 = FACE_OUTER_BOUND ( 'NONE', #273, .T. ) ;
#884 = ORIENTED_EDGE ( 'NONE', *, *, #1223, .T. ) ;
#885 = DIRECTION ( 'NONE',  ( 0.000000000000000000, -1.000000000000000000, 0.000000000000000000 ) ) ;
#886 = ADVANCED_FACE ( 'NONE', ( #1150 ), #204, .F. ) ;
#887 = SURFACE_STYLE_FILL_AREA ( #469 ) ;
#888 = VECTOR ( 'NONE', #391, 39.37007874015748143 ) ;
#889 = ORIENTED_EDGE ( 'NONE', *, *, #793, .F. ) ;
#890 = ORIENTED_EDGE ( 'NONE', *, *, #847, .T. ) ;
#891 = CARTESIAN_POINT ( 'NONE',  ( -2.500000000000000000, 0.2999999999999999889, 3.500000000000000000 ) ) ;
#892 = ORIENTED_EDGE ( 'NONE', *, *, #406, .F. ) ;
#893 = FACE_OUTER_BOUND ( 'NONE', #1001, .T. ) ;
#894 = DIRECTION ( 'NONE',  ( -0.000000000000000000, -1.000000000000000000, -0.000000000000000000 ) ) ;
#895 = ADVANCED_FACE ( 'NONE', ( #493 ), #386, .F. ) ;
#896 = ORIENTED_EDGE ( 'NONE', *, *, #206, .F. ) ;
#897 = APPLICATION_CONTEXT ( 'automotive_design' ) ;
#898 = ORIENTED_EDGE ( 'NONE', *, *, #315, .F. ) ;
#899 = DIRECTION ( 'NONE',  ( -0.000000000000000000, -0.000000000000000000, -1.000000000000000000 ) ) ;
#900 = VECTOR ( 'NONE', #1170, 39.37007874015748143 ) ;
#901 = EDGE_CURVE ( 'NONE', #691, #328, #815, .T. ) ;
#902 = DIRECTION ( 'NONE',  ( 1.000000000000000000, 0.000000000000000000, 0.000000000000000000 ) ) ;
#903 = DIRECTION ( 'NONE',  ( 0.000000000000000000, -0.000000000000000000, -1.000000000000000000 ) ) ;
#904 = CARTESIAN_POINT ( 'NONE',  ( -2.700000000000000178, -0.1599999999999999756, 1.339999999999999636 ) ) ;
#905 = ORIENTED_EDGE ( 'NONE', *, *, #1109, .T. ) ;
#906 = ORIENTED_EDGE ( 'NONE', *, *, #247, .F. ) ;
#907 = DIRECTION ( 'NONE',  ( 0.000000000000000000, -1.000000000000000000, 0.000000000000000000 ) ) ;
#908 = EDGE_CURVE ( 'NONE', #1326, #702, #210, .T. ) ;
#909 = CARTESIAN_POINT ( 'NONE',  ( -1.750000000000000222, 2.100000000000000089, 3.500000000000000000 ) ) ;
#910 = CARTESIAN_POINT ( 'NONE',  ( -0.5499999999999998224, 3.500000000000000000, 3.500000000000000000 ) ) ;
#911 = DIRECTION ( 'NONE',  ( 0.000000000000000000, 0.000000000000000000, 1.000000000000000000 ) ) ;
#912 = ORIENTED_EDGE ( 'NONE', *, *, #1224, .F. ) ;
#913 = VECTOR ( 'NONE', #492, 39.37007874015748143 ) ;
#914 = VECTOR ( 'NONE', #699, 39.37007874015748143 ) ;
#915 = CARTESIAN_POINT ( 'NONE',  ( 0.000000000000000000, 0.000000000000000000, 1.999999999999999334 ) ) ;
#916 = DIRECTION ( 'NONE',  ( 0.000000000000000000, -1.000000000000000000, 0.000000000000000000 ) ) ;
#917 = DIRECTION ( 'NONE',  ( -1.000000000000000000, 0.000000000000000000, 0.000000000000000000 ) ) ;
#918 = DIRECTION ( 'NONE',  ( -0.000000000000000000, -1.000000000000000000, -0.000000000000000000 ) ) ;
#919 = EDGE_LOOP ( 'NONE', ( #589, #1008, #432, #542 ) ) ;
#920 = DIRECTION ( 'NONE',  ( -1.000000000000000000, 0.000000000000000000, -0.000000000000000000 ) ) ;
#921 = VECTOR ( 'NONE', #32, 39.37007874015748143 ) ;
#922 = VECTOR ( 'NONE', #54, 39.37007874015748143 ) ;
#923 = FACE_OUTER_BOUND ( 'NONE', #499, .T. ) ;
#924 = CIRCLE ( 'NONE', #234, 0.2430020576044572556 ) ;
#925 = DIRECTION ( 'NONE',  ( 1.000000000000000000, 0.000000000000000000, 0.000000000000000000 ) ) ;
#926 = EDGE_CURVE ( 'NONE', #848, #575, #539, .T. ) ;
#927 = ORIENTED_EDGE ( 'NONE', *, *, #151, .F. ) ;
#928 = DIRECTION ( 'NONE',  ( -0.000000000000000000, 1.000000000000000000, -0.000000000000000000 ) ) ;
#929 = ORIENTED_EDGE ( 'NONE', *, *, #67, .T. ) ;
#930 = DIRECTION ( 'NONE',  ( 0.000000000000000000, 0.000000000000000000, 1.000000000000000000 ) ) ;
#931 = DIRECTION ( 'NONE',  ( -0.000000000000000000, -0.000000000000000000, -1.000000000000000000 ) ) ;
#932 = LINE ( 'NONE', #521, #262 ) ;
#933 = EDGE_CURVE ( 'NONE', #1205, #827, #959, .T. ) ;
#934 = LINE ( 'NONE', #1146, #365 ) ;
#935 = ORIENTED_EDGE ( 'NONE', *, *, #1234, .F. ) ;
#936 = VECTOR ( 'NONE', #1240, 39.37007874015748143 ) ;
#937 = CARTESIAN_POINT ( 'NONE',  ( -1.750000000000000222, 0.6750000000000000444, 1.999999999999999334 ) ) ;
#938 = CARTESIAN_POINT ( 'NONE',  ( -2.500000000000000000, 3.500000000000000000, 0.000000000000000000 ) ) ;
#939 = CARTESIAN_POINT ( 'NONE',  ( -2.700000000000000178, -0.2999999999999999889, 1.039999999999999591 ) ) ;
#940 = PLANE ( 'NONE',  #389 ) ;
#941 = EDGE_CURVE ( 'NONE', #827, #525, #110, .T. ) ;
#942 = EDGE_CURVE ( 'NONE', #471, #763, #322, .T. ) ;
#943 = VECTOR ( 'NONE', #1136, 39.37007874015748143 ) ;
#944 = FACE_OUTER_BOUND ( 'NONE', #115, .T. ) ;
#945 = CARTESIAN_POINT ( 'NONE',  ( -2.700000000000000178, 0.000000000000000000, 3.500000000000000000 ) ) ;
#946 = AXIS2_PLACEMENT_3D ( 'NONE', #1101, #1293, #579 ) ;
#947 = ORIENTED_EDGE ( 'NONE', *, *, #980, .F. ) ;
#948 = FACE_OUTER_BOUND ( 'NONE', #990, .T. ) ;
#949 = EDGE_CURVE ( 'NONE', #763, #1264, #756, .T. ) ;
#950 = DIRECTION ( 'NONE',  ( 0.000000000000000000, -1.000000000000000000, 0.000000000000000000 ) ) ;
#951 = ORIENTED_EDGE ( 'NONE', *, *, #784, .F. ) ;
#952 = CARTESIAN_POINT ( 'NONE',  ( -2.700000000000000178, -0.1599999999999999756, 2.539999999999999591 ) ) ;
#953 = LINE ( 'NONE', #324, #794 ) ;
#954 = EDGE_LOOP ( 'NONE', ( #1082, #973, #470, #1194, #366, #502, #1267, #668 ) ) ;
#955 = VECTOR ( 'NONE', #519, 39.37007874015748143 ) ;
#956 = LINE ( 'NONE', #422, #740 ) ;
#957 = ORIENTED_EDGE ( 'NONE', *, *, #1033, .T. ) ;
#958 = ORIENTED_EDGE ( 'NONE', *, *, #526, .T. ) ;
#959 = LINE ( 'NONE', #237, #1212 ) ;
#960 = LINE ( 'NONE', #116, #304 ) ;
#961 = ORIENTED_EDGE ( 'NONE', *, *, #588, .F. ) ;
#962 = CARTESIAN_POINT ( 'NONE',  ( -2.700000000000000178, -0.1599999999999999756, 2.839999999999999858 ) ) ;
#963 = ORIENTED_EDGE ( 'NONE', *, *, #1242, .T. ) ;
#964 = STYLED_ITEM ( 'NONE', ( #245 ), #774 ) ;
#965 = EDGE_CURVE ( 'NONE', #217, #293, #1169, .T. ) ;
#966 = CARTESIAN_POINT ( 'NONE',  ( -2.500000000000000000, 0.2999999999999999889, 0.000000000000000000 ) ) ;
#967 = VECTOR ( 'NONE', #36, 39.37007874015748143 ) ;
#968 = VERTEX_POINT ( 'NONE', #692 ) ;
#969 = PLANE ( 'NONE',  #1011 ) ;
#970 = DIRECTION ( 'NONE',  ( 0.000000000000000000, -0.000000000000000000, -1.000000000000000000 ) ) ;
#971 = CARTESIAN_POINT ( 'NONE',  ( -1.350000000000000089, 2.600000000000000089, 2.419999999999999485 ) ) ;
#972 = ADVANCED_FACE ( 'NONE', ( #146 ), #573, .F. ) ;
#973 = ORIENTED_EDGE ( 'NONE', *, *, #1130, .T. ) ;
#974 = CARTESIAN_POINT ( 'NONE',  ( -1.750000000000000222, 0.2999999999999999889, 2.499999999999999556 ) ) ;
#975 = CARTESIAN_POINT ( 'NONE',  ( -2.700000000000000178, -0.2999999999999999889, 3.039999999999999591 ) ) ;
#976 = CARTESIAN_POINT ( 'NONE',  ( -0.5499999999999998224, 3.500000000000000000, 2.419999999999999929 ) ) ;
#977 = LINE ( 'NONE', #120, #1119 ) ;
#978 = ORIENTED_EDGE ( 'NONE', *, *, #1042, .F. ) ;
#979 = PLANE ( 'NONE',  #653 ) ;
#980 = EDGE_CURVE ( 'NONE', #121, #374, #379, .T. ) ;
#981 = EDGE_LOOP ( 'NONE', ( #511, #889, #208, #1241, #770, #746, #1327, #1116, #906, #44, #51, #1030, #142, #42, #1104, #158 ) ) ;
#982 = FACE_BOUND ( 'NONE', #84, .T. ) ;
#983 = VECTOR ( 'NONE', #928, 39.37007874015748143 ) ;
#984 = ORIENTED_EDGE ( 'NONE', *, *, #926, .T. ) ;
#985 =( GEOMETRIC_REPRESENTATION_CONTEXT ( 3 ) GLOBAL_UNCERTAINTY_ASSIGNED_CONTEXT ( ( #174 ) ) GLOBAL_UNIT_ASSIGNED_CONTEXT ( ( #582, #873, #40 ) ) REPRESENTATION_CONTEXT ( 'NONE', 'WORKASPACE' ) );
#986 = EDGE_LOOP ( 'NONE', ( #1283, #442, #1306, #65, #488, #1089, #13, #567 ) ) ;
#987 = DIRECTION ( 'NONE',  ( 1.000000000000000000, 0.000000000000000000, 0.000000000000000000 ) ) ;
#988 = VECTOR ( 'NONE', #1314, 39.37007874015748143 ) ;
#989 = EDGE_CURVE ( 'NONE', #189, #882, #1004, .T. ) ;
#990 = EDGE_LOOP ( 'NONE', ( #2, #687, #564, #299 ) ) ;
#991 = DIRECTION ( 'NONE',  ( 0.000000000000000000, -1.000000000000000000, 0.000000000000000000 ) ) ;
#992 = CARTESIAN_POINT ( 'NONE',  ( -0.5499999999999998224, 3.500000000000000000, 3.500000000000000000 ) ) ;
#993 = ORIENTED_EDGE ( 'NONE', *, *, #1249, .T. ) ;
#994 = ORIENTED_EDGE ( 'NONE', *, *, #789, .T. ) ;
#995 = LINE ( 'NONE', #1307, #655 ) ;
#996 = CARTESIAN_POINT ( 'NONE',  ( -0.9499999999999999556, 2.100000000000000089, 3.500000000000000000 ) ) ;
#997 = LINE ( 'NONE', #155, #170 ) ;
#998 = ADVANCED_FACE ( 'NONE', ( #1201 ), #31, .F. ) ;
#999 = CARTESIAN_POINT ( 'NONE',  ( -2.700000000000000178, -0.1599999999999999756, 2.839999999999999858 ) ) ;
#1000 = EDGE_LOOP ( 'NONE', ( #261, #321, #351, #251 ) ) ;
#1001 = EDGE_LOOP ( 'NONE', ( #1305, #838, #401, #71 ) ) ;
#1002 = DIRECTION ( 'NONE',  ( -0.000000000000000000, -1.000000000000000000, -0.000000000000000000 ) ) ;
#1003 = CARTESIAN_POINT ( 'NONE',  ( -0.9499999999999999556, 0.2999999999999999889, 2.499999999999999556 ) ) ;
#1004 = LINE ( 'NONE', #788, #1182 ) ;
#1005 = PLANE ( 'NONE',  #1073 ) ;
#1006 = ORIENTED_EDGE ( 'NONE', *, *, #880, .F. ) ;
#1007 = EDGE_CURVE ( 'NONE', #34, #755, #997, .T. ) ;
#1008 = ORIENTED_EDGE ( 'NONE', *, *, #417, .T. ) ;
#1009 = DIRECTION ( 'NONE',  ( -0.000000000000000000, -0.000000000000000000, 1.000000000000000000 ) ) ;
#1010 = VECTOR ( 'NONE', #371, 39.37007874015748143 ) ;
#1011 = AXIS2_PLACEMENT_3D ( 'NONE', #550, #833, #877 ) ;
#1012 = VECTOR ( 'NONE', #1009, 39.37007874015748143 ) ;
#1013 = DIRECTION ( 'NONE',  ( -0.000000000000000000, -0.000000000000000000, -1.000000000000000000 ) ) ;
#1014 = CARTESIAN_POINT ( 'NONE',  ( -0.2000000000000000389, 0.3000000000000000999, 0.000000000000000000 ) ) ;
#1015 = LINE ( 'NONE', #453, #482 ) ;
#1016 = EDGE_LOOP ( 'NONE', ( #125, #265, #1343, #232 ) ) ;
#1017 = UNCERTAINTY_MEASURE_WITH_UNIT (LENGTH_MEASURE( 1.000000000000000082E-05 ), #242, 'distance_accuracy_value', 'NONE');
#1018 = CARTESIAN_POINT ( 'NONE',  ( -1.350000000000000089, 1.465000000000000080, 3.500000000000000000 ) ) ;
#1019 = CARTESIAN_POINT ( 'NONE',  ( 0.000000000000000000, -0.1599999999999999756, 1.039999999999999591 ) ) ;
#1020 = LINE ( 'NONE', #284, #665 ) ;
#1021 = ORIENTED_EDGE ( 'NONE', *, *, #713, .F. ) ;
#1022 = ORIENTED_EDGE ( 'NONE', *, *, #742, .T. ) ;
#1023 = VECTOR ( 'NONE', #1281, 39.37007874015748143 ) ;
#1024 = DIRECTION ( 'NONE',  ( -0.000000000000000000, -0.000000000000000000, -1.000000000000000000 ) ) ;
#1025 = ADVANCED_FACE ( 'NONE', ( #804 ), #263, .F. ) ;
#1026 = DIRECTION ( 'NONE',  ( -0.000000000000000000, -1.000000000000000000, -0.000000000000000000 ) ) ;
#1027 = DIRECTION ( 'NONE',  ( -0.000000000000000000, -0.000000000000000000, 1.000000000000000000 ) ) ;
#1028 = ORIENTED_EDGE ( 'NONE', *, *, #133, .T. ) ;
#1029 = DIRECTION ( 'NONE',  ( -0.000000000000000000, -0.000000000000000000, 1.000000000000000000 ) ) ;
#1030 = ORIENTED_EDGE ( 'NONE', *, *, #1278, .T. ) ;
#1031 = CARTESIAN_POINT ( 'NONE',  ( 0.000000000000000000, 0.000000000000000000, 1.539999999999999591 ) ) ;
#1032 = DIRECTION ( 'NONE',  ( 0.000000000000000000, 0.000000000000000000, 1.000000000000000000 ) ) ;
#1033 = EDGE_CURVE ( 'NONE', #1037, #1264, #672, .T. ) ;
#1034 = VECTOR ( 'NONE', #143, 39.37007874015748143 ) ;
#1035 = VERTEX_POINT ( 'NONE', #587 ) ;
#1036 = CARTESIAN_POINT ( 'NONE',  ( -2.700000000000000178, -0.2999999999999999889, 1.539999999999999591 ) ) ;
#1037 = VERTEX_POINT ( 'NONE', #1094 ) ;
#1038 = CARTESIAN_POINT ( 'NONE',  ( -1.495000000000000107, 1.270000000000000018, 2.499999999999999556 ) ) ;
#1039 = CARTESIAN_POINT ( 'NONE',  ( -1.750000000000000222, 1.800000000000000266, 2.499999999999999556 ) ) ;
#1040 = PRODUCT_RELATED_PRODUCT_CATEGORY ( 'part', '', ( #1336 ) ) ;
#1041 = DIRECTION ( 'NONE',  ( -0.000000000000000000, 0.000000000000000000, 1.000000000000000000 ) ) ;
#1042 = EDGE_CURVE ( 'NONE', #1037, #608, #1209, .T. ) ;
#1043 = DIRECTION ( 'NONE',  ( -1.000000000000000000, 0.000000000000000000, 0.000000000000000000 ) ) ;
#1044 = VECTOR ( 'NONE', #161, 39.37007874015748143 ) ;
#1045 = LINE ( 'NONE', #937, #529 ) ;
#1046 = DIRECTION ( 'NONE',  ( -0.000000000000000000, 1.000000000000000000, -0.000000000000000000 ) ) ;
#1047 = ORIENTED_EDGE ( 'NONE', *, *, #1072, .F. ) ;
#1048 = CARTESIAN_POINT ( 'NONE',  ( -2.700000000000000178, -0.2999999999999999889, 2.839999999999999858 ) ) ;
#1049 = ADVANCED_FACE ( 'NONE', ( #893 ), #45, .T. ) ;
#1050 = VECTOR ( 'NONE', #305, 39.37007874015748143 ) ;
#1051 = DIRECTION ( 'NONE',  ( -0.000000000000000000, 1.000000000000000000, -0.000000000000000000 ) ) ;
#1052 = AXIS2_PLACEMENT_3D ( 'NONE', #357, #1297, #1193 ) ;
#1053 = DIRECTION ( 'NONE',  ( -0.000000000000000000, 1.000000000000000000, -0.000000000000000000 ) ) ;
#1054 = VECTOR ( 'NONE', #597, 39.37007874015748143 ) ;
#1055 = CARTESIAN_POINT ( 'NONE',  ( -0.5499999999999998224, 2.100000000000000089, 2.419999999999999929 ) ) ;
#1056 = ORIENTED_EDGE ( 'NONE', *, *, #727, .T. ) ;
#1057 = VERTEX_POINT ( 'NONE', #462 ) ;
#1058 = CARTESIAN_POINT ( 'NONE',  ( 0.000000000000000000, 3.799999999999999822, 0.000000000000000000 ) ) ;
#1059 = VERTEX_POINT ( 'NONE', #657 ) ;
#1060 = VERTEX_POINT ( 'NONE', #976 ) ;
#1061 = CARTESIAN_POINT ( 'NONE',  ( -2.700000000000000178, 0.000000000000000000, 0.000000000000000000 ) ) ;
#1062 = CARTESIAN_POINT ( 'NONE',  ( -0.9499999999999999556, 0.6750000000000000444, 1.699999999999999289 ) ) ;
#1063 = ORIENTED_EDGE ( 'NONE', *, *, #1171, .T. ) ;
#1064 = AXIS2_PLACEMENT_3D ( 'NONE', #600, #917, #1032 ) ;
#1065 = DIRECTION ( 'NONE',  ( -1.000000000000000000, 0.000000000000000000, 0.000000000000000000 ) ) ;
#1066 = EDGE_CURVE ( 'NONE', #454, #411, #1325, .T. ) ;
#1067 = DIRECTION ( 'NONE',  ( -1.000000000000000000, 0.000000000000000000, 0.000000000000000000 ) ) ;
#1068 = DIRECTION ( 'NONE',  ( 1.000000000000000000, 0.000000000000000000, 0.000000000000000000 ) ) ;
#1069 = ORIENTED_EDGE ( 'NONE', *, *, #847, .F. ) ;
#1070 = CARTESIAN_POINT ( 'NONE',  ( -1.205000000000000071, 1.270000000000000018, 3.500000000000000000 ) ) ;
#1071 = PLANE ( 'NONE',  #137 ) ;
#1072 = EDGE_CURVE ( 'NONE', #1334, #548, #1295, .T. ) ;
#1073 = AXIS2_PLACEMENT_3D ( 'NONE', #278, #1115, #595 ) ;
#1074 = AXIS2_PLACEMENT_3D ( 'NONE', #183, #822, #593 ) ;
#1075 = LINE ( 'NONE', #1062, #854 ) ;
#1076 = VERTEX_POINT ( 'NONE', #1191 ) ;
#1077 = LINE ( 'NONE', #1360, #1238 ) ;
#1078 = ORIENTED_EDGE ( 'NONE', *, *, #1203, .F. ) ;
#1079 = CARTESIAN_POINT ( 'NONE',  ( -1.350000000000000089, 1.465000000000000080, 0.000000000000000000 ) ) ;
#1080 = DIRECTION ( 'NONE',  ( 0.000000000000000000, 1.000000000000000000, 0.000000000000000000 ) ) ;
#1081 = ADVANCED_FACE ( 'NONE', ( #244, #664, #1309, #1316, #982 ), #271, .F. ) ;
#1082 = ORIENTED_EDGE ( 'NONE', *, *, #80, .F. ) ;
#1083 = DIRECTION ( 'NONE',  ( 1.000000000000000000, 0.000000000000000000, 0.000000000000000000 ) ) ;
#1084 = AXIS2_PLACEMENT_3D ( 'NONE', #198, #1027, #834 ) ;
#1085 = CARTESIAN_POINT ( 'NONE',  ( -2.150000000000000355, 2.100000000000000089, 3.500000000000000000 ) ) ;
#1086 = CARTESIAN_POINT ( 'NONE',  ( -0.9499999999999999556, 1.050000000000000044, 1.999999999999999334 ) ) ;
#1087 = CARTESIAN_POINT ( 'NONE',  ( -2.500000000000000000, 3.500000000000000000, 0.000000000000000000 ) ) ;
#1088 = ORIENTED_EDGE ( 'NONE', *, *, #908, .T. ) ;
#1089 = ORIENTED_EDGE ( 'NONE', *, *, #760, .F. ) ;
#1090 = CARTESIAN_POINT ( 'NONE',  ( -0.9499999999999999556, 0.6750000000000000444, 1.999999999999999334 ) ) ;
#1091 = EDGE_CURVE ( 'NONE', #702, #121, #1303, .T. ) ;
#1092 = AXIS2_PLACEMENT_3D ( 'NONE', #714, #1347, #395 ) ;
#1093 = DIRECTION ( 'NONE',  ( 1.000000000000000000, 0.000000000000000000, 0.000000000000000000 ) ) ;
#1094 = CARTESIAN_POINT ( 'NONE',  ( -2.700000000000000178, 3.799999999999999822, 3.500000000000000000 ) ) ;
#1095 = LINE ( 'NONE', #798, #104 ) ;
#1096 = VERTEX_POINT ( 'NONE', #782 ) ;
#1097 = AXIS2_PLACEMENT_3D ( 'NONE', #426, #849, #1156 ) ;
#1098 = EDGE_LOOP ( 'NONE', ( #696, #857, #1111, #724 ) ) ;
#1099 = DIRECTION ( 'NONE',  ( 1.000000000000000000, 0.000000000000000000, 0.000000000000000000 ) ) ;
#1100 = VECTOR ( 'NONE', #899, 39.37007874015748143 ) ;
#1101 = CARTESIAN_POINT ( 'NONE',  ( -1.750000000000000222, 1.800000000000000266, 2.499999999999999556 ) ) ;
#1102 = DIRECTION ( 'NONE',  ( -1.000000000000000000, -0.000000000000000000, -0.000000000000000000 ) ) ;
#1103 = FACE_OUTER_BOUND ( 'NONE', #670, .T. ) ;
#1104 = ORIENTED_EDGE ( 'NONE', *, *, #650, .F. ) ;
#1105 = VERTEX_POINT ( 'NONE', #59 ) ;
#1106 = CYLINDRICAL_SURFACE ( 'NONE', #1092, 0.2430020576044572556 ) ;
#1107 = ORIENTED_EDGE ( 'NONE', *, *, #203, .F. ) ;
#1108 = DIRECTION ( 'NONE',  ( 0.000000000000000000, 0.000000000000000000, -1.000000000000000000 ) ) ;
#1109 = EDGE_CURVE ( 'NONE', #424, #646, #50, .T. ) ;
#1110 = ORIENTED_EDGE ( 'NONE', *, *, #307, .T. ) ;
#1111 = ORIENTED_EDGE ( 'NONE', *, *, #20, .F. ) ;
#1112 = CARTESIAN_POINT ( 'NONE',  ( -1.350000000000000089, 2.600000000000000089, 3.500000000000000000 ) ) ;
#1113 = DIRECTION ( 'NONE',  ( 1.000000000000000000, 0.000000000000000000, 0.000000000000000000 ) ) ;
#1114 = DIRECTION ( 'NONE',  ( 1.000000000000000000, 0.000000000000000000, 0.000000000000000000 ) ) ;
#1115 = DIRECTION ( 'NONE',  ( 0.000000000000000000, -1.000000000000000000, 0.000000000000000000 ) ) ;
#1116 = ORIENTED_EDGE ( 'NONE', *, *, #1165, .F. ) ;
#1117 = ORIENTED_EDGE ( 'NONE', *, *, #826, .T. ) ;
#1118 = LINE ( 'NONE', #257, #1100 ) ;
#1119 = VECTOR ( 'NONE', #1157, 39.37007874015748143 ) ;
#1120 = AXIS2_PLACEMENT_3D ( 'NONE', #698, #283, #606 ) ;
#1121 = LINE ( 'NONE', #483, #196 ) ;
#1122 = CARTESIAN_POINT ( 'NONE',  ( -1.125000000000000222, 2.600000000000000089, 3.500000000000000000 ) ) ;
#1123 = CARTESIAN_POINT ( 'NONE',  ( 0.000000000000000000, 2.100000000000000089, 0.000000000000000000 ) ) ;
#1124 = ORIENTED_EDGE ( 'NONE', *, *, #459, .T. ) ;
#1125 = CARTESIAN_POINT ( 'NONE',  ( 0.000000000000000000, -0.2999999999999999889, 0.000000000000000000 ) ) ;
#1126 = ADVANCED_FACE ( 'NONE', ( #76 ), #185, .F. ) ;
#1127 = CARTESIAN_POINT ( 'NONE',  ( -0.5499999999999998224, 2.100000000000000089, 2.419999999999999929 ) ) ;
#1128 = FACE_OUTER_BOUND ( 'NONE', #986, .T. ) ;
#1129 = ORIENTED_EDGE ( 'NONE', *, *, #496, .T. ) ;
#1130 = EDGE_CURVE ( 'NONE', #154, #719, #1338, .T. ) ;
#1131 = DIRECTION ( 'NONE',  ( 0.000000000000000000, -0.000000000000000000, -1.000000000000000000 ) ) ;
#1132 = EDGE_CURVE ( 'NONE', #374, #1326, #1020, .T. ) ;
#1133 = LINE ( 'NONE', #1141, #1142 ) ;
#1134 = DIRECTION ( 'NONE',  ( -0.000000000000000000, -0.000000000000000000, 1.000000000000000000 ) ) ;
#1135 = VERTEX_POINT ( 'NONE', #811 ) ;
#1136 = DIRECTION ( 'NONE',  ( -0.000000000000000000, 1.000000000000000000, -0.000000000000000000 ) ) ;
#1137 = VERTEX_POINT ( 'NONE', #1122 ) ;
#1138 = VECTOR ( 'NONE', #894, 39.37007874015748143 ) ;
#1139 = EDGE_CURVE ( 'NONE', #141, #876, #709, .T. ) ;
#1140 = VECTOR ( 'NONE', #1304, 39.37007874015748143 ) ;
#1141 = CARTESIAN_POINT ( 'NONE',  ( -2.150000000000000355, 3.500000000000000000, 2.919999999999999929 ) ) ;
#1142 = VECTOR ( 'NONE', #296, 39.37007874015748143 ) ;
#1143 = DIRECTION ( 'NONE',  ( 1.000000000000000000, 0.000000000000000000, 0.000000000000000000 ) ) ;
#1144 = ADVANCED_FACE ( 'NONE', ( #1232 ), #276, .F. ) ;
#1145 = CARTESIAN_POINT ( 'NONE',  ( -1.750000000000000222, 0.2999999999999999889, 3.500000000000000000 ) ) ;
#1146 = CARTESIAN_POINT ( 'NONE',  ( -1.750000000000000222, 1.050000000000000044, 1.999999999999999334 ) ) ;
#1147 = LINE ( 'NONE', #443, #1254 ) ;
#1148 = LINE ( 'NONE', #439, #474 ) ;
#1149 = EDGE_CURVE ( 'NONE', #1135, #421, #169, .T. ) ;
#1150 = FACE_OUTER_BOUND ( 'NONE', #350, .T. ) ;
#1151 = LINE ( 'NONE', #1236, #728 ) ;
#1152 = ORIENTED_EDGE ( 'NONE', *, *, #450, .F. ) ;
#1153 = DIMENSIONAL_EXPONENTS ( 1.000000000000000000, 0.000000000000000000, 0.000000000000000000, 0.000000000000000000, 0.000000000000000000, 0.000000000000000000, 0.000000000000000000 ) ;
#1154 = DIRECTION ( 'NONE',  ( -1.000000000000000000, 0.000000000000000000, -0.000000000000000000 ) ) ;
#1155 = EDGE_LOOP ( 'NONE', ( #1319, #667, #41, #246, #813, #821, #781, #532 ) ) ;
#1156 = DIRECTION ( 'NONE',  ( 1.000000000000000000, 0.000000000000000000, 0.000000000000000000 ) ) ;
#1157 = DIRECTION ( 'NONE',  ( 1.000000000000000000, 0.000000000000000000, 0.000000000000000000 ) ) ;
#1158 = EDGE_LOOP ( 'NONE', ( #463, #1152, #545, #467 ) ) ;
#1159 = AXIS2_PLACEMENT_3D ( 'NONE', #420, #1029, #289 ) ;
#1160 = ORIENTED_EDGE ( 'NONE', *, *, #863, .T. ) ;
#1161 = VECTOR ( 'NONE', #1083, 39.37007874015748143 ) ;
#1162 = DIRECTION ( 'NONE',  ( 0.000000000000000000, -0.000000000000000000, 1.000000000000000000 ) ) ;
#1163 = DIRECTION ( 'NONE',  ( -0.000000000000000000, -0.000000000000000000, 1.000000000000000000 ) ) ;
#1164 = ORIENTED_EDGE ( 'NONE', *, *, #333, .T. ) ;
#1165 = EDGE_CURVE ( 'NONE', #1258, #1348, #504, .T. ) ;
#1166 = FACE_OUTER_BOUND ( 'NONE', #1204, .T. ) ;
#1167 = ORIENTED_EDGE ( 'NONE', *, *, #826, .F. ) ;
#1168 = ORIENTED_EDGE ( 'NONE', *, *, #1323, .F. ) ;
#1169 = LINE ( 'NONE', #644, #1010 ) ;
#1170 = DIRECTION ( 'NONE',  ( -1.000000000000000000, -0.000000000000000000, -0.000000000000000000 ) ) ;
#1171 = EDGE_CURVE ( 'NONE', #256, #328, #1345, .T. ) ;
#1172 = ORIENTED_EDGE ( 'NONE', *, *, #1072, .T. ) ;
#1173 = DIRECTION ( 'NONE',  ( -0.000000000000000000, 1.000000000000000000, -0.000000000000000000 ) ) ;
#1174 = ADVANCED_FACE ( 'NONE', ( #1128 ), #607, .F. ) ;
#1175 = LINE ( 'NONE', #229, #605 ) ;
#1176 = CARTESIAN_POINT ( 'NONE',  ( -0.2000000000000000389, 0.2999999999999999889, 3.500000000000000000 ) ) ;
#1177 = EDGE_LOOP ( 'NONE', ( #117, #843, #572, #172 ) ) ;
#1178 = CARTESIAN_POINT ( 'NONE',  ( -2.150000000000000355, 2.100000000000000089, 3.500000000000000000 ) ) ;
#1179 = EDGE_CURVE ( 'NONE', #387, #691, #90, .T. ) ;
#1180 = CIRCLE ( 'NONE', #343, 0.2430020576044572556 ) ;
#1181 = ORIENTED_EDGE ( 'NONE', *, *, #1291, .F. ) ;
#1182 = VECTOR ( 'NONE', #1102, 39.37007874015748143 ) ;
#1183 = EDGE_CURVE ( 'NONE', #112, #313, #397, .T. ) ;
#1184 = VECTOR ( 'NONE', #302, 39.37007874015748143 ) ;
#1185 = CARTESIAN_POINT ( 'NONE',  ( -2.500000000000000000, 0.3000000000000000999, 3.500000000000000000 ) ) ;
#1186 = CIRCLE ( 'NONE', #682, 0.2430020576044572556 ) ;
#1187 = ORIENTED_EDGE ( 'NONE', *, *, #83, .T. ) ;
#1188 = DIRECTION ( 'NONE',  ( -0.000000000000000000, 0.000000000000000000, 1.000000000000000000 ) ) ;
#1189 = DIRECTION ( 'NONE',  ( 1.000000000000000000, 0.000000000000000000, 0.000000000000000000 ) ) ;
#1190 = FACE_OUTER_BOUND ( 'NONE', #134, .T. ) ;
#1191 = CARTESIAN_POINT ( 'NONE',  ( -0.9499999999999999556, 0.6750000000000000444, 1.699999999999999289 ) ) ;
#1192 = ADVANCED_FACE ( 'NONE', ( #1251 ), #192, .F. ) ;
#1193 = DIRECTION ( 'NONE',  ( 1.000000000000000000, 0.000000000000000000, 0.000000000000000000 ) ) ;
#1194 = ORIENTED_EDGE ( 'NONE', *, *, #742, .F. ) ;
#1195 = ORIENTED_EDGE ( 'NONE', *, *, #80, .T. ) ;
#1196 = LINE ( 'NONE', #654, #1274 ) ;
#1197 = SHAPE_DEFINITION_REPRESENTATION ( #500, #167 ) ;
#1198 = AXIS2_PLACEMENT_3D ( 'NONE', #1079, #252, #38 ) ;
#1199 = VECTOR ( 'NONE', #1046, 39.37007874015748143 ) ;
#1200 = ORIENTED_EDGE ( 'NONE', *, *, #206, .T. ) ;
#1201 = FACE_OUTER_BOUND ( 'NONE', #145, .T. ) ;
#1202 =( LENGTH_UNIT ( ) NAMED_UNIT ( * ) SI_UNIT ( $, .METRE. ) );
#1203 = EDGE_CURVE ( 'NONE', #726, #867, #94, .T. ) ;
#1204 = EDGE_LOOP ( 'NONE', ( #316, #881, #615, #1300 ) ) ;
#1205 = VERTEX_POINT ( 'NONE', #1246 ) ;
#1206 = PLANE ( 'NONE',  #107 ) ;
#1207 = DIRECTION ( 'NONE',  ( 0.000000000000000000, 0.000000000000000000, 1.000000000000000000 ) ) ;
#1208 = VERTEX_POINT ( 'NONE', #1014 ) ;
#1209 = LINE ( 'NONE', #476, #695 ) ;
#1210 = LINE ( 'NONE', #1227, #1140 ) ;
#1211 = ORIENTED_EDGE ( 'NONE', *, *, #399, .F. ) ;
#1212 = VECTOR ( 'NONE', #1053, 39.37007874015748143 ) ;
#1213 = ORIENTED_EDGE ( 'NONE', *, *, #641, .T. ) ;
#1214 = VECTOR ( 'NONE', #346, 39.37007874015748143 ) ;
#1215 = CARTESIAN_POINT ( 'NONE',  ( -1.574999999999999956, 2.600000000000000089, 3.500000000000000000 ) ) ;
#1216 = EDGE_CURVE ( 'NONE', #555, #1057, #619, .T. ) ;
#1217 = ORIENTED_EDGE ( 'NONE', *, *, #91, .F. ) ;
#1218 = CARTESIAN_POINT ( 'NONE',  ( 0.000000000000000000, 3.799999999999999822, 0.000000000000000000 ) ) ;
#1219 = FACE_BOUND ( 'NONE', #164, .T. ) ;
#1220 = EDGE_LOOP ( 'NONE', ( #1289, #223, #1181, #157 ) ) ;
#1221 = ORIENTED_EDGE ( 'NONE', *, *, #73, .T. ) ;
#1222 = LINE ( 'NONE', #792, #530 ) ;
#1223 = EDGE_CURVE ( 'NONE', #755, #787, #69, .T. ) ;
#1224 = EDGE_CURVE ( 'NONE', #796, #1135, #612, .T. ) ;
#1225 = FACE_OUTER_BOUND ( 'NONE', #808, .T. ) ;
#1226 = CARTESIAN_POINT ( 'NONE',  ( 0.000000000000000000, 0.000000000000000000, 0.000000000000000000 ) ) ;
#1227 = CARTESIAN_POINT ( 'NONE',  ( -0.9499999999999999556, 2.100000000000000089, 2.499999999999999556 ) ) ;
#1228 = EDGE_LOOP ( 'NONE', ( #1279, #852, #222, #319, #958, #56, #963, #1217, #896, #694, #119, #109, #675, #1069, #1229, #1110 ) ) ;
#1229 = ORIENTED_EDGE ( 'NONE', *, *, #523, .F. ) ;
#1230 = LINE ( 'NONE', #489, #633 ) ;
#1231 = CARTESIAN_POINT ( 'NONE',  ( -0.5499999999999998224, 2.100000000000000089, 2.919999999999999929 ) ) ;
#1232 = FACE_OUTER_BOUND ( 'NONE', #1177, .T. ) ;
#1233 = VERTEX_POINT ( 'NONE', #938 ) ;
#1234 = EDGE_CURVE ( 'NONE', #1308, #726, #1355, .T. ) ;
#1235 = ORIENTED_EDGE ( 'NONE', *, *, #598, .F. ) ;
#1236 = CARTESIAN_POINT ( 'NONE',  ( 0.000000000000000000, -0.1599999999999999756, 2.539999999999999591 ) ) ;
#1237 = AXIS2_PLACEMENT_3D ( 'NONE', #477, #140, #805 ) ;
#1238 = VECTOR ( 'NONE', #1354, 39.37007874015748143 ) ;
#1239 = DIRECTION ( 'NONE',  ( -0.000000000000000000, -1.000000000000000000, -0.000000000000000000 ) ) ;
#1240 = DIRECTION ( 'NONE',  ( -0.000000000000000000, -0.000000000000000000, 1.000000000000000000 ) ) ;
#1241 = ORIENTED_EDGE ( 'NONE', *, *, #199, .F. ) ;
#1242 = EDGE_CURVE ( 'NONE', #643, #189, #209, .T. ) ;
#1243 = FACE_OUTER_BOUND ( 'NONE', #279, .T. ) ;
#1244 = EDGE_LOOP ( 'NONE', ( #824, #398, #7, #715 ) ) ;
#1245 = LINE ( 'NONE', #177, #344 ) ;
#1246 = CARTESIAN_POINT ( 'NONE',  ( -2.700000000000000178, -0.2999999999999999889, 2.539999999999999591 ) ) ;
#1247 = ORIENTED_EDGE ( 'NONE', *, *, #348, .T. ) ;
#1248 = CARTESIAN_POINT ( 'NONE',  ( -0.9499999999999999556, 0.2999999999999999889, 3.500000000000000000 ) ) ;
#1249 = EDGE_CURVE ( 'NONE', #796, #354, #14, .T. ) ;
#1250 = LINE ( 'NONE', #909, #551 ) ;
#1251 = FACE_OUTER_BOUND ( 'NONE', #919, .T. ) ;
#1252 = DIRECTION ( 'NONE',  ( -0.000000000000000000, -0.000000000000000000, 1.000000000000000000 ) ) ;
#1253 = VECTOR ( 'NONE', #1163, 39.37007874015748143 ) ;
#1254 = VECTOR ( 'NONE', #1301, 39.37007874015748143 ) ;
#1255 = EDGE_CURVE ( 'NONE', #1076, #411, #1148, .T. ) ;
#1256 = PLANE ( 'NONE',  #415 ) ;
#1257 = DIRECTION ( 'NONE',  ( 0.000000000000000000, -0.000000000000000000, -1.000000000000000000 ) ) ;
#1258 = VERTEX_POINT ( 'NONE', #962 ) ;
#1259 = CARTESIAN_POINT ( 'NONE',  ( -0.2000000000000000389, 0.2999999999999999889, 0.000000000000000000 ) ) ;
#1260 = CARTESIAN_POINT ( 'NONE',  ( -0.9499999999999999556, 2.100000000000000089, 3.500000000000000000 ) ) ;
#1261 = ORIENTED_EDGE ( 'NONE', *, *, #802, .F. ) ;
#1262 = CARTESIAN_POINT ( 'NONE',  ( -1.750000000000000222, 1.050000000000000044, 1.999999999999999334 ) ) ;
#1263 = DIRECTION ( 'NONE',  ( 0.000000000000000000, -1.000000000000000000, 0.000000000000000000 ) ) ;
#1264 = VERTEX_POINT ( 'NONE', #945 ) ;
#1265 = CARTESIAN_POINT ( 'NONE',  ( -2.700000000000000178, 0.000000000000000000, 2.839999999999999858 ) ) ;
#1266 = ORIENTED_EDGE ( 'NONE', *, *, #190, .T. ) ;
#1267 = ORIENTED_EDGE ( 'NONE', *, *, #863, .F. ) ;
#1268 = EDGE_CURVE ( 'NONE', #683, #1205, #418, .T. ) ;
#1269 = DIRECTION ( 'NONE',  ( 0.000000000000000000, -1.000000000000000000, 0.000000000000000000 ) ) ;
#1270 = ORIENTED_EDGE ( 'NONE', *, *, #736, .T. ) ;
#1271 = VECTOR ( 'NONE', #127, 39.37007874015748143 ) ;
#1272 = FACE_OUTER_BOUND ( 'NONE', #1228, .T. ) ;
#1273 = ORIENTED_EDGE ( 'NONE', *, *, #680, .F. ) ;
#1274 = VECTOR ( 'NONE', #1173, 39.37007874015748143 ) ;
#1275 = ADVANCED_FACE ( 'NONE', ( #8, #629 ), #636, .F. ) ;
#1276 = ORIENTED_EDGE ( 'NONE', *, *, #1007, .F. ) ;
#1277 = CARTESIAN_POINT ( 'NONE',  ( -0.9499999999999999556, 2.100000000000000089, 2.999999999999999556 ) ) ;
#1278 = EDGE_CURVE ( 'NONE', #266, #763, #1175, .T. ) ;
#1279 = ORIENTED_EDGE ( 'NONE', *, *, #377, .T. ) ;
#1280 = LINE ( 'NONE', #332, #1161 ) ;
#1281 = DIRECTION ( 'NONE',  ( -1.000000000000000000, -0.000000000000000000, -0.000000000000000000 ) ) ;
#1282 = DIRECTION ( 'NONE',  ( 0.000000000000000000, 0.000000000000000000, 1.000000000000000000 ) ) ;
#1283 = ORIENTED_EDGE ( 'NONE', *, *, #151, .T. ) ;
#1284 = DIRECTION ( 'NONE',  ( 0.000000000000000000, -1.000000000000000000, 0.000000000000000000 ) ) ;
#1285 = PRODUCT_DEFINITION_FORMATION_WITH_SPECIFIED_SOURCE ( 'ANY', '', #1336, .NOT_KNOWN. ) ;
#1286 = ADVANCED_FACE ( 'NONE', ( #1272 ), #327, .F. ) ;
#1287 = ORIENTED_EDGE ( 'NONE', *, *, #690, .F. ) ;
#1288 = CARTESIAN_POINT ( 'NONE',  ( -1.495000000000000107, 1.660000000000000142, 3.500000000000000000 ) ) ;
#1289 = ORIENTED_EDGE ( 'NONE', *, *, #942, .F. ) ;
#1290 = LINE ( 'NONE', #35, #771 ) ;
#1291 = EDGE_CURVE ( 'NONE', #1264, #1059, #216, .T. ) ;
#1292 = AXIS2_PLACEMENT_3D ( 'NONE', #1036, #414, #920 ) ;
#1293 = DIRECTION ( 'NONE',  ( 1.000000000000000000, 0.000000000000000000, 0.000000000000000000 ) ) ;
#1294 = VECTOR ( 'NONE', #559, 39.37007874015748143 ) ;
#1295 = LINE ( 'NONE', #1218, #807 ) ;
#1296 = AXIS2_PLACEMENT_3D ( 'NONE', #99, #764, #352 ) ;
#1297 = DIRECTION ( 'NONE',  ( -0.000000000000000000, 0.000000000000000000, 1.000000000000000000 ) ) ;
#1298 = AXIS2_PLACEMENT_3D ( 'NONE', #43, #907, #481 ) ;
#1299 = ORIENTED_EDGE ( 'NONE', *, *, #53, .F. ) ;
#1300 = ORIENTED_EDGE ( 'NONE', *, *, #247, .T. ) ;
#1301 = DIRECTION ( 'NONE',  ( 0.000000000000000000, 0.000000000000000000, 1.000000000000000000 ) ) ;
#1302 = ORIENTED_EDGE ( 'NONE', *, *, #235, .F. ) ;
#1303 = LINE ( 'NONE', #355, #1044 ) ;
#1304 = DIRECTION ( 'NONE',  ( -1.000000000000000000, 0.000000000000000000, 0.000000000000000000 ) ) ;
#1305 = ORIENTED_EDGE ( 'NONE', *, *, #301, .F. ) ;
#1306 = ORIENTED_EDGE ( 'NONE', *, *, #1255, .T. ) ;
#1307 = CARTESIAN_POINT ( 'NONE',  ( -2.150000000000000355, 2.100000000000000089, 2.419999999999999485 ) ) ;
#1308 = VERTEX_POINT ( 'NONE', #536 ) ;
#1309 = FACE_OUTER_BOUND ( 'NONE', #676, .T. ) ;
#1310 = FACE_OUTER_BOUND ( 'NONE', #213, .T. ) ;
#1311 = VERTEX_POINT ( 'NONE', #1361 ) ;
#1312 = ADVANCED_FACE ( 'NONE', ( #1166 ), #202, .F. ) ;
#1313 = ORIENTED_EDGE ( 'NONE', *, *, #282, .F. ) ;
#1314 = DIRECTION ( 'NONE',  ( -0.000000000000000000, -1.000000000000000000, -0.000000000000000000 ) ) ;
#1315 = CARTESIAN_POINT ( 'NONE',  ( -1.350000000000000089, 1.465000000000000080, 2.499999999999999556 ) ) ;
#1316 = FACE_BOUND ( 'NONE', #367, .T. ) ;
#1317 = VECTOR ( 'NONE', #4, 39.37007874015748143 ) ;
#1318 = FILL_AREA_STYLE_COLOUR ( '', #679 ) ;
#1319 = ORIENTED_EDGE ( 'NONE', *, *, #235, .T. ) ;
#1320 = ORIENTED_EDGE ( 'NONE', *, *, #3, .T. ) ;
#1321 = VECTOR ( 'NONE', #512, 39.37007874015748143 ) ;
#1322 = CARTESIAN_POINT ( 'NONE',  ( -1.750000000000000222, 2.100000000000000089, 3.500000000000000000 ) ) ;
#1323 = EDGE_CURVE ( 'NONE', #800, #313, #956, .T. ) ;
#1324 = DIRECTION ( 'NONE',  ( 1.000000000000000000, -0.000000000000000000, -0.000000000000000000 ) ) ;
#1325 = LINE ( 'NONE', #1086, #472 ) ;
#1326 = VERTEX_POINT ( 'NONE', #221 ) ;
#1327 = ORIENTED_EDGE ( 'NONE', *, *, #840, .T. ) ;
#1328 = CARTESIAN_POINT ( 'NONE',  ( -1.495000000000000107, 1.270000000000000018, 3.500000000000000000 ) ) ;
#1329 = ADVANCED_FACE ( 'NONE', ( #845 ), #1071, .F. ) ;
#1330 = LINE ( 'NONE', #384, #732 ) ;
#1331 = DIRECTION ( 'NONE',  ( -0.000000000000000000, 1.000000000000000000, -0.000000000000000000 ) ) ;
#1332 =( GEOMETRIC_REPRESENTATION_CONTEXT ( 3 ) GLOBAL_UNCERTAINTY_ASSIGNED_CONTEXT ( ( #1017 ) ) GLOBAL_UNIT_ASSIGNED_CONTEXT ( ( #242, #259, #353 ) ) REPRESENTATION_CONTEXT ( 'NONE', 'WORKASPACE' ) );
#1333 = DIRECTION ( 'NONE',  ( 1.000000000000000000, 0.000000000000000000, 0.000000000000000000 ) ) ;
#1334 = VERTEX_POINT ( 'NONE', #309 ) ;
#1335 = CARTESIAN_POINT ( 'NONE',  ( -1.125000000000000222, 2.600000000000000089, 2.419999999999999485 ) ) ;
#1336 = PRODUCT ( 'body', 'body', '', ( #578 ) ) ;
#1337 = LINE ( 'NONE', #810, #1321 ) ;
#1338 = LINE ( 'NONE', #513, #913 ) ;
#1339 = EDGE_CURVE ( 'NONE', #575, #1346, #735, .T. ) ;
#1340 = EDGE_LOOP ( 'NONE', ( #464, #1021, #1362, #1124 ) ) ;
#1341 = CARTESIAN_POINT ( 'NONE',  ( -1.750000000000000222, 1.050000000000000044, 1.999999999999999334 ) ) ;
#1342 = VECTOR ( 'NONE', #693, 39.37007874015748143 ) ;
#1343 = ORIENTED_EDGE ( 'NONE', *, *, #153, .T. ) ;
#1344 = CARTESIAN_POINT ( 'NONE',  ( -2.700000000000000178, -0.2999999999999999889, 1.539999999999999591 ) ) ;
#1345 = LINE ( 'NONE', #498, #298 ) ;
#1346 = VERTEX_POINT ( 'NONE', #430 ) ;
#1347 = DIRECTION ( 'NONE',  ( -0.000000000000000000, -0.000000000000000000, 1.000000000000000000 ) ) ;
#1348 = VERTEX_POINT ( 'NONE', #1265 ) ;
#1349 = CARTESIAN_POINT ( 'NONE',  ( -1.750000000000000222, 0.2999999999999999889, 1.699999999999999289 ) ) ;
#1350 = DIRECTION ( 'NONE',  ( -3.414809992080327544E-16, 0.000000000000000000, 1.000000000000000000 ) ) ;
#1351 = CARTESIAN_POINT ( 'NONE',  ( -1.750000000000000222, 0.6750000000000000444, 1.699999999999999289 ) ) ;
#1352 = CARTESIAN_POINT ( 'NONE',  ( -0.5499999999999998224, 3.500000000000000000, 2.419999999999999929 ) ) ;
#1353 = ADVANCED_FACE ( 'NONE', ( #320 ), #741, .F. ) ;
#1354 = DIRECTION ( 'NONE',  ( -0.000000000000000000, -0.000000000000000000, 1.000000000000000000 ) ) ;
#1355 = LINE ( 'NONE', #753, #844 ) ;
#1356 = CARTESIAN_POINT ( 'NONE',  ( -0.5499999999999998224, 3.500000000000000000, 2.919999999999999929 ) ) ;
#1357 = DIRECTION ( 'NONE',  ( 0.000000000000000000, -0.000000000000000000, 1.000000000000000000 ) ) ;
#1358 = VECTOR ( 'NONE', #433, 39.37007874015748143 ) ;
#1359 = AXIS2_PLACEMENT_3D ( 'NONE', #28, #868, #449 ) ;
#1360 = CARTESIAN_POINT ( 'NONE',  ( -2.700000000000000178, -0.1599999999999999756, 2.539999999999999591 ) ) ;
#1361 = CARTESIAN_POINT ( 'NONE',  ( -1.205000000000000071, 1.660000000000000142, 3.500000000000000000 ) ) ;
#1362 = ORIENTED_EDGE ( 'NONE', *, *, #73, .F. ) ;
#1363 = CYLINDRICAL_SURFACE ( 'NONE', #1159, 0.2249999999999999223 ) ;
#1364 = EDGE_LOOP ( 'NONE', ( #1022, #27, #165, #656 ) ) ;
ENDSEC;
END-ISO-10303-21;
