ISO-10303-21;
HEADER;
FILE_DESCRIPTION (( 'STEP AP214' ),
    '1' );
FILE_NAME ('rod.STEP',
    '2026-08-23T20:32:02',
    ( '' ),
    ( '' ),
    'SwSTEP 2.0',
    'SolidWorks 2025',
    '' );
FILE_SCHEMA (( 'AUTOMOTIVE_DESIGN' ));
ENDSEC;

DATA;
#1 = ORIENTED_EDGE ( 'NONE', *, *, #222, .F. ) ;
#2 = EDGE_LOOP ( 'NONE', ( #149, #108, #165, #180 ) ) ;
#3 = PLANE ( 'NONE',  #20 ) ;
#4 = CARTESIAN_POINT ( 'NONE',  ( -0.2999999999999999889, 0.1780707881455284025, 4.500000000000000000 ) ) ;
#5 = VERTEX_POINT ( 'NONE', #25 ) ;
#6 = PRODUCT_RELATED_PRODUCT_CATEGORY ( 'part', '', ( #17 ) ) ;
#7 = ORIENTED_EDGE ( 'NONE', *, *, #134, .F. ) ;
#8 = DIRECTION ( 'NONE',  ( 0.000000000000000000, 0.000000000000000000, 1.000000000000000000 ) ) ;
#9 = DIRECTION ( 'NONE',  ( 1.917669948924792761E-16, -1.000000000000000000, 0.000000000000000000 ) ) ;
#10 = DIRECTION ( 'NONE',  ( -0.8423616336072620170, 0.5389126814489567652, 0.000000000000000000 ) ) ;
#11 = VECTOR ( 'NONE', #258, 39.37007874015748854 ) ;
#12 = DIRECTION ( 'NONE',  ( -0.000000000000000000, -0.000000000000000000, -1.000000000000000000 ) ) ;
#13 = UNCERTAINTY_MEASURE_WITH_UNIT (LENGTH_MEASURE( 1.000000000000000082E-05 ), #101, 'distance_accuracy_value', 'NONE');
#14 = DIRECTION ( 'NONE',  ( 0.8423616336072620170, -0.5389126814489568762, 0.000000000000000000 ) ) ;
#15 = APPLICATION_CONTEXT ( 'automotive_design' ) ;
#16 = DIMENSIONAL_EXPONENTS ( 1.000000000000000000, 0.000000000000000000, 0.000000000000000000, 0.000000000000000000, 0.000000000000000000, 0.000000000000000000, 0.000000000000000000 ) ;
#17 = PRODUCT ( 'rod', 'rod', '', ( #136 ) ) ;
#18 = LINE ( 'NONE', #114, #85 ) ;
#19 = VECTOR ( 'NONE', #75, 39.37007874015748143 ) ;
#20 = AXIS2_PLACEMENT_3D ( 'NONE', #84, #229, #126 ) ;
#21 = CARTESIAN_POINT ( 'NONE',  ( 0.000000000000000000, 0.000000000000000000, 0.000000000000000000 ) ) ;
#22 = EDGE_LOOP ( 'NONE', ( #120, #206, #226, #157, #205, #104 ) ) ;
#23 = VERTEX_POINT ( 'NONE', #146 ) ;
#24 = EDGE_CURVE ( 'NONE', #217, #106, #87, .T. ) ;
#25 = CARTESIAN_POINT ( 'NONE',  ( -0.1499999999999999944, -0.09596460592723576877, 4.500000000000000000 ) ) ;
#26 = VECTOR ( 'NONE', #140, 39.37007874015748143 ) ;
#27 = ADVANCED_FACE ( 'NONE', ( #166 ), #247, .F. ) ;
#28 = CARTESIAN_POINT ( 'NONE',  ( 0.000000000000000000, 0.000000000000000000, 4.500000000000000000 ) ) ;
#29 = VERTEX_POINT ( 'NONE', #109 ) ;
#30 = AXIS2_PLACEMENT_3D ( 'NONE', #4, #230, #228 ) ;
#31 = DIRECTION ( 'NONE',  ( 1.917669948924792761E-16, -1.000000000000000000, 0.000000000000000000 ) ) ;
#32 = FACE_OUTER_BOUND ( 'NONE', #63, .T. ) ;
#33 = DIRECTION ( 'NONE',  ( 1.000000000000000000, 0.000000000000000000, -0.000000000000000000 ) ) ;
#34 = CARTESIAN_POINT ( 'NONE',  ( -0.1499999999999999944, -0.09596460592723576877, 0.000000000000000000 ) ) ;
#35 = ADVANCED_FACE ( 'NONE', ( #186 ), #248, .F. ) ;
#36 = LINE ( 'NONE', #153, #242 ) ;
#37 =( NAMED_UNIT ( * ) PLANE_ANGLE_UNIT ( ) SI_UNIT ( $, .RADIAN. ) );
#38 = ORIENTED_EDGE ( 'NONE', *, *, #66, .F. ) ;
#39 = ORIENTED_EDGE ( 'NONE', *, *, #40, .T. ) ;
#40 = EDGE_CURVE ( 'NONE', #106, #41, #67, .T. ) ;
#41 = VERTEX_POINT ( 'NONE', #231 ) ;
#42 = AXIS2_PLACEMENT_3D ( 'NONE', #249, #189, #171 ) ;
#43 = DIRECTION ( 'NONE',  ( -0.000000000000000000, -0.000000000000000000, -1.000000000000000000 ) ) ;
#44 = ORIENTED_EDGE ( 'NONE', *, *, #79, .F. ) ;
#45 = VECTOR ( 'NONE', #9, 39.37007874015748143 ) ;
#46 = EDGE_LOOP ( 'NONE', ( #244, #163, #7, #137 ) ) ;
#47 = CARTESIAN_POINT ( 'NONE',  ( -0.2999999999999999889, 0.1780707881455284025, 4.500000000000000000 ) ) ;
#48 = ORIENTED_EDGE ( 'NONE', *, *, #89, .F. ) ;
#49 = ADVANCED_FACE ( 'NONE', ( #128 ), #3, .F. ) ;
#50 = DIRECTION ( 'NONE',  ( -0.000000000000000000, -0.000000000000000000, -1.000000000000000000 ) ) ;
#51 = CARTESIAN_POINT ( 'NONE',  ( -0.1499999999999999944, -0.09596460592723576877, 4.500000000000000000 ) ) ;
#52 = EDGE_CURVE ( 'NONE', #5, #141, #162, .T. ) ;
#53 = DIRECTION ( 'NONE',  ( 0.5389126814489567652, -0.8423616336072620170, 0.000000000000000000 ) ) ;
#54 = CARTESIAN_POINT ( 'NONE',  ( 0.000000000000000000, 0.000000000000000000, 4.500000000000000000 ) ) ;
#55 = CARTESIAN_POINT ( 'NONE',  ( -0.2999999999999999889, 0.1780707881455284025, 0.000000000000000000 ) ) ;
#56 =( GEOMETRIC_REPRESENTATION_CONTEXT ( 3 ) GLOBAL_UNCERTAINTY_ASSIGNED_CONTEXT ( ( #113 ) ) GLOBAL_UNIT_ASSIGNED_CONTEXT ( ( #139, #37, #119 ) ) REPRESENTATION_CONTEXT ( 'NONE', 'WORKASPACE' ) );
#57 = LENGTH_MEASURE_WITH_UNIT ( LENGTH_MEASURE( 0.02539999999999999897 ), #58 );
#58 =( LENGTH_UNIT ( ) NAMED_UNIT ( * ) SI_UNIT ( $, .METRE. ) );
#59 = ORIENTED_EDGE ( 'NONE', *, *, #52, .F. ) ;
#60 = EDGE_CURVE ( 'NONE', #23, #183, #145, .T. ) ;
#61 =( NAMED_UNIT ( * ) PLANE_ANGLE_UNIT ( ) SI_UNIT ( $, .RADIAN. ) );
#62 = DIRECTION ( 'NONE',  ( -0.000000000000000000, -0.000000000000000000, -1.000000000000000000 ) ) ;
#63 = EDGE_LOOP ( 'NONE', ( #257, #123, #225, #197 ) ) ;
#64 = VERTEX_POINT ( 'NONE', #122 ) ;
#65 = ORIENTED_EDGE ( 'NONE', *, *, #167, .F. ) ;
#66 = EDGE_CURVE ( 'NONE', #81, #23, #203, .T. ) ;
#67 = LINE ( 'NONE', #148, #130 ) ;
#68 = CARTESIAN_POINT ( 'NONE',  ( -0.2999999999999999334, 5.762491861635555072E-17, 4.500000000000000000 ) ) ;
#69 = AXIS2_PLACEMENT_3D ( 'NONE', #194, #53, #95 ) ;
#70 = DIRECTION ( 'NONE',  ( 0.000000000000000000, 1.000000000000000000, 0.000000000000000000 ) ) ;
#71 = EDGE_CURVE ( 'NONE', #164, #41, #110, .T. ) ;
#72 = LINE ( 'NONE', #235, #196 ) ;
#73 = VECTOR ( 'NONE', #62, 39.37007874015748143 ) ;
#74 = FACE_OUTER_BOUND ( 'NONE', #204, .T. ) ;
#75 = DIRECTION ( 'NONE',  ( 0.8423616336072620170, -0.5389126814489568762, 0.000000000000000000 ) ) ;
#76 = PRODUCT_DEFINITION_SHAPE ( 'NONE', 'NONE',  #125 ) ;
#77 = ORIENTED_EDGE ( 'NONE', *, *, #100, .F. ) ;
#78 = VECTOR ( 'NONE', #193, 39.37007874015748854 ) ;
#79 = EDGE_CURVE ( 'NONE', #81, #64, #18, .T. ) ;
#80 = LINE ( 'NONE', #116, #11 ) ;
#81 = VERTEX_POINT ( 'NONE', #212 ) ;
#82 = DIRECTION ( 'NONE',  ( 0.000000000000000000, 0.000000000000000000, 1.000000000000000000 ) ) ;
#83 = VECTOR ( 'NONE', #259, 39.37007874015748143 ) ;
#84 = CARTESIAN_POINT ( 'NONE',  ( 0.000000000000000000, 0.000000000000000000, 0.000000000000000000 ) ) ;
#85 = VECTOR ( 'NONE', #12, 39.37007874015748143 ) ;
#86 = ORIENTED_EDGE ( 'NONE', *, *, #71, .F. ) ;
#87 = LINE ( 'NONE', #47, #184 ) ;
#88 = PRODUCT_DEFINITION_FORMATION_WITH_SPECIFIED_SOURCE ( 'ANY', '', #17, .NOT_KNOWN. ) ;
#89 = EDGE_CURVE ( 'NONE', #141, #29, #36, .T. ) ;
#90 = VERTEX_POINT ( 'NONE', #91 ) ;
#91 = CARTESIAN_POINT ( 'NONE',  ( 0.000000000000000000, 0.000000000000000000, 4.500000000000000000 ) ) ;
#92 = DIRECTION ( 'NONE',  ( -0.8423616336072620170, 0.5389126814489567652, 0.000000000000000000 ) ) ;
#93 = LINE ( 'NONE', #152, #19 ) ;
#94 = DIRECTION ( 'NONE',  ( -0.8423616336072620170, 0.5389126814489567652, 0.000000000000000000 ) ) ;
#95 = DIRECTION ( 'NONE',  ( 0.8423616336072620170, 0.5389126814489567652, 0.000000000000000000 ) ) ;
#96 = VECTOR ( 'NONE', #10, 39.37007874015748854 ) ;
#97 = AXIS2_PLACEMENT_3D ( 'NONE', #112, #168, #33 ) ;
#98 =( NAMED_UNIT ( * ) SI_UNIT ( $, .STERADIAN. ) SOLID_ANGLE_UNIT ( ) );
#99 = CLOSED_SHELL ( 'NONE', ( #144, #35, #187, #159, #27, #172, #118, #49 ) ) ;
#100 = EDGE_CURVE ( 'NONE', #41, #141, #93, .T. ) ;
#101 =( CONVERSION_BASED_UNIT ( 'INCH', #239 ) LENGTH_UNIT ( ) NAMED_UNIT ( #16 ) );
#102 = ORIENTED_EDGE ( 'NONE', *, *, #60, .F. ) ;
#103 = EDGE_LOOP ( 'NONE', ( #48, #77, #86, #1, #161, #185 ) ) ;
#104 = ORIENTED_EDGE ( 'NONE', *, *, #147, .T. ) ;
#105 = COLOUR_RGB ( '',0.7921568627450980005, 0.8196078431372548767, 0.9333333333333333481 ) ;
#106 = VERTEX_POINT ( 'NONE', #174 ) ;
#107 = DIRECTION ( 'NONE',  ( -0.000000000000000000, -0.000000000000000000, -1.000000000000000000 ) ) ;
#108 = ORIENTED_EDGE ( 'NONE', *, *, #40, .F. ) ;
#109 = CARTESIAN_POINT ( 'NONE',  ( 0.000000000000000000, 0.000000000000000000, 0.000000000000000000 ) ) ;
#110 = LINE ( 'NONE', #210, #45 ) ;
#111 = CARTESIAN_POINT ( 'NONE',  ( 0.000000000000000000, 0.1780707881455284025, 0.000000000000000000 ) ) ;
#112 = CARTESIAN_POINT ( 'NONE',  ( 0.000000000000000000, 0.000000000000000000, 4.500000000000000000 ) ) ;
#113 = UNCERTAINTY_MEASURE_WITH_UNIT (LENGTH_MEASURE( 1.000000000000000082E-05 ), #139, 'distance_accuracy_value', 'NONE');
#114 = CARTESIAN_POINT ( 'NONE',  ( 0.000000000000000000, 0.1780707881455284025, 4.500000000000000000 ) ) ;
#115 = FACE_OUTER_BOUND ( 'NONE', #22, .T. ) ;
#116 = CARTESIAN_POINT ( 'NONE',  ( -0.1499999999999999944, 0.2740353940727642268, 0.000000000000000000 ) ) ;
#117 = MECHANICAL_DESIGN_GEOMETRIC_PRESENTATION_REPRESENTATION (  '', ( #232 ), #170 ) ;
#118 = ADVANCED_FACE ( 'NONE', ( #115 ), #173, .T. ) ;
#119 =( NAMED_UNIT ( * ) SI_UNIT ( $, .STERADIAN. ) SOLID_ANGLE_UNIT ( ) );
#120 = ORIENTED_EDGE ( 'NONE', *, *, #207, .T. ) ;
#121 = EDGE_LOOP ( 'NONE', ( #243, #44, #65, #200 ) ) ;
#122 = CARTESIAN_POINT ( 'NONE',  ( 0.000000000000000000, 0.1780707881455284025, 0.000000000000000000 ) ) ;
#123 = ORIENTED_EDGE ( 'NONE', *, *, #254, .F. ) ;
#124 = VECTOR ( 'NONE', #94, 39.37007874015748854 ) ;
#125 = PRODUCT_DEFINITION ( 'UNKNOWN', '', #88, #211 ) ;
#126 = DIRECTION ( 'NONE',  ( 1.000000000000000000, 0.000000000000000000, -0.000000000000000000 ) ) ;
#127 = ORIENTED_EDGE ( 'NONE', *, *, #100, .T. ) ;
#128 = FACE_OUTER_BOUND ( 'NONE', #103, .T. ) ;
#129 = LINE ( 'NONE', #111, #96 ) ;
#130 = VECTOR ( 'NONE', #107, 39.37007874015748143 ) ;
#131 = DIRECTION ( 'NONE',  ( 0.8423616336072621280, 0.5389126814489566542, 0.000000000000000000 ) ) ;
#132 = CARTESIAN_POINT ( 'NONE',  ( -0.2999999999999999334, 5.762491861635555072E-17, 4.500000000000000000 ) ) ;
#133 = PLANE ( 'NONE',  #181 ) ;
#134 = EDGE_CURVE ( 'NONE', #23, #217, #151, .T. ) ;
#135 = PLANE ( 'NONE',  #191 ) ;
#136 = PRODUCT_CONTEXT ( 'NONE', #246, 'mechanical' ) ;
#137 = ORIENTED_EDGE ( 'NONE', *, *, #60, .T. ) ;
#138 = PRESENTATION_LAYER_ASSIGNMENT (  '', '', ( #232 ) ) ;
#139 =( CONVERSION_BASED_UNIT ( 'INCH', #57 ) LENGTH_UNIT ( ) NAMED_UNIT ( #175 ) );
#140 = DIRECTION ( 'NONE',  ( -0.000000000000000000, -0.000000000000000000, -1.000000000000000000 ) ) ;
#141 = VERTEX_POINT ( 'NONE', #34 ) ;
#142 = EDGE_LOOP ( 'NONE', ( #208, #102, #38, #238 ) ) ;
#143 = PRESENTATION_STYLE_ASSIGNMENT (( #178 ) ) ;
#144 = ADVANCED_FACE ( 'NONE', ( #32 ), #190, .F. ) ;
#145 = LINE ( 'NONE', #227, #218 ) ;
#146 = CARTESIAN_POINT ( 'NONE',  ( -0.1499999999999999944, 0.2740353940727642268, 4.500000000000000000 ) ) ;
#147 = EDGE_CURVE ( 'NONE', #106, #5, #252, .T. ) ;
#148 = CARTESIAN_POINT ( 'NONE',  ( -0.2999999999999999334, 5.762491861635555072E-17, 4.500000000000000000 ) ) ;
#149 = ORIENTED_EDGE ( 'NONE', *, *, #71, .T. ) ;
#150 = DIRECTION ( 'NONE',  ( -1.000000000000000000, 0.000000000000000000, 0.000000000000000000 ) ) ;
#151 = LINE ( 'NONE', #237, #78 ) ;
#152 = CARTESIAN_POINT ( 'NONE',  ( -0.2999999999999999334, 5.762491861635555072E-17, 0.000000000000000000 ) ) ;
#153 = CARTESIAN_POINT ( 'NONE',  ( -0.1499999999999999944, -0.09596460592723576877, 0.000000000000000000 ) ) ;
#154 = EDGE_CURVE ( 'NONE', #29, #64, #72, .T. ) ;
#155 = CARTESIAN_POINT ( 'NONE',  ( -0.1499999999999999944, 0.2740353940727642268, 0.000000000000000000 ) ) ;
#156 = DIRECTION ( 'NONE',  ( 0.5389126814489567652, 0.8423616336072620170, -0.000000000000000000 ) ) ;
#157 = ORIENTED_EDGE ( 'NONE', *, *, #134, .T. ) ;
#158 =( LENGTH_UNIT ( ) NAMED_UNIT ( * ) SI_UNIT ( $, .METRE. ) );
#159 = ADVANCED_FACE ( 'NONE', ( #188 ), #233, .F. ) ;
#160 = CARTESIAN_POINT ( 'NONE',  ( -0.2999999999999999889, 0.1780707881455284025, 4.500000000000000000 ) ) ;
#161 = ORIENTED_EDGE ( 'NONE', *, *, #201, .F. ) ;
#162 = LINE ( 'NONE', #241, #73 ) ;
#163 = ORIENTED_EDGE ( 'NONE', *, *, #192, .F. ) ;
#164 = VERTEX_POINT ( 'NONE', #55 ) ;
#165 = ORIENTED_EDGE ( 'NONE', *, *, #24, .F. ) ;
#166 = FACE_OUTER_BOUND ( 'NONE', #2, .T. ) ;
#167 = EDGE_CURVE ( 'NONE', #90, #81, #251, .T. ) ;
#168 = DIRECTION ( 'NONE',  ( 0.000000000000000000, -0.000000000000000000, 1.000000000000000000 ) ) ;
#169 = LINE ( 'NONE', #51, #83 ) ;
#170 =( GEOMETRIC_REPRESENTATION_CONTEXT ( 3 ) GLOBAL_UNCERTAINTY_ASSIGNED_CONTEXT ( ( #13 ) ) GLOBAL_UNIT_ASSIGNED_CONTEXT ( ( #101, #61, #98 ) ) REPRESENTATION_CONTEXT ( 'NONE', 'WORKASPACE' ) );
#171 = DIRECTION ( 'NONE',  ( -0.8423616336072621280, -0.5389126814489566542, 0.000000000000000000 ) ) ;
#172 = ADVANCED_FACE ( 'NONE', ( #74 ), #135, .F. ) ;
#173 = PLANE ( 'NONE',  #97 ) ;
#174 = CARTESIAN_POINT ( 'NONE',  ( -0.2999999999999999334, 5.762491861635555072E-17, 4.500000000000000000 ) ) ;
#175 = DIMENSIONAL_EXPONENTS ( 1.000000000000000000, 0.000000000000000000, 0.000000000000000000, 0.000000000000000000, 0.000000000000000000, 0.000000000000000000, 0.000000000000000000 ) ;
#176 = DIRECTION ( 'NONE',  ( 1.000000000000000000, 0.000000000000000000, 0.000000000000000000 ) ) ;
#177 = SHAPE_DEFINITION_REPRESENTATION ( #76, #221 ) ;
#178 = SURFACE_STYLE_USAGE ( .BOTH. , #199 ) ;
#179 = FILL_AREA_STYLE_COLOUR ( '', #105 ) ;
#180 = ORIENTED_EDGE ( 'NONE', *, *, #192, .T. ) ;
#181 = AXIS2_PLACEMENT_3D ( 'NONE', #209, #213, #255 ) ;
#182 = CARTESIAN_POINT ( 'NONE',  ( 0.000000000000000000, 0.1780707881455284025, 4.500000000000000000 ) ) ;
#183 = VERTEX_POINT ( 'NONE', #155 ) ;
#184 = VECTOR ( 'NONE', #31, 39.37007874015748143 ) ;
#185 = ORIENTED_EDGE ( 'NONE', *, *, #154, .F. ) ;
#186 = FACE_OUTER_BOUND ( 'NONE', #121, .T. ) ;
#187 = ADVANCED_FACE ( 'NONE', ( #236 ), #133, .F. ) ;
#188 = FACE_OUTER_BOUND ( 'NONE', #46, .T. ) ;
#189 = DIRECTION ( 'NONE',  ( -0.5389126814489566542, 0.8423616336072621280, 0.000000000000000000 ) ) ;
#190 = PLANE ( 'NONE',  #42 ) ;
#191 = AXIS2_PLACEMENT_3D ( 'NONE', #132, #156, #92 ) ;
#192 = EDGE_CURVE ( 'NONE', #217, #164, #234, .T. ) ;
#193 = DIRECTION ( 'NONE',  ( -0.8423616336072620170, -0.5389126814489567652, 0.000000000000000000 ) ) ;
#194 = CARTESIAN_POINT ( 'NONE',  ( -0.1499999999999999944, 0.2740353940727642268, 4.500000000000000000 ) ) ;
#195 = VECTOR ( 'NONE', #14, 39.37007874015748143 ) ;
#196 = VECTOR ( 'NONE', #253, 39.37007874015748143 ) ;
#197 = ORIENTED_EDGE ( 'NONE', *, *, #52, .T. ) ;
#198 = APPLICATION_PROTOCOL_DEFINITION ( 'draft international standard', 'automotive_design', 1998, #15 ) ;
#199 = SURFACE_SIDE_STYLE ('',( #215 ) ) ;
#200 = ORIENTED_EDGE ( 'NONE', *, *, #254, .T. ) ;
#201 = EDGE_CURVE ( 'NONE', #64, #183, #129, .T. ) ;
#202 = ORIENTED_EDGE ( 'NONE', *, *, #147, .F. ) ;
#203 = LINE ( 'NONE', #182, #124 ) ;
#204 = EDGE_LOOP ( 'NONE', ( #127, #59, #202, #39 ) ) ;
#205 = ORIENTED_EDGE ( 'NONE', *, *, #24, .T. ) ;
#206 = ORIENTED_EDGE ( 'NONE', *, *, #167, .T. ) ;
#207 = EDGE_CURVE ( 'NONE', #5, #90, #169, .T. ) ;
#208 = ORIENTED_EDGE ( 'NONE', *, *, #201, .T. ) ;
#209 = CARTESIAN_POINT ( 'NONE',  ( 0.000000000000000000, 0.1780707881455284025, 4.500000000000000000 ) ) ;
#210 = CARTESIAN_POINT ( 'NONE',  ( -0.2999999999999999889, 0.1780707881455284025, 0.000000000000000000 ) ) ;
#211 = PRODUCT_DEFINITION_CONTEXT ( 'detailed design', #15, 'design' ) ;
#212 = CARTESIAN_POINT ( 'NONE',  ( 0.000000000000000000, 0.1780707881455284025, 4.500000000000000000 ) ) ;
#213 = DIRECTION ( 'NONE',  ( -0.5389126814489567652, -0.8423616336072620170, 0.000000000000000000 ) ) ;
#214 = CARTESIAN_POINT ( 'NONE',  ( -0.2999999999999999889, 0.1780707881455284025, 4.500000000000000000 ) ) ;
#215 = SURFACE_STYLE_FILL_AREA ( #220 ) ;
#216 = VECTOR ( 'NONE', #50, 39.37007874015748143 ) ;
#217 = VERTEX_POINT ( 'NONE', #160 ) ;
#218 = VECTOR ( 'NONE', #43, 39.37007874015748143 ) ;
#219 = MANIFOLD_SOLID_BREP ( 'Boss-Extrude1', #99 ) ;
#220 = FILL_AREA_STYLE ('',( #179 ) ) ;
#221 = ADVANCED_BREP_SHAPE_REPRESENTATION ( 'rod', ( #219, #245 ), #56 ) ;
#222 = EDGE_CURVE ( 'NONE', #183, #164, #80, .T. ) ;
#223 = CARTESIAN_POINT ( 'NONE',  ( 0.000000000000000000, 0.000000000000000000, 4.500000000000000000 ) ) ;
#224 = AXIS2_PLACEMENT_3D ( 'NONE', #28, #150, #8 ) ;
#225 = ORIENTED_EDGE ( 'NONE', *, *, #207, .F. ) ;
#226 = ORIENTED_EDGE ( 'NONE', *, *, #66, .T. ) ;
#227 = CARTESIAN_POINT ( 'NONE',  ( -0.1499999999999999944, 0.2740353940727642268, 4.500000000000000000 ) ) ;
#228 = DIRECTION ( 'NONE',  ( -1.917669948924792761E-16, 1.000000000000000000, 0.000000000000000000 ) ) ;
#229 = DIRECTION ( 'NONE',  ( 0.000000000000000000, -0.000000000000000000, 1.000000000000000000 ) ) ;
#230 = DIRECTION ( 'NONE',  ( 1.000000000000000000, 1.917669948924792761E-16, -0.000000000000000000 ) ) ;
#231 = CARTESIAN_POINT ( 'NONE',  ( -0.2999999999999999334, 5.762491861635555072E-17, 0.000000000000000000 ) ) ;
#232 = STYLED_ITEM ( 'NONE', ( #143 ), #219 ) ;
#233 = PLANE ( 'NONE',  #69 ) ;
#234 = LINE ( 'NONE', #214, #216 ) ;
#235 = CARTESIAN_POINT ( 'NONE',  ( 0.000000000000000000, 0.000000000000000000, 0.000000000000000000 ) ) ;
#236 = FACE_OUTER_BOUND ( 'NONE', #142, .T. ) ;
#237 = CARTESIAN_POINT ( 'NONE',  ( -0.1499999999999999944, 0.2740353940727642268, 4.500000000000000000 ) ) ;
#238 = ORIENTED_EDGE ( 'NONE', *, *, #79, .T. ) ;
#239 = LENGTH_MEASURE_WITH_UNIT ( LENGTH_MEASURE( 0.02539999999999999897 ), #158 );
#240 = LINE ( 'NONE', #223, #26 ) ;
#241 = CARTESIAN_POINT ( 'NONE',  ( -0.1499999999999999944, -0.09596460592723576877, 4.500000000000000000 ) ) ;
#242 = VECTOR ( 'NONE', #131, 39.37007874015748143 ) ;
#243 = ORIENTED_EDGE ( 'NONE', *, *, #154, .T. ) ;
#244 = ORIENTED_EDGE ( 'NONE', *, *, #222, .T. ) ;
#245 = AXIS2_PLACEMENT_3D ( 'NONE', #21, #82, #176 ) ;
#246 = APPLICATION_CONTEXT ( 'automotive_design' ) ;
#247 = PLANE ( 'NONE',  #30 ) ;
#248 = PLANE ( 'NONE',  #224 ) ;
#249 = CARTESIAN_POINT ( 'NONE',  ( -0.1499999999999999944, -0.09596460592723576877, 4.500000000000000000 ) ) ;
#250 = VECTOR ( 'NONE', #70, 39.37007874015748143 ) ;
#251 = LINE ( 'NONE', #54, #250 ) ;
#252 = LINE ( 'NONE', #68, #195 ) ;
#253 = DIRECTION ( 'NONE',  ( 0.000000000000000000, 1.000000000000000000, 0.000000000000000000 ) ) ;
#254 = EDGE_CURVE ( 'NONE', #90, #29, #240, .T. ) ;
#255 = DIRECTION ( 'NONE',  ( 0.8423616336072620170, -0.5389126814489567652, 0.000000000000000000 ) ) ;
#256 = APPLICATION_PROTOCOL_DEFINITION ( 'draft international standard', 'automotive_design', 1998, #246 ) ;
#257 = ORIENTED_EDGE ( 'NONE', *, *, #89, .T. ) ;
#258 = DIRECTION ( 'NONE',  ( -0.8423616336072620170, -0.5389126814489567652, 0.000000000000000000 ) ) ;
#259 = DIRECTION ( 'NONE',  ( 0.8423616336072621280, 0.5389126814489566542, 0.000000000000000000 ) ) ;
ENDSEC;
END-ISO-10303-21;
