ISO-10303-21;
HEADER;
FILE_DESCRIPTION (( 'STEP AP214' ),
    '1' );
FILE_NAME ('top mount.STEP',
    '2026-08-23T23:10:39',
    ( '' ),
    ( '' ),
    'SwSTEP 2.0',
    'SolidWorks 2025',
    '' );
FILE_SCHEMA (( 'AUTOMOTIVE_DESIGN' ));
ENDSEC;

DATA;
#1 = CARTESIAN_POINT ( 'NONE',  ( 0.000000000000000000, 0.2200000000000000011, 1.199999999999999956 ) ) ;
#2 = ORIENTED_EDGE ( 'NONE', *, *, #479, .F. ) ;
#3 = VECTOR ( 'NONE', #8, 39.37007874015748143 ) ;
#4 = CARTESIAN_POINT ( 'NONE',  ( 0.000000000000000000, 2.700000000000000178, 0.2000000000000000111 ) ) ;
#5 = EDGE_CURVE ( 'NONE', #484, #74, #307, .T. ) ;
#6 = CARTESIAN_POINT ( 'NONE',  ( -1.709999999999999964, 0.000000000000000000, 0.2000000000000000111 ) ) ;
#7 = PRESENTATION_STYLE_ASSIGNMENT (( #471 ) ) ;
#8 = DIRECTION ( 'NONE',  ( -1.000000000000000000, -0.000000000000000000, -0.000000000000000000 ) ) ;
#9 = VERTEX_POINT ( 'NONE', #178 ) ;
#10 = CARTESIAN_POINT ( 'NONE',  ( 0.000000000000000000, 0.000000000000000000, 1.199999999999999956 ) ) ;
#11 = CARTESIAN_POINT ( 'NONE',  ( 0.000000000000000000, 2.280000000000000249, 1.199999999999999956 ) ) ;
#12 = ORIENTED_EDGE ( 'NONE', *, *, #436, .F. ) ;
#13 = ADVANCED_FACE ( 'NONE', ( #494 ), #315, .F. ) ;
#14 = LENGTH_MEASURE_WITH_UNIT ( LENGTH_MEASURE( 0.02539999999999999897 ), #412 );
#15 = CARTESIAN_POINT ( 'NONE',  ( -0.04000000000000052819, 1.474999999999999867, 0.2000000000000000111 ) ) ;
#16 = APPLICATION_CONTEXT ( 'automotive_design' ) ;
#17 =( CONVERSION_BASED_UNIT ( 'INCH', #30 ) LENGTH_UNIT ( ) NAMED_UNIT ( #256 ) );
#18 = CARTESIAN_POINT ( 'NONE',  ( -1.039999999999999591, 1.225000000000000089, 0.2000000000000000111 ) ) ;
#19 = VECTOR ( 'NONE', #488, 39.37007874015748143 ) ;
#20 = VECTOR ( 'NONE', #50, 39.37007874015748143 ) ;
#21 = EDGE_CURVE ( 'NONE', #392, #114, #310, .T. ) ;
#22 = LINE ( 'NONE', #440, #344 ) ;
#23 = ORIENTED_EDGE ( 'NONE', *, *, #340, .T. ) ;
#24 = LINE ( 'NONE', #263, #460 ) ;
#25 = ORIENTED_EDGE ( 'NONE', *, *, #266, .T. ) ;
#26 = CARTESIAN_POINT ( 'NONE',  ( 0.000000000000000000, 0.4200000000000000400, 0.2000000000000000111 ) ) ;
#27 = LINE ( 'NONE', #151, #331 ) ;
#28 = ORIENTED_EDGE ( 'NONE', *, *, #366, .F. ) ;
#29 = VECTOR ( 'NONE', #169, 39.37007874015748143 ) ;
#30 = LENGTH_MEASURE_WITH_UNIT ( LENGTH_MEASURE( 0.02539999999999999897 ), #519 );
#31 = DIRECTION ( 'NONE',  ( 0.000000000000000000, 1.000000000000000000, 0.000000000000000000 ) ) ;
#32 = ORIENTED_EDGE ( 'NONE', *, *, #455, .F. ) ;
#33 = ADVANCED_FACE ( 'NONE', ( #451 ), #40, .F. ) ;
#34 = DIRECTION ( 'NONE',  ( -1.000000000000000000, 0.000000000000000000, 0.000000000000000000 ) ) ;
#35 = EDGE_LOOP ( 'NONE', ( #107, #478, #530, #77 ) ) ;
#36 = CARTESIAN_POINT ( 'NONE',  ( -1.709999999999999964, 0.000000000000000000, 0.2000000000000000111 ) ) ;
#37 = ORIENTED_EDGE ( 'NONE', *, *, #174, .T. ) ;
#38 = CARTESIAN_POINT ( 'NONE',  ( -1.039999999999999591, 1.474999999999999867, 1.680000000000000160 ) ) ;
#39 = EDGE_CURVE ( 'NONE', #352, #453, #224, .T. ) ;
#40 = PLANE ( 'NONE',  #268 ) ;
#41 = FACE_OUTER_BOUND ( 'NONE', #489, .T. ) ;
#42 = DIRECTION ( 'NONE',  ( 0.000000000000000000, 1.000000000000000000, -0.000000000000000000 ) ) ;
#43 = DIRECTION ( 'NONE',  ( 0.000000000000000000, 0.000000000000000000, -1.000000000000000000 ) ) ;
#44 = EDGE_LOOP ( 'NONE', ( #291, #2, #569, #234 ) ) ;
#45 = CARTESIAN_POINT ( 'NONE',  ( 0.000000000000000000, 0.000000000000000000, 0.2000000000000000111 ) ) ;
#46 = ADVANCED_FACE ( 'NONE', ( #599 ), #272, .F. ) ;
#47 = DIRECTION ( 'NONE',  ( -1.000000000000000000, 0.000000000000000000, -0.000000000000000000 ) ) ;
#48 = PLANE ( 'NONE',  #321 ) ;
#49 = VERTEX_POINT ( 'NONE', #280 ) ;
#50 = DIRECTION ( 'NONE',  ( -1.000000000000000000, 0.000000000000000000, 0.000000000000000000 ) ) ;
#51 = CARTESIAN_POINT ( 'NONE',  ( 0.000000000000000000, 0.000000000000000000, 0.000000000000000000 ) ) ;
#52 = DIRECTION ( 'NONE',  ( 0.000000000000000000, 0.000000000000000000, -1.000000000000000000 ) ) ;
#53 = CARTESIAN_POINT ( 'NONE',  ( 0.000000000000000000, 0.2200000000000000011, 1.199999999999999956 ) ) ;
#54 = EDGE_CURVE ( 'NONE', #441, #298, #551, .T. ) ;
#55 = DIRECTION ( 'NONE',  ( -1.000000000000000000, 0.000000000000000000, 0.000000000000000000 ) ) ;
#56 = LINE ( 'NONE', #53, #407 ) ;
#57 = ORIENTED_EDGE ( 'NONE', *, *, #567, .F. ) ;
#58 = LINE ( 'NONE', #159, #355 ) ;
#59 = LINE ( 'NONE', #275, #513 ) ;
#60 = DIRECTION ( 'NONE',  ( 1.000000000000000000, 0.000000000000000000, 0.000000000000000000 ) ) ;
#61 = LINE ( 'NONE', #253, #181 ) ;
#62 = ORIENTED_EDGE ( 'NONE', *, *, #328, .F. ) ;
#63 = DIRECTION ( 'NONE',  ( 0.000000000000000000, 0.000000000000000000, -1.000000000000000000 ) ) ;
#64 = ORIENTED_EDGE ( 'NONE', *, *, #5, .T. ) ;
#65 = LINE ( 'NONE', #293, #429 ) ;
#66 = LINE ( 'NONE', #243, #525 ) ;
#67 = EDGE_LOOP ( 'NONE', ( #437, #71, #541, #524 ) ) ;
#68 =( NAMED_UNIT ( * ) SI_UNIT ( $, .STERADIAN. ) SOLID_ANGLE_UNIT ( ) );
#69 = CARTESIAN_POINT ( 'NONE',  ( -1.709999999999999964, 2.480000000000000426, 1.199999999999999956 ) ) ;
#70 = ADVANCED_FACE ( 'NONE', ( #503 ), #422, .F. ) ;
#71 = ORIENTED_EDGE ( 'NONE', *, *, #504, .F. ) ;
#72 = VECTOR ( 'NONE', #550, 39.37007874015748143 ) ;
#73 = DIRECTION ( 'NONE',  ( 0.000000000000000000, -1.000000000000000000, 0.000000000000000000 ) ) ;
#74 = VERTEX_POINT ( 'NONE', #469 ) ;
#75 = FACE_OUTER_BOUND ( 'NONE', #289, .T. ) ;
#76 = VECTOR ( 'NONE', #144, 39.37007874015748143 ) ;
#77 = ORIENTED_EDGE ( 'NONE', *, *, #479, .T. ) ;
#78 = EDGE_CURVE ( 'NONE', #367, #428, #195, .T. ) ;
#79 = LINE ( 'NONE', #105, #130 ) ;
#80 = CARTESIAN_POINT ( 'NONE',  ( -1.039999999999999591, 1.225000000000000089, 0.2000000000000000111 ) ) ;
#81 = VECTOR ( 'NONE', #324, 39.37007874015748143 ) ;
#82 = PRODUCT_RELATED_PRODUCT_CATEGORY ( 'part', '', ( #308 ) ) ;
#83 = CARTESIAN_POINT ( 'NONE',  ( -1.709999999999999964, 0.000000000000000000, 0.000000000000000000 ) ) ;
#84 = DIRECTION ( 'NONE',  ( -1.000000000000000000, -9.984824538246576804E-17, 0.000000000000000000 ) ) ;
#85 = PLANE ( 'NONE',  #459 ) ;
#86 = AXIS2_PLACEMENT_3D ( 'NONE', #45, #103, #183 ) ;
#87 = VERTEX_POINT ( 'NONE', #15 ) ;
#88 = CARTESIAN_POINT ( 'NONE',  ( -1.039999999999999591, 1.474999999999999867, 1.680000000000000160 ) ) ;
#89 = DIRECTION ( 'NONE',  ( -1.000000000000000000, -0.000000000000000000, -0.000000000000000000 ) ) ;
#90 = EDGE_CURVE ( 'NONE', #484, #518, #284, .T. ) ;
#91 = FACE_OUTER_BOUND ( 'NONE', #161, .T. ) ;
#92 =( GEOMETRIC_REPRESENTATION_CONTEXT ( 3 ) GLOBAL_UNCERTAINTY_ASSIGNED_CONTEXT ( ( #522 ) ) GLOBAL_UNIT_ASSIGNED_CONTEXT ( ( #371, #283, #323 ) ) REPRESENTATION_CONTEXT ( 'NONE', 'WORKASPACE' ) );
#93 = CARTESIAN_POINT ( 'NONE',  ( -1.709999999999999964, 0.4200000000000000400, 0.2000000000000000111 ) ) ;
#94 = VECTOR ( 'NONE', #248, 39.37007874015748143 ) ;
#95 = DIRECTION ( 'NONE',  ( -0.000000000000000000, -0.000000000000000000, -1.000000000000000000 ) ) ;
#96 = CARTESIAN_POINT ( 'NONE',  ( -1.709999999999999964, 2.480000000000000426, 1.199999999999999956 ) ) ;
#97 = EDGE_CURVE ( 'NONE', #295, #446, #424, .T. ) ;
#98 = CARTESIAN_POINT ( 'NONE',  ( 0.000000000000000000, 0.000000000000000000, 0.2000000000000000111 ) ) ;
#99 = DIRECTION ( 'NONE',  ( 1.000000000000000000, 9.984824538246578037E-17, 0.000000000000000000 ) ) ;
#100 = VERTEX_POINT ( 'NONE', #93 ) ;
#101 = LINE ( 'NONE', #377, #566 ) ;
#102 = VECTOR ( 'NONE', #583, 39.37007874015748143 ) ;
#103 = DIRECTION ( 'NONE',  ( 0.000000000000000000, 0.000000000000000000, -1.000000000000000000 ) ) ;
#104 = ORIENTED_EDGE ( 'NONE', *, *, #526, .T. ) ;
#105 = CARTESIAN_POINT ( 'NONE',  ( 0.000000000000000000, 2.700000000000000178, 0.000000000000000000 ) ) ;
#106 = CARTESIAN_POINT ( 'NONE',  ( -1.709999999999999964, 0.000000000000000000, 0.2000000000000000111 ) ) ;
#107 = ORIENTED_EDGE ( 'NONE', *, *, #225, .T. ) ;
#108 = CARTESIAN_POINT ( 'NONE',  ( -1.709999999999999964, 2.280000000000000249, 1.199999999999999956 ) ) ;
#109 = EDGE_CURVE ( 'NONE', #352, #87, #378, .T. ) ;
#110 = DIRECTION ( 'NONE',  ( 0.000000000000000000, 1.000000000000000000, 0.000000000000000000 ) ) ;
#111 = ORIENTED_EDGE ( 'NONE', *, *, #78, .T. ) ;
#112 = CARTESIAN_POINT ( 'NONE',  ( -1.709999999999999964, 0.000000000000000000, 0.2000000000000000111 ) ) ;
#113 = DIRECTION ( 'NONE',  ( 0.000000000000000000, -0.000000000000000000, -1.000000000000000000 ) ) ;
#114 = VERTEX_POINT ( 'NONE', #18 ) ;
#115 = LINE ( 'NONE', #238, #94 ) ;
#116 = EDGE_CURVE ( 'NONE', #543, #255, #143, .T. ) ;
#117 = CARTESIAN_POINT ( 'NONE',  ( 0.000000000000000000, 2.700000000000000178, 0.000000000000000000 ) ) ;
#118 = ORIENTED_EDGE ( 'NONE', *, *, #259, .F. ) ;
#119 = CARTESIAN_POINT ( 'NONE',  ( -1.709999999999999964, 2.480000000000000426, 0.2000000000000000111 ) ) ;
#120 = ORIENTED_EDGE ( 'NONE', *, *, #97, .T. ) ;
#121 = COLOUR_RGB ( '',0.7921568627450980005, 0.8196078431372548767, 0.9333333333333333481 ) ;
#122 = AXIS2_PLACEMENT_3D ( 'NONE', #108, #531, #575 ) ;
#123 = FACE_OUTER_BOUND ( 'NONE', #475, .T. ) ;
#124 = ORIENTED_EDGE ( 'NONE', *, *, #544, .F. ) ;
#125 = EDGE_CURVE ( 'NONE', #49, #185, #512, .T. ) ;
#126 = FILL_AREA_STYLE ('',( #171 ) ) ;
#127 = DIRECTION ( 'NONE',  ( -0.000000000000000000, -0.000000000000000000, -1.000000000000000000 ) ) ;
#128 = CARTESIAN_POINT ( 'NONE',  ( -1.709999999999999964, 0.4200000000000000400, 1.199999999999999956 ) ) ;
#129 = ORIENTED_EDGE ( 'NONE', *, *, #202, .F. ) ;
#130 = VECTOR ( 'NONE', #55, 39.37007874015748143 ) ;
#131 = DIRECTION ( 'NONE',  ( 0.000000000000000000, 0.000000000000000000, -1.000000000000000000 ) ) ;
#132 = CARTESIAN_POINT ( 'NONE',  ( 0.000000000000000000, 0.000000000000000000, 0.2000000000000000111 ) ) ;
#133 = DIRECTION ( 'NONE',  ( -1.000000000000000000, 0.000000000000000000, -0.000000000000000000 ) ) ;
#134 = EDGE_CURVE ( 'NONE', #453, #397, #59, .T. ) ;
#135 = ORIENTED_EDGE ( 'NONE', *, *, #174, .F. ) ;
#136 = DIRECTION ( 'NONE',  ( 0.000000000000000000, 0.000000000000000000, -1.000000000000000000 ) ) ;
#137 = CARTESIAN_POINT ( 'NONE',  ( -1.709999999999999964, 2.480000000000000426, 0.2000000000000000111 ) ) ;
#138 = CARTESIAN_POINT ( 'NONE',  ( 0.000000000000000000, 0.2200000000000000011, 0.2000000000000000111 ) ) ;
#139 = CARTESIAN_POINT ( 'NONE',  ( 0.000000000000000000, 2.700000000000000178, 0.2000000000000000111 ) ) ;
#140 = ORIENTED_EDGE ( 'NONE', *, *, #436, .T. ) ;
#141 = EDGE_CURVE ( 'NONE', #87, #392, #554, .T. ) ;
#142 = FACE_OUTER_BOUND ( 'NONE', #262, .T. ) ;
#143 = LINE ( 'NONE', #335, #533 ) ;
#144 = DIRECTION ( 'NONE',  ( 0.000000000000000000, 1.000000000000000000, 0.000000000000000000 ) ) ;
#145 = EDGE_LOOP ( 'NONE', ( #342, #286, #576, #481 ) ) ;
#146 = CARTESIAN_POINT ( 'NONE',  ( 0.000000000000000000, 0.000000000000000000, 0.2000000000000000111 ) ) ;
#147 = VECTOR ( 'NONE', #388, 39.37007874015748143 ) ;
#148 = VECTOR ( 'NONE', #219, 39.37007874015748143 ) ;
#149 = DIRECTION ( 'NONE',  ( -0.000000000000000000, -0.000000000000000000, -1.000000000000000000 ) ) ;
#150 = ORIENTED_EDGE ( 'NONE', *, *, #259, .T. ) ;
#151 = CARTESIAN_POINT ( 'NONE',  ( -0.04000000000000052819, 1.225000000000000089, 0.2000000000000000111 ) ) ;
#152 = ADVANCED_FACE ( 'NONE', ( #557 ), #48, .T. ) ;
#153 = FACE_BOUND ( 'NONE', #356, .T. ) ;
#154 = VERTEX_POINT ( 'NONE', #11 ) ;
#155 = PLANE ( 'NONE',  #448 ) ;
#156 = AXIS2_PLACEMENT_3D ( 'NONE', #480, #63, #246 ) ;
#157 = ORIENTED_EDGE ( 'NONE', *, *, #292, .T. ) ;
#158 = EDGE_CURVE ( 'NONE', #400, #589, #326, .T. ) ;
#159 = CARTESIAN_POINT ( 'NONE',  ( -1.709999999999999964, 2.480000000000000426, 1.199999999999999956 ) ) ;
#160 = DIRECTION ( 'NONE',  ( 1.000000000000000000, -0.000000000000000000, -0.000000000000000000 ) ) ;
#161 = EDGE_LOOP ( 'NONE', ( #213, #432, #458, #373 ) ) ;
#162 = CARTESIAN_POINT ( 'NONE',  ( -1.709999999999999964, 2.280000000000000249, 1.199999999999999956 ) ) ;
#163 = ORIENTED_EDGE ( 'NONE', *, *, #184, .F. ) ;
#164 = CARTESIAN_POINT ( 'NONE',  ( 0.000000000000000000, 0.000000000000000000, 1.199999999999999956 ) ) ;
#165 = ORIENTED_EDGE ( 'NONE', *, *, #180, .F. ) ;
#166 = AXIS2_PLACEMENT_3D ( 'NONE', #10, #136, #368 ) ;
#167 = DIRECTION ( 'NONE',  ( 0.000000000000000000, 0.000000000000000000, -1.000000000000000000 ) ) ;
#168 = ORIENTED_EDGE ( 'NONE', *, *, #192, .T. ) ;
#169 = DIRECTION ( 'NONE',  ( -1.000000000000000000, -0.000000000000000000, -0.000000000000000000 ) ) ;
#170 = ORIENTED_EDGE ( 'NONE', *, *, #464, .F. ) ;
#171 = FILL_AREA_STYLE_COLOUR ( '', #121 ) ;
#172 = ORIENTED_EDGE ( 'NONE', *, *, #125, .F. ) ;
#173 = VECTOR ( 'NONE', #182, 39.37007874015748143 ) ;
#174 = EDGE_CURVE ( 'NONE', #200, #367, #415, .T. ) ;
#175 = FACE_OUTER_BOUND ( 'NONE', #145, .T. ) ;
#176 = ORIENTED_EDGE ( 'NONE', *, *, #21, .F. ) ;
#177 = DIRECTION ( 'NONE',  ( -0.000000000000000000, -0.000000000000000000, -1.000000000000000000 ) ) ;
#178 = CARTESIAN_POINT ( 'NONE',  ( 0.000000000000000000, 0.2200000000000000011, 1.199999999999999956 ) ) ;
#179 = DIRECTION ( 'NONE',  ( -0.000000000000000000, -1.000000000000000000, -0.000000000000000000 ) ) ;
#180 = EDGE_CURVE ( 'NONE', #592, #258, #369, .T. ) ;
#181 = VECTOR ( 'NONE', #529, 39.37007874015748143 ) ;
#182 = DIRECTION ( 'NONE',  ( -0.000000000000000000, -0.000000000000000000, -1.000000000000000000 ) ) ;
#183 = DIRECTION ( 'NONE',  ( -1.000000000000000000, 0.000000000000000000, -0.000000000000000000 ) ) ;
#184 = EDGE_CURVE ( 'NONE', #9, #400, #56, .T. ) ;
#185 = VERTEX_POINT ( 'NONE', #466 ) ;
#186 = CARTESIAN_POINT ( 'NONE',  ( 0.000000000000000000, 0.000000000000000000, 0.2000000000000000111 ) ) ;
#187 = LINE ( 'NONE', #472, #370 ) ;
#188 = ORIENTED_EDGE ( 'NONE', *, *, #350, .F. ) ;
#189 = LINE ( 'NONE', #333, #534 ) ;
#190 = DIRECTION ( 'NONE',  ( -1.000000000000000000, -0.000000000000000000, -0.000000000000000000 ) ) ;
#191 = EDGE_LOOP ( 'NONE', ( #220, #247, #463, #140 ) ) ;
#192 = EDGE_CURVE ( 'NONE', #255, #9, #231, .T. ) ;
#193 = APPLICATION_PROTOCOL_DEFINITION ( 'draft international standard', 'automotive_design', 1998, #16 ) ;
#194 = VECTOR ( 'NONE', #318, 39.37007874015748143 ) ;
#195 = LINE ( 'NONE', #106, #591 ) ;
#196 = EDGE_LOOP ( 'NONE', ( #405, #118, #57, #365 ) ) ;
#197 = AXIS2_PLACEMENT_3D ( 'NONE', #442, #34, #433 ) ;
#198 = DIRECTION ( 'NONE',  ( -0.000000000000000000, -0.000000000000000000, -1.000000000000000000 ) ) ;
#199 = DIRECTION ( 'NONE',  ( 0.000000000000000000, -0.000000000000000000, -1.000000000000000000 ) ) ;
#200 = VERTEX_POINT ( 'NONE', #233 ) ;
#201 = CARTESIAN_POINT ( 'NONE',  ( -1.709999999999999964, 2.700000000000000178, 0.2000000000000000111 ) ) ;
#202 = EDGE_CURVE ( 'NONE', #441, #592, #187, .T. ) ;
#203 = ORIENTED_EDGE ( 'NONE', *, *, #350, .T. ) ;
#204 = PLANE ( 'NONE',  #122 ) ;
#205 = VECTOR ( 'NONE', #542, 39.37007874015748143 ) ;
#206 = ORIENTED_EDGE ( 'NONE', *, *, #482, .F. ) ;
#207 = CARTESIAN_POINT ( 'NONE',  ( -1.709999999999999964, 2.700000000000000178, 0.000000000000000000 ) ) ;
#208 = ORIENTED_EDGE ( 'NONE', *, *, #430, .F. ) ;
#209 = DIRECTION ( 'NONE',  ( -0.000000000000000000, -0.000000000000000000, -1.000000000000000000 ) ) ;
#210 = ORIENTED_EDGE ( 'NONE', *, *, #285, .T. ) ;
#211 = ADVANCED_FACE ( 'NONE', ( #250 ), #155, .F. ) ;
#212 = DIRECTION ( 'NONE',  ( 0.000000000000000000, -0.000000000000000000, -1.000000000000000000 ) ) ;
#213 = ORIENTED_EDGE ( 'NONE', *, *, #54, .F. ) ;
#214 = PLANE ( 'NONE',  #282 ) ;
#215 = EDGE_LOOP ( 'NONE', ( #157, #395, #124, #111 ) ) ;
#216 = CARTESIAN_POINT ( 'NONE',  ( -1.039999999999999591, 1.474999999999999867, 1.680000000000000160 ) ) ;
#217 = EDGE_LOOP ( 'NONE', ( #23, #165, #129, #188, #208, #267, #507, #236, #163, #581, #419, #64 ) ) ;
#218 = ADVANCED_FACE ( 'NONE', ( #347 ), #302, .F. ) ;
#219 = DIRECTION ( 'NONE',  ( 0.000000000000000000, 1.000000000000000000, 0.000000000000000000 ) ) ;
#220 = ORIENTED_EDGE ( 'NONE', *, *, #125, .T. ) ;
#221 = VECTOR ( 'NONE', #376, 39.37007874015748143 ) ;
#222 = STYLED_ITEM ( 'NONE', ( #7 ), #454 ) ;
#223 = LINE ( 'NONE', #1, #380 ) ;
#224 = LINE ( 'NONE', #270, #349 ) ;
#225 = EDGE_CURVE ( 'NONE', #578, #87, #27, .T. ) ;
#226 = LINE ( 'NONE', #4, #20 ) ;
#227 = VECTOR ( 'NONE', #127, 39.37007874015748143 ) ;
#228 = DIRECTION ( 'NONE',  ( -1.000000000000000000, 0.000000000000000000, -0.000000000000000000 ) ) ;
#229 = SURFACE_SIDE_STYLE ('',( #452 ) ) ;
#230 = PRODUCT_DEFINITION ( 'UNKNOWN', '', #334, #287 ) ;
#231 = LINE ( 'NONE', #235, #585 ) ;
#232 = ORIENTED_EDGE ( 'NONE', *, *, #582, .T. ) ;
#233 = CARTESIAN_POINT ( 'NONE',  ( -1.709999999999999964, 0.2199999999999999178, 0.2000000000000000111 ) ) ;
#234 = ORIENTED_EDGE ( 'NONE', *, *, #359, .T. ) ;
#235 = CARTESIAN_POINT ( 'NONE',  ( -1.709999999999999964, 0.2199999999999998346, 1.199999999999999956 ) ) ;
#236 = ORIENTED_EDGE ( 'NONE', *, *, #158, .F. ) ;
#237 = EDGE_CURVE ( 'NONE', #379, #298, #61, .T. ) ;
#238 = CARTESIAN_POINT ( 'NONE',  ( 0.000000000000000000, 2.280000000000000249, 1.199999999999999956 ) ) ;
#239 = CARTESIAN_POINT ( 'NONE',  ( -1.039999999999999591, 1.474999999999999867, 0.2000000000000000111 ) ) ;
#240 = ORIENTED_EDGE ( 'NONE', *, *, #192, .F. ) ;
#241 = DIRECTION ( 'NONE',  ( -0.000000000000000000, -1.000000000000000000, -0.000000000000000000 ) ) ;
#242 = VECTOR ( 'NONE', #241, 39.37007874015748143 ) ;
#243 = CARTESIAN_POINT ( 'NONE',  ( -1.709999999999999964, 0.2199999999999998346, 0.2000000000000000111 ) ) ;
#244 = VERTEX_POINT ( 'NONE', #207 ) ;
#245 = EDGE_CURVE ( 'NONE', #346, #352, #577, .T. ) ;
#246 = DIRECTION ( 'NONE',  ( -1.000000000000000000, 0.000000000000000000, -0.000000000000000000 ) ) ;
#247 = ORIENTED_EDGE ( 'NONE', *, *, #593, .F. ) ;
#248 = DIRECTION ( 'NONE',  ( -0.000000000000000000, -0.000000000000000000, -1.000000000000000000 ) ) ;
#249 = UNCERTAINTY_MEASURE_WITH_UNIT (LENGTH_MEASURE( 1.000000000000000082E-05 ), #17, 'distance_accuracy_value', 'NONE');
#250 = FACE_OUTER_BOUND ( 'NONE', #44, .T. ) ;
#251 = EDGE_LOOP ( 'NONE', ( #423, #104, #573, #511 ) ) ;
#252 = PRODUCT_CONTEXT ( 'NONE', #354, 'mechanical' ) ;
#253 = CARTESIAN_POINT ( 'NONE',  ( -1.709999999999999964, 0.000000000000000000, 0.2000000000000000111 ) ) ;
#254 = VECTOR ( 'NONE', #362, 39.37007874015748143 ) ;
#255 = VERTEX_POINT ( 'NONE', #580 ) ;
#256 = DIMENSIONAL_EXPONENTS ( 1.000000000000000000, 0.000000000000000000, 0.000000000000000000, 0.000000000000000000, 0.000000000000000000, 0.000000000000000000, 0.000000000000000000 ) ;
#257 = DIRECTION ( 'NONE',  ( 0.000000000000000000, -0.000000000000000000, -1.000000000000000000 ) ) ;
#258 = VERTEX_POINT ( 'NONE', #117 ) ;
#259 = EDGE_CURVE ( 'NONE', #379, #244, #300, .T. ) ;
#260 = VECTOR ( 'NONE', #595, 39.37007874015748143 ) ;
#261 = CARTESIAN_POINT ( 'NONE',  ( 0.000000000000000000, 0.000000000000000000, 0.000000000000000000 ) ) ;
#262 = EDGE_LOOP ( 'NONE', ( #25, #232, #408, #120 ) ) ;
#263 = CARTESIAN_POINT ( 'NONE',  ( -1.039999999999999591, 1.225000000000000089, 0.2000000000000000111 ) ) ;
#264 = ORIENTED_EDGE ( 'NONE', *, *, #225, .F. ) ;
#265 = CARTESIAN_POINT ( 'NONE',  ( -1.709999999999999964, 2.700000000000000178, 0.2000000000000000111 ) ) ;
#266 = EDGE_CURVE ( 'NONE', #446, #403, #297, .T. ) ;
#267 = ORIENTED_EDGE ( 'NONE', *, *, #593, .T. ) ;
#268 = AXIS2_PLACEMENT_3D ( 'NONE', #132, #42, #499 ) ;
#269 = CARTESIAN_POINT ( 'NONE',  ( 0.000000000000000000, 2.480000000000000426, 0.2000000000000000111 ) ) ;
#270 = CARTESIAN_POINT ( 'NONE',  ( -1.039999999999999591, 1.474999999999999867, 1.680000000000000160 ) ) ;
#271 = FACE_OUTER_BOUND ( 'NONE', #251, .T. ) ;
#272 = PLANE ( 'NONE',  #86 ) ;
#273 = VECTOR ( 'NONE', #279, 39.37007874015748143 ) ;
#274 = CARTESIAN_POINT ( 'NONE',  ( -1.709999999999999964, 0.4200000000000000400, 0.2000000000000000111 ) ) ;
#275 = CARTESIAN_POINT ( 'NONE',  ( -1.039999999999999591, 1.225000000000000089, 1.680000000000000160 ) ) ;
#276 = ADVANCED_FACE ( 'NONE', ( #351 ), #204, .F. ) ;
#277 = DIRECTION ( 'NONE',  ( 1.000000000000000000, 0.000000000000000000, 0.000000000000000000 ) ) ;
#278 = DIRECTION ( 'NONE',  ( -1.000000000000000000, 0.000000000000000000, 0.000000000000000000 ) ) ;
#279 = DIRECTION ( 'NONE',  ( 1.000000000000000000, -0.000000000000000000, -0.000000000000000000 ) ) ;
#280 = CARTESIAN_POINT ( 'NONE',  ( -1.709999999999999964, 2.280000000000000249, 0.2000000000000000111 ) ) ;
#281 = EDGE_LOOP ( 'NONE', ( #547, #443, #348, #203 ) ) ;
#282 = AXIS2_PLACEMENT_3D ( 'NONE', #490, #548, #131 ) ;
#283 =( NAMED_UNIT ( * ) PLANE_ANGLE_UNIT ( ) SI_UNIT ( $, .RADIAN. ) );
#284 = LINE ( 'NONE', #564, #76 ) ;
#285 = EDGE_CURVE ( 'NONE', #200, #518, #66, .T. ) ;
#286 = ORIENTED_EDGE ( 'NONE', *, *, #359, .F. ) ;
#287 = PRODUCT_DEFINITION_CONTEXT ( 'detailed design', #16, 'design' ) ;
#288 = CARTESIAN_POINT ( 'NONE',  ( -0.04000000000000052819, 1.474999999999999867, 1.680000000000000160 ) ) ;
#289 = EDGE_LOOP ( 'NONE', ( #555, #28, #301, #470 ) ) ;
#290 = FACE_OUTER_BOUND ( 'NONE', #281, .T. ) ;
#291 = ORIENTED_EDGE ( 'NONE', *, *, #328, .T. ) ;
#292 = EDGE_CURVE ( 'NONE', #428, #74, #22, .T. ) ;
#293 = CARTESIAN_POINT ( 'NONE',  ( -1.709999999999999964, 2.280000000000000249, 1.199999999999999956 ) ) ;
#294 = PLANE ( 'NONE',  #156 ) ;
#295 = VERTEX_POINT ( 'NONE', #485 ) ;
#296 = APPLICATION_PROTOCOL_DEFINITION ( 'draft international standard', 'automotive_design', 1998, #354 ) ;
#297 = LINE ( 'NONE', #162, #19 ) ;
#298 = VERTEX_POINT ( 'NONE', #119 ) ;
#299 = CARTESIAN_POINT ( 'NONE',  ( 0.000000000000000000, 0.000000000000000000, 0.000000000000000000 ) ) ;
#300 = LINE ( 'NONE', #201, #147 ) ;
#301 = ORIENTED_EDGE ( 'NONE', *, *, #39, .F. ) ;
#302 = PLANE ( 'NONE',  #536 ) ;
#303 = AXIS2_PLACEMENT_3D ( 'NONE', #146, #52, #47 ) ;
#304 = ADVANCED_FACE ( 'NONE', ( #290 ), #391, .F. ) ;
#305 = ORIENTED_EDGE ( 'NONE', *, *, #537, .T. ) ;
#306 = CARTESIAN_POINT ( 'NONE',  ( -1.039999999999999591, 1.474999999999999867, 0.2000000000000000111 ) ) ;
#307 = LINE ( 'NONE', #317, #227 ) ;
#308 = PRODUCT ( 'top mount', 'top mount', '', ( #252 ) ) ;
#309 = LINE ( 'NONE', #314, #205 ) ;
#310 = LINE ( 'NONE', #80, #260 ) ;
#311 = ADVANCED_FACE ( 'NONE', ( #385 ), #341, .F. ) ;
#312 = CARTESIAN_POINT ( 'NONE',  ( -1.039999999999999591, 1.225000000000000089, 1.680000000000000160 ) ) ;
#313 = ORIENTED_EDGE ( 'NONE', *, *, #508, .F. ) ;
#314 = CARTESIAN_POINT ( 'NONE',  ( 0.000000000000000000, 2.480000000000000426, 1.199999999999999956 ) ) ;
#315 = PLANE ( 'NONE',  #570 ) ;
#316 = CARTESIAN_POINT ( 'NONE',  ( -1.709999999999999964, 2.480000000000000426, 1.199999999999999956 ) ) ;
#317 = CARTESIAN_POINT ( 'NONE',  ( 0.000000000000000000, 0.000000000000000000, 0.2000000000000000111 ) ) ;
#318 = DIRECTION ( 'NONE',  ( 0.000000000000000000, 1.000000000000000000, 0.000000000000000000 ) ) ;
#319 = DIRECTION ( 'NONE',  ( 0.000000000000000000, 0.000000000000000000, 1.000000000000000000 ) ) ;
#320 = ADVANCED_FACE ( 'NONE', ( #382 ), #338, .F. ) ;
#321 = AXIS2_PLACEMENT_3D ( 'NONE', #51, #417, #228 ) ;
#322 = AXIS2_PLACEMENT_3D ( 'NONE', #164, #43, #133 ) ;
#323 =( NAMED_UNIT ( * ) SI_UNIT ( $, .STERADIAN. ) SOLID_ANGLE_UNIT ( ) );
#324 = DIRECTION ( 'NONE',  ( -0.000000000000000000, -0.000000000000000000, -1.000000000000000000 ) ) ;
#325 = ADVANCED_FACE ( 'NONE', ( #571, #153 ), #294, .F. ) ;
#326 = LINE ( 'NONE', #510, #596 ) ;
#327 = ORIENTED_EDGE ( 'NONE', *, *, #116, .T. ) ;
#328 = EDGE_CURVE ( 'NONE', #114, #578, #24, .T. ) ;
#329 = PLANE ( 'NONE',  #166 ) ;
#330 = DIRECTION ( 'NONE',  ( -0.000000000000000000, -0.000000000000000000, -1.000000000000000000 ) ) ;
#331 = VECTOR ( 'NONE', #31, 39.37007874015748143 ) ;
#332 = PRESENTATION_LAYER_ASSIGNMENT (  '', '', ( #222 ) ) ;
#333 = CARTESIAN_POINT ( 'NONE',  ( -1.039999999999999591, 1.225000000000000089, 1.680000000000000160 ) ) ;
#334 = PRODUCT_DEFINITION_FORMATION_WITH_SPECIFIED_SOURCE ( 'ANY', '', #308, .NOT_KNOWN. ) ;
#335 = CARTESIAN_POINT ( 'NONE',  ( -1.709999999999999964, 0.2199999999999998346, 1.199999999999999956 ) ) ;
#336 = ORIENTED_EDGE ( 'NONE', *, *, #90, .T. ) ;
#337 = LINE ( 'NONE', #112, #242 ) ;
#338 = PLANE ( 'NONE',  #420 ) ;
#339 = AXIS2_PLACEMENT_3D ( 'NONE', #560, #278, #319 ) ;
#340 = EDGE_CURVE ( 'NONE', #74, #258, #500, .T. ) ;
#341 = PLANE ( 'NONE',  #197 ) ;
#342 = ORIENTED_EDGE ( 'NONE', *, *, #21, .T. ) ;
#343 = ADVANCED_BREP_SHAPE_REPRESENTATION ( 'top mount', ( #454, #401 ), #410 ) ;
#344 = VECTOR ( 'NONE', #160, 39.37007874015748143 ) ;
#345 = CARTESIAN_POINT ( 'NONE',  ( -1.039999999999999591, 1.225000000000000089, 1.680000000000000160 ) ) ;
#346 = VERTEX_POINT ( 'NONE', #364 ) ;
#347 = FACE_OUTER_BOUND ( 'NONE', #196, .T. ) ;
#348 = ORIENTED_EDGE ( 'NONE', *, *, #97, .F. ) ;
#349 = VECTOR ( 'NONE', #89, 39.37007874015748143 ) ;
#350 = EDGE_CURVE ( 'NONE', #295, #441, #309, .T. ) ;
#351 = FACE_OUTER_BOUND ( 'NONE', #191, .T. ) ;
#352 = VERTEX_POINT ( 'NONE', #353 ) ;
#353 = CARTESIAN_POINT ( 'NONE',  ( -0.04000000000000052819, 1.474999999999999867, 1.680000000000000160 ) ) ;
#354 = APPLICATION_CONTEXT ( 'automotive_design' ) ;
#355 = VECTOR ( 'NONE', #198, 39.37007874015748143 ) ;
#356 = EDGE_LOOP ( 'NONE', ( #176, #558, #264, #62 ) ) ;
#357 = CARTESIAN_POINT ( 'NONE',  ( -1.039999999999999591, 1.225000000000000089, 1.680000000000000160 ) ) ;
#358 = EDGE_LOOP ( 'NONE', ( #561, #486, #170, #389 ) ) ;
#359 = EDGE_CURVE ( 'NONE', #397, #114, #445, .T. ) ;
#360 = PLANE ( 'NONE',  #322 ) ;
#361 = EDGE_LOOP ( 'NONE', ( #449, #37, #425, #336 ) ) ;
#362 = DIRECTION ( 'NONE',  ( 0.000000000000000000, 1.000000000000000000, 0.000000000000000000 ) ) ;
#363 = DIRECTION ( 'NONE',  ( -9.984824538246576804E-17, 1.000000000000000000, 0.000000000000000000 ) ) ;
#364 = CARTESIAN_POINT ( 'NONE',  ( -0.04000000000000052819, 1.225000000000000089, 1.680000000000000160 ) ) ;
#365 = ORIENTED_EDGE ( 'NONE', *, *, #180, .T. ) ;
#366 = EDGE_CURVE ( 'NONE', #453, #392, #493, .T. ) ;
#367 = VERTEX_POINT ( 'NONE', #535 ) ;
#368 = DIRECTION ( 'NONE',  ( -1.000000000000000000, 0.000000000000000000, -0.000000000000000000 ) ) ;
#369 = LINE ( 'NONE', #139, #81 ) ;
#370 = VECTOR ( 'NONE', #394, 39.37007874015748143 ) ;
#371 =( CONVERSION_BASED_UNIT ( 'INCH', #14 ) LENGTH_UNIT ( ) NAMED_UNIT ( #438 ) );
#372 = DIRECTION ( 'NONE',  ( -0.000000000000000000, -1.000000000000000000, -0.000000000000000000 ) ) ;
#373 = ORIENTED_EDGE ( 'NONE', *, *, #237, .T. ) ;
#374 = ADVANCED_FACE ( 'NONE', ( #41 ), #447, .F. ) ;
#375 = LINE ( 'NONE', #556, #173 ) ;
#376 = DIRECTION ( 'NONE',  ( -1.000000000000000000, -0.000000000000000000, -0.000000000000000000 ) ) ;
#377 = CARTESIAN_POINT ( 'NONE',  ( -1.709999999999999964, 0.000000000000000000, 0.000000000000000000 ) ) ;
#378 = LINE ( 'NONE', #288, #492 ) ;
#379 = VERTEX_POINT ( 'NONE', #265 ) ;
#380 = VECTOR ( 'NONE', #177, 39.37007874015748143 ) ;
#381 = AXIS2_PLACEMENT_3D ( 'NONE', #69, #73, #257 ) ;
#382 = FACE_OUTER_BOUND ( 'NONE', #67, .T. ) ;
#383 = ORIENTED_EDGE ( 'NONE', *, *, #455, .T. ) ;
#384 = CARTESIAN_POINT ( 'NONE',  ( 0.000000000000000000, 2.700000000000000178, 0.2000000000000000111 ) ) ;
#385 = FACE_OUTER_BOUND ( 'NONE', #217, .T. ) ;
#386 = EDGE_CURVE ( 'NONE', #400, #543, #545, .T. ) ;
#387 = ORIENTED_EDGE ( 'NONE', *, *, #572, .T. ) ;
#388 = DIRECTION ( 'NONE',  ( -0.000000000000000000, -0.000000000000000000, -1.000000000000000000 ) ) ;
#389 = ORIENTED_EDGE ( 'NONE', *, *, #340, .F. ) ;
#390 = VECTOR ( 'NONE', #179, 39.37007874015748143 ) ;
#391 = PLANE ( 'NONE',  #381 ) ;
#392 = VERTEX_POINT ( 'NONE', #306 ) ;
#393 = ADVANCED_FACE ( 'NONE', ( #271 ), #456, .F. ) ;
#394 = DIRECTION ( 'NONE',  ( 0.000000000000000000, 1.000000000000000000, 0.000000000000000000 ) ) ;
#395 = ORIENTED_EDGE ( 'NONE', *, *, #5, .F. ) ;
#396 = CARTESIAN_POINT ( 'NONE',  ( 0.000000000000000000, 0.000000000000000000, 1.680000000000000160 ) ) ;
#397 = VERTEX_POINT ( 'NONE', #357 ) ;
#398 = LINE ( 'NONE', #402, #487 ) ;
#399 = ADVANCED_FACE ( 'NONE', ( #123 ), #360, .F. ) ;
#400 = VERTEX_POINT ( 'NONE', #495 ) ;
#401 = AXIS2_PLACEMENT_3D ( 'NONE', #299, #574, #60 ) ;
#402 = CARTESIAN_POINT ( 'NONE',  ( -1.709999999999999964, 2.280000000000000249, 1.199999999999999956 ) ) ;
#403 = VERTEX_POINT ( 'NONE', #497 ) ;
#404 = DIRECTION ( 'NONE',  ( 1.000000000000000000, 0.000000000000000000, 0.000000000000000000 ) ) ;
#405 = ORIENTED_EDGE ( 'NONE', *, *, #464, .T. ) ;
#406 = DIRECTION ( 'NONE',  ( 0.000000000000000000, 0.000000000000000000, -1.000000000000000000 ) ) ;
#407 = VECTOR ( 'NONE', #506, 39.37007874015748143 ) ;
#408 = ORIENTED_EDGE ( 'NONE', *, *, #430, .T. ) ;
#409 = VECTOR ( 'NONE', #95, 39.37007874015748143 ) ;
#410 =( GEOMETRIC_REPRESENTATION_CONTEXT ( 3 ) GLOBAL_UNCERTAINTY_ASSIGNED_CONTEXT ( ( #249 ) ) GLOBAL_UNIT_ASSIGNED_CONTEXT ( ( #17, #426, #68 ) ) REPRESENTATION_CONTEXT ( 'NONE', 'WORKASPACE' ) );
#411 = ADVANCED_FACE ( 'NONE', ( #175 ), #214, .F. ) ;
#412 =( LENGTH_UNIT ( ) NAMED_UNIT ( * ) SI_UNIT ( $, .METRE. ) );
#413 = ORIENTED_EDGE ( 'NONE', *, *, #504, .T. ) ;
#414 = VECTOR ( 'NONE', #190, 39.37007874015748143 ) ;
#415 = LINE ( 'NONE', #6, #390 ) ;
#416 = CARTESIAN_POINT ( 'NONE',  ( -1.709999999999999964, 0.4200000000000000400, 1.199999999999999956 ) ) ;
#417 = DIRECTION ( 'NONE',  ( 0.000000000000000000, 0.000000000000000000, -1.000000000000000000 ) ) ;
#418 = ADVANCED_FACE ( 'NONE', ( #75 ), #85, .F. ) ;
#419 = ORIENTED_EDGE ( 'NONE', *, *, #90, .F. ) ;
#420 = AXIS2_PLACEMENT_3D ( 'NONE', #523, #477, #199 ) ;
#421 = LINE ( 'NONE', #505, #72 ) ;
#422 = PLANE ( 'NONE',  #339 ) ;
#423 = ORIENTED_EDGE ( 'NONE', *, *, #134, .T. ) ;
#424 = LINE ( 'NONE', #96, #414 ) ;
#425 = ORIENTED_EDGE ( 'NONE', *, *, #544, .T. ) ;
#426 =( NAMED_UNIT ( * ) PLANE_ANGLE_UNIT ( ) SI_UNIT ( $, .RADIAN. ) );
#427 = DIRECTION ( 'NONE',  ( -0.000000000000000000, -0.000000000000000000, -1.000000000000000000 ) ) ;
#428 = VERTEX_POINT ( 'NONE', #83 ) ;
#429 = VECTOR ( 'NONE', #521, 39.37007874015748143 ) ;
#430 = EDGE_CURVE ( 'NONE', #154, #295, #450, .T. ) ;
#431 = DIRECTION ( 'NONE',  ( 0.000000000000000000, -1.000000000000000000, 0.000000000000000000 ) ) ;
#432 = ORIENTED_EDGE ( 'NONE', *, *, #202, .T. ) ;
#433 = DIRECTION ( 'NONE',  ( 0.000000000000000000, 0.000000000000000000, 1.000000000000000000 ) ) ;
#434 = ORIENTED_EDGE ( 'NONE', *, *, #78, .F. ) ;
#435 = CARTESIAN_POINT ( 'NONE',  ( 0.000000000000000000, 2.700000000000000178, 0.2000000000000000111 ) ) ;
#436 = EDGE_CURVE ( 'NONE', #403, #49, #398, .T. ) ;
#437 = ORIENTED_EDGE ( 'NONE', *, *, #482, .T. ) ;
#438 = DIMENSIONAL_EXPONENTS ( 1.000000000000000000, 0.000000000000000000, 0.000000000000000000, 0.000000000000000000, 0.000000000000000000, 0.000000000000000000, 0.000000000000000000 ) ;
#439 = VECTOR ( 'NONE', #209, 39.37007874015748143 ) ;
#440 = CARTESIAN_POINT ( 'NONE',  ( 0.000000000000000000, 0.000000000000000000, 0.000000000000000000 ) ) ;
#441 = VERTEX_POINT ( 'NONE', #269 ) ;
#442 = CARTESIAN_POINT ( 'NONE',  ( 0.000000000000000000, 0.000000000000000000, 0.2000000000000000111 ) ) ;
#443 = ORIENTED_EDGE ( 'NONE', *, *, #572, .F. ) ;
#444 = CLOSED_SHELL ( 'NONE', ( #325, #46, #562, #33, #311, #218, #374, #152, #276, #304, #498, #13, #320, #399, #411, #211, #70, #418, #393 ) ) ;
#445 = LINE ( 'NONE', #312, #439 ) ;
#446 = VERTEX_POINT ( 'NONE', #316 ) ;
#447 = PLANE ( 'NONE',  #514 ) ;
#448 = AXIS2_PLACEMENT_3D ( 'NONE', #345, #110, #568 ) ;
#449 = ORIENTED_EDGE ( 'NONE', *, *, #285, .F. ) ;
#450 = LINE ( 'NONE', #594, #148 ) ;
#451 = FACE_OUTER_BOUND ( 'NONE', #215, .T. ) ;
#452 = SURFACE_STYLE_FILL_AREA ( #126 ) ;
#453 = VERTEX_POINT ( 'NONE', #216 ) ;
#454 = MANIFOLD_SOLID_BREP ( 'Boss-Extrude3', #444 ) ;
#455 = EDGE_CURVE ( 'NONE', #255, #200, #375, .T. ) ;
#456 = PLANE ( 'NONE',  #586 ) ;
#457 = VECTOR ( 'NONE', #527, 39.37007874015748143 ) ;
#458 = ORIENTED_EDGE ( 'NONE', *, *, #567, .T. ) ;
#459 = AXIS2_PLACEMENT_3D ( 'NONE', #38, #587, #212 ) ;
#460 = VECTOR ( 'NONE', #404, 39.37007874015748143 ) ;
#461 = CARTESIAN_POINT ( 'NONE',  ( 0.000000000000000000, 0.000000000000000000, 0.2000000000000000111 ) ) ;
#462 = DIRECTION ( 'NONE',  ( -0.000000000000000000, -1.000000000000000000, -0.000000000000000000 ) ) ;
#463 = ORIENTED_EDGE ( 'NONE', *, *, #582, .F. ) ;
#464 = EDGE_CURVE ( 'NONE', #258, #244, #79, .T. ) ;
#465 = PLANE ( 'NONE',  #303 ) ;
#466 = CARTESIAN_POINT ( 'NONE',  ( 0.000000000000000000, 2.280000000000000249, 0.2000000000000000111 ) ) ;
#467 = EDGE_LOOP ( 'NONE', ( #210, #313, #240, #383 ) ) ;
#468 = LINE ( 'NONE', #186, #194 ) ;
#469 = CARTESIAN_POINT ( 'NONE',  ( 0.000000000000000000, 0.000000000000000000, 0.000000000000000000 ) ) ;
#470 = ORIENTED_EDGE ( 'NONE', *, *, #109, .T. ) ;
#471 = SURFACE_STYLE_USAGE ( .BOTH. , #229 ) ;
#472 = CARTESIAN_POINT ( 'NONE',  ( 0.000000000000000000, 0.000000000000000000, 0.2000000000000000111 ) ) ;
#473 = EDGE_LOOP ( 'NONE', ( #206, #491, #172, #532 ) ) ;
#474 = DIRECTION ( 'NONE',  ( 1.000000000000000000, 0.000000000000000000, 0.000000000000000000 ) ) ;
#475 = EDGE_LOOP ( 'NONE', ( #327, #168, #549, #565 ) ) ;
#476 = SHAPE_DEFINITION_REPRESENTATION ( #540, #343 ) ;
#477 = DIRECTION ( 'NONE',  ( 0.000000000000000000, -1.000000000000000000, 0.000000000000000000 ) ) ;
#478 = ORIENTED_EDGE ( 'NONE', *, *, #109, .F. ) ;
#479 = EDGE_CURVE ( 'NONE', #346, #578, #421, .T. ) ;
#480 = CARTESIAN_POINT ( 'NONE',  ( 0.000000000000000000, 0.000000000000000000, 0.2000000000000000111 ) ) ;
#481 = ORIENTED_EDGE ( 'NONE', *, *, #366, .T. ) ;
#482 = EDGE_CURVE ( 'NONE', #589, #100, #509, .T. ) ;
#483 = CARTESIAN_POINT ( 'NONE',  ( -0.04000000000000052819, 1.225000000000000089, 1.680000000000000160 ) ) ;
#484 = VERTEX_POINT ( 'NONE', #461 ) ;
#485 = CARTESIAN_POINT ( 'NONE',  ( 0.000000000000000000, 2.480000000000000426, 1.199999999999999956 ) ) ;
#486 = ORIENTED_EDGE ( 'NONE', *, *, #537, .F. ) ;
#487 = VECTOR ( 'NONE', #590, 39.37007874015748143 ) ;
#488 = DIRECTION ( 'NONE',  ( -0.000000000000000000, -1.000000000000000000, -0.000000000000000000 ) ) ;
#489 = EDGE_LOOP ( 'NONE', ( #305, #434, #135, #32, #528, #413, #501, #12, #538, #387, #584, #150 ) ) ;
#490 = CARTESIAN_POINT ( 'NONE',  ( -1.039999999999999591, 1.225000000000000089, 1.680000000000000160 ) ) ;
#491 = ORIENTED_EDGE ( 'NONE', *, *, #517, .T. ) ;
#492 = VECTOR ( 'NONE', #149, 39.37007874015748143 ) ;
#493 = LINE ( 'NONE', #88, #102 ) ;
#494 = FACE_OUTER_BOUND ( 'NONE', #467, .T. ) ;
#495 = CARTESIAN_POINT ( 'NONE',  ( 0.000000000000000000, 0.4200000000000000400, 1.199999999999999956 ) ) ;
#496 = CARTESIAN_POINT ( 'NONE',  ( -1.709999999999999964, 0.2199999999999998346, 1.199999999999999956 ) ) ;
#497 = CARTESIAN_POINT ( 'NONE',  ( -1.709999999999999964, 2.280000000000000249, 1.199999999999999956 ) ) ;
#498 = ADVANCED_FACE ( 'NONE', ( #142 ), #329, .F. ) ;
#499 = DIRECTION ( 'NONE',  ( 0.000000000000000000, 0.000000000000000000, 1.000000000000000000 ) ) ;
#500 = LINE ( 'NONE', #261, #254 ) ;
#501 = ORIENTED_EDGE ( 'NONE', *, *, #588, .F. ) ;
#502 = CARTESIAN_POINT ( 'NONE',  ( -1.709999999999999964, 0.4200000000000000400, 1.199999999999999956 ) ) ;
#503 = FACE_OUTER_BOUND ( 'NONE', #35, .T. ) ;
#504 = EDGE_CURVE ( 'NONE', #543, #100, #552, .T. ) ;
#505 = CARTESIAN_POINT ( 'NONE',  ( -0.04000000000000052819, 1.225000000000000089, 1.680000000000000160 ) ) ;
#506 = DIRECTION ( 'NONE',  ( 0.000000000000000000, 1.000000000000000000, 0.000000000000000000 ) ) ;
#507 = ORIENTED_EDGE ( 'NONE', *, *, #517, .F. ) ;
#508 = EDGE_CURVE ( 'NONE', #9, #518, #223, .T. ) ;
#509 = LINE ( 'NONE', #274, #546 ) ;
#510 = CARTESIAN_POINT ( 'NONE',  ( 0.000000000000000000, 0.4200000000000000400, 1.199999999999999956 ) ) ;
#511 = ORIENTED_EDGE ( 'NONE', *, *, #39, .T. ) ;
#512 = LINE ( 'NONE', #516, #553 ) ;
#513 = VECTOR ( 'NONE', #462, 39.37007874015748143 ) ;
#514 = AXIS2_PLACEMENT_3D ( 'NONE', #36, #597, #167 ) ;
#515 = DIRECTION ( 'NONE',  ( -0.000000000000000000, -1.000000000000000000, -0.000000000000000000 ) ) ;
#516 = CARTESIAN_POINT ( 'NONE',  ( -1.709999999999999964, 2.280000000000000249, 0.2000000000000000111 ) ) ;
#517 = EDGE_CURVE ( 'NONE', #589, #185, #468, .T. ) ;
#518 = VERTEX_POINT ( 'NONE', #138 ) ;
#519 =( LENGTH_UNIT ( ) NAMED_UNIT ( * ) SI_UNIT ( $, .METRE. ) );
#520 = DIRECTION ( 'NONE',  ( 1.000000000000000000, 9.984824538246578037E-17, 0.000000000000000000 ) ) ;
#521 = DIRECTION ( 'NONE',  ( 1.000000000000000000, 0.000000000000000000, 0.000000000000000000 ) ) ;
#522 = UNCERTAINTY_MEASURE_WITH_UNIT (LENGTH_MEASURE( 1.000000000000000082E-05 ), #371, 'distance_accuracy_value', 'NONE');
#523 = CARTESIAN_POINT ( 'NONE',  ( -1.709999999999999964, 0.4200000000000000400, 1.199999999999999956 ) ) ;
#524 = ORIENTED_EDGE ( 'NONE', *, *, #158, .T. ) ;
#525 = VECTOR ( 'NONE', #520, 39.37007874015748143 ) ;
#526 = EDGE_CURVE ( 'NONE', #397, #346, #189, .T. ) ;
#527 = DIRECTION ( 'NONE',  ( 0.000000000000000000, 1.000000000000000000, 0.000000000000000000 ) ) ;
#528 = ORIENTED_EDGE ( 'NONE', *, *, #116, .F. ) ;
#529 = DIRECTION ( 'NONE',  ( -0.000000000000000000, -1.000000000000000000, -0.000000000000000000 ) ) ;
#530 = ORIENTED_EDGE ( 'NONE', *, *, #245, .F. ) ;
#531 = DIRECTION ( 'NONE',  ( 0.000000000000000000, 1.000000000000000000, 0.000000000000000000 ) ) ;
#532 = ORIENTED_EDGE ( 'NONE', *, *, #588, .T. ) ;
#533 = VECTOR ( 'NONE', #372, 39.37007874015748143 ) ;
#534 = VECTOR ( 'NONE', #277, 39.37007874015748143 ) ;
#535 = CARTESIAN_POINT ( 'NONE',  ( -1.709999999999999964, 0.000000000000000000, 0.2000000000000000111 ) ) ;
#536 = AXIS2_PLACEMENT_3D ( 'NONE', #435, #431, #113 ) ;
#537 = EDGE_CURVE ( 'NONE', #244, #428, #101, .T. ) ;
#538 = ORIENTED_EDGE ( 'NONE', *, *, #266, .F. ) ;
#539 = DIRECTION ( 'NONE',  ( -1.000000000000000000, 0.000000000000000000, -0.000000000000000000 ) ) ;
#540 = PRODUCT_DEFINITION_SHAPE ( 'NONE', 'NONE',  #230 ) ;
#541 = ORIENTED_EDGE ( 'NONE', *, *, #386, .F. ) ;
#542 = DIRECTION ( 'NONE',  ( -0.000000000000000000, -0.000000000000000000, -1.000000000000000000 ) ) ;
#543 = VERTEX_POINT ( 'NONE', #502 ) ;
#544 = EDGE_CURVE ( 'NONE', #367, #484, #563, .T. ) ;
#545 = LINE ( 'NONE', #128, #29 ) ;
#546 = VECTOR ( 'NONE', #559, 39.37007874015748143 ) ;
#547 = ORIENTED_EDGE ( 'NONE', *, *, #54, .T. ) ;
#548 = DIRECTION ( 'NONE',  ( 1.000000000000000000, 0.000000000000000000, 0.000000000000000000 ) ) ;
#549 = ORIENTED_EDGE ( 'NONE', *, *, #184, .T. ) ;
#550 = DIRECTION ( 'NONE',  ( -0.000000000000000000, -0.000000000000000000, -1.000000000000000000 ) ) ;
#551 = LINE ( 'NONE', #137, #3 ) ;
#552 = LINE ( 'NONE', #416, #409 ) ;
#553 = VECTOR ( 'NONE', #474, 39.37007874015748143 ) ;
#554 = LINE ( 'NONE', #239, #221 ) ;
#555 = ORIENTED_EDGE ( 'NONE', *, *, #141, .T. ) ;
#556 = CARTESIAN_POINT ( 'NONE',  ( -1.709999999999999964, 0.2199999999999998346, 1.199999999999999956 ) ) ;
#557 = FACE_OUTER_BOUND ( 'NONE', #358, .T. ) ;
#558 = ORIENTED_EDGE ( 'NONE', *, *, #141, .F. ) ;
#559 = DIRECTION ( 'NONE',  ( -1.000000000000000000, -0.000000000000000000, -0.000000000000000000 ) ) ;
#560 = CARTESIAN_POINT ( 'NONE',  ( -0.04000000000000052819, 1.225000000000000089, 1.680000000000000160 ) ) ;
#561 = ORIENTED_EDGE ( 'NONE', *, *, #292, .F. ) ;
#562 = ADVANCED_FACE ( 'NONE', ( #91 ), #465, .F. ) ;
#563 = LINE ( 'NONE', #98, #273 ) ;
#564 = CARTESIAN_POINT ( 'NONE',  ( 0.000000000000000000, 0.000000000000000000, 0.2000000000000000111 ) ) ;
#565 = ORIENTED_EDGE ( 'NONE', *, *, #386, .T. ) ;
#566 = VECTOR ( 'NONE', #515, 39.37007874015748143 ) ;
#567 = EDGE_CURVE ( 'NONE', #592, #379, #226, .T. ) ;
#568 = DIRECTION ( 'NONE',  ( 0.000000000000000000, -0.000000000000000000, 1.000000000000000000 ) ) ;
#569 = ORIENTED_EDGE ( 'NONE', *, *, #526, .F. ) ;
#570 = AXIS2_PLACEMENT_3D ( 'NONE', #496, #363, #84 ) ;
#571 = FACE_OUTER_BOUND ( 'NONE', #473, .T. ) ;
#572 = EDGE_CURVE ( 'NONE', #446, #298, #58, .T. ) ;
#573 = ORIENTED_EDGE ( 'NONE', *, *, #245, .T. ) ;
#574 = DIRECTION ( 'NONE',  ( 0.000000000000000000, 0.000000000000000000, 1.000000000000000000 ) ) ;
#575 = DIRECTION ( 'NONE',  ( 0.000000000000000000, -0.000000000000000000, 1.000000000000000000 ) ) ;
#576 = ORIENTED_EDGE ( 'NONE', *, *, #134, .F. ) ;
#577 = LINE ( 'NONE', #483, #457 ) ;
#578 = VERTEX_POINT ( 'NONE', #579 ) ;
#579 = CARTESIAN_POINT ( 'NONE',  ( -0.04000000000000052819, 1.225000000000000089, 0.2000000000000000111 ) ) ;
#580 = CARTESIAN_POINT ( 'NONE',  ( -1.709999999999999964, 0.2199999999999998346, 1.199999999999999956 ) ) ;
#581 = ORIENTED_EDGE ( 'NONE', *, *, #508, .T. ) ;
#582 = EDGE_CURVE ( 'NONE', #403, #154, #65, .T. ) ;
#583 = DIRECTION ( 'NONE',  ( -0.000000000000000000, -0.000000000000000000, -1.000000000000000000 ) ) ;
#584 = ORIENTED_EDGE ( 'NONE', *, *, #237, .F. ) ;
#585 = VECTOR ( 'NONE', #99, 39.37007874015748143 ) ;
#586 = AXIS2_PLACEMENT_3D ( 'NONE', #396, #406, #539 ) ;
#587 = DIRECTION ( 'NONE',  ( 0.000000000000000000, -1.000000000000000000, 0.000000000000000000 ) ) ;
#588 = EDGE_CURVE ( 'NONE', #49, #100, #337, .T. ) ;
#589 = VERTEX_POINT ( 'NONE', #26 ) ;
#590 = DIRECTION ( 'NONE',  ( -0.000000000000000000, -0.000000000000000000, -1.000000000000000000 ) ) ;
#591 = VECTOR ( 'NONE', #427, 39.37007874015748143 ) ;
#592 = VERTEX_POINT ( 'NONE', #384 ) ;
#593 = EDGE_CURVE ( 'NONE', #154, #185, #115, .T. ) ;
#594 = CARTESIAN_POINT ( 'NONE',  ( 0.000000000000000000, 2.280000000000000249, 1.199999999999999956 ) ) ;
#595 = DIRECTION ( 'NONE',  ( -0.000000000000000000, -1.000000000000000000, -0.000000000000000000 ) ) ;
#596 = VECTOR ( 'NONE', #330, 39.37007874015748143 ) ;
#597 = DIRECTION ( 'NONE',  ( 1.000000000000000000, 0.000000000000000000, 0.000000000000000000 ) ) ;
#598 = MECHANICAL_DESIGN_GEOMETRIC_PRESENTATION_REPRESENTATION (  '', ( #222 ), #92 ) ;
#599 = FACE_OUTER_BOUND ( 'NONE', #361, .T. ) ;
ENDSEC;
END-ISO-10303-21;
