ISO-10303-21;
HEADER;
FILE_DESCRIPTION (( 'STEP AP214' ),
    '1' );
FILE_NAME ('wall plate.STEP',
    '2026-08-23T21:40:28',
    ( '' ),
    ( '' ),
    'SwSTEP 2.0',
    'SolidWorks 2025',
    '' );
FILE_SCHEMA (( 'AUTOMOTIVE_DESIGN' ));
ENDSEC;

DATA;
#1 = DIRECTION ( 'NONE',  ( 0.000000000000000000, -0.000000000000000000, 1.000000000000000000 ) ) ;
#2 = UNCERTAINTY_MEASURE_WITH_UNIT (LENGTH_MEASURE( 1.000000000000000082E-05 ), #210, 'distance_accuracy_value', 'NONE');
#3 = DIRECTION ( 'NONE',  ( 0.000000000000000000, 1.000000000000000000, 0.000000000000000000 ) ) ;
#4 = EDGE_LOOP ( 'NONE', ( #583, #217, #496, #327, #309, #90, #232, #348, #130, #422, #263, #588, #560, #177, #270, #405 ) ) ;
#5 = VECTOR ( 'NONE', #16, 39.37007874015748143 ) ;
#6 = DIRECTION ( 'NONE',  ( 0.000000000000000000, 0.000000000000000000, -1.000000000000000000 ) ) ;
#7 = FACE_OUTER_BOUND ( 'NONE', #19, .T. ) ;
#8 = ORIENTED_EDGE ( 'NONE', *, *, #150, .F. ) ;
#9 = EDGE_CURVE ( 'NONE', #117, #488, #474, .T. ) ;
#10 = CARTESIAN_POINT ( 'NONE',  ( 0.000000000000000000, 0.3999999999999999667, 0.000000000000000000 ) ) ;
#11 = VECTOR ( 'NONE', #514, 39.37007874015748143 ) ;
#12 = CARTESIAN_POINT ( 'NONE',  ( -2.700000000000000178, 0.1000000000000001998, 1.189999999999999947 ) ) ;
#13 = EDGE_LOOP ( 'NONE', ( #547, #580, #449, #94 ) ) ;
#14 = PRODUCT_CONTEXT ( 'NONE', #572, 'mechanical' ) ;
#15 = VECTOR ( 'NONE', #516, 39.37007874015748143 ) ;
#16 = DIRECTION ( 'NONE',  ( 0.000000000000000000, 1.000000000000000000, 0.000000000000000000 ) ) ;
#17 = VERTEX_POINT ( 'NONE', #21 ) ;
#18 = EDGE_CURVE ( 'NONE', #140, #503, #166, .T. ) ;
#19 = EDGE_LOOP ( 'NONE', ( #152, #432, #550, #536 ) ) ;
#20 = VERTEX_POINT ( 'NONE', #391 ) ;
#21 = CARTESIAN_POINT ( 'NONE',  ( -2.700000000000000178, 0.3999999999999999667, 2.939999999999999947 ) ) ;
#22 = FACE_OUTER_BOUND ( 'NONE', #574, .T. ) ;
#23 = ORIENTED_EDGE ( 'NONE', *, *, #180, .T. ) ;
#24 = EDGE_CURVE ( 'NONE', #17, #316, #384, .T. ) ;
#25 = DIRECTION ( 'NONE',  ( 0.000000000000000000, 1.000000000000000000, 0.000000000000000000 ) ) ;
#26 = ORIENTED_EDGE ( 'NONE', *, *, #396, .F. ) ;
#27 = DIRECTION ( 'NONE',  ( -0.000000000000000000, -1.000000000000000000, -0.000000000000000000 ) ) ;
#28 = ORIENTED_EDGE ( 'NONE', *, *, #31, .F. ) ;
#29 = DIMENSIONAL_EXPONENTS ( 1.000000000000000000, 0.000000000000000000, 0.000000000000000000, 0.000000000000000000, 0.000000000000000000, 0.000000000000000000, 0.000000000000000000 ) ;
#30 = SURFACE_STYLE_USAGE ( .BOTH. , #340 ) ;
#31 = EDGE_CURVE ( 'NONE', #464, #117, #339, .T. ) ;
#32 = CARTESIAN_POINT ( 'NONE',  ( -2.700000000000000178, 0.2799999999999999711, 1.489999999999999769 ) ) ;
#33 = FACE_OUTER_BOUND ( 'NONE', #4, .T. ) ;
#34 = CARTESIAN_POINT ( 'NONE',  ( -2.700000000000000178, 0.1000000000000000056, 2.689999999999999947 ) ) ;
#35 = ORIENTED_EDGE ( 'NONE', *, *, #183, .F. ) ;
#36 = PLANE ( 'NONE',  #469 ) ;
#37 = VECTOR ( 'NONE', #568, 39.37007874015748143 ) ;
#38 = CARTESIAN_POINT ( 'NONE',  ( 0.000000000000000000, 0.1000000000000000056, 1.739999999999999769 ) ) ;
#39 = EDGE_LOOP ( 'NONE', ( #414, #8, #244, #228 ) ) ;
#40 = PLANE ( 'NONE',  #511 ) ;
#41 = LINE ( 'NONE', #481, #346 ) ;
#42 = VERTEX_POINT ( 'NONE', #567 ) ;
#43 = CARTESIAN_POINT ( 'NONE',  ( -2.700000000000000178, 0.1000000000000000056, 0.000000000000000000 ) ) ;
#44 = AXIS2_PLACEMENT_3D ( 'NONE', #506, #59, #275 ) ;
#45 = LINE ( 'NONE', #34, #504 ) ;
#46 = EDGE_LOOP ( 'NONE', ( #215, #102, #510, #87 ) ) ;
#47 = VECTOR ( 'NONE', #211, 39.37007874015748143 ) ;
#48 = LINE ( 'NONE', #43, #387 ) ;
#49 = DIRECTION ( 'NONE',  ( 1.000000000000000000, 0.000000000000000000, -0.000000000000000000 ) ) ;
#50 = ORIENTED_EDGE ( 'NONE', *, *, #69, .F. ) ;
#51 = PLANE ( 'NONE',  #238 ) ;
#52 = DIRECTION ( 'NONE',  ( -0.000000000000000000, -1.000000000000000000, -0.000000000000000000 ) ) ;
#53 = EDGE_CURVE ( 'NONE', #503, #411, #288, .T. ) ;
#54 = ORIENTED_EDGE ( 'NONE', *, *, #108, .T. ) ;
#55 = VECTOR ( 'NONE', #52, 39.37007874015748143 ) ;
#56 = DIRECTION ( 'NONE',  ( -1.000000000000000000, 0.000000000000000000, -0.000000000000000000 ) ) ;
#57 = CARTESIAN_POINT ( 'NONE',  ( -2.700000000000000178, 0.1000000000000000056, 3.239999999999999325 ) ) ;
#58 = ORIENTED_EDGE ( 'NONE', *, *, #18, .T. ) ;
#59 = DIRECTION ( 'NONE',  ( 0.000000000000000000, 0.000000000000000000, -1.000000000000000000 ) ) ;
#60 = ORIENTED_EDGE ( 'NONE', *, *, #308, .F. ) ;
#61 = PRESENTATION_LAYER_ASSIGNMENT (  '', '', ( #160 ) ) ;
#62 = PRODUCT_RELATED_PRODUCT_CATEGORY ( 'part', '', ( #247 ) ) ;
#63 = ORIENTED_EDGE ( 'NONE', *, *, #24, .T. ) ;
#64 = ORIENTED_EDGE ( 'NONE', *, *, #507, .F. ) ;
#65 = PRODUCT_DEFINITION_SHAPE ( 'NONE', 'NONE',  #584 ) ;
#66 = DIRECTION ( 'NONE',  ( -0.000000000000000000, -0.000000000000000000, -1.000000000000000000 ) ) ;
#67 =( NAMED_UNIT ( * ) SI_UNIT ( $, .STERADIAN. ) SOLID_ANGLE_UNIT ( ) );
#68 = CARTESIAN_POINT ( 'NONE',  ( -2.700000000000000178, 0.1000000000000000056, 3.500000000000000000 ) ) ;
#69 = EDGE_CURVE ( 'NONE', #461, #259, #564, .T. ) ;
#70 = CARTESIAN_POINT ( 'NONE',  ( 0.000000000000000000, 0.000000000000000000, 0.000000000000000000 ) ) ;
#71 = DIRECTION ( 'NONE',  ( 0.000000000000000000, 0.000000000000000000, -1.000000000000000000 ) ) ;
#72 = LINE ( 'NONE', #157, #199 ) ;
#73 = PLANE ( 'NONE',  #407 ) ;
#74 = CARTESIAN_POINT ( 'NONE',  ( -2.700000000000000178, 0.1000000000000000056, 1.739999999999999769 ) ) ;
#75 = EDGE_CURVE ( 'NONE', #453, #503, #571, .T. ) ;
#76 = DIRECTION ( 'NONE',  ( 0.000000000000000000, 0.000000000000000000, -1.000000000000000000 ) ) ;
#77 = ORIENTED_EDGE ( 'NONE', *, *, #86, .T. ) ;
#78 = CARTESIAN_POINT ( 'NONE',  ( 0.000000000000000000, 0.3999999999999999667, 0.000000000000000000 ) ) ;
#79 = LINE ( 'NONE', #133, #295 ) ;
#80 = CARTESIAN_POINT ( 'NONE',  ( -2.700000000000000178, 0.1000000000000000056, 3.239999999999999325 ) ) ;
#81 = LINE ( 'NONE', #350, #378 ) ;
#82 = ORIENTED_EDGE ( 'NONE', *, *, #425, .F. ) ;
#83 = LINE ( 'NONE', #349, #37 ) ;
#84 = VECTOR ( 'NONE', #234, 39.37007874015748143 ) ;
#85 = PLANE ( 'NONE',  #390 ) ;
#86 = EDGE_CURVE ( 'NONE', #42, #556, #281, .T. ) ;
#87 = ORIENTED_EDGE ( 'NONE', *, *, #242, .F. ) ;
#88 = DIRECTION ( 'NONE',  ( 1.000000000000000000, -0.000000000000000000, -0.000000000000000000 ) ) ;
#89 = DIRECTION ( 'NONE',  ( 1.000000000000000000, -0.000000000000000000, -0.000000000000000000 ) ) ;
#90 = ORIENTED_EDGE ( 'NONE', *, *, #399, .T. ) ;
#91 = DIRECTION ( 'NONE',  ( 0.000000000000000000, -1.000000000000000000, 0.000000000000000000 ) ) ;
#92 = UNCERTAINTY_MEASURE_WITH_UNIT (LENGTH_MEASURE( 1.000000000000000082E-05 ), #515, 'distance_accuracy_value', 'NONE');
#93 = LINE ( 'NONE', #452, #424 ) ;
#94 = ORIENTED_EDGE ( 'NONE', *, *, #425, .T. ) ;
#95 = CARTESIAN_POINT ( 'NONE',  ( -2.700000000000000178, 0.1000000000000000056, 0.000000000000000000 ) ) ;
#96 = EDGE_CURVE ( 'NONE', #303, #240, #381, .T. ) ;
#97 = FACE_OUTER_BOUND ( 'NONE', #46, .T. ) ;
#98 = VERTEX_POINT ( 'NONE', #472 ) ;
#99 = DIRECTION ( 'NONE',  ( 0.000000000000000000, -0.000000000000000000, -1.000000000000000000 ) ) ;
#100 = VECTOR ( 'NONE', #527, 39.37007874015748143 ) ;
#101 = DIRECTION ( 'NONE',  ( -0.000000000000000000, -1.000000000000000000, -0.000000000000000000 ) ) ;
#102 = ORIENTED_EDGE ( 'NONE', *, *, #31, .T. ) ;
#103 = DIRECTION ( 'NONE',  ( 1.000000000000000000, 0.000000000000000000, 0.000000000000000000 ) ) ;
#104 = CARTESIAN_POINT ( 'NONE',  ( 0.000000000000000000, 0.3999999999999999667, 2.539999999999999591 ) ) ;
#105 = ORIENTED_EDGE ( 'NONE', *, *, #558, .F. ) ;
#106 = EDGE_CURVE ( 'NONE', #240, #42, #72, .T. ) ;
#107 = VERTEX_POINT ( 'NONE', #114 ) ;
#108 = EDGE_CURVE ( 'NONE', #173, #110, #284, .T. ) ;
#109 = EDGE_LOOP ( 'NONE', ( #187, #201, #394, #143 ) ) ;
#110 = VERTEX_POINT ( 'NONE', #357 ) ;
#111 = LINE ( 'NONE', #502, #174 ) ;
#112 = ADVANCED_FACE ( 'NONE', ( #408 ), #219, .F. ) ;
#113 = CLOSED_SHELL ( 'NONE', ( #476, #315, #462, #197, #586, #294, #250, #575, #205, #524, #409, #483, #431, #569, #529, #112, #374, #451 ) ) ;
#114 = CARTESIAN_POINT ( 'NONE',  ( 0.000000000000000000, 0.2800000000000001377, 1.189999999999999947 ) ) ;
#115 = AXIS2_PLACEMENT_3D ( 'NONE', #257, #76, #165 ) ;
#116 = DIRECTION ( 'NONE',  ( -0.000000000000000000, -1.000000000000000000, -0.000000000000000000 ) ) ;
#117 = VERTEX_POINT ( 'NONE', #38 ) ;
#118 = FILL_AREA_STYLE_COLOUR ( '', #328 ) ;
#119 = ORIENTED_EDGE ( 'NONE', *, *, #69, .T. ) ;
#120 = EDGE_CURVE ( 'NONE', #259, #107, #216, .T. ) ;
#121 = LINE ( 'NONE', #78, #368 ) ;
#122 = VECTOR ( 'NONE', #66, 39.37007874015748143 ) ;
#123 = DIRECTION ( 'NONE',  ( -0.000000000000000000, -0.000000000000000000, -1.000000000000000000 ) ) ;
#124 =( NAMED_UNIT ( * ) SI_UNIT ( $, .STERADIAN. ) SOLID_ANGLE_UNIT ( ) );
#125 =( GEOMETRIC_REPRESENTATION_CONTEXT ( 3 ) GLOBAL_UNCERTAINTY_ASSIGNED_CONTEXT ( ( #2 ) ) GLOBAL_UNIT_ASSIGNED_CONTEXT ( ( #210, #578, #124 ) ) REPRESENTATION_CONTEXT ( 'NONE', 'WORKASPACE' ) );
#126 = CARTESIAN_POINT ( 'NONE',  ( -2.700000000000000178, 0.2800000000000001377, 1.189999999999999947 ) ) ;
#127 = VECTOR ( 'NONE', #176, 39.37007874015748143 ) ;
#128 = DIRECTION ( 'NONE',  ( -1.000000000000000000, 0.000000000000000000, 0.000000000000000000 ) ) ;
#129 = CARTESIAN_POINT ( 'NONE',  ( -2.700000000000000178, 0.1000000000000000056, 2.689999999999999947 ) ) ;
#130 = ORIENTED_EDGE ( 'NONE', *, *, #106, .F. ) ;
#131 = LINE ( 'NONE', #486, #443 ) ;
#132 = EDGE_CURVE ( 'NONE', #20, #42, #258, .T. ) ;
#133 = CARTESIAN_POINT ( 'NONE',  ( 0.000000000000000000, 0.1000000000000001998, 1.189999999999999947 ) ) ;
#134 = EDGE_LOOP ( 'NONE', ( #423, #209, #50, #362, #386, #438, #559, #428, #26, #159, #456, #58, #239, #169, #375, #330 ) ) ;
#135 = CARTESIAN_POINT ( 'NONE',  ( 0.000000000000000000, 0.1000000000000001998, 1.189999999999999947 ) ) ;
#136 = AXIS2_PLACEMENT_3D ( 'NONE', #167, #128, #439 ) ;
#137 = DIRECTION ( 'NONE',  ( 0.000000000000000000, -1.000000000000000000, 0.000000000000000000 ) ) ;
#138 = VECTOR ( 'NONE', #272, 39.37007874015748143 ) ;
#139 = FACE_OUTER_BOUND ( 'NONE', #39, .T. ) ;
#140 = VERTEX_POINT ( 'NONE', #129 ) ;
#141 = EDGE_CURVE ( 'NONE', #461, #533, #81, .T. ) ;
#142 = CARTESIAN_POINT ( 'NONE',  ( -2.700000000000000178, 0.3999999999999999667, 0.000000000000000000 ) ) ;
#143 = ORIENTED_EDGE ( 'NONE', *, *, #53, .T. ) ;
#144 = CARTESIAN_POINT ( 'NONE',  ( -2.700000000000000178, 0.1000000000000000056, 2.689999999999999947 ) ) ;
#145 = CARTESIAN_POINT ( 'NONE',  ( 0.000000000000000000, 0.000000000000000000, 3.500000000000000000 ) ) ;
#146 = VERTEX_POINT ( 'NONE', #401 ) ;
#147 = FACE_OUTER_BOUND ( 'NONE', #162, .T. ) ;
#148 = LINE ( 'NONE', #323, #231 ) ;
#149 = EDGE_LOOP ( 'NONE', ( #370, #329, #492, #235 ) ) ;
#150 = EDGE_CURVE ( 'NONE', #555, #377, #538, .T. ) ;
#151 = ORIENTED_EDGE ( 'NONE', *, *, #273, .F. ) ;
#152 = ORIENTED_EDGE ( 'NONE', *, *, #465, .T. ) ;
#153 = AXIS2_PLACEMENT_3D ( 'NONE', #185, #493, #1 ) ;
#154 = CARTESIAN_POINT ( 'NONE',  ( 0.000000000000000000, 0.000000000000000000, 0.000000000000000000 ) ) ;
#155 = VERTEX_POINT ( 'NONE', #579 ) ;
#156 = LINE ( 'NONE', #158, #490 ) ;
#157 = CARTESIAN_POINT ( 'NONE',  ( 0.000000000000000000, 0.1000000000000000056, 3.239999999999999325 ) ) ;
#158 = CARTESIAN_POINT ( 'NONE',  ( 0.000000000000000000, 0.1000000000000000056, 1.739999999999999769 ) ) ;
#159 = ORIENTED_EDGE ( 'NONE', *, *, #308, .T. ) ;
#160 = STYLED_ITEM ( 'NONE', ( #289 ), #410 ) ;
#161 = CARTESIAN_POINT ( 'NONE',  ( 0.000000000000000000, 0.2799999999999998046, 2.939999999999999947 ) ) ;
#162 = EDGE_LOOP ( 'NONE', ( #417, #28, #300, #220 ) ) ;
#163 = DIRECTION ( 'NONE',  ( 1.000000000000000000, 0.000000000000000000, -0.000000000000000000 ) ) ;
#164 = DIRECTION ( 'NONE',  ( -0.000000000000000000, -0.000000000000000000, -1.000000000000000000 ) ) ;
#165 = DIRECTION ( 'NONE',  ( -1.000000000000000000, 0.000000000000000000, -0.000000000000000000 ) ) ;
#166 = LINE ( 'NONE', #251, #517 ) ;
#167 = CARTESIAN_POINT ( 'NONE',  ( 0.000000000000000000, 0.1000000000000000056, 0.000000000000000000 ) ) ;
#168 = DIRECTION ( 'NONE',  ( 0.000000000000000000, -0.000000000000000000, 1.000000000000000000 ) ) ;
#169 = ORIENTED_EDGE ( 'NONE', *, *, #353, .T. ) ;
#170 = EDGE_CURVE ( 'NONE', #140, #20, #41, .T. ) ;
#171 =( LENGTH_UNIT ( ) NAMED_UNIT ( * ) SI_UNIT ( $, .METRE. ) );
#172 = DIRECTION ( 'NONE',  ( 0.000000000000000000, 0.000000000000000000, 1.000000000000000000 ) ) ;
#173 = VERTEX_POINT ( 'NONE', #532 ) ;
#174 = VECTOR ( 'NONE', #101, 39.37007874015748143 ) ;
#175 = DIRECTION ( 'NONE',  ( 1.000000000000000000, -0.000000000000000000, -0.000000000000000000 ) ) ;
#176 = DIRECTION ( 'NONE',  ( 1.000000000000000000, -0.000000000000000000, -0.000000000000000000 ) ) ;
#177 = ORIENTED_EDGE ( 'NONE', *, *, #214, .F. ) ;
#178 = VECTOR ( 'NONE', #364, 39.37007874015748143 ) ;
#179 = CARTESIAN_POINT ( 'NONE',  ( -2.700000000000000178, 0.1000000000000001998, 1.189999999999999947 ) ) ;
#180 = EDGE_CURVE ( 'NONE', #488, #107, #79, .T. ) ;
#181 = ORIENTED_EDGE ( 'NONE', *, *, #539, .F. ) ;
#182 = CARTESIAN_POINT ( 'NONE',  ( 0.000000000000000000, 0.3999999999999999667, 0.000000000000000000 ) ) ;
#183 = EDGE_CURVE ( 'NONE', #430, #459, #487, .T. ) ;
#184 = DIRECTION ( 'NONE',  ( 0.000000000000000000, 0.000000000000000000, 1.000000000000000000 ) ) ;
#185 = CARTESIAN_POINT ( 'NONE',  ( -2.700000000000000178, 0.2799999999999999711, 1.489999999999999769 ) ) ;
#186 = PLANE ( 'NONE',  #44 ) ;
#187 = ORIENTED_EDGE ( 'NONE', *, *, #399, .F. ) ;
#188 = VECTOR ( 'NONE', #123, 39.37007874015748143 ) ;
#189 = DIRECTION ( 'NONE',  ( -0.000000000000000000, -1.000000000000000000, -0.000000000000000000 ) ) ;
#190 = DIRECTION ( 'NONE',  ( 0.000000000000000000, -1.000000000000000000, 0.000000000000000000 ) ) ;
#191 = VECTOR ( 'NONE', #359, 39.37007874015748143 ) ;
#192 = ORIENTED_EDGE ( 'NONE', *, *, #242, .T. ) ;
#193 = ADVANCED_BREP_SHAPE_REPRESENTATION ( 'wall plate', ( #410, #356 ), #520 ) ;
#194 = CARTESIAN_POINT ( 'NONE',  ( 0.000000000000000000, 0.1000000000000000056, 0.000000000000000000 ) ) ;
#195 = ORIENTED_EDGE ( 'NONE', *, *, #441, .T. ) ;
#196 = ORIENTED_EDGE ( 'NONE', *, *, #236, .F. ) ;
#197 = ADVANCED_FACE ( 'NONE', ( #393 ), #85, .F. ) ;
#198 = EDGE_LOOP ( 'NONE', ( #398, #420, #478, #508 ) ) ;
#199 = VECTOR ( 'NONE', #332, 39.37007874015748143 ) ;
#200 = DIMENSIONAL_EXPONENTS ( 1.000000000000000000, 0.000000000000000000, 0.000000000000000000, 0.000000000000000000, 0.000000000000000000, 0.000000000000000000, 0.000000000000000000 ) ;
#201 = ORIENTED_EDGE ( 'NONE', *, *, #279, .F. ) ;
#202 = CARTESIAN_POINT ( 'NONE',  ( 0.000000000000000000, 0.3999999999999999667, 2.939999999999999947 ) ) ;
#203 = EDGE_LOOP ( 'NONE', ( #442, #63, #525, #35 ) ) ;
#204 = ORIENTED_EDGE ( 'NONE', *, *, #342, .F. ) ;
#205 = ADVANCED_FACE ( 'NONE', ( #226 ), #299, .F. ) ;
#206 = AXIS2_PLACEMENT_3D ( 'NONE', #455, #71, #269 ) ;
#207 = FACE_OUTER_BOUND ( 'NONE', #320, .T. ) ;
#208 = EDGE_CURVE ( 'NONE', #461, #324, #262, .T. ) ;
#209 = ORIENTED_EDGE ( 'NONE', *, *, #342, .T. ) ;
#210 =( CONVERSION_BASED_UNIT ( 'INCH', #473 ) LENGTH_UNIT ( ) NAMED_UNIT ( #200 ) );
#211 = DIRECTION ( 'NONE',  ( 1.000000000000000000, -0.000000000000000000, -0.000000000000000000 ) ) ;
#212 = PLANE ( 'NONE',  #136 ) ;
#213 = CARTESIAN_POINT ( 'NONE',  ( 0.000000000000000000, 0.000000000000000000, 0.000000000000000000 ) ) ;
#214 = EDGE_CURVE ( 'NONE', #155, #485, #256, .T. ) ;
#215 = ORIENTED_EDGE ( 'NONE', *, *, #287, .T. ) ;
#216 = LINE ( 'NONE', #126, #100 ) ;
#217 = ORIENTED_EDGE ( 'NONE', *, *, #9, .F. ) ;
#218 = CARTESIAN_POINT ( 'NONE',  ( -2.700000000000000178, 0.3999999999999999667, 3.239999999999999325 ) ) ;
#219 = PLANE ( 'NONE',  #528 ) ;
#220 = ORIENTED_EDGE ( 'NONE', *, *, #183, .T. ) ;
#221 = DIRECTION ( 'NONE',  ( 0.000000000000000000, -1.000000000000000000, 0.000000000000000000 ) ) ;
#222 = CARTESIAN_POINT ( 'NONE',  ( 0.000000000000000000, 0.3999999999999999667, 3.239999999999999325 ) ) ;
#223 = VECTOR ( 'NONE', #341, 39.37007874015748143 ) ;
#224 = ORIENTED_EDGE ( 'NONE', *, *, #120, .F. ) ;
#225 = DIRECTION ( 'NONE',  ( 0.000000000000000000, -0.000000000000000000, 1.000000000000000000 ) ) ;
#226 = FACE_OUTER_BOUND ( 'NONE', #203, .T. ) ;
#227 = VECTOR ( 'NONE', #582, 39.37007874015748143 ) ;
#228 = ORIENTED_EDGE ( 'NONE', *, *, #108, .F. ) ;
#229 = FACE_OUTER_BOUND ( 'NONE', #358, .T. ) ;
#230 = CARTESIAN_POINT ( 'NONE',  ( -2.700000000000000178, 0.3999999999999999667, 3.500000000000000000 ) ) ;
#231 = VECTOR ( 'NONE', #286, 39.37007874015748143 ) ;
#232 = ORIENTED_EDGE ( 'NONE', *, *, #494, .F. ) ;
#233 = PLANE ( 'NONE',  #153 ) ;
#234 = DIRECTION ( 'NONE',  ( -0.000000000000000000, -0.000000000000000000, -1.000000000000000000 ) ) ;
#235 = ORIENTED_EDGE ( 'NONE', *, *, #236, .T. ) ;
#236 = EDGE_CURVE ( 'NONE', #140, #556, #45, .T. ) ;
#237 = LINE ( 'NONE', #283, #322 ) ;
#238 = AXIS2_PLACEMENT_3D ( 'NONE', #352, #91, #450 ) ;
#239 = ORIENTED_EDGE ( 'NONE', *, *, #75, .F. ) ;
#240 = VERTEX_POINT ( 'NONE', #222 ) ;
#241 = PRODUCT_DEFINITION_CONTEXT ( 'detailed design', #561, 'design' ) ;
#242 = EDGE_CURVE ( 'NONE', #98, #488, #404, .T. ) ;
#243 = ORIENTED_EDGE ( 'NONE', *, *, #150, .T. ) ;
#244 = ORIENTED_EDGE ( 'NONE', *, *, #326, .F. ) ;
#245 = LINE ( 'NONE', #68, #55 ) ;
#246 = ORIENTED_EDGE ( 'NONE', *, *, #507, .T. ) ;
#247 = PRODUCT ( 'wall plate', 'wall plate', '', ( #14 ) ) ;
#248 = CARTESIAN_POINT ( 'NONE',  ( 0.000000000000000000, 0.000000000000000000, 0.000000000000000000 ) ) ;
#249 = ORIENTED_EDGE ( 'NONE', *, *, #396, .T. ) ;
#250 = ADVANCED_FACE ( 'NONE', ( #139 ), #495, .T. ) ;
#251 = CARTESIAN_POINT ( 'NONE',  ( -2.700000000000000178, 0.1000000000000000056, 2.689999999999999947 ) ) ;
#252 = VECTOR ( 'NONE', #400, 39.37007874015748143 ) ;
#253 = SURFACE_STYLE_FILL_AREA ( #297 ) ;
#254 = DIRECTION ( 'NONE',  ( 0.000000000000000000, 1.000000000000000000, 0.000000000000000000 ) ) ;
#255 = LINE ( 'NONE', #477, #433 ) ;
#256 = LINE ( 'NONE', #587, #380 ) ;
#257 = CARTESIAN_POINT ( 'NONE',  ( -2.700000000000000178, 0.1000000000000001998, 1.189999999999999947 ) ) ;
#258 = LINE ( 'NONE', #296, #227 ) ;
#259 = VERTEX_POINT ( 'NONE', #347 ) ;
#260 = CARTESIAN_POINT ( 'NONE',  ( -2.700000000000000178, 0.3999999999999999667, 1.739999999999999769 ) ) ;
#261 = PRODUCT_DEFINITION_FORMATION_WITH_SPECIFIED_SOURCE ( 'ANY', '', #247, .NOT_KNOWN. ) ;
#262 = LINE ( 'NONE', #306, #562 ) ;
#263 = ORIENTED_EDGE ( 'NONE', *, *, #360, .T. ) ;
#264 = CARTESIAN_POINT ( 'NONE',  ( -2.700000000000000178, 0.000000000000000000, 3.500000000000000000 ) ) ;
#265 = CARTESIAN_POINT ( 'NONE',  ( -2.700000000000000178, 0.3999999999999999667, 1.739999999999999769 ) ) ;
#266 = ORIENTED_EDGE ( 'NONE', *, *, #132, .T. ) ;
#267 = FACE_OUTER_BOUND ( 'NONE', #463, .T. ) ;
#268 = DIRECTION ( 'NONE',  ( 0.000000000000000000, -0.000000000000000000, -1.000000000000000000 ) ) ;
#269 = DIRECTION ( 'NONE',  ( -1.000000000000000000, 0.000000000000000000, -0.000000000000000000 ) ) ;
#270 = ORIENTED_EDGE ( 'NONE', *, *, #465, .F. ) ;
#271 = PLANE ( 'NONE',  #540 ) ;
#272 = DIRECTION ( 'NONE',  ( 0.000000000000000000, 0.000000000000000000, 1.000000000000000000 ) ) ;
#273 = EDGE_CURVE ( 'NONE', #533, #107, #93, .T. ) ;
#274 = ORIENTED_EDGE ( 'NONE', *, *, #360, .F. ) ;
#275 = DIRECTION ( 'NONE',  ( -1.000000000000000000, 0.000000000000000000, -0.000000000000000000 ) ) ;
#276 = ORIENTED_EDGE ( 'NONE', *, *, #170, .T. ) ;
#277 = VECTOR ( 'NONE', #175, 39.37007874015748143 ) ;
#278 = EDGE_LOOP ( 'NONE', ( #54, #105, #82, #195 ) ) ;
#279 = EDGE_CURVE ( 'NONE', #453, #402, #361, .T. ) ;
#280 = ORIENTED_EDGE ( 'NONE', *, *, #132, .F. ) ;
#281 = LINE ( 'NONE', #435, #223 ) ;
#282 =( NAMED_UNIT ( * ) PLANE_ANGLE_UNIT ( ) SI_UNIT ( $, .RADIAN. ) );
#283 = CARTESIAN_POINT ( 'NONE',  ( -2.700000000000000178, 0.3999999999999999667, 3.189999999999999503 ) ) ;
#284 = LINE ( 'NONE', #70, #501 ) ;
#285 = MECHANICAL_DESIGN_GEOMETRIC_PRESENTATION_REPRESENTATION (  '', ( #160 ), #125 ) ;
#286 = DIRECTION ( 'NONE',  ( 0.000000000000000000, 1.000000000000000000, 0.000000000000000000 ) ) ;
#287 = EDGE_CURVE ( 'NONE', #98, #464, #429, .T. ) ;
#288 = LINE ( 'NONE', #470, #11 ) ;
#289 = PRESENTATION_STYLE_ASSIGNMENT (( #30 ) ) ;
#290 = VERTEX_POINT ( 'NONE', #142 ) ;
#291 = PLANE ( 'NONE',  #115 ) ;
#292 = VECTOR ( 'NONE', #337, 39.37007874015748143 ) ;
#293 = CARTESIAN_POINT ( 'NONE',  ( 0.000000000000000000, 0.1000000000000000056, 0.000000000000000000 ) ) ;
#294 = ADVANCED_FACE ( 'NONE', ( #22 ), #383, .F. ) ;
#295 = VECTOR ( 'NONE', #302, 39.37007874015748143 ) ;
#296 = CARTESIAN_POINT ( 'NONE',  ( -2.700000000000000178, 0.1000000000000000056, 3.239999999999999325 ) ) ;
#297 = FILL_AREA_STYLE ('',( #118 ) ) ;
#298 = VECTOR ( 'NONE', #546, 39.37007874015748143 ) ;
#299 = PLANE ( 'NONE',  #543 ) ;
#300 = ORIENTED_EDGE ( 'NONE', *, *, #382, .F. ) ;
#301 = CARTESIAN_POINT ( 'NONE',  ( -2.700000000000000178, 0.1000000000000000056, 1.739999999999999769 ) ) ;
#302 = DIRECTION ( 'NONE',  ( 0.000000000000000000, 1.000000000000000000, 0.000000000000000000 ) ) ;
#303 = VERTEX_POINT ( 'NONE', #418 ) ;
#304 = FACE_OUTER_BOUND ( 'NONE', #149, .T. ) ;
#305 = EDGE_CURVE ( 'NONE', #377, #173, #319, .T. ) ;
#306 = CARTESIAN_POINT ( 'NONE',  ( -2.700000000000000178, 0.2799999999999999711, 1.439999999999999947 ) ) ;
#307 = VECTOR ( 'NONE', #416, 39.37007874015748143 ) ;
#308 = EDGE_CURVE ( 'NONE', #146, #20, #335, .T. ) ;
#309 = ORIENTED_EDGE ( 'NONE', *, *, #419, .F. ) ;
#310 = LINE ( 'NONE', #218, #252 ) ;
#311 = DIRECTION ( 'NONE',  ( 0.000000000000000000, -0.000000000000000000, -1.000000000000000000 ) ) ;
#312 = ORIENTED_EDGE ( 'NONE', *, *, #96, .T. ) ;
#313 = CARTESIAN_POINT ( 'NONE',  ( -2.700000000000000178, 0.1000000000000000056, 1.739999999999999769 ) ) ;
#314 = CARTESIAN_POINT ( 'NONE',  ( -2.700000000000000178, 0.3999999999999999667, 1.439999999999999947 ) ) ;
#315 = ADVANCED_FACE ( 'NONE', ( #97 ), #427, .F. ) ;
#316 = VERTEX_POINT ( 'NONE', #202 ) ;
#317 = LINE ( 'NONE', #585, #191 ) ;
#318 = EDGE_CURVE ( 'NONE', #290, #324, #549, .T. ) ;
#319 = LINE ( 'NONE', #248, #84 ) ;
#320 = EDGE_LOOP ( 'NONE', ( #23, #224, #204, #192 ) ) ;
#321 = DIRECTION ( 'NONE',  ( 0.000000000000000000, -0.000000000000000000, -1.000000000000000000 ) ) ;
#322 = VECTOR ( 'NONE', #467, 39.37007874015748143 ) ;
#323 = CARTESIAN_POINT ( 'NONE',  ( -2.700000000000000178, 0.2799999999999998046, 2.939999999999999947 ) ) ;
#324 = VERTEX_POINT ( 'NONE', #314 ) ;
#325 = VECTOR ( 'NONE', #460, 39.37007874015748143 ) ;
#326 = EDGE_CURVE ( 'NONE', #110, #555, #563, .T. ) ;
#327 = ORIENTED_EDGE ( 'NONE', *, *, #389, .F. ) ;
#328 = COLOUR_RGB ( '',0.7921568627450980005, 0.8196078431372548767, 0.9333333333333333481 ) ;
#329 = ORIENTED_EDGE ( 'NONE', *, *, #53, .F. ) ;
#330 = ORIENTED_EDGE ( 'NONE', *, *, #382, .T. ) ;
#331 = CARTESIAN_POINT ( 'NONE',  ( -2.700000000000000178, 0.2799999999999998046, 2.939999999999999947 ) ) ;
#332 = DIRECTION ( 'NONE',  ( -0.000000000000000000, -1.000000000000000000, -0.000000000000000000 ) ) ;
#333 = APPLICATION_PROTOCOL_DEFINITION ( 'draft international standard', 'automotive_design', 1998, #572 ) ;
#334 = VECTOR ( 'NONE', #518, 39.37007874015748143 ) ;
#335 = LINE ( 'NONE', #57, #307 ) ;
#336 = EDGE_CURVE ( 'NONE', #459, #117, #156, .T. ) ;
#337 = DIRECTION ( 'NONE',  ( 1.000000000000000000, -0.000000000000000000, -0.000000000000000000 ) ) ;
#338 = DIRECTION ( 'NONE',  ( -0.000000000000000000, -0.000000000000000000, -1.000000000000000000 ) ) ;
#339 = LINE ( 'NONE', #74, #47 ) ;
#340 = SURFACE_SIDE_STYLE ('',( #253 ) ) ;
#341 = DIRECTION ( 'NONE',  ( -0.000000000000000000, -0.000000000000000000, -1.000000000000000000 ) ) ;
#342 = EDGE_CURVE ( 'NONE', #98, #259, #413, .T. ) ;
#343 = CARTESIAN_POINT ( 'NONE',  ( -2.700000000000000178, 0.2799999999999999711, 2.939999999999999947 ) ) ;
#344 = DIRECTION ( 'NONE',  ( 1.000000000000000000, -0.000000000000000000, -0.000000000000000000 ) ) ;
#345 = CARTESIAN_POINT ( 'NONE',  ( 0.000000000000000000, 0.3999999999999999667, 1.739999999999999769 ) ) ;
#346 = VECTOR ( 'NONE', #172, 39.37007874015748143 ) ;
#347 = CARTESIAN_POINT ( 'NONE',  ( -2.700000000000000178, 0.2800000000000001377, 1.189999999999999947 ) ) ;
#348 = ORIENTED_EDGE ( 'NONE', *, *, #86, .F. ) ;
#349 = CARTESIAN_POINT ( 'NONE',  ( 0.000000000000000000, 0.2799999999999998046, 2.939999999999999947 ) ) ;
#350 = CARTESIAN_POINT ( 'NONE',  ( -2.700000000000000178, 0.2799999999999999711, 1.439999999999999947 ) ) ;
#351 = ORIENTED_EDGE ( 'NONE', *, *, #141, .F. ) ;
#352 = CARTESIAN_POINT ( 'NONE',  ( 0.000000000000000000, 0.3999999999999999667, 0.000000000000000000 ) ) ;
#353 = EDGE_CURVE ( 'NONE', #453, #17, #148, .T. ) ;
#354 = DIRECTION ( 'NONE',  ( -1.000000000000000000, 0.000000000000000000, 0.000000000000000000 ) ) ;
#355 = CARTESIAN_POINT ( 'NONE',  ( 0.000000000000000000, 0.2799999999999999711, 1.439999999999999947 ) ) ;
#356 = AXIS2_PLACEMENT_3D ( 'NONE', #154, #376, #373 ) ;
#357 = CARTESIAN_POINT ( 'NONE',  ( -2.700000000000000178, 0.000000000000000000, 0.000000000000000000 ) ) ;
#358 = EDGE_LOOP ( 'NONE', ( #312, #64, #249, #466 ) ) ;
#359 = DIRECTION ( 'NONE',  ( 0.000000000000000000, 0.000000000000000000, 1.000000000000000000 ) ) ;
#360 = EDGE_CURVE ( 'NONE', #303, #377, #471, .T. ) ;
#361 = LINE ( 'NONE', #331, #444 ) ;
#362 = ORIENTED_EDGE ( 'NONE', *, *, #208, .T. ) ;
#363 = EDGE_CURVE ( 'NONE', #372, #555, #245, .T. ) ;
#364 = DIRECTION ( 'NONE',  ( 0.000000000000000000, 1.000000000000000000, 0.000000000000000000 ) ) ;
#365 = DIRECTION ( 'NONE',  ( 1.000000000000000000, -0.000000000000000000, -0.000000000000000000 ) ) ;
#366 = ORIENTED_EDGE ( 'NONE', *, *, #363, .T. ) ;
#367 = LINE ( 'NONE', #581, #277 ) ;
#368 = VECTOR ( 'NONE', #573, 39.37007874015748143 ) ;
#369 = CARTESIAN_POINT ( 'NONE',  ( -2.700000000000000178, 0.000000000000000000, 0.000000000000000000 ) ) ;
#370 = ORIENTED_EDGE ( 'NONE', *, *, #494, .T. ) ;
#371 = SHAPE_DEFINITION_REPRESENTATION ( #65, #193 ) ;
#372 = VERTEX_POINT ( 'NONE', #230 ) ;
#373 = DIRECTION ( 'NONE',  ( 1.000000000000000000, 0.000000000000000000, 0.000000000000000000 ) ) ;
#374 = ADVANCED_FACE ( 'NONE', ( #7 ), #186, .F. ) ;
#375 = ORIENTED_EDGE ( 'NONE', *, *, #553, .F. ) ;
#376 = DIRECTION ( 'NONE',  ( 0.000000000000000000, 0.000000000000000000, 1.000000000000000000 ) ) ;
#377 = VERTEX_POINT ( 'NONE', #145 ) ;
#378 = VECTOR ( 'NONE', #397, 39.37007874015748143 ) ;
#379 = DIRECTION ( 'NONE',  ( 0.000000000000000000, -0.000000000000000000, -1.000000000000000000 ) ) ;
#380 = VECTOR ( 'NONE', #491, 39.37007874015748143 ) ;
#381 = LINE ( 'NONE', #392, #122 ) ;
#382 = EDGE_CURVE ( 'NONE', #430, #464, #111, .T. ) ;
#383 = PLANE ( 'NONE',  #206 ) ;
#384 = LINE ( 'NONE', #570, #292 ) ;
#385 = LINE ( 'NONE', #434, #557 ) ;
#386 = ORIENTED_EDGE ( 'NONE', *, *, #318, .F. ) ;
#387 = VECTOR ( 'NONE', #189, 39.37007874015748143 ) ;
#388 = AXIS2_PLACEMENT_3D ( 'NONE', #194, #190, #379 ) ;
#389 = EDGE_CURVE ( 'NONE', #316, #459, #458, .T. ) ;
#390 = AXIS2_PLACEMENT_3D ( 'NONE', #542, #168, #49 ) ;
#391 = CARTESIAN_POINT ( 'NONE',  ( -2.700000000000000178, 0.1000000000000000056, 3.239999999999999325 ) ) ;
#392 = CARTESIAN_POINT ( 'NONE',  ( 0.000000000000000000, 0.3999999999999999667, 3.189999999999999503 ) ) ;
#393 = FACE_OUTER_BOUND ( 'NONE', #278, .T. ) ;
#394 = ORIENTED_EDGE ( 'NONE', *, *, #75, .T. ) ;
#395 = DIRECTION ( 'NONE',  ( 0.000000000000000000, -0.000000000000000000, 1.000000000000000000 ) ) ;
#396 = EDGE_CURVE ( 'NONE', #146, #372, #237, .T. ) ;
#397 = DIRECTION ( 'NONE',  ( 1.000000000000000000, -0.000000000000000000, -0.000000000000000000 ) ) ;
#398 = ORIENTED_EDGE ( 'NONE', *, *, #419, .T. ) ;
#399 = EDGE_CURVE ( 'NONE', #402, #411, #385, .T. ) ;
#400 = DIRECTION ( 'NONE',  ( 1.000000000000000000, -0.000000000000000000, -0.000000000000000000 ) ) ;
#401 = CARTESIAN_POINT ( 'NONE',  ( -2.700000000000000178, 0.3999999999999999667, 3.239999999999999325 ) ) ;
#402 = VERTEX_POINT ( 'NONE', #161 ) ;
#403 = PLANE ( 'NONE',  #589 ) ;
#404 = LINE ( 'NONE', #179, #531 ) ;
#405 = ORIENTED_EDGE ( 'NONE', *, *, #273, .T. ) ;
#406 = LINE ( 'NONE', #412, #500 ) ;
#407 = AXIS2_PLACEMENT_3D ( 'NONE', #80, #534, #163 ) ;
#408 = FACE_OUTER_BOUND ( 'NONE', #198, .T. ) ;
#409 = ADVANCED_FACE ( 'NONE', ( #530 ), #36, .F. ) ;
#410 = MANIFOLD_SOLID_BREP ( 'Cut-Extrude1', #113 ) ;
#411 = VERTEX_POINT ( 'NONE', #480 ) ;
#412 = CARTESIAN_POINT ( 'NONE',  ( 0.000000000000000000, 0.3999999999999999667, 3.500000000000000000 ) ) ;
#413 = LINE ( 'NONE', #12, #5 ) ;
#414 = ORIENTED_EDGE ( 'NONE', *, *, #305, .F. ) ;
#415 = CARTESIAN_POINT ( 'NONE',  ( 0.000000000000000000, 0.1000000000000000056, 2.689999999999999947 ) ) ;
#416 = DIRECTION ( 'NONE',  ( -0.000000000000000000, -1.000000000000000000, -0.000000000000000000 ) ) ;
#417 = ORIENTED_EDGE ( 'NONE', *, *, #336, .T. ) ;
#418 = CARTESIAN_POINT ( 'NONE',  ( 0.000000000000000000, 0.3999999999999999667, 3.500000000000000000 ) ) ;
#419 = EDGE_CURVE ( 'NONE', #402, #316, #83, .T. ) ;
#420 = ORIENTED_EDGE ( 'NONE', *, *, #24, .F. ) ;
#421 = AXIS2_PLACEMENT_3D ( 'NONE', #213, #577, #311 ) ;
#422 = ORIENTED_EDGE ( 'NONE', *, *, #96, .F. ) ;
#423 = ORIENTED_EDGE ( 'NONE', *, *, #287, .F. ) ;
#424 = VECTOR ( 'NONE', #566, 39.37007874015748143 ) ;
#425 = EDGE_CURVE ( 'NONE', #485, #290, #121, .T. ) ;
#426 = EDGE_LOOP ( 'NONE', ( #544, #280, #60, #246 ) ) ;
#427 = PLANE ( 'NONE',  #388 ) ;
#428 = ORIENTED_EDGE ( 'NONE', *, *, #363, .F. ) ;
#429 = LINE ( 'NONE', #519, #521 ) ;
#430 = VERTEX_POINT ( 'NONE', #260 ) ;
#431 = ADVANCED_FACE ( 'NONE', ( #576 ), #73, .F. ) ;
#432 = ORIENTED_EDGE ( 'NONE', *, *, #513, .F. ) ;
#433 = VECTOR ( 'NONE', #27, 39.37007874015748143 ) ;
#434 = CARTESIAN_POINT ( 'NONE',  ( 0.000000000000000000, 0.2799999999999999711, 2.989999999999999325 ) ) ;
#435 = CARTESIAN_POINT ( 'NONE',  ( 0.000000000000000000, 0.1000000000000000056, 0.000000000000000000 ) ) ;
#436 = CARTESIAN_POINT ( 'NONE',  ( -2.700000000000000178, 0.2799999999999999711, 1.439999999999999947 ) ) ;
#437 = DIRECTION ( 'NONE',  ( 1.000000000000000000, -0.000000000000000000, -0.000000000000000000 ) ) ;
#438 = ORIENTED_EDGE ( 'NONE', *, *, #558, .T. ) ;
#439 = DIRECTION ( 'NONE',  ( 0.000000000000000000, 0.000000000000000000, 1.000000000000000000 ) ) ;
#440 = DIRECTION ( 'NONE',  ( 0.000000000000000000, 0.000000000000000000, -1.000000000000000000 ) ) ;
#441 = EDGE_CURVE ( 'NONE', #485, #173, #255, .T. ) ;
#442 = ORIENTED_EDGE ( 'NONE', *, *, #553, .T. ) ;
#443 = VECTOR ( 'NONE', #25, 39.37007874015748143 ) ;
#444 = VECTOR ( 'NONE', #365, 39.37007874015748143 ) ;
#445 =( LENGTH_UNIT ( ) NAMED_UNIT ( * ) SI_UNIT ( $, .METRE. ) );
#446 = CARTESIAN_POINT ( 'NONE',  ( -2.700000000000000178, 0.2799999999999998046, 2.939999999999999947 ) ) ;
#447 = CARTESIAN_POINT ( 'NONE',  ( 0.000000000000000000, 0.1000000000000000056, 2.689999999999999947 ) ) ;
#448 = CARTESIAN_POINT ( 'NONE',  ( 0.000000000000000000, 0.3999999999999999667, 0.000000000000000000 ) ) ;
#449 = ORIENTED_EDGE ( 'NONE', *, *, #214, .T. ) ;
#450 = DIRECTION ( 'NONE',  ( 0.000000000000000000, -0.000000000000000000, -1.000000000000000000 ) ) ;
#451 = ADVANCED_FACE ( 'NONE', ( #207 ), #291, .F. ) ;
#452 = CARTESIAN_POINT ( 'NONE',  ( 0.000000000000000000, 0.2799999999999999711, 1.489999999999999769 ) ) ;
#453 = VERTEX_POINT ( 'NONE', #343 ) ;
#454 = LINE ( 'NONE', #415, #178 ) ;
#455 = CARTESIAN_POINT ( 'NONE',  ( 0.000000000000000000, 0.1000000000000000056, 3.500000000000000000 ) ) ;
#456 = ORIENTED_EDGE ( 'NONE', *, *, #170, .F. ) ;
#457 = CARTESIAN_POINT ( 'NONE',  ( 0.000000000000000000, 0.1000000000000000056, 0.000000000000000000 ) ) ;
#458 = LINE ( 'NONE', #104, #325 ) ;
#459 = VERTEX_POINT ( 'NONE', #345 ) ;
#460 = DIRECTION ( 'NONE',  ( -0.000000000000000000, -0.000000000000000000, -1.000000000000000000 ) ) ;
#461 = VERTEX_POINT ( 'NONE', #436 ) ;
#462 = ADVANCED_FACE ( 'NONE', ( #33 ), #212, .F. ) ;
#463 = EDGE_LOOP ( 'NONE', ( #276, #266, #77, #196 ) ) ;
#464 = VERTEX_POINT ( 'NONE', #301 ) ;
#465 = EDGE_CURVE ( 'NONE', #533, #155, #131, .T. ) ;
#466 = ORIENTED_EDGE ( 'NONE', *, *, #539, .T. ) ;
#467 = DIRECTION ( 'NONE',  ( 0.000000000000000000, 0.000000000000000000, 1.000000000000000000 ) ) ;
#468 = AXIS2_PLACEMENT_3D ( 'NONE', #144, #6, #56 ) ;
#469 = AXIS2_PLACEMENT_3D ( 'NONE', #523, #482, #395 ) ;
#470 = CARTESIAN_POINT ( 'NONE',  ( -2.700000000000000178, 0.2799999999999999711, 2.689999999999999947 ) ) ;
#471 = LINE ( 'NONE', #498, #298 ) ;
#472 = CARTESIAN_POINT ( 'NONE',  ( -2.700000000000000178, 0.1000000000000001998, 1.189999999999999947 ) ) ;
#473 = LENGTH_MEASURE_WITH_UNIT ( LENGTH_MEASURE( 0.02539999999999999897 ), #171 );
#474 = LINE ( 'NONE', #293, #188 ) ;
#475 = VECTOR ( 'NONE', #164, 39.37007874015748143 ) ;
#476 = ADVANCED_FACE ( 'NONE', ( #267 ), #40, .F. ) ;
#477 = CARTESIAN_POINT ( 'NONE',  ( 0.000000000000000000, 0.1000000000000000056, 0.000000000000000000 ) ) ;
#478 = ORIENTED_EDGE ( 'NONE', *, *, #353, .F. ) ;
#479 = VECTOR ( 'NONE', #89, 39.37007874015748143 ) ;
#480 = CARTESIAN_POINT ( 'NONE',  ( 0.000000000000000000, 0.2799999999999999711, 2.689999999999999947 ) ) ;
#481 = CARTESIAN_POINT ( 'NONE',  ( -2.700000000000000178, 0.1000000000000000056, 0.000000000000000000 ) ) ;
#482 = DIRECTION ( 'NONE',  ( 0.000000000000000000, 1.000000000000000000, 0.000000000000000000 ) ) ;
#483 = ADVANCED_FACE ( 'NONE', ( #229 ), #51, .F. ) ;
#484 = DIRECTION ( 'NONE',  ( -1.000000000000000000, 0.000000000000000000, -0.000000000000000000 ) ) ;
#485 = VERTEX_POINT ( 'NONE', #10 ) ;
#486 = CARTESIAN_POINT ( 'NONE',  ( 0.000000000000000000, 0.2799999999999999711, 1.439999999999999947 ) ) ;
#487 = LINE ( 'NONE', #265, #127 ) ;
#488 = VERTEX_POINT ( 'NONE', #135 ) ;
#489 = PLANE ( 'NONE',  #468 ) ;
#490 = VECTOR ( 'NONE', #116, 39.37007874015748143 ) ;
#491 = DIRECTION ( 'NONE',  ( -0.000000000000000000, -0.000000000000000000, -1.000000000000000000 ) ) ;
#492 = ORIENTED_EDGE ( 'NONE', *, *, #18, .F. ) ;
#493 = DIRECTION ( 'NONE',  ( 0.000000000000000000, 1.000000000000000000, 0.000000000000000000 ) ) ;
#494 = EDGE_CURVE ( 'NONE', #556, #411, #454, .T. ) ;
#495 = PLANE ( 'NONE',  #421 ) ;
#496 = ORIENTED_EDGE ( 'NONE', *, *, #336, .F. ) ;
#497 = FACE_OUTER_BOUND ( 'NONE', #13, .T. ) ;
#498 = CARTESIAN_POINT ( 'NONE',  ( 0.000000000000000000, 0.1000000000000000056, 3.500000000000000000 ) ) ;
#499 = CARTESIAN_POINT ( 'NONE',  ( -2.700000000000000178, 0.2799999999999999711, 2.689999999999999947 ) ) ;
#500 = VECTOR ( 'NONE', #88, 39.37007874015748143 ) ;
#501 = VECTOR ( 'NONE', #354, 39.37007874015748143 ) ;
#502 = CARTESIAN_POINT ( 'NONE',  ( -2.700000000000000178, 0.1000000000000000056, 1.739999999999999769 ) ) ;
#503 = VERTEX_POINT ( 'NONE', #499 ) ;
#504 = VECTOR ( 'NONE', #344, 39.37007874015748143 ) ;
#505 = DIRECTION ( 'NONE',  ( 1.000000000000000000, 0.000000000000000000, -0.000000000000000000 ) ) ;
#506 = CARTESIAN_POINT ( 'NONE',  ( -2.700000000000000178, 0.2799999999999999711, 1.439999999999999947 ) ) ;
#507 = EDGE_CURVE ( 'NONE', #146, #240, #310, .T. ) ;
#508 = ORIENTED_EDGE ( 'NONE', *, *, #279, .T. ) ;
#509 = LENGTH_MEASURE_WITH_UNIT ( LENGTH_MEASURE( 0.02539999999999999897 ), #445 );
#510 = ORIENTED_EDGE ( 'NONE', *, *, #9, .T. ) ;
#511 = AXIS2_PLACEMENT_3D ( 'NONE', #457, #548, #99 ) ;
#512 = EDGE_LOOP ( 'NONE', ( #151, #351, #119, #522 ) ) ;
#513 = EDGE_CURVE ( 'NONE', #324, #155, #367, .T. ) ;
#514 = DIRECTION ( 'NONE',  ( 1.000000000000000000, -0.000000000000000000, -0.000000000000000000 ) ) ;
#515 =( CONVERSION_BASED_UNIT ( 'INCH', #509 ) LENGTH_UNIT ( ) NAMED_UNIT ( #29 ) );
#516 = DIRECTION ( 'NONE',  ( 0.000000000000000000, 0.000000000000000000, 1.000000000000000000 ) ) ;
#517 = VECTOR ( 'NONE', #254, 39.37007874015748143 ) ;
#518 = DIRECTION ( 'NONE',  ( -0.000000000000000000, -0.000000000000000000, -1.000000000000000000 ) ) ;
#519 = CARTESIAN_POINT ( 'NONE',  ( -2.700000000000000178, 0.1000000000000000056, 0.000000000000000000 ) ) ;
#520 =( GEOMETRIC_REPRESENTATION_CONTEXT ( 3 ) GLOBAL_UNCERTAINTY_ASSIGNED_CONTEXT ( ( #92 ) ) GLOBAL_UNIT_ASSIGNED_CONTEXT ( ( #515, #282, #67 ) ) REPRESENTATION_CONTEXT ( 'NONE', 'WORKASPACE' ) );
#521 = VECTOR ( 'NONE', #184, 39.37007874015748143 ) ;
#522 = ORIENTED_EDGE ( 'NONE', *, *, #120, .T. ) ;
#523 = CARTESIAN_POINT ( 'NONE',  ( -2.700000000000000178, 0.2799999999999999711, 2.989999999999999325 ) ) ;
#524 = ADVANCED_FACE ( 'NONE', ( #537 ), #233, .F. ) ;
#525 = ORIENTED_EDGE ( 'NONE', *, *, #389, .T. ) ;
#526 = CARTESIAN_POINT ( 'NONE',  ( -2.700000000000000178, 0.2799999999999999711, 2.989999999999999325 ) ) ;
#527 = DIRECTION ( 'NONE',  ( 1.000000000000000000, -0.000000000000000000, -0.000000000000000000 ) ) ;
#528 = AXIS2_PLACEMENT_3D ( 'NONE', #446, #440, #484 ) ;
#529 = ADVANCED_FACE ( 'NONE', ( #304 ), #489, .F. ) ;
#530 = FACE_OUTER_BOUND ( 'NONE', #109, .T. ) ;
#531 = VECTOR ( 'NONE', #437, 39.37007874015748143 ) ;
#532 = CARTESIAN_POINT ( 'NONE',  ( 0.000000000000000000, 0.000000000000000000, 0.000000000000000000 ) ) ;
#533 = VERTEX_POINT ( 'NONE', #355 ) ;
#534 = DIRECTION ( 'NONE',  ( 0.000000000000000000, -0.000000000000000000, 1.000000000000000000 ) ) ;
#535 = CARTESIAN_POINT ( 'NONE',  ( 0.000000000000000000, 0.000000000000000000, 3.500000000000000000 ) ) ;
#536 = ORIENTED_EDGE ( 'NONE', *, *, #141, .T. ) ;
#537 = FACE_OUTER_BOUND ( 'NONE', #512, .T. ) ;
#538 = LINE ( 'NONE', #535, #479 ) ;
#539 = EDGE_CURVE ( 'NONE', #372, #303, #406, .T. ) ;
#540 = AXIS2_PLACEMENT_3D ( 'NONE', #313, #225, #505 ) ;
#541 = FACE_OUTER_BOUND ( 'NONE', #134, .T. ) ;
#542 = CARTESIAN_POINT ( 'NONE',  ( 0.000000000000000000, 0.1000000000000000056, 0.000000000000000000 ) ) ;
#543 = AXIS2_PLACEMENT_3D ( 'NONE', #448, #137, #268 ) ;
#544 = ORIENTED_EDGE ( 'NONE', *, *, #106, .T. ) ;
#545 = DIRECTION ( 'NONE',  ( 0.000000000000000000, 0.000000000000000000, -1.000000000000000000 ) ) ;
#546 = DIRECTION ( 'NONE',  ( -0.000000000000000000, -1.000000000000000000, -0.000000000000000000 ) ) ;
#547 = ORIENTED_EDGE ( 'NONE', *, *, #318, .T. ) ;
#548 = DIRECTION ( 'NONE',  ( 0.000000000000000000, -1.000000000000000000, 0.000000000000000000 ) ) ;
#549 = LINE ( 'NONE', #554, #138 ) ;
#550 = ORIENTED_EDGE ( 'NONE', *, *, #208, .F. ) ;
#551 = AXIS2_PLACEMENT_3D ( 'NONE', #182, #221, #321 ) ;
#552 = PLANE ( 'NONE',  #551 ) ;
#553 = EDGE_CURVE ( 'NONE', #430, #17, #317, .T. ) ;
#554 = CARTESIAN_POINT ( 'NONE',  ( -2.700000000000000178, 0.3999999999999999667, 1.039999999999999591 ) ) ;
#555 = VERTEX_POINT ( 'NONE', #264 ) ;
#556 = VERTEX_POINT ( 'NONE', #447 ) ;
#557 = VECTOR ( 'NONE', #338, 39.37007874015748143 ) ;
#558 = EDGE_CURVE ( 'NONE', #290, #110, #48, .T. ) ;
#559 = ORIENTED_EDGE ( 'NONE', *, *, #326, .T. ) ;
#560 = ORIENTED_EDGE ( 'NONE', *, *, #441, .F. ) ;
#561 = APPLICATION_CONTEXT ( 'automotive_design' ) ;
#562 = VECTOR ( 'NONE', #3, 39.37007874015748143 ) ;
#563 = LINE ( 'NONE', #369, #15 ) ;
#564 = LINE ( 'NONE', #32, #334 ) ;
#565 = APPLICATION_PROTOCOL_DEFINITION ( 'draft international standard', 'automotive_design', 1998, #561 ) ;
#566 = DIRECTION ( 'NONE',  ( -0.000000000000000000, -0.000000000000000000, -1.000000000000000000 ) ) ;
#567 = CARTESIAN_POINT ( 'NONE',  ( 0.000000000000000000, 0.1000000000000000056, 3.239999999999999325 ) ) ;
#568 = DIRECTION ( 'NONE',  ( 0.000000000000000000, 1.000000000000000000, 0.000000000000000000 ) ) ;
#569 = ADVANCED_FACE ( 'NONE', ( #147 ), #271, .F. ) ;
#570 = CARTESIAN_POINT ( 'NONE',  ( -2.700000000000000178, 0.3999999999999999667, 2.939999999999999947 ) ) ;
#571 = LINE ( 'NONE', #526, #475 ) ;
#572 = APPLICATION_CONTEXT ( 'automotive_design' ) ;
#573 = DIRECTION ( 'NONE',  ( -1.000000000000000000, 0.000000000000000000, 0.000000000000000000 ) ) ;
#574 = EDGE_LOOP ( 'NONE', ( #243, #274, #181, #366 ) ) ;
#575 = ADVANCED_FACE ( 'NONE', ( #497 ), #552, .F. ) ;
#576 = FACE_OUTER_BOUND ( 'NONE', #426, .T. ) ;
#577 = DIRECTION ( 'NONE',  ( 0.000000000000000000, -1.000000000000000000, 0.000000000000000000 ) ) ;
#578 =( NAMED_UNIT ( * ) PLANE_ANGLE_UNIT ( ) SI_UNIT ( $, .RADIAN. ) );
#579 = CARTESIAN_POINT ( 'NONE',  ( 0.000000000000000000, 0.3999999999999999667, 1.439999999999999947 ) ) ;
#580 = ORIENTED_EDGE ( 'NONE', *, *, #513, .T. ) ;
#581 = CARTESIAN_POINT ( 'NONE',  ( -2.700000000000000178, 0.3999999999999999667, 1.439999999999999947 ) ) ;
#582 = DIRECTION ( 'NONE',  ( 1.000000000000000000, -0.000000000000000000, -0.000000000000000000 ) ) ;
#583 = ORIENTED_EDGE ( 'NONE', *, *, #180, .F. ) ;
#584 = PRODUCT_DEFINITION ( 'UNKNOWN', '', #261, #241 ) ;
#585 = CARTESIAN_POINT ( 'NONE',  ( -2.700000000000000178, 0.3999999999999999667, 2.539999999999999591 ) ) ;
#586 = ADVANCED_FACE ( 'NONE', ( #541 ), #403, .F. ) ;
#587 = CARTESIAN_POINT ( 'NONE',  ( 0.000000000000000000, 0.3999999999999999667, 1.039999999999999591 ) ) ;
#588 = ORIENTED_EDGE ( 'NONE', *, *, #305, .T. ) ;
#589 = AXIS2_PLACEMENT_3D ( 'NONE', #95, #103, #545 ) ;
ENDSEC;
END-ISO-10303-21;
